<?xml version="1.0" encoding="UTF-8"?>
<svg width="1440px" height="720px" viewBox="0 0 1440 720" version="1.1" xmlns="http://www.w3.org/2000/svg" xmlns:xlink="http://www.w3.org/1999/xlink">
    <!-- Generator: Sketch 61.2 (89653) - https://sketch.com -->
    <title>BLACKEVILBOAR</title>
    <desc>Created with Sketch.</desc>
    <g id="BLACKEVILBOAR" stroke="none" stroke-width="1" fill="none" fill-rule="evenodd">
        <g id="Group" transform="translate(7.000000, 168.000000)" fill="#333333" fill-rule="nonzero">
            <path d="M380.7,23.67 C433.07,0.48 476.05,-2.72 519.42,1.68 C564.4,6.28 606.97,18.47 648.35,32.86 C698.32,50.45 748.49,68.04 796.66,89.03 C929.59,146.6 1061.71,205.77 1184.84,279.12 C1225.62,303.31 1263.8,330.89 1301.78,358.68 C1317.97,370.47 1331.76,385.66 1344.15,401.25 C1352.15,411.05 1357.34,423.84 1360.34,436.23 C1364.74,454.22 1355.54,463.42 1335.76,461.02 C1313.17,458.42 1290.78,454.22 1268.99,449.23 C1062.51,402.85 853.43,364.87 643.35,330.49 C516.82,309.91 390.1,290.72 263.57,270.53 C252.38,268.73 241.18,266.13 231.19,261.93 C214.6,254.94 208.2,241.55 215.6,224.96 C225.19,202.97 235.98,181.18 248.78,160.39 C271.16,124.41 295.95,89.83 327.93,59.85 C346.72,42.86 367.51,28.87 380.7,23.67 Z" id="Path"></path>
            <path d="M625.76,567.36 C614.77,569.56 593.38,574.36 571.99,578.16 C482.44,593.55 392.5,606.94 303.15,623.93 C233.79,637.12 166.23,658.31 99.46,681.9 C82.67,687.89 66.68,695.89 50.09,702.88 C45.69,704.88 41.3,707.08 36.9,708.48 C26.5,711.88 15.11,716.48 6.12,709.28 C-2.68,702.28 1.92,691.89 4.12,682.89 C17.11,626.73 32.7,571.16 58.69,517.99 C70.68,493.4 83.87,469.02 98.86,445.83 C123.85,407.65 161.03,385.46 207.8,382.47 C243.58,380.27 279.76,379.47 315.14,381.87 C397.69,387.46 479.85,395.86 559.8,413.25 C585.59,418.85 610.77,426.84 634.96,436.44 C662.34,447.43 680.53,466.62 682.13,496.8 C684.13,531.58 671.74,549.97 625.76,567.36 Z" id="Path"></path>
            <path d="M772.08,441.63 C781.07,440.63 787.27,439.03 793.27,439.43 C821.45,441.03 849.83,441.83 877.62,445.43 C971.96,457.62 1064.71,475.01 1156.66,495.6 C1181.04,501 1205.03,508.99 1227.82,518.19 C1255.6,529.38 1259.8,547.97 1242.81,573.16 C1235.01,584.75 1226.42,595.94 1217.22,606.34 C1202.83,622.73 1184.64,633.12 1161.86,632.52 C1145.06,632.12 1127.87,632.52 1111.48,629.92 C1004.14,612.33 897.01,594.35 790.07,575.96 C777.67,573.76 765.68,569.96 754.29,565.16 C737.3,557.97 729.5,544.97 730.5,526.38 C731.9,503.8 736.7,482.21 751.09,463.02 C757.49,454.82 765.88,447.83 772.08,441.63 Z" id="Path"></path>
        </g>
    </g>
</svg>