<?xml version="1.0" encoding="UTF-8"?>
<svg width="1440px" height="720px" viewBox="0 0 1440 720" version="1.1" xmlns="http://www.w3.org/2000/svg" xmlns:xlink="http://www.w3.org/1999/xlink">
    <!-- Generator: Sketch 61.2 (89653) - https://sketch.com -->
    <title>BLACKEVILBOAR_path</title>
    <desc>Created with Sketch.</desc>
    <g id="BLACKEVILBOAR_path" stroke="none" stroke-width="1" fill="none" fill-rule="evenodd">
        <path d="M334.93,227.85 C353.72,210.86 374.51,196.87 387.7,191.67 C440.07,168.48 483.05,165.28 526.42,169.68 C571.4,174.28 613.97,186.47 655.35,200.86 C705.32,218.45 755.49,236.04 803.66,257.03 C936.59,314.6 1068.71,373.77 1191.84,447.12 C1232.62,471.31 1270.8,498.89 1308.78,526.68 C1324.97,538.47 1338.76,553.66 1351.15,569.25 C1359.15,579.05 1364.34,591.84 1367.34,604.23 C1371.74,622.22 1362.54,631.42 1342.76,629.02 C1320.17,626.42 1297.78,622.22 1275.99,617.23 C1069.51,570.85 860.43,532.87 650.35,498.49 C523.82,477.91 397.1,458.72 270.57,438.53 C259.38,436.73 248.18,434.13 238.19,429.93 C221.6,422.94 215.2,409.55 222.6,392.96 C232.19,370.97 242.98,349.18 255.78,328.39 C277.566393,293.364333 301.636636,259.665384 332.400375,230.245216" id="Path" fill="#D8D8D8" fill-rule="nonzero"></path>
    </g>
</svg>