<?xml version="1.0" encoding="UTF-8"?>
<svg width="1440px" height="720px" viewBox="0 0 1440 720" version="1.1" xmlns="http://www.w3.org/2000/svg" xmlns:xlink="http://www.w3.org/1999/xlink">
    <!-- Generator: Sketch 61.2 (89653) - https://sketch.com -->
    <title>BLACK_GARLIC_path</title>
    <desc>Created with Sketch.</desc>
    <g id="Page-1" stroke="none" stroke-width="1" fill="none" fill-rule="evenodd">
        <g id="BLACK_GARLIC_path" fill="#D8D8D8" fill-rule="nonzero">
            <path d="M-178.766387,618.691861 L-39.57,442.77 C4.96,392.76 59.58,356.14 125.17,338.81 C137.01,335.74 141.62,330.26 145.13,319.3 C153.91,292.76 162.02,265.35 174.74,240.78 C201.72,188.37 245.16,150.21 293.64,118.19 C346.94,83.32 404.63,59.42 467.8,48.01 C551.82,32.88 631.23,46.92 707.56,83.32 C770.3,113.15 824.7,154.16 869.01,207.89 C874.93,215.12 879.76,217.98 889.63,215.56 C980.88,191.88 1068.4,206.13 1150.88,248.02 C1280.3,313.59 1355.98,419.74 1377.7,563.61 C1390.64,649.14 1373.53,729.84 1337.99,807.48 C1332.07,820.63 1320.88,833.35 1320.66,846.29 C1320.66,859.23 1331.63,872.17 1337.33,885.33" id="Path"></path>
        </g>
    </g>
</svg>