<?xml version="1.0" encoding="UTF-8"?>
<svg width="1440px" height="720px" viewBox="0 0 1440 720" version="1.1" xmlns="http://www.w3.org/2000/svg" xmlns:xlink="http://www.w3.org/1999/xlink">
    <!-- Generator: Sketch 61.2 (89653) - https://sketch.com -->
    <title>BLACK_GARLIC Copy</title>
    <desc>Created with Sketch.</desc>
    <g id="Page-1" stroke="none" stroke-width="1" fill="none" fill-rule="evenodd">
        <g id="BLACK_GARLIC-Copy" fill="#333333" fill-rule="nonzero">
            <path d="M-174.29,889.54 C-193.16,746.99 -155.43,620.45 -59.57,512.77 C-15.04,462.76 39.58,426.14 105.17,408.81 C117.01,405.74 121.62,400.26 125.13,389.3 C133.91,362.76 142.02,335.35 154.74,310.78 C181.72,258.37 225.16,220.21 273.64,188.19 C326.94,153.32 384.63,129.42 447.8,118.01 C531.82,102.88 611.23,116.92 687.56,153.32 C750.3,183.15 804.7,224.16 849.01,277.89 C854.93,285.12 859.76,287.98 869.63,285.56 C960.88,261.88 1048.4,276.13 1130.88,318.02 C1260.3,383.59 1335.98,489.74 1357.7,633.61 C1370.64,719.14 1353.53,799.84 1317.99,877.48 C1312.07,890.63 1300.88,903.35 1300.66,916.29 C1300.66,929.23 1311.63,942.17 1317.33,955.33" id="Path"></path>
        </g>
    </g>
</svg>