<?xml version="1.0" encoding="UTF-8"?>
<svg width="1440px" height="720px" viewBox="0 0 1440 720" version="1.1" xmlns="http://www.w3.org/2000/svg" xmlns:xlink="http://www.w3.org/1999/xlink">
    <!-- Generator: Sketch 61.2 (89653) - https://sketch.com -->
    <title>BLACK_GARLIC</title>
    <desc>Created with Sketch.</desc>
    <g id="BLACK_GARLIC" fill="#333333" fill-rule="nonzero">
        <g id="Group" transform="translate(-179.000000, 112.000000)">
            <path d="M1033.49,1537 C954.74,1535.46 880.82,1518.58 812.38,1479.76 C786.5,1465.07 763.46,1446.86 743.5,1424.93 C735.61,1416.38 728.37,1414.41 716.52,1417.48 C659.71,1431.95 601.58,1436.78 543.23,1433.93 C437.28,1428.44 339.67,1398.84 258.5,1326.68 C183.48,1260.01 132.16,1179.09 113.51,1079.52 C109.12,1056.06 104.96,1032.15 111.1,1008.25 C114.17,995.97 110.44,987.2 101.01,977.77 C46.17,922.06 14.8,854.29 4.71,777.54 C-14.16,634.99 23.57,508.45 119.43,400.77 C163.96,350.76 218.58,314.14 284.17,296.81 C296.01,293.74 300.62,288.26 304.13,277.3 C312.91,250.76 321.02,223.35 333.74,198.78 C360.72,146.37 404.16,108.21 452.64,76.19 C505.94,41.32 563.63,17.42 626.8,6.01 C710.82,-9.12 790.23,4.92 866.56,41.32 C929.3,71.15 983.7,112.16 1028.01,165.89 C1033.93,173.12 1038.76,175.98 1048.63,173.56 C1139.88,149.88 1227.4,164.13 1309.88,206.02 C1439.3,271.59 1514.98,377.74 1536.7,521.61 C1549.64,607.14 1532.53,687.84 1496.99,765.48 C1491.07,778.63 1479.88,791.35 1479.66,804.29 C1479.66,817.23 1490.63,830.17 1496.33,843.33 C1521.12,899.03 1534.06,957.15 1537.13,1018.12 C1541.52,1103.65 1525.07,1184.35 1485.37,1260.01 C1408.59,1405.63 1287.95,1493.8 1126.94,1526.25 C1096.45,1531.74 1064.86,1533.27 1033.49,1537 Z" id="Path"></path>
        </g>
    </g>
</svg>