<?xml version="1.0" encoding="UTF-8"?>
<svg width="1440px" height="720px" viewBox="0 0 1440 720" version="1.1" xmlns="http://www.w3.org/2000/svg" xmlns:xlink="http://www.w3.org/1999/xlink">
    <!-- Generator: Sketch 61.2 (89653) - https://sketch.com -->
    <title>CHERRY_TOMATO</title>
    <desc>Created with Sketch.</desc>
    <g id="CHERRY_TOMATO" stroke="none" stroke-width="1" fill="none" fill-rule="evenodd">
        <g id="Group" transform="translate(199.000000, 117.000000)" fill="#333333" fill-rule="nonzero">
            <path d="M527.94,0 C660.12,2.59 784.9,33.09 903.22,90.78 C974.94,125.72 1041.49,168.61 1101.02,222.04 C1170.9,284.53 1228.58,356.26 1263.33,444.45 C1289.03,509.89 1301.05,577.74 1294.02,648 C1286.81,720.65 1261.85,787.58 1223.03,849.33 C1170.35,933.26 1098.06,995.01 1009.88,1039.2 C940,1074.32 865.69,1096.32 789.15,1108.34 C681.01,1125.35 575.45,1108.9 474.33,1068.96 C307.95,1003.33 175.4,896.1 82.6,742.28 C36.75,666.3 8.28,583.84 1.63,494.92 C-4.1,419.12 4.77,345.35 36.94,275.28 C70.4,202.44 120.68,144.02 186.31,98.54 C259.33,48.07 341.04,20.34 428.48,8.69 C461.57,4.25 494.85,2.77 527.94,0 Z" id="Path"></path>
        </g>
    </g>
</svg>