<?xml version="1.0" encoding="UTF-8"?>
<svg width="1440px" height="720px" viewBox="0 0 1440 720" version="1.1" xmlns="http://www.w3.org/2000/svg" xmlns:xlink="http://www.w3.org/1999/xlink">
    <!-- Generator: Sketch 61.2 (89653) - https://sketch.com -->
    <title>CLAMS</title>
    <desc>Created with Sketch.</desc>
    <g id="CLAMS" stroke="none" stroke-width="1" fill="none" fill-rule="evenodd">
        <g id="Group" transform="translate(57.000000, 52.000000)" fill="#333333" fill-rule="nonzero">
            <path d="M729.32,516.87 C732.91,495.67 736.07,476.6 739.6,457.51 C754.88,374.2 774.72,292.21 803.33,212.54 C820.4,165.12 841.26,119.56 872.72,79.81 C903.2,41.05 940.12,11.39 990.56,2.55 C1026.47,-3.69 1060.57,1.73 1092.84,18.81 C1125.57,36.08 1152.48,60.39 1176.29,88.47 C1179.59,92.25 1182.74,95.97 1185.82,99.84 C1203.78,122.64 1222.6,144.75 1239.36,168.26 C1253.71,188.39 1265.45,210.37 1279.52,230.72 C1300.14,260.76 1312.54,294.44 1325.45,328.17 C1341.9,371.13 1358.78,413.93 1375.45,456.82 C1386.7,485.88 1393.28,516.25 1399.49,546.63 C1408.39,590.15 1408.49,633.83 1403.93,677.57 C1395.18,761.84 1339.5,820.35 1259.63,842.06 C1236.11,848.48 1211.82,852.61 1187.49,852.44 C1144.31,852.22 1101.77,846.95 1059.8,836.42 C970.8,814.34 888.56,777.1 812.75,725.46 C810.28,723.82 807.95,722.24 805.48,720.61 C804.8,720.13 803.93,720.09 801.71,719.46 C799.73,723.92 797.6,728.67 795.78,733.56 C769.16,798.8 734.47,859.38 691.26,915.08 C651.97,965.59 607.59,1011.16 556.06,1049.61 C515.23,1080.02 471.08,1104.31 422.23,1119.2 C356.84,1139.18 292.42,1137.86 229.94,1107.84 C182.26,1084.96 146.18,1049.26 117.46,1005.46 C89.59,962.92 69.22,916.78 52.91,868.71 C34.15,812.96 19.85,755.99 12.05,697.65 C8.73,673.54 6.57,649.25 4.05,624.97 C2.66,611.7 1,598.67 0.85,585.42 C0.48,528.79 2.07,472.14 15.65,416.57 C24.65,379.63 38.48,344.65 61.3,313.87 C96.35,266.46 143.6,239.62 201.68,230.81 C255.93,222.6 308.05,232.33 359.12,249.6 C412.85,267.7 462.38,294.43 509.55,325.63 C566.53,363.18 618.13,407.22 667.44,453.98 C687.9,473.98 707.46,494.82 729.32,516.87 Z" id="Path"></path>
        </g>
    </g>
</svg>