<?xml version="1.0" encoding="UTF-8"?>
<svg width="1440px" height="720px" viewBox="0 0 1440 720" version="1.1" xmlns="http://www.w3.org/2000/svg" xmlns:xlink="http://www.w3.org/1999/xlink">
    <!-- Generator: Sketch 61.2 (89653) - https://sketch.com -->
    <title>CLAMS_path</title>
    <desc>Created with Sketch.</desc>
    <g id="CLAMS_path" stroke="none" stroke-width="1" fill="none" fill-rule="evenodd">
        <path d="M109.91,920.71 C91.15,864.96 76.85,807.99 69.05,749.65 C65.73,725.54 63.57,701.25 61.05,676.97 C59.66,663.7 58,650.67 57.85,637.42 C57.48,580.79 59.07,524.14 72.65,468.57 C81.65,431.63 95.48,396.65 118.3,365.87 C153.35,318.46 200.6,291.62 258.68,282.81 C312.93,274.6 365.05,284.33 416.12,301.6 C469.85,319.7 519.38,346.43 566.55,377.63 C623.53,415.18 675.13,459.22 724.44,505.98 C744.9,525.98 764.46,546.82 786.32,568.87 C789.91,547.67 793.07,528.6 796.6,509.51 C811.88,426.2 831.72,344.21 860.33,264.54 C877.4,217.12 898.26,171.56 929.72,131.81 C960.2,93.05 997.12,63.39 1047.56,54.55 C1083.47,48.31 1117.57,53.73 1149.84,70.81 C1182.57,88.08 1209.48,112.39 1233.29,140.47 C1236.59,144.25 1239.74,147.97 1242.82,151.84 C1260.78,174.64 1279.6,196.75 1296.36,220.26 C1310.71,240.39 1322.45,262.37 1336.52,282.72 C1357.14,312.76 1369.54,346.44 1382.45,380.17 C1398.9,423.13 1415.78,465.93 1432.45,508.82 C1443.7,537.88 1450.28,568.25 1456.49,598.63 C1465.39,642.15 1465.49,685.83 1460.93,729.57" id="Path" fill="#D8D8D8" fill-rule="nonzero"></path>
    </g>
</svg>