<?xml version="1.0" encoding="UTF-8"?>
<svg width="1440px" height="720px" viewBox="0 0 1440 720" version="1.1" xmlns="http://www.w3.org/2000/svg" xmlns:xlink="http://www.w3.org/1999/xlink">
    <!-- Generator: Sketch 61.2 (89653) - https://sketch.com -->
    <title>CORIANDER</title>
    <desc>Created with Sketch.</desc>
    <g id="CORIANDER" stroke="none" stroke-width="1" fill="none" fill-rule="evenodd">
        <g id="Group" transform="translate(1.000000, 43.000000)" fill="#333333" fill-rule="nonzero">
            <path d="M1830.4,1102.5 C1797.01,1217.59 1744.18,1318.8 1660.36,1402.11 C1617.78,1444.45 1569.52,1478.17 1511.13,1496.18 C1483.51,1504.76 1455.46,1508.56 1426.69,1505.28 C1375.34,1499.1 1339.44,1471.7 1317.82,1425.1 C1303.92,1394.68 1298.23,1362.06 1292.21,1329.53 C1287.62,1306.08 1281.88,1282.77 1275.72,1259.75 C1273.55,1251.03 1268.97,1242.79 1264.92,1234.59 C1242.88,1191.47 1202.81,1180.07 1159.38,1197.12 C1130.46,1208.41 1107.29,1227.3 1086.6,1249.74 C1055.18,1283.86 1030.29,1322.81 1004.4,1361.19 C973.64,1406.61 940.91,1450.37 899.99,1487.53 C824.63,1555.73 735.44,1588.76 634.57,1588.9103 C548.4,1589.01 469.3,1564.4 399.59,1512.43 C365.62,1487.22 338.1,1456.4 318.96,1418.42 C275.39,1330.88 303.11,1229.31 369.37,1168.11 C418.23,1122.74 476.66,1095.42 541.07,1080.35 C607.7,1064.7 675.53,1061.74 743.54,1062.61 C817.14,1063.51 890.56,1065.64 964.1,1065.71 C988.62,1065.73 1013.12,1062.55 1037.17,1058.3 C1069.15,1052.78 1090.35,1025.29 1091.58,992.68 C1092.58,969.25 1085.68,949.806 1069.46,932.179 C1042.67,902.848 1009.74,882.768 974.18,866.773 C909.22,837.53 840.66,825.14 769.84,822.648 C705.22,820.528 641.15,828.062 577.77,841.326 C526.43,852.209 475.48,865.185 424.22,876.384 C366.77,889.073 308.88,898.84 249.64,894.768 C176.09,889.629 110.42,865.309 57.76,811.978 C29.48,783.386 9.67,749.818 2.46,709.663 C-3.75,675.154 1.98,643.534 27.73,617.873 C44.32,601.594 65.16,592.294 87.63,586.609 C122.93,577.659 159.1,576.416 194.89,580.012 C247.01,585.313 298.9,592.875 350.56,600.838 C422.62,611.783 493.92,626.82 566.96,631.928 C607.44,634.771 647.9,636.268 687.64,625.62 C699,622.577 710.07,617.243 720.44,611.761 C729.62,606.934 732.84,598.127 728.87,588.372 C725.45,579.994 722.48,570.817 716.78,564.061 C700.54,545.087 684.57,525.198 665.56,509.162 C616.23,467.617 565.66,427.756 515.09,387.895 C489.61,367.849 463.12,349.087 436.85,329.925 C405.54,307.046 379.8,279.124 360.62,245.388 C346.5,220.438 339.55,193.229 343.54,164.608 C348.19,130.233 369.34,106.986 398.97,90.765 C436.52,70.055 475.02,74.951 513.19,88.724 C557.54,104.73 584.82,139.677 609.88,177.076 C647.21,232.487 692.88,279.915 747.89,318.078 C776.5,337.794 807.45,327.135 822.58,311.078 C837.72,295.022 839.49,277.646 828.86,258.182 C803.95,213.136 782.22,166.731 771.62,115.821 C767.22,94.351 765,72.804 769.19,51.2292 C776.4,13.8017 806.92,-10.4334 849.52,5.3641 C885.75,18.8137 911.11,45.9902 934.84,74.62 C979.71,128.517 1014.26,188.727 1044.74,251.381 C1068.41,299.972 1091.53,349.046 1115.4,397.752 C1123.52,414.17 1131.84,430.703 1142.22,445.498 C1151.67,458.685 1163.44,471.081 1176.17,481.362 C1186.13,489.511 1198.95,486.246 1209.97,480.081 C1220.68,474 1219.69,464.63 1217.9,454.799 C1211.64,421.321 1204.66,387.697 1199.65,353.881 C1195.9,328.519 1197.84,302.981 1203.71,277.576 C1215.11,227.366 1267.16,197.698 1321.82,226.322 C1357.94,245.04 1381.57,275.216 1398.77,311.006 C1419.65,354.257 1430.01,400.497 1433.27,447.966 C1437.4,510.074 1439.16,572.142 1442.14,634.388 C1444.89,691.964 1450.65,749.411 1470.86,804.001 C1485.8,844.62 1507.08,881.171 1539.31,911.242 C1578.98,948.277 1626.93,966.36 1679.57,971.69 C1704.96,974.35 1730.77,973.52 1756.28,974.12 C1766.51,974.43 1776.79,973.7 1786.98,974.52 C1821.6,976.91 1838.53,994.68 1839.75,1029.51 C1840.06,1036.36 1839.74,1043.37 1838.63,1049.92 C1836.51,1067.9 1833.22,1086.53 1830.4,1102.5 Z" id="Path"></path>
        </g>
    </g>
</svg>