<?xml version="1.0" encoding="UTF-8"?>
<svg width="1440px" height="720px" viewBox="0 0 1440 720" version="1.1" xmlns="http://www.w3.org/2000/svg" xmlns:xlink="http://www.w3.org/1999/xlink">
    <!-- Generator: Sketch 61.2 (89653) - https://sketch.com -->
    <title>CORIANDER_path</title>
    <desc>Created with Sketch.</desc>
    <g id="CORIANDER_path" stroke="none" stroke-width="1" fill="none" fill-rule="evenodd">
        <path d="M58.76,854.978 C30.48,826.386 10.67,792.818 3.46,752.663 C-2.75,718.154 2.98,686.534 28.73,660.873 C45.32,644.594 66.16,635.294 88.63,629.609 C123.93,620.659 160.1,619.416 195.89,623.012 C248.01,628.313 299.9,635.875 351.56,643.838 C423.62,654.783 494.92,669.82 567.96,674.928 C608.44,677.771 648.9,679.268 688.64,668.62 C700,665.577 711.07,660.243 721.44,654.761 C730.62,649.934 733.84,641.127 729.87,631.372 C726.45,622.994 723.48,613.817 717.78,607.061 C701.54,588.087 685.57,568.198 666.56,552.162 C617.23,510.617 566.66,470.756 516.09,430.895 C490.61,410.849 464.12,392.087 437.85,372.925 C406.54,350.046 380.8,322.124 361.62,288.388 C347.5,263.438 340.55,236.229 344.54,207.608 C349.19,173.233 370.34,149.986 399.97,133.765 C437.52,113.055 476.02,117.951 514.19,131.724 C558.54,147.73 585.82,182.677 610.88,220.076 C648.21,275.487 693.88,322.915 748.89,361.078 C777.5,380.794 808.45,370.135 823.58,354.078 C838.72,338.022 840.49,320.646 829.86,301.182 C804.95,256.136 783.22,209.731 772.62,158.821 C768.22,137.351 766,115.804 770.19,94.2292 C777.4,56.8017 807.92,32.5666 850.52,48.3641 C886.75,61.8137 912.11,88.9902 935.84,117.62 C980.71,171.517 1015.26,231.727 1045.74,294.381 C1069.41,342.972 1092.53,392.046 1116.4,440.752 C1124.52,457.17 1132.84,473.703 1143.22,488.498 C1152.67,501.685 1164.44,514.081 1177.17,524.362 C1187.13,532.511 1199.95,529.246 1210.97,523.081 C1221.68,517 1220.69,507.63 1218.9,497.799 C1212.64,464.321 1205.66,430.697 1200.65,396.881 C1196.9,371.519 1198.84,345.981 1204.71,320.576 C1216.11,270.366 1268.16,240.698 1322.82,269.322 C1358.94,288.04 1382.57,318.216 1399.77,354.006 C1420.65,397.257 1431.01,443.497 1434.27,490.966 C1438.4,553.074 1440.16,615.142 1443.14,677.388 C1445.89,734.964 1451.65,792.411 1471.86,847.001" id="Path" fill="#D8D8D8" fill-rule="nonzero"></path>
    </g>
</svg>