<?xml version="1.0" encoding="UTF-8"?>
<svg width="1440px" height="720px" viewBox="0 0 1440 720" version="1.1" xmlns="http://www.w3.org/2000/svg" xmlns:xlink="http://www.w3.org/1999/xlink">
    <!-- Generator: Sketch 61.2 (89653) - https://sketch.com -->
    <title>DAHU_STRAWBERRY_path</title>
    <desc>Created with Sketch.</desc>
    <g id="DAHU_STRAWBERRY_path" stroke="none" stroke-width="1" fill="none" fill-rule="evenodd">
        <path d="M-217.113,521.87 C-124.102,350.91 24.5938,263.74 215.512,247.53 C305.463,239.88 390.825,263.43 470.68,305.95 C537.379,341.42 592.452,390.36 643.241,445.1 C648.136,450.3 652.419,455.81 657.621,460.7 C664.046,467.12 671.695,471.1 684.239,461.31 C679.038,436.54 675.366,409.63 667.411,383.94 C656.703,349.38 642.629,316.04 630.39,281.79 C623.965,263.43 618.152,244.78 613.257,226.12 C602.854,184.83 612.033,147.22 645.382,120.91 C681.18,92.47 722.79,88.8 765.318,107.76 C796.526,121.83 817.943,146.3 835.688,173.82 C860.777,212.66 878.522,255.18 893.82,298.61 C916.155,361.92 937.572,425.53 962.355,487.92 C974.593,518.81 993.868,546.95 1010.39,576.31 C1022.93,598.33 1043.74,604.45 1066.99,602.92 C1079.23,602.31 1091.47,598.64 1103.1,594.97 C1234.35,553.98 1358.57,571.42 1475.75,640.84" id="Path" fill="#D8D8D8" fill-rule="nonzero"></path>
    </g>
</svg>