<?xml version="1.0" encoding="UTF-8"?>
<svg width="1440px" height="720px" viewBox="0 0 1440 720" version="1.1" xmlns="http://www.w3.org/2000/svg" xmlns:xlink="http://www.w3.org/1999/xlink">
    <!-- Generator: Sketch 61.2 (89653) - https://sketch.com -->
    <title>DAHU_STRAWBERRY</title>
    <desc>Created with Sketch.</desc>
    <g id="DAHU_STRAWBERRY" stroke="none" stroke-width="1" fill="none" fill-rule="evenodd">
        <g id="Group" transform="translate(-261.000000, 96.000000)" fill="#333333" fill-rule="nonzero">
            <path d="M945.239,365.31 C940.038,340.54 936.366,313.63 928.411,287.94 C917.703,253.38 903.629,220.04 891.39,185.79 C884.965,167.43 879.152,148.78 874.257,130.12 C863.854,88.83 873.033,51.22 906.382,24.91 C942.18,-3.53 983.79,-7.2 1026.318,11.76 C1057.526,25.83 1078.943,50.3 1096.688,77.82 C1121.777,116.66 1139.522,159.18 1154.82,202.61 C1177.155,265.92 1198.572,329.53 1223.355,391.92 C1235.593,422.81 1254.868,450.95 1271.39,480.31 C1283.93,502.33 1304.74,508.45 1327.99,506.92 C1340.23,506.31 1352.47,502.64 1364.1,498.97 C1495.35,457.98 1619.57,475.42 1736.75,544.84 C1830.99,600.5 1896.16,681.86 1931.34,784.93 C1985.19,943.05 1967.44,1095.35 1883.31,1239.1 C1844.45,1305.47 1793.66,1361.74 1727.88,1403.03 C1696.98,1422.3 1663.93,1436.67 1627.22,1441.87 C1541.24,1454.41 1473.93,1410.98 1448.85,1327.79 C1432.94,1274.88 1428.65,1220.14 1424.06,1165.7 C1418.86,1100.55 1413.05,1035.41 1397.44,971.49 C1387.04,929.28 1373.27,888.3 1351.25,850.68 C1299.84,762.6 1210.199,731.71 1127.59,759.54 C1097.606,769.63 1067.928,781.87 1037.944,792.27 C1016.221,799.61 994.192,806.03 971.857,810.92 C945.239,817.04 923.21,806.03 905.465,786.76 C895.368,775.75 885.883,763.52 878.54,750.67 C826.221,662.59 746.672,632.92 648.46,641.79 C577.172,648.22 511.085,673.91 445.304,699.9 C387.784,722.53 330.2637,745.47 272.1317,766.58 C235.4168,779.73 196.5602,785.54 157.398,783.09 C72.953,778.2 18.187,727.12 4.113,641.18 C-8.126,565.03 7.478,492.54 43.887,425.87 C136.898,254.91 285.5938,167.74 476.512,151.53 C566.463,143.88 651.825,167.43 731.68,209.95 C798.379,245.42 853.452,294.36 904.241,349.1 C909.136,354.3 913.419,359.81 918.621,364.7 C925.046,371.12 932.695,375.1 945.239,365.31 Z" id="Path"></path>
        </g>
    </g>
</svg>