<?xml version="1.0" encoding="UTF-8"?>
<svg width="1440px" height="720px" viewBox="0 0 1440 720" version="1.1" xmlns="http://www.w3.org/2000/svg" xmlns:xlink="http://www.w3.org/1999/xlink">
    <!-- Generator: Sketch 61.2 (89653) - https://sketch.com -->
    <title>DAIKON_path</title>
    <desc>Created with Sketch.</desc>
    <g id="DAIKON_path" stroke="none" stroke-width="1" fill="none" fill-rule="evenodd">
        <path d="M140.26,798.88 C122.68,757.06 106.5,714.33 92.49,671.24 C86.36,652.21 84.99,631.04 85.1117275,610.96 C85.52,551.59 90.45,492.79 113.2,436.53 C121.66,415.48 127,393.17 133.1,371.4 C139.17,349.41 137.8,328.24 129.64,306.45 C119.87,280.46 127.13,258.94 147.92,242.26 C155.77,236.02 164.32,232.56 174.51,233.5 C189.46,234.97 204.2,236.48 219.09,237.51 C238.74,239.08 256.64,235.59 272.71,222.6 C291.33,207.62 310.17,192.61 331,181.48 C359.99,165.86 391.56,156.25 425.33,155.64 C441.32,155.37 457.54,153.73 473.6,152.56 C512.6,149.95 549.3,162.66 586.92,168.97 C714.58,189.85 834.38,233.91 948.49,294.32 C1009.45,326.54 1067.21,363.54 1122.61,404.95 C1187.45,453.45 1248.91,505.64 1303.07,565.99 C1375.6,646.63 1433.79,735.94 1465.77,840.18" id="Path" fill="#D8D8D8" fill-rule="nonzero"></path>
    </g>
</svg>