<?xml version="1.0" encoding="UTF-8"?>
<svg width="1440px" height="720px" viewBox="0 0 1440 720" version="1.1" xmlns="http://www.w3.org/2000/svg" xmlns:xlink="http://www.w3.org/1999/xlink">
    <!-- Generator: Sketch 61.2 (89653) - https://sketch.com -->
    <title>DAIKON</title>
    <desc>Created with Sketch.</desc>
    <g id="DAIKON" stroke="none" stroke-width="1" fill="none" fill-rule="evenodd">
        <g id="Group" transform="translate(85.000000, 152.000000)" fill="#333333" fill-rule="nonzero">
            <path d="M1030.83,1295.86 C1015.53,1298.91 1000.55,1302.57 985.1,1304.75 C896.04,1316.99 808.47,1307.8 722.36,1283.64 C625.73,1256.6 537.1,1212.36 455.65,1153.98 C356.64,1082.75 272.64,996.27 200.7,898.15 C143.23,819.63 92.83,736.8 55.26,646.88 C37.68,605.06 21.5,562.33 7.49,519.24 C1.36,500.21 -0.01,479.04 0.129259426,458.96 C0.52,399.59 5.45,340.79 28.2,284.53 C36.66,263.48 42,241.17 48.1,219.4 C54.17,197.41 52.8,176.24 44.64,154.45 C34.87,128.46 42.13,106.94 62.92,90.26 C70.77,84.02 79.32,80.56 89.51,81.5 C104.46,82.97 119.2,84.48 134.09,85.51 C153.74,87.08 171.64,83.59 187.71,70.6 C206.33,55.62 225.17,40.61 246,29.48 C274.99,13.86 306.56,4.25 340.33,3.64 C356.32,3.37 372.54,1.73 388.6,0.56 C427.6,-2.05 464.3,10.66 501.92,16.97 C629.58,37.85 749.38,81.91 863.49,142.32 C924.45,174.54 982.21,211.54 1037.61,252.95 C1102.45,301.45 1163.91,353.64 1218.07,413.99 C1290.6,494.63 1348.79,583.94 1380.77,688.18 C1411.84,789.69 1416.51,891.89 1383.23,993.63 C1354.52,1081.66 1300.28,1151.96 1226.9,1207.91 C1170.88,1250.65 1107.34,1277.95 1039.42,1295.29 C1036.43,1296.02 1033.58,1296.28 1030.51,1296.58 C1030.94,1296.51 1030.87,1296.08 1030.83,1295.86 Z" id="Path"></path>
        </g>
    </g>
</svg>