<?xml version="1.0" encoding="UTF-8"?>
<svg width="1440px" height="720px" viewBox="0 0 1440 720" version="1.1" xmlns="http://www.w3.org/2000/svg" xmlns:xlink="http://www.w3.org/1999/xlink">
    <!-- Generator: Sketch 61.2 (89653) - https://sketch.com -->
    <title>EGG</title>
    <desc>Created with Sketch.</desc>
    <g id="EGG" stroke="none" stroke-width="1" fill="none" fill-rule="evenodd">
        <g id="Group" transform="translate(-296.000000, 68.000000)" fill="#333333" fill-rule="nonzero">
            <path d="M17.721,215.18 C46.913,149.69 99.392,91.86 179.412,56.28 C220.2435,38.13 265.5543,33.85 312.8743,36.86 C342.4492,38.75 372.2757,41.57 401.843,42.99 C456.484,45.65 509.372,42.19 559.693,26.24 C601.55,13.03 644.894,4.06 690.224,0.96 C777.812,-5.19 855.017,18.86 922.381,77.34 C960.256,110.06 998.366,142.78 1042.281,169.02 C1078.798,190.89 1117.601,207.99 1157.551,222.95 C1241.022,254.46 1327.76,268.66 1414.08,286.17 C1476.21,298.88 1538.09,311.11 1598.69,331.17 C1700.87,364.74 1778.43,425.19 1837.89,506.5 C1863.26,541.08 1882.76,577.41 1893.09,616.73 C1905.19,663.1 1896.62,703.2 1853.31,728.96 C1835.28,739.66 1813.42,746.63 1791.99,751.94 C1743.26,763.84 1691.74,764.21 1640.47,765.51 C1600.08,766.64 1559.67,767.06 1519.52,769.36 C1455.29,773 1398.92,794.49 1344.25,819.72 C1280.21,849.37 1216.657,880.19 1144.829,896.25 C1068.759,913.08 991.735,914.8 912.841,888.66 C873.154,875.35 837.373,855.13 804.591,830.36 C778.75,810.92 753.369,790.76 728.694,770.36 C661.128,714 581.173,688.04 495.5,666.5 C433.323,650.96 338.3865,680.38 276,666.5 C246.8249,660.12 250.4296,602.69 221.6849,593.7 C172.035,578.19 130.232,550.97 97.247,513.67 C54.394,465.43 20.931,413.25 6.733,353.9 C-4.167,308.45 0.102,265.59 17.721,215.18 Z M1039.426,342.84 C1027.062,338.31 1014.931,333.54 1002.567,329.01 C947.894,309.8 891.48,299.84 835.054,289.17 C771.281,277.2 707.378,271.86 644.082,274.77 C604.64,276.59 567.413,283.82 536.8,305.35 C506.419,326.65 504.595,345.36 530.376,375.68 C532.061,377.54 533.513,379.64 535.431,381.27 C567.615,412.9 608.057,429.03 652.122,435.41 C694.53,441.58 735.112,451.8 773.95,471.03 C792.534,480.18 808.778,490.79 822.027,506.18 C832.867,518.77 835.41,529.84 828.768,542.95 C820.293,559.64 822.921,575.91 837.824,591.27 C853.451,607.57 872.694,613.64 894.375,609.74 C908.751,607.15 918.568,600.37 922.123,586.36 C925.011,574.97 921.778,565.09 915.466,554.79 C906.973,541.21 906.908,537.2 918.817,528.26 C925.121,523.42 933.326,519.27 941.585,518.43 C953.853,517.05 967.101,517.78 979.895,519.7 C1008.094,524.21 1036.309,529.66 1064.527,535.35 C1112.903,545.21 1159.666,543.03 1205.617,534.48 C1217.634,532.16 1229.376,527.48 1239.444,521.64 C1256.533,511.43 1261.242,495.75 1253.847,476.96 C1250.885,469.21 1246.505,461.47 1241.196,454.7 C1227.672,436.96 1209.724,423.3 1188.994,412.99 C1182.084,409.56 1174.701,406.13 1168.02,402.22 C1126.972,377.83 1083.889,359.14 1039.426,342.84 Z" id="Shape"></path>
        </g>
    </g>
</svg>