<?xml version="1.0" encoding="UTF-8"?>
<svg width="1440px" height="720px" viewBox="0 0 1440 720" version="1.1" xmlns="http://www.w3.org/2000/svg" xmlns:xlink="http://www.w3.org/1999/xlink">
    <!-- Generator: Sketch 61.2 (89653) - https://sketch.com -->
    <title>EGG_path</title>
    <desc>Created with Sketch.</desc>
    <g id="EGG_path" stroke="none" stroke-width="1" fill="none" fill-rule="evenodd">
        <path d="M-116.588,124.28 C-75.7565,106.13 -30.4457,101.85 16.8743,104.86 C46.4492,106.75 76.2757,109.57 105.843,110.99 C160.484,113.65 213.372,110.19 263.693,94.24 C305.55,81.03 348.894,72.06 394.224,68.96 C481.812,62.81 559.017,86.86 626.381,145.34 C664.256,178.06 702.366,210.78 746.281,237.02 C782.798,258.89 821.601,275.99 861.551,290.95 C945.022,322.46 1031.76,336.66 1118.08,354.17 C1180.21,366.88 1242.09,379.11 1302.69,399.17 C1404.87,432.74 1482.43,493.19 1541.89,574.5" id="Path" fill="#D8D8D8" fill-rule="nonzero"></path>
    </g>
</svg>