<?xml version="1.0" encoding="UTF-8"?>
<svg width="1440px" height="720px" viewBox="0 0 1440 720" version="1.1" xmlns="http://www.w3.org/2000/svg" xmlns:xlink="http://www.w3.org/1999/xlink">
    <!-- Generator: Sketch 61.2 (89653) - https://sketch.com -->
    <title>FIG</title>
    <desc>Created with Sketch.</desc>
    <g id="FIG" stroke="none" stroke-width="1" fill="none" fill-rule="evenodd">
        <g id="Group" transform="translate(-231.000000, 100.000000)" fill="#333333" fill-rule="nonzero">
            <path d="M279.84,213.99 C340.28,205.4 411.72,194.86 483.24,184.85 C492.95,183.52 503.3,184.34 513.21,185.75 C538.88,189.96 552.16,207.72 550.26,233.8 C549.83,238.13 549.21,242.59 548.79,246.91 C544.95,282.97 560.94,301.72 597.4,303.27 C606.83,303.59 616.25,303.9 625.44,305.53 C638.31,307.47 648.71,313.72 656.16,325.2 C666.32,340.54 694.51,352.48 712.32,347.51 C734.88,341.52 754.09,346.78 772.88,359.26 C802.89,379.13 817.32,377.97 843.14,354.44 C858.46,340.56 875.71,333.97 896.57,336.65 C906.34,337.87 916.73,337.51 926.66,336.9 C939.66,336.15 951.05,331.06 958.65,319.71 C969.85,303.24 985.65,296.22 1005.33,295.98 C1012.26,296.03 1019.18,295.22 1025.96,294.22 C1036.06,292.62 1043.13,287.11 1045.97,276.77 C1049.95,261.9 1056.85,248.73 1069.25,238.91 C1075.17,234.2 1076.33,227.64 1074.78,220.08 C1072.06,206.73 1065.98,195.16 1055.13,186.63 C1042.21,176.39 1032.14,164.44 1035.98,146.5 C1039.83,128.56 1053.95,122.43 1069.87,117.63 C1207.85,76.39 1346.7,38.86 1487.75,8.99 C1503.05,5.78 1518.48,2.76 1533.93,0.59 C1554.99,-2.63 1570.49,9.26 1572.63,31.65 C1574.71,51.49 1576.02,71.87 1575.02,91.84 C1572.69,145.27 1566.88,198.25 1553.79,250.28 C1524.06,367.75 1468.77,471.73 1389.06,562.58 C1287.99,677.57 1164.03,758.21 1018.88,806.47 C921.24,838.78 821.14,854.39 718.38,850.58 C528.82,843.57 358.92,782.82 214.07,657.94 C115.04,572.67 45.26,467.52 4.4,343.29 C-3.39,319.39 1.46,299.6 21.22,282.61 C32.2,273.21 43.25,267.21 57.17,264.09 C128.05,249.06 198.32,232.73 279.84,213.99 Z" id="Path"></path>
        </g>
    </g>
</svg>