<?xml version="1.0" encoding="UTF-8"?>
<svg width="1440px" height="720px" viewBox="0 0 1440 720" version="1.1" xmlns="http://www.w3.org/2000/svg" xmlns:xlink="http://www.w3.org/1999/xlink">
    <!-- Generator: Sketch 61.2 (89653) - https://sketch.com -->
    <title>FIG_path</title>
    <desc>Created with Sketch.</desc>
    <g id="FIG_path" stroke="none" stroke-width="1" fill="none" fill-rule="evenodd">
        <path d="M-173.83,364.09 C-102.95,349.06 -32.68,332.73 48.84,313.99 C109.28,305.4 180.72,294.86 252.24,284.85 C261.95,283.52 272.3,284.34 282.21,285.75 C307.88,289.96 321.16,307.72 319.26,333.8 C318.83,338.13 318.21,342.59 317.79,346.91 C313.95,382.97 329.94,401.72 366.4,403.27 C375.83,403.59 385.25,403.9 394.44,405.53 C407.31,407.47 417.71,413.72 425.16,425.2 C435.32,440.54 463.51,452.48 481.32,447.51 C503.88,441.52 523.09,446.78 541.88,459.26 C571.89,479.13 586.32,477.97 612.14,454.44 C627.46,440.56 644.71,433.97 665.57,436.65 C675.34,437.87 685.73,437.51 695.66,436.9 C708.66,436.15 720.05,431.06 727.65,419.71 C738.85,403.24 754.65,396.22 774.33,395.98 C781.26,396.03 788.18,395.22 794.96,394.22 C805.06,392.62 812.13,387.11 814.97,376.77 C818.95,361.9 825.85,348.73 838.25,338.91 C844.17,334.2 845.33,327.64 843.78,320.08 C841.06,306.73 834.98,295.16 824.13,286.63 C811.21,276.39 801.14,264.44 804.98,246.5 C808.83,228.56 822.95,222.43 838.87,217.63 C976.85,176.39 1115.7,138.86 1256.75,108.99 C1272.05,105.78 1287.48,102.76 1302.93,100.59 C1323.99,97.37 1339.49,109.26 1341.63,131.65 C1343.71,151.49 1345.02,171.87 1344.02,191.84 C1341.69,245.27 1335.88,298.25 1322.79,350.28 C1293.06,467.75 1237.77,571.73 1158.06,662.58 C1056.99,777.57 933.03,858.21 787.88,906.47" id="Path" fill="#D8D8D8" fill-rule="nonzero"></path>
    </g>
</svg>