<?xml version="1.0" encoding="UTF-8"?>
<svg width="1440px" height="720px" viewBox="0 0 1440 720" version="1.1" xmlns="http://www.w3.org/2000/svg" xmlns:xlink="http://www.w3.org/1999/xlink">
    <!-- Generator: Sketch 61.2 (89653) - https://sketch.com -->
    <title>KYOHO_GRAPE</title>
    <desc>Created with Sketch.</desc>
    <g id="KYOHO_GRAPE" stroke="none" stroke-width="1" fill="none" fill-rule="evenodd">
        <g id="Group" transform="translate(-87.000000, 108.000000)" fill="#333333" fill-rule="nonzero">
            <path d="M503.17,1458.74 C431.23,1445.1 365.3,1418.14 304.05,1381 C154.49,1290.29 55.73,1161.46 16.37,989.88 C-16.56,846.39 3.69,707.81 65.53,575.48 C122.75,453.05 209.12,354.19 319.93,276.93 C483.87,162.68 666.16,114.56 865.22,130.73 C888.72,132.76 912.33,136.83 935.73,140.57 C971.38,146.29 1001.2,137.37 1025.76,110.17 C1049.24,83.88 1073.9,58.72 1098.28,33.5 C1104.8,26.65 1111.58,19.86 1119.28,14.14 C1145.59,-5.72 1176.47,-3.12 1195.94,19.92 C1216.31,44.04 1214.36,77.1 1191.16,99.71 C1178.86,111.57 1165.86,122.69 1153.76,134.88 C1146.51,142.43 1140.22,150.79 1134.96,159.67 C1120.52,183.17 1125.69,204.31 1149.41,220.26 C1172.44,235.46 1196.34,249.43 1218.1,266.36 C1396.88,406.37 1478.05,589.46 1457.52,815.81 C1445.22,952.49 1391.81,1073.5 1304.91,1178.3 C1138.89,1379.32 923.24,1477.44 663.32,1479.4 C608.6,1479.91 554.58,1473.64 503.17,1458.74 Z M592.42,754.08 C598.16,732.01 601.97,709.5 583.14,692.39 C563.08,674.41 539.32,678.39 515.76,686.47 C511.35,688.03 506.45,689.2 502.46,691.45 C464.04,713.67 430.69,741.42 407.05,779.52 C400.65,789.59 396.88,802 394.95,813.97 C389.05,851.6 402.43,869.75 440.78,873.8 C455.41,875.48 471.29,874.28 485.56,870.11 C543.92,852.83 575.54,810.23 592.42,754.08 Z M1039.59,972.12 C1046.87,934.82 1047.77,896.31 1031.3,859.23 C1007.62,806.02 952.22,798.28 915.93,843.54 C912.31,847.9 908.9,852.59 906.31,857.48 C882.27,904.73 872.79,953.95 887.79,1005.99 C890.32,1014.96 894.95,1023.56 899.38,1031.82 C923.82,1076.82 972.81,1076.14 1003.57,1043.45 C1022.37,1023.57 1031.82,999.2 1039.59,972.12 Z" id="Shape"></path>
        </g>
    </g>
</svg>