<?xml version="1.0" encoding="UTF-8"?>
<svg width="1440px" height="720px" viewBox="0 0 1440 720" version="1.1" xmlns="http://www.w3.org/2000/svg" xmlns:xlink="http://www.w3.org/1999/xlink">
    <!-- Generator: Sketch 61.2 (89653) - https://sketch.com -->
    <title>KYOHO_GRAPE_path</title>
    <desc>Created with Sketch.</desc>
    <g id="KYOHO_GRAPE_path" stroke="none" stroke-width="1" fill="none" fill-rule="evenodd">
        <path d="M-70.63,1097.88 C-103.56,954.39 -83.31,815.81 -21.47,683.48 C35.75,561.05 122.12,462.19 232.93,384.93 C396.87,270.68 579.16,222.56 778.22,238.73 C801.72,240.76 825.33,244.83 848.73,248.57 C884.38,254.29 914.2,245.37 938.76,218.17 C962.24,191.88 986.9,166.72 1011.28,141.5 C1017.8,134.65 1024.58,127.86 1032.28,122.14 C1058.59,102.28 1089.47,104.88 1108.94,127.92 C1129.31,152.04 1127.36,185.1 1104.16,207.71 C1091.86,219.57 1078.86,230.69 1066.76,242.88 C1059.51,250.43 1053.22,258.79 1047.96,267.67 C1033.52,291.17 1038.69,312.31 1062.41,328.26 C1085.44,343.46 1109.34,357.43 1131.1,374.36 C1309.88,514.37 1391.05,697.46 1370.52,923.81" id="Path" fill="#D8D8D8" fill-rule="nonzero"></path>
    </g>
</svg>