<?xml version="1.0" encoding="UTF-8"?>
<svg width="1440px" height="720px" viewBox="0 0 1440 720" version="1.1" xmlns="http://www.w3.org/2000/svg" xmlns:xlink="http://www.w3.org/1999/xlink">
    <!-- Generator: Sketch 61.2 (89653) - https://sketch.com -->
    <title>LONGAN</title>
    <desc>Created with Sketch.</desc>
    <g id="LONGAN" stroke="none" stroke-width="1" fill="none" fill-rule="evenodd">
        <g id="Group" transform="translate(29.000000, 190.000000)" fill="#333333" fill-rule="nonzero">
            <path d="M1383,706.388874 C1380.95532,868.205843 1328.02077,1006.39623 1224.41407,1124.35392 C1105.35866,1259.80683 954.487622,1335.94462 776.13643,1358.21384 C628.455472,1376.62786 488.044495,1350.94864 355.348407,1283.21271 C301.277922,1255.48749 252.205549,1220.94226 207.667449,1179.57703 C97.017957,1077.07802 28.8618837,951.845645 6.59756648,802.299005 C-10.450918,687.297592 5.91600575,576.386289 51.3533879,469.793376 C80.2061256,402.292361 119.973301,341.836792 169.727235,287.972002 C273.561119,175.697644 401.476816,106.605295 550.520896,75.4691233 C552.338391,75.0144562 554.155886,74.5597891 555.973382,74.3324556 C575.738643,72.9684543 585.053306,60.923565 589.14267,42.7406698 C593.686409,22.7410007 604.828033,8.87649573 625.274855,2.05838365 C646.176051,-4.98706198 675.937537,6.60410744 683.889078,28.422445 C693.203742,54.5591728 712.514629,60.923565 737.060282,62.2866191 C898.599641,72.0600673 1042.41842,127.969912 1163.97289,234.790159 C1286.89047,342.746126 1359.37256,478.65749 1379.13782,641.842249 C1382.09125,665.024588 1382.09125,687.979593 1383,706.388874 Z M569.604596,1161.17248 C584.371745,1160.03582 599.138895,1159.58115 613.688323,1157.76248 C700.246536,1146.85047 775.909243,1112.75991 836.795336,1049.35279 C881.560623,1002.75889 904.279314,946.616974 903.82494,882.300523 C903.597754,813.437402 875.19939,756.843662 822.028186,713.661654 C776.590804,676.615757 733.425291,637.296525 690.931873,597.296239 C650.265416,559.113675 600.738669,540.022393 545.06841,539.113059 C462.817282,537.749057 393.0709,569.340843 336.946267,627.751357 C262.201773,705.706874 236.97456,801.163284 250.160867,907.070408 C252.432736,925.711759 257.885222,944.343638 263.564895,962.530322 C274.015493,997.302883 294.007941,1026.84677 317.63538,1054.11733 C353.985285,1095.93723 396.478704,1127.99126 451.685123,1140.48513 C457.137609,1141.6218 462.135721,1144.12247 467.588207,1145.0318 C501.448523,1151.39714 534.617812,1161.85449 569.604596,1161.17248 Z" id="Shape"></path>
        </g>
    </g>
</svg>