<?xml version="1.0" encoding="UTF-8"?>
<svg width="1440px" height="720px" viewBox="0 0 1440 720" version="1.1" xmlns="http://www.w3.org/2000/svg" xmlns:xlink="http://www.w3.org/1999/xlink">
    <!-- Generator: Sketch 61.2 (89653) - https://sketch.com -->
    <title>LONGAN_path</title>
    <desc>Created with Sketch.</desc>
    <g id="LONGAN_path" stroke="none" stroke-width="1" fill="none" fill-rule="evenodd">
        <path d="M35.5975665,992.299005 C18.549082,877.297592 34.9160057,766.386289 80.3533879,659.793376 C109.206126,592.292361 148.973301,531.836792 198.727235,477.972002 C302.561119,365.697644 430.476816,296.605295 579.520896,265.469123 C581.338391,265.014456 583.155886,264.559789 584.973382,264.332456 C604.738643,262.968454 614.053306,250.923565 618.14267,232.74067 C622.686409,212.741001 633.828033,198.876496 654.274855,192.058384 C675.176051,185.012938 704.937537,196.604107 712.889078,218.422445 C722.203742,244.559173 741.514629,250.923565 766.060282,252.286619 C927.599641,262.060067 1071.41842,317.969912 1192.97289,424.790159 C1315.89047,532.746126 1388.37256,668.65749 1408.13782,831.842249" id="Path" fill="#D8D8D8"></path>
    </g>
</svg>