<?xml version="1.0" encoding="UTF-8"?>
<svg width="1440px" height="720px" viewBox="0 0 1440 720" version="1.1" xmlns="http://www.w3.org/2000/svg" xmlns:xlink="http://www.w3.org/1999/xlink">
    <!-- Generator: Sketch 61.2 (89653) - https://sketch.com -->
    <title>NERITIC_SQUID_path</title>
    <desc>Created with Sketch.</desc>
    <g id="NERITIC_SQUID_path" stroke="none" stroke-width="1" fill="none" fill-rule="evenodd">
        <path d="M437.37,889.34 C356.24,804.75 283.48,713.25 218.38,615.79 C185.39,566.28 153.7,516.01 127.7,462.34 C107.42,420.54 91.63,377.04 84.1,331.11 C80.52,308.72 79.15,286.14 85.56,263.66 C93.81,234.75 113.35,217.66 140.83,208.65 C192.66,191.71 246.14,182.74 300.31,176.75 C391.83,166.47 483.52,160.56 575.49,159.63 C640.32,159 705.13,160.52 769.83,163.24 C817.46,165.31 865.29,171.08 916.06,175.35 C958.23,183.85 1003.15,192.25 1047.81,201.92 C1073.01,207.44 1097.75,215.95 1119.97,229.06 C1138.27,239.67 1151.55,255.53 1156.97,277.25 C1163.56,303.37 1164.84,330.1 1168,356.63 C1170.49,377.71 1172.44,399.03 1176.34,419.96 C1180.25,440.89 1186.25,461.36 1196.6,480.19 C1208.2,501.41 1227.42,512.59 1248.88,521.11 C1263.21,526.62 1278.83,530.22 1291.52,538.28 C1311.48,551.1 1331.9,564.21 1338.78,589.88 C1344.23,610.6 1349.97,630.86 1350.77,652.54 C1351.61,678.31 1355.2,703.99 1352.83,729.9 C1349.48,765.64 1344.53,801.11 1334.39,835.65" id="Path" fill="#D8D8D8" fill-rule="nonzero"></path>
    </g>
</svg>