<?xml version="1.0" encoding="UTF-8"?>
<svg width="1440px" height="720px" viewBox="0 0 1440 720" version="1.1" xmlns="http://www.w3.org/2000/svg" xmlns:xlink="http://www.w3.org/1999/xlink">
    <!-- Generator: Sketch 61.2 (89653) - https://sketch.com -->
    <title>NERITIC_SQUID</title>
    <desc>Created with Sketch.</desc>
    <g id="NERITIC_SQUID" stroke="none" stroke-width="1" fill="none" fill-rule="evenodd">
        <g id="Group" transform="translate(81.000000, 159.000000)" fill="#333333" fill-rule="nonzero">
            <path d="M835.06,16.35 C877.23,24.85 922.15,33.25 966.81,42.92 C992.01,48.44 1016.75,56.95 1038.97,70.06 C1057.27,80.67 1070.55,96.53 1075.97,118.25 C1082.56,144.37 1083.84,171.1 1087,197.63 C1089.49,218.71 1091.44,240.03 1095.34,260.96 C1099.25,281.89 1105.25,302.36 1115.6,321.19 C1127.2,342.41 1146.42,353.59 1167.88,362.11 C1182.21,367.62 1197.83,371.22 1210.52,379.28 C1230.48,392.1 1250.9,405.21 1257.78,430.88 C1263.23,451.6 1268.97,471.86 1269.77,493.54 C1270.61,519.31 1274.2,544.99 1271.83,570.9 C1268.48,606.64 1263.53,642.11 1253.39,676.65 C1241.66,716.03 1228.01,754.79 1210.59,792.14 C1205.42,803.2 1199.39,813.84 1193.7,824.48 C1188.22,834.86 1182.8,845.38 1176.6,855.27 C1162.76,877.67 1145.66,897.6 1126.29,915.44 C1106.1,933.98 1082.04,939.3 1055.56,934.21 C1030.54,929.44 1007.43,918.71 984.51,908.05 C967.31,900.23 950.2,891.87 932.57,884.9 C927.15,882.75 919.87,882.28 914.31,883.81 C896.78,888.64 882.6,898.69 872.89,914.61 C856.84,940.48 840.53,966.14 824.22,991.8 C806.85,1019.1 775.38,1034.53 743.54,1024.14 C727.32,1018.83 711.05,1013.05 695.86,1005.31 C666.4,990.38 637.08,975.06 609.99,955.93 C577.87,933.33 547.09,908.97 517.28,883.51 C460.86,835.25 407.57,783.76 356.37,730.34 C275.24,645.75 202.48,554.25 137.38,456.79 C104.39,407.28 72.7,357.01 46.7,303.34 C26.42,261.54 10.63,218.04 3.1,172.11 C-0.48,149.72 -1.85,127.14 4.56,104.66 C12.81,75.75 32.35,58.66 59.83,49.65 C111.66,32.71 165.14,23.74 219.31,17.75 C310.83,7.47 402.52,1.56 494.49,0.63 C559.32,1.11022302e-16 624.13,1.52 688.83,4.24 C736.46,6.31 784.29,12.08 835.06,16.35 Z" id="Path"></path>
        </g>
    </g>
</svg>