<?xml version="1.0" encoding="UTF-8"?>
<svg width="1440px" height="720px" viewBox="0 0 1440 720" version="1.1" xmlns="http://www.w3.org/2000/svg" xmlns:xlink="http://www.w3.org/1999/xlink">
    <!-- Generator: Sketch 61.2 (89653) - https://sketch.com -->
    <title>OCTOPUS_path</title>
    <desc>Created with Sketch.</desc>
    <g id="OCTOPUS_path" stroke="none" stroke-width="1" fill="none" fill-rule="evenodd">
        <path d="M-89.82,614.38 C-68.07,580.77 -42.45,551.08 -12.56,524.66 C21.11,494.76 59,474.88 105.45,475.43 C126.61,475.69 145.78,481.52 164.27,491.89 C199.32,511.44 220.55,540.77 233.43,578.1 C248.98,623.62 257.13,670.52 263.06,718.06 C269.74,771.31 275.38,824.81 282.31,878.07 C289.13,930.15 295.55,982.36 304.45,1033.94 C308.71,1058.89 318.03,1082.95 338.04,1100.86 C364.49,1124.51 405.07,1132.16 435.77,1098.74 C452.24,1080.93 463.52,1061.27 471.19,1038.22 C480.05,1011.93 485.4,985.75 479.73,958.33 C477.84,949.36 475.05,939.74 469.9,932.44 C458.58,916.54 453.48,901.19 460.22,881.38 C465.38,865.97 466.27,848.84 467.92,832.5 C469.45,816.54 477.17,806.34 491.61,800.59 C492.78,800.21 493.95,799.82 495,799.31 C524.02,785.09 522.08,784.43 529.55,752.03 C534.62,729.99 526.93,714.37 514.96,698.6 C511.35,693.9 508.01,688.95 504.27,684.64 C497.83,677.33 496.84,669.54 498.84,660.08 C505.26,630.01 511.16,599.94 516.67,569.73 C518.95,556.9 526,549.93 538.99,548.72 C546.52,547.99 554.18,547.12 561.84,546.26 C570.42,545.28 575.37,541.16 577.51,532.08 C580.84,517.18 585.35,502.41 589.85,487.91 C592.5,479.36 592.67,471.96 585.97,465.17 C579.13,457.99 573.48,449.65 566.25,442.86 C557.22,434.49 554.68,425.39 559.68,414.26 C571,388.38 581.93,362.36 593.77,336.74 C600.22,322.63 610.28,312.44 627.28,311.38 C634.94,311.03 642.48,309 650.14,308.92 C661.17,308.6 668.08,304.1 674.37,294.54 C685.64,276.7 698.21,259.38 711.55,242.85 C723.58,228.13 726.4,213.23 720.02,195.28 C713.51,176.94 716.15,169.95 732.57,160.18 C754.32,147.21 776.59,134.76 798.34,121.53 C808.12,115.49 817.6,114.64 826.11,122.22 C840.83,135.55 856.53,135.78 874.86,130.57 C890.59,126.12 907.34,125.32 923.7,123.86 C933.18,123.01 940.21,119.94 945.45,111.41 C963.28,82.19 961.07,82.57 1000.1,88.65 C1020.46,91.76 1041.08,94.09 1061.7,96.69 C1083.87,99.55 1087.75,101.65 1090.6,122.82 C1093.21,141.92 1101.06,153.52 1120.49,158.83 C1132.54,162.15 1143.65,170 1154.77,176.56 C1160.2,179.71 1164.74,180.39 1171.11,179 C1185.41,175.71 1200.08,174.12 1214.63,171.61 C1225.42,169.73 1234.74,172.9 1242.09,180.61 C1266.07,205.67 1289.8,231 1313.39,256.45 C1317.77,261.15 1321.37,266.88 1324.19,272.61 C1328.67,282.11 1329.26,291.85 1323.49,301.42 C1320.74,305.94 1319.15,311.12 1316.78,315.78 C1313.37,322.51 1315.02,327.84 1319.4,333.58 C1330.98,349.22 1342.3,365.13 1353.37,381.03 C1358.26,388.07 1363.8,393.42 1372.75,394.65 C1396.61,397.91 1411.31,412.54 1421.83,433.37 C1438.11,465.26 1455.57,496.78 1472.24,528.55 C1476.73,537.01 1477.45,545.84 1470.4,553.33 C1454.46,570.1 1454.35,587.49 1464.09,607.8 C1471.14,622.5 1475.32,639.01 1478.98,655" id="Path" fill="#D8D8D8" fill-rule="nonzero"></path>
    </g>
</svg>