<?xml version="1.0" encoding="UTF-8"?>
<svg width="1440px" height="720px" viewBox="0 0 1440 720" version="1.1" xmlns="http://www.w3.org/2000/svg" xmlns:xlink="http://www.w3.org/1999/xlink">
    <!-- Generator: Sketch 61.2 (89653) - https://sketch.com -->
    <title>OCTOPUS</title>
    <desc>Created with Sketch.</desc>
    <g id="OCTOPUS" stroke="none" stroke-width="1" fill="none" fill-rule="evenodd">
        <g id="Group" transform="translate(-193.000000, 85.000000)" fill="#333333" fill-rule="nonzero">
            <path d="M103.18,529.38 C124.93,495.77 150.55,466.08 180.44,439.66 C214.11,409.76 252,389.88 298.45,390.43 C319.61,390.69 338.78,396.52 357.27,406.89 C392.32,426.44 413.55,455.77 426.43,493.1 C441.98,538.62 450.13,585.52 456.06,633.06 C462.74,686.31 468.38,739.81 475.31,793.07 C482.13,845.15 488.55,897.36 497.45,948.94 C501.71,973.89 511.03,997.95 531.04,1015.86 C557.49,1039.51 598.07,1047.16 628.77,1013.74 C645.24,995.93 656.52,976.27 664.19,953.22 C673.05,926.93 678.4,900.75 672.73,873.33 C670.84,864.36 668.05,854.74 662.9,847.44 C651.58,831.54 646.48,816.19 653.22,796.38 C658.38,780.97 659.27,763.84 660.92,747.5 C662.45,731.54 670.17,721.34 684.61,715.59 C685.78,715.21 686.95,714.82 688,714.31 C717.02,700.09 715.08,699.43 722.55,667.03 C727.62,644.99 719.93,629.37 707.96,613.6 C704.35,608.9 701.01,603.95 697.27,599.64 C690.83,592.33 689.84,584.54 691.84,575.08 C698.26,545.01 704.16,514.94 709.67,484.73 C711.95,471.9 719,464.93 731.99,463.72 C739.52,462.99 747.18,462.12 754.84,461.26 C763.42,460.28 768.37,456.16 770.51,447.08 C773.84,432.18 778.35,417.41 782.85,402.91 C785.5,394.36 785.67,386.96 778.97,380.17 C772.13,372.99 766.48,364.65 759.25,357.86 C750.22,349.49 747.68,340.39 752.68,329.26 C764,303.38 774.93,277.36 786.77,251.74 C793.22,237.63 803.28,227.44 820.28,226.38 C827.94,226.03 835.48,224 843.14,223.92 C854.17,223.6 861.08,219.1 867.37,209.54 C878.64,191.7 891.21,174.38 904.55,157.85 C916.58,143.13 919.4,128.23 913.02,110.28 C906.51,91.94 909.15,84.95 925.57,75.18 C947.32,62.21 969.59,49.76 991.34,36.53 C1001.12,30.49 1010.6,29.64 1019.11,37.22 C1033.83,50.55 1049.53,50.78 1067.86,45.57 C1083.59,41.12 1100.34,40.32 1116.7,38.86 C1126.18,38.01 1133.21,34.94 1138.45,26.41 C1156.28,-2.81 1154.07,-2.43 1193.1,3.65 C1213.46,6.76 1234.08,9.09 1254.7,11.69 C1276.87,14.55 1280.75,16.65 1283.6,37.82 C1286.21,56.92 1294.06,68.52 1313.49,73.83 C1325.54,77.15 1336.65,85 1347.77,91.56 C1353.2,94.71 1357.74,95.39 1364.11,94 C1378.41,90.71 1393.08,89.12 1407.63,86.61 C1418.42,84.73 1427.74,87.9 1435.09,95.61 C1459.07,120.67 1482.8,146 1506.39,171.45 C1510.77,176.15 1514.37,181.88 1517.19,187.61 C1521.67,197.11 1522.26,206.85 1516.49,216.42 C1513.74,220.94 1512.15,226.12 1509.78,230.78 C1506.37,237.51 1508.02,242.84 1512.4,248.58 C1523.98,264.22 1535.3,280.13 1546.37,296.03 C1551.26,303.07 1556.8,308.42 1565.75,309.65 C1589.61,312.91 1604.31,327.54 1614.83,348.37 C1631.11,380.26 1648.57,411.78 1665.24,443.55 C1669.73,452.01 1670.45,460.84 1663.4,468.33 C1647.46,485.1 1647.35,502.49 1657.09,522.8 C1664.14,537.5 1668.32,554.01 1671.98,570 C1677.04,591.57 1691.36,605.81 1707.5,618.76 C1714.22,624.25 1719.38,629.21 1721.66,637.79 C1729.65,668.08 1738.42,697.85 1746.93,727.89 C1750.1,738.94 1748.22,748.79 1741.16,757.83 C1738.02,761.96 1735.39,766.88 1733.03,771.54 C1711.61,814.1 1720.45,853.61 1744.87,891.4 C1760.56,915.64 1778.32,938.59 1792.31,963.72 C1801.81,980.91 1808.05,1000.55 1812.73,1019.91 C1825.14,1070.61 1830.78,1122.55 1822.67,1174.42 C1818.22,1202.55 1810.77,1231.32 1799.19,1257.46 C1756.28,1353.49 1681.02,1414.15 1582.31,1447.15 C1524.31,1466.52 1464.7,1473.29 1404.26,1466.68 C1360.17,1462 1317.8,1449.92 1277.43,1430.73 C1225.15,1405.74 1182.03,1370.43 1149.23,1322.86 C1130.71,1296.01 1117.13,1266.86 1107.85,1235.26 C1095.27,1192.49 1095.14,1149.53 1097.62,1105.81 C1099.52,1071.95 1108.55,1039.56 1116.54,1006.9 C1134.25,934.2 1152.09,861.38 1169.67,788.55 C1175.27,765.48 1171.52,742.36 1165.94,720.26 C1162.27,705.57 1149.23,694.46 1135.12,688.01 C1104.71,674.2 1079.87,682.22 1059.57,712.59 C1050.79,725.65 1043.05,740 1038.54,755.03 C1026.09,795.44 1014.42,836.38 1004.56,877.59 C987.77,948.09 971.11,1018.72 943.7,1086.03 C928.67,1123.06 912.61,1159.82 890.47,1193.55 C881.16,1207.9 874.57,1223.95 864.76,1237.78 C833.33,1281.97 801.27,1325.51 761.71,1363.03 C739.26,1384.17 714.74,1402.71 686.12,1414.47 C658.53,1425.98 629.3,1431.38 599.46,1429.38 C548.09,1425.94 500.82,1410.21 456.6,1382.68 C390.28,1341.39 349.51,1281.04 322.31,1210.14 C308.65,1174.37 298.1,1137.32 291.85,1099.38 C279.35,1022.99 273.21,945.99 274.85,868.52 C275.57,836.08 278.37,803.4 270.26,771.42 C266.08,754.91 261.39,738.14 248.48,725.86 C228.61,707.31 206.4,710.94 183.89,720.01 C170.36,725.38 159.01,734.26 151.15,746.15 C138.97,764.9 125.22,783.37 117.44,803.96 C106.36,832.96 99.03,863.67 91.96,894.13 C84.49,927.04 90.13,959.91 95.5,992.78 C96.63,999.15 96.72,1005.77 96.29,1012.12 C95.84,1021.59 91.64,1029.61 82.67,1033.06 C73.3,1036.64 64.63,1033.08 58.44,1026.03 C48.52,1014.42 38.21,1002.68 30.76,989.39 C15.62,961.79 6.46,932.14 2.76,900.45 C-6.11,824.08 8.23,751.11 32.82,679.36 C39.82,658.77 46.96,638.05 56.43,618.38 C70.76,588.23 87.29,559 103.18,529.38 Z" id="Path"></path>
        </g>
    </g>
</svg>