<?xml version="1.0" encoding="UTF-8"?>
<svg width="1440px" height="720px" viewBox="0 0 1440 720" version="1.1" xmlns="http://www.w3.org/2000/svg" xmlns:xlink="http://www.w3.org/1999/xlink">
    <!-- Generator: Sketch 61.2 (89653) - https://sketch.com -->
    <title>ONION_path</title>
    <desc>Created with Sketch.</desc>
    <g id="ONION_path" stroke="none" stroke-width="1" fill="none" fill-rule="evenodd">
        <path d="M-97.92,1026.73 C-99.46,914.43 -79.47,806.24 -39.23,701.63 C-11.04,629.33 16.89,578.06 65.07,507.55 C98.12,463.71 133.75,419.35 176.03,380.64 C186.54,370.9 193.97,359.87 199.6,346.8 C213.44,313.98 224.46,280.39 231.38,245.52 C234.97,227.06 245.22,212.45 259.57,201.94 C276.74,189.12 295.45,178.1 314.15,167.58 C340.81,152.97 368.23,139.89 395.13,126.31 C430.5,108.36 464.07,109.38 496.62,133.74 C506.61,141.18 517.88,147.33 529.16,153.23 C552.22,165.53 575.54,168.61 602.2,163.48 C724.18,140.15 845.39,146.82 964.81,181.43 C1070.13,211.94 1164.95,263.21 1248.75,333.98 C1319.99,393.97 1379.45,464.22 1425.32,545.75 C1482.99353,647.923109 1518.144,752.819848 1531.65296,860.318009" id="Path" fill="#D8D8D8" fill-rule="nonzero"></path>
    </g>
</svg>