<?xml version="1.0" encoding="UTF-8"?>
<svg width="1440px" height="720px" viewBox="0 0 1440 720" version="1.1" xmlns="http://www.w3.org/2000/svg" xmlns:xlink="http://www.w3.org/1999/xlink">
    <!-- Generator: Sketch 61.2 (89653) - https://sketch.com -->
    <title>ONION</title>
    <desc>Created with Sketch.</desc>
    <g id="ONION" stroke="none" stroke-width="1" fill="none" fill-rule="evenodd">
        <g id="Group" transform="translate(-98.000000, 114.000000)" fill="#333333" fill-rule="nonzero">
            <path d="M163.07,393.55 C196.12,349.71 231.75,305.35 274.03,266.64 C284.54,256.9 291.97,245.87 297.6,232.8 C311.44,199.98 322.46,166.39 329.38,131.52 C332.97,113.06 343.22,98.45 357.57,87.94 C374.74,75.12 393.45,64.1 412.15,53.58 C438.81,38.97 466.23,25.89 493.13,12.31 C528.5,-5.64 562.07,-4.62 594.62,19.74 C604.61,27.18 615.88,33.33 627.16,39.23 C650.22,51.53 673.54,54.61 700.2,49.48 C822.18,26.15 943.39,32.82 1062.81,67.43 C1168.13,97.94 1262.95,149.21 1346.75,219.98 C1417.99,279.97 1477.45,350.22 1523.32,431.75 C1640.69,639.68 1664.78,858.89 1603.02,1088.35 C1573.29,1199.11 1522.29,1299.87 1452.33,1390.63 C1421.58,1430.88 1387.5,1468.32 1349.31,1501.9 C1338.04,1511.65 1330.09,1523.18 1324.46,1537.03 C1314.97,1560.36 1304.21,1583.43 1293.45,1606.25 C1291.14,1610.87 1286.78,1615.74 1282.17,1618.3 C1236.56,1644.2 1190.69,1669.58 1144.56,1694.96 C1134.05,1700.86 1123.03,1705.73 1112.52,1711.63 C1090.74,1723.42 1068.19,1724.7 1044.61,1717.78 C1000.79,1704.96 956.72,1702.91 911.36,1711.11 C877.79,1717.27 843.45,1719.57 809.36,1720.34 C683.03,1723.16 562.84,1696.76 449.57,1641.12 C307.09,1571.13 195.87,1467.03 115.14,1330.38 C39.03,1201.42 2.13,1061.95 0.08,912.73 C-1.46,800.43 18.53,692.24 58.77,587.63 C86.96,515.33 114.89,464.06 163.07,393.55 Z" id="Path"></path>
        </g>
    </g>
</svg>