<?xml version="1.0" encoding="UTF-8"?>
<svg width="1440px" height="720px" viewBox="0 0 1440 720" version="1.1" xmlns="http://www.w3.org/2000/svg" xmlns:xlink="http://www.w3.org/1999/xlink">
    <!-- Generator: Sketch 61.2 (89653) - https://sketch.com -->
    <title>PERIGORD_TRUFFLE</title>
    <desc>Created with Sketch.</desc>
    <g id="PERIGORD_TRUFFLE" stroke="none" stroke-width="1" fill="none" fill-rule="evenodd">
        <g id="Group" transform="translate(23.000000, 131.000000)" fill="#333333" fill-rule="nonzero">
            <path d="M912.09,1313.8 C877.17,1315.06 842.71,1310.36 809.98,1299.4 C771.93,1286.72 734.66,1270.9 697.54,1255.72 C680.47,1248.67 664.34,1239.59 647.74,1231.45 C619.24,1217.51 589.02,1214.38 558.01,1216.89 C518.55,1220.17 479.08,1224.4 439.46,1227.38 C403.45,1230.19 368.05,1224.87 333.13,1216.1 C261.72,1197.94 205.34,1156.14 156.02,1103.68 C119.84,1065.17 90.71,1021.8 70.67,972.48 C67.38,964.49 63.31,959.17 54.22,955.73 C32.3,947.27 27.29,932.55 38.09,911.73 C42.17,903.74 42.17,896.07 40.44,887.62 C35.59,863.19 30.73,838.77 26.51,814.19 C24.94,805.57 21.34,799 15.23,792.73 C-5.13,772.07 -4.66,764.55 14.13,742.79 C17.89,738.4 19.93,731.67 20.4,725.88 C22.9,696.6 24.47,667.17 26.51,637.89 C26.98,631.47 27.92,625.83 22.43,620.19 C11.47,609.08 12.88,595.61 22.59,585.75 C38.09,570.09 41.7,550.52 45.77,530.48 C48.27,518.58 50.78,506.68 55.01,495.41 C59.71,482.72 60.02,471.92 52.34,459.71 C45.61,449.06 51.72,434.97 65.5,430.43 C79.12,425.89 84.14,416.65 88.99,405.07 C97.29,385.65 107,366.86 115.3,347.6 C117.02,343.53 116.71,337.9 115.3,333.51 C109.19,314.88 115.77,299.07 134.87,295.31 C147.72,292.65 154.92,285.76 161.65,276.21 C167.13,268.38 172.62,260.39 179.04,253.35 C187.65,243.64 194.85,234.25 193.76,219.69 C192.97,208.41 200.02,201.99 213.64,200.58 C237.92,198.08 252.33,183.83 262.5,163.32 C266.58,155.18 273.31,149.39 281.92,149.7 C293.98,150.01 302.59,144.06 311.83,138.58 C320.13,133.73 328.9,129.66 336.42,123.71 C343.15,118.38 349.89,112.12 354.12,104.76 C363.98,87.23 366.64,85.82 385.75,90.2 C391.39,91.45 398.43,90.98 403.92,89.11 C423.02,82.06 441.97,74.54 460.61,66.09 C465.77,63.74 470.47,58.57 473.6,53.56 C485.66,34.62 493.96,32.11 514.79,41.66 C519.02,43.54 524.5,44.17 529.2,43.39 C543.6,40.88 558.01,37.12 572.42,34.31 C580.09,32.74 584.48,28.36 588.08,21.62 C596.07,6.59 600.92,3.46 613.14,12.23 C635.84,28.67 659.65,20.53 683.29,19.59 C687.99,19.43 693.32,15.05 697.23,11.29 C711.32,-2.64 721.5,-4.21 734.81,9.57 C743.27,18.34 752.82,20.68 763.79,21.94 C781.48,23.82 799.18,26.95 816.87,28.36 C822.67,28.83 829.4,27.42 834.73,24.75 C850.23,16.93 856.02,17.71 863.54,33.37 C867.46,41.66 872.78,46.21 881.39,49.02 C900.19,55.29 918.66,62.33 937.3,69.22 C944.19,71.73 950.3,72.2 957.5,69.06 C971.6,63.11 980.21,65.78 985.38,79.24 C989.29,89.58 996.34,94.12 1005.11,98.34 C1023.43,107.27 1041.6,116.82 1060.08,125.59 C1064.93,127.94 1071.04,128.56 1076.52,128.41 C1091.08,127.94 1097.03,130.28 1101.11,143.75 C1104.08,153.61 1110.19,160.19 1117.39,166.76 C1133.99,181.8 1150.28,197.14 1167.04,212.01 C1171.11,215.46 1176.43,217.96 1181.76,219.37 C1198.2,223.76 1203.84,228.3 1204.78,245.36 C1205.4,256.01 1210.1,263.21 1216.52,270.57 C1224.82,280.28 1232.96,290.14 1240.17,300.63 C1244.55,307.05 1250.03,309.4 1257.24,311.28 C1269.3,314.41 1272.74,318.48 1270.7,330.54 C1268.83,341.97 1272.58,350.27 1278.69,358.88 C1282.76,364.67 1286.21,370.93 1288.71,377.35 C1291.53,384.55 1296.39,388.16 1303.44,390.97 C1318.16,396.92 1318.78,398.49 1315.81,413.99 C1313.61,425.11 1314.08,435.28 1320.82,445.15 C1324.26,450.31 1325.99,456.73 1328.33,462.84 C1332.25,473.17 1336.79,481.63 1348.22,486.95 C1361.69,493.37 1364.51,504.96 1358.56,519.36 C1354.64,528.91 1354.49,537.52 1357.62,547.23 C1360.75,556.94 1362.32,567.12 1365.14,576.98 C1367.17,583.56 1369.05,590.6 1373.12,596.08 C1379.86,605.16 1379.23,614.09 1378.45,624.89 C1377.19,642.43 1380.01,660.28 1381.27,677.97 C1381.42,679.69 1382.83,681.57 1384.24,682.67 C1397.4,693.63 1396.14,705.37 1387.06,718.05 C1384.87,721.03 1382.83,724.78 1382.67,728.38 C1381.27,748.11 1380.17,768 1379.86,787.72 C1379.86,792.89 1382.68,798.53 1385.49,803.23 C1393.95,816.69 1393.95,824.99 1382.05,834.85 C1375,840.65 1371.71,847.38 1370.15,855.83 C1368.42,865.23 1366.23,874.62 1363.88,883.86 C1361.85,892 1360.59,899.52 1366.55,907.34 C1372.65,915.17 1370.15,923.47 1362.79,929.42 C1334.13,952.75 1329.74,989.07 1315.02,1019.61 C1312.52,1024.77 1314.4,1032.13 1314.71,1038.55 C1315.34,1052.64 1313.46,1056.87 1299.99,1061.57 C1292.79,1064.07 1288.09,1067.52 1284.33,1074.25 C1278.69,1084.27 1271.33,1093.19 1265.69,1103.21 C1261.15,1111.36 1256.77,1120.28 1255.04,1129.36 C1252.07,1143.92 1244.71,1152.85 1231.24,1159.11 C1221.69,1163.49 1212.76,1170.38 1205.25,1177.9 C1169.7,1213.13 1131.96,1245.38 1087.48,1269.18 C1036.9,1295.95 983.5,1311.61 926.18,1313.65 C921.01,1313.33 916.63,1313.65 912.09,1313.8 Z" id="Path"></path>
        </g>
    </g>
</svg>