<?xml version="1.0" encoding="UTF-8"?>
<svg width="1440px" height="720px" viewBox="0 0 1440 720" version="1.1" xmlns="http://www.w3.org/2000/svg" xmlns:xlink="http://www.w3.org/1999/xlink">
    <!-- Generator: Sketch 61.2 (89653) - https://sketch.com -->
    <title>PERIGORD_TRUFFLE_path</title>
    <desc>Created with Sketch.</desc>
    <g id="PERIGORD_TRUFFLE_path" stroke="none" stroke-width="1" fill="none" fill-rule="evenodd">
        <path d="M37.13,873.79 C40.89,869.4 42.93,862.67 43.4,856.88 C45.9,827.6 47.47,798.17 49.51,768.89 C49.98,762.47 50.92,756.83 45.43,751.19 C34.47,740.08 35.88,726.61 45.59,716.75 C61.09,701.09 64.7,681.52 68.77,661.48 C71.27,649.58 73.78,637.68 78.01,626.41 C82.71,613.72 83.02,602.92 75.34,590.71 C68.61,580.06 74.72,565.97 88.5,561.43 C102.12,556.89 107.14,547.65 111.99,536.07 C120.29,516.65 130,497.86 138.3,478.6 C140.02,474.53 139.71,468.9 138.3,464.51 C132.19,445.88 138.77,430.07 157.87,426.31 C170.72,423.65 177.92,416.76 184.65,407.21 C190.13,399.38 195.62,391.39 202.04,384.35 C210.65,374.64 217.85,365.25 216.76,350.69 C215.97,339.41 223.02,332.99 236.64,331.58 C260.92,329.08 275.33,314.83 285.5,294.32 C289.58,286.18 296.31,280.39 304.92,280.7 C316.98,281.01 325.59,275.06 334.83,269.58 C343.13,264.73 351.9,260.66 359.42,254.71 C366.15,249.38 372.89,243.12 377.12,235.76 C386.98,218.23 389.64,216.82 408.75,221.2 C414.39,222.45 421.43,221.98 426.92,220.11 C446.02,213.06 464.97,205.54 483.61,197.09 C488.77,194.74 493.47,189.57 496.6,184.56 C508.66,165.62 516.96,163.11 537.79,172.66 C542.02,174.54 547.5,175.17 552.2,174.39 C566.6,171.88 581.01,168.12 595.42,165.31 C603.09,163.74 607.48,159.36 611.08,152.62 C619.07,137.59 623.92,134.46 636.14,143.23 C658.84,159.67 682.65,151.53 706.29,150.59 C710.99,150.43 716.32,146.05 720.23,142.29 C734.32,128.36 744.5,126.79 757.81,140.57 C766.27,149.34 775.82,151.68 786.79,152.94 C804.48,154.82 822.18,157.95 839.87,159.36 C845.67,159.83 852.4,158.42 857.73,155.75 C873.23,147.93 879.02,148.71 886.54,164.37 C890.46,172.66 895.78,177.21 904.39,180.02 C923.19,186.29 941.66,193.33 960.3,200.22 C967.19,202.73 973.3,203.2 980.5,200.06 C994.6,194.11 1003.21,196.78 1008.38,210.24 C1012.29,220.58 1019.34,225.12 1028.11,229.34 C1046.43,238.27 1064.6,247.82 1083.08,256.59 C1087.93,258.94 1094.04,259.56 1099.52,259.41 C1114.08,258.94 1120.03,261.28 1124.11,274.75 C1127.08,284.61 1133.19,291.19 1140.39,297.76 C1156.99,312.8 1173.28,328.14 1190.04,343.01 C1194.11,346.46 1199.43,348.96 1204.76,350.37 C1221.2,354.76 1226.84,359.3 1227.78,376.36 C1228.4,387.01 1233.1,394.21 1239.52,401.57 C1247.82,411.28 1255.96,421.14 1263.17,431.63 C1267.55,438.05 1273.03,440.4 1280.24,442.28 C1292.3,445.41 1295.74,449.48 1293.7,461.54 C1291.83,472.97 1295.58,481.27 1301.69,489.88 C1305.76,495.67 1309.21,501.93 1311.71,508.35 C1314.53,515.55 1319.39,519.16 1326.44,521.97 C1341.16,527.92 1341.78,529.49 1338.81,544.99 C1336.61,556.11 1337.08,566.28 1343.82,576.15 C1347.26,581.31 1348.99,587.73 1351.33,593.84 C1355.25,604.17 1359.79,612.63 1371.22,617.95 C1384.69,624.37 1387.51,635.96 1381.56,650.36 C1377.64,659.91 1377.49,668.52 1380.62,678.23 C1383.75,687.94 1385.32,698.12 1388.14,707.98 C1390.17,714.56 1392.05,721.6 1396.12,727.08 C1402.86,736.16 1402.23,745.09 1401.45,755.89 C1400.19,773.43 1403.01,791.28 1404.27,808.97 C1404.42,810.69 1405.83,812.57 1407.24,813.67 C1420.4,824.63 1419.14,836.37 1410.06,849.05 C1407.87,852.03 1405.83,855.78 1405.67,859.38" id="Path" fill="#D8D8D8" fill-rule="nonzero"></path>
    </g>
</svg>