<?xml version="1.0" encoding="UTF-8"?>
<svg width="1440px" height="720px" viewBox="0 0 1440 720" version="1.1" xmlns="http://www.w3.org/2000/svg" xmlns:xlink="http://www.w3.org/1999/xlink">
    <!-- Generator: Sketch 61.2 (89653) - https://sketch.com -->
    <title>PUFFED-RICE_CAKE_path</title>
    <desc>Created with Sketch.</desc>
    <g id="PUFFED-RICE_CAKE_path" stroke="none" stroke-width="1" fill="none" fill-rule="evenodd">
        <path d="M-62.0908,704.15 C-75.5458,623.21 -51.2923,550.79 -10.9716,482.7 C38.8657,398.8 112.572,341.34 198.222,297.49 C413.953,188.23 641.483,129.67 884.862,138.02 C986.205,141.56 1086.96,152.3 1183.88,182.68 C1218.88,194.06 1253.22,210.24 1284.07,230.11 C1344.99,269.86 1352.3,331.04 1304,384.6 C1285.06,405.46 1262.05,423.24 1240.26,442.18 C1203.32,474.7 1200.77,483.14 1217.62,529.31 C1220.19,535.61 1221.58,542.35 1224.53,548.25 C1267.94,645.09 1243.2,728.69 1173.16,802.79" id="Path" fill="#D8D8D8" fill-rule="nonzero"></path>
    </g>
</svg>