<?xml version="1.0" encoding="UTF-8"?>
<svg width="1440px" height="720px" viewBox="0 0 1440 720" version="1.1" xmlns="http://www.w3.org/2000/svg" xmlns:xlink="http://www.w3.org/1999/xlink">
    <!-- Generator: Sketch 61.2 (89653) - https://sketch.com -->
    <title>PUFFED-RICE_CAKE</title>
    <desc>Created with Sketch.</desc>
    <g id="PUFFED-RICE_CAKE" stroke="none" stroke-width="1" fill="none" fill-rule="evenodd">
        <g id="Group" transform="translate(-66.000000, 137.000000)" fill="#333333" fill-rule="nonzero">
            <path d="M110.5591,757.88 C54.0837,706.05 16.0453,643.74 3.9092,567.15 C-9.5458,486.21 14.7077,413.79 55.0284,345.7 C104.8657,261.8 178.572,204.34 264.222,160.49 C479.953,51.23 707.483,-7.33 950.862,1.02 C1052.205,4.56 1152.96,15.3 1249.88,45.68 C1284.88,57.06 1319.22,73.24 1350.07,93.11 C1410.99,132.86 1418.3,194.04 1370,247.6 C1351.06,268.46 1328.05,286.24 1306.26,305.18 C1269.32,337.7 1266.77,346.14 1283.62,392.31 C1286.19,398.61 1287.58,405.35 1290.53,411.25 C1333.94,508.09 1309.2,591.69 1239.16,665.79 C1186.53,721.46 1123.13,763.09 1056.421,800.03 C896.294,888.2 727.822,949.11 541.318,936.38 C377.572,925.01 233.227,866.86 110.5591,757.88 Z" id="Path"></path>
        </g>
    </g>
</svg>