<?xml version="1.0" encoding="UTF-8"?>
<svg width="1440px" height="720px" viewBox="0 0 1440 720" version="1.1" xmlns="http://www.w3.org/2000/svg" xmlns:xlink="http://www.w3.org/1999/xlink">
    <!-- Generator: Sketch 61.2 (89653) - https://sketch.com -->
    <title>SUGARAPPLE_path</title>
    <desc>Created with Sketch.</desc>
    <g id="SUGARAPPLE_path" stroke="none" stroke-width="1" fill="none" fill-rule="evenodd">
        <path d="M262.02,1083.02 C266.01,1076.82 269.55,1070.84 275.75,1060.43 C265.56,1056.45 258.7,1052.46 251.4,1051.36 C144.7,1034.31 84.49,965.666 53.28,868.462 C30.7,798.051 36.23,728.303 75.19,663.87 C107.95,609.843 158.42,580.837 219.3,568.216 C227.49,566.445 235.68,564.452 249.18,561.352 C239.66,550.724 233.69,542.753 226.38,536.11 C197.83,509.761 174.58,479.427 157.54,444.442 C128.76,385.544 120.79,324.654 141.82,261.549 C167.5,184.716 232.8,144.86 313.16,156.153 C366.06,163.681 409.67,190.252 451.29,221.472 C460.14,228.115 468.78,235.2 480.95,244.5 C485.82,234.093 489.58,226.786 492.24,219.258 C498.66,202.208 503.53,184.273 511.05,167.667 C561.97,57.6208 687.04,27.5076 782.89,101.905 C836.46,143.532 864.79,200.658 880.73,264.87 C884.72,281.034 886.71,297.641 891.14,313.583 C896.89,333.511 903.98,336.61 924.12,329.968 C931.65,327.532 938.73,324.211 945.81,320.89 C1022.18,284.355 1097.89,311.369 1133.75,388.201 C1150.8,424.514 1155.89,463.263 1154.78,503.119 C1154.56,508.433 1153.9,513.525 1153.67,518.839 C1152.79,544.081 1159.87,549.174 1183.34,538.546 C1214.77,524.154 1247.31,515.297 1282.29,518.397 C1340.06,523.489 1382.79,563.123 1392.53,620.471 C1400.94,669.405 1391.42,716.125 1375.04,761.959 C1370.61,774.359 1364.85,786.094 1360.65,798.493 C1356.22,811.779 1359.76,818.2 1373.49,821.3 C1380.13,822.85 1387.43,822.628 1394.3,823.071" id="Path" fill="#D8D8D8" fill-rule="nonzero"></path>
    </g>
</svg>