<?xml version="1.0" encoding="UTF-8"?>
<svg width="1440px" height="720px" viewBox="0 0 1440 720" version="1.1" xmlns="http://www.w3.org/2000/svg" xmlns:xlink="http://www.w3.org/1999/xlink">
    <!-- Generator: Sketch 61.2 (89653) - https://sketch.com -->
    <title>SUGARAPPLE</title>
    <desc>Created with Sketch.</desc>
    <g id="SUGARAPPLE" stroke="none" stroke-width="1" fill="none" fill-rule="evenodd">
        <g id="Group" transform="translate(40.000000, 61.000000)" fill="#333333" fill-rule="nonzero">
            <path d="M235.75,999.43 C225.56,995.45 218.7,991.46 211.4,990.36 C104.7,973.31 44.49,904.666 13.28,807.462 C-9.3,737.051 -3.77,667.303 35.19,602.87 C67.95,548.843 118.42,519.837 179.3,507.216 C187.49,505.445 195.68,503.452 209.18,500.352 C199.66,489.724 193.69,481.753 186.38,475.11 C157.83,448.761 134.58,418.427 117.54,383.442 C88.76,324.544 80.79,263.654 101.82,200.549 C127.5,123.716 192.8,83.86 273.16,95.153 C326.06,102.681 369.67,129.252 411.29,160.472 C420.14,167.115 428.78,174.2 440.95,183.5 C445.82,173.093 449.58,165.786 452.24,158.258 C458.66,141.208 463.53,123.273 471.05,106.667 C521.97,-3.3792 647.04,-33.4924 742.89,40.905 C796.46,82.532 824.79,139.658 840.73,203.87 C844.72,220.034 846.71,236.641 851.14,252.583 C856.89,272.511 863.98,275.61 884.12,268.968 C891.65,266.532 898.73,263.211 905.81,259.89 C982.18,223.355 1057.89,250.369 1093.75,327.201 C1110.8,363.514 1115.89,402.263 1114.78,442.119 C1114.56,447.433 1113.9,452.525 1113.67,457.839 C1112.79,483.081 1119.87,488.174 1143.34,477.546 C1174.77,463.154 1207.31,454.297 1242.29,457.397 C1300.06,462.489 1342.79,502.123 1352.53,559.471 C1360.94,608.405 1351.42,655.125 1335.04,700.959 C1330.61,713.359 1324.85,725.094 1320.65,737.493 C1316.22,750.779 1319.76,757.2 1333.49,760.3 C1340.13,761.85 1347.43,761.628 1354.3,762.071 C1420.04,766.499 1464.31,809.012 1470.95,874.995 C1476.71,930.572 1458.12,980.39 1429.56,1026.45 C1404.99,1065.86 1375.55,1101.51 1336.14,1127.41 C1333.93,1128.96 1331.72,1130.29 1329.73,1132.06 C1295.19,1159.74 1295.41,1169.71 1330.39,1197.16 C1335.26,1200.93 1340.13,1204.47 1345,1208.23 C1361.82,1222.18 1361.38,1231.7 1343.67,1245.43 C1323.75,1260.71 1303.6,1276.21 1283.9,1291.71 C1267.3,1304.55 1261.99,1303.22 1253.13,1283.96 C1247.38,1271.34 1242.06,1258.05 1234.1,1246.98 C1223.91,1233.03 1214.39,1234.36 1205.98,1248.75 C1204.65,1250.97 1203.55,1253.4 1202.66,1255.84 C1175.88,1333.34 1118.32,1382.49 1049.04,1419.91 C1013.4,1439.17 975.99,1453.35 935.48,1458 C892.75,1463.09 852.02,1457.11 813.73,1436.52 C793.14,1425.23 790.26,1426.11 773.44,1443.38 C743.33,1473.72 709.68,1497.41 666.08,1504.72 C641.06,1508.92 616.93,1507.15 595.24,1493.42 C581.07,1484.34 568.9,1485.23 553.62,1491.65 C494.08,1516.89 432.98,1525.31 369.45,1507.59 C216.49,1464.64 128.61,1321.38 160.48,1165.72 C171.11,1113.69 193.46,1066.52 222.02,1022.02 C226.01,1015.82 229.55,1009.84 235.75,999.43 Z" id="Path"></path>
        </g>
    </g>
</svg>