<?xml version="1.0" encoding="UTF-8"?>
<svg width="1440px" height="720px" viewBox="0 0 1440 720" version="1.1" xmlns="http://www.w3.org/2000/svg" xmlns:xlink="http://www.w3.org/1999/xlink">
    <!-- Generator: Sketch 61.2 (89653) - https://sketch.com -->
    <title>TAINUNG_No.17_PINEAPPLE</title>
    <desc>Created with Sketch.</desc>
    <g id="TAINUNG_No.17_PINEAPPLE" stroke="none" stroke-width="1" fill="none" fill-rule="evenodd">
        <path d="M15.0001941,835.997 C23.5046941,834.609 32.0092941,833.048 41.3815941,831.486 C47.9769941,816.046 54.2251941,800.258 61.5147941,784.991 C76.2675941,753.763 91.1938941,722.708 107.161994,692 C112.020994,682.632 114.277994,675.172 107.334994,666.324 C106.293994,664.936 105.946994,663.028 104.731994,659.905 C109.243994,658.517 113.409994,655.741 117.227994,656.088 C125.732994,656.956 129.029994,651.577 132.674994,645.679 C151.766994,614.797 170.858994,583.916 190.123994,553.208 C193.942994,547.136 197.413994,540.891 201.926994,535.339 C206.612994,529.44 206.785994,524.236 202.620994,518.337 C200.884994,515.908 200.190994,512.785 198.107994,507.928 C202.967994,507.407 206.785994,506.193 210.256994,506.713 C218.414994,507.928 223.274994,504.631 228.133994,498.212 C249.481994,469.413 271.524994,441.134 293.219994,412.682 C294.608994,410.947 295.823994,408.865 297.385994,407.477 C308.319994,397.935 314.567994,387.179 306.931994,372.432 C306.583994,371.911 307.451994,370.871 308.319994,368.268 C311.964994,368.268 316.476994,367.574 320.468994,368.615 C327.758994,370.35 332.097994,367.227 336.783994,362.37 C359,339.642 381.389994,316.915 404.125994,294.708 C409.506994,289.33 413.498994,284.126 412.977994,276.145 C412.803994,274.063 413.671994,271.808 414.018994,270.593 C415.233994,269.726 415.580994,269.205 415.927994,269.205 C430.333994,271.461 439.879994,263.133 450.119994,254.979 C464.351994,243.355 479.451994,232.772 494.551994,222.19 C503.056994,216.291 512.081994,211.086 511.387994,198.595 C517.982994,198.942 523.710994,200.33 528.916994,199.115 C533.950994,198.074 538.289994,194.084 543.148994,191.655 C562.414994,181.94 581.506994,172.224 600.945994,162.856 C607.540994,159.733 614.482994,157.478 614.482994,148.283 C614.482994,147.068 616.739994,145.854 618.648994,143.946 C627.500994,152.273 636.525994,148.63 646.071994,145.16 C659.609994,140.476 673.320994,135.792 687.205994,132.842 C695.883994,130.934 702.305994,127.985 705.603994,119.657 C706.123994,118.443 707.165994,117.575 708.379994,115.84 C712.892994,119.31 716.537994,122.259 718.272994,123.647 C747.431994,120.871 774.507994,118.096 801.582994,116.014 C806.442994,115.667 810.260994,114.799 813.211994,110.983 C817.029994,106.125 821.542994,105.431 825.534994,110.462 C829.352994,115.493 834.386994,115.32 839.940994,115.493 C871.701994,116.708 903.463994,119.484 934.531994,126.77 C944.945994,129.199 953.970994,129.199 961.086994,120.177 C961.954994,118.963 964.036994,118.79 967.334994,117.402 C968.723994,123.3 969.937994,128.158 971.326994,133.883 C989.029994,140.129 1007.24999,146.374 1025.29999,152.794 C1061.92999,165.632 1095.59999,184.369 1128.74999,204.147 C1133.77999,207.096 1138.28999,210.739 1142.97999,214.383 C1149.57999,219.414 1156,223.925 1165.01999,220.108 C1166.40999,219.414 1168.48999,220.108 1171.61999,220.281 C1167.09999,234.507 1177.86999,239.886 1186.19999,246.999 C1220.90999,276.492 1251.62999,309.629 1277.83999,346.929 C1282,352.828 1286.33999,356.991 1294.14999,356.471 C1296.57999,356.297 1299.00999,357.859 1302.47999,358.726 C1300.22999,363.931 1298.48999,368.268 1296.57999,372.779 C1305.94999,390.995 1315.66999,409.212 1324.69999,427.602 C1338.40999,455.36 1349,484.333 1356.80999,514.347 C1358.19999,519.898 1360.96999,522.848 1366.17999,524.409 C1370.51999,525.624 1374.50999,527.705 1378.5,529.44 C1379.19999,529.787 1379.71999,530.828 1381.27999,532.737 C1378.67999,535.686 1376.24999,539.503 1372.77999,541.585 C1366.17999,545.575 1365.30999,550.78 1366.86999,557.546 C1368.43999,564.138 1369.64999,570.731 1370.86999,577.324 C1376.76999,609.94 1378.84999,642.903 1379.71999,676.039 C1380.06999,686.796 1376.41999,698.94 1391,706.053 C1379.36999,712.646 1379.53999,721.667 1378.5,731.209 C1375.37999,764.172 1371.03999,797.135 1367.04999,830.099 C1366.52999,834.436 1365.82999,838.946 1365.13999,843.457 C1371.55999,848.141 1377.45999,852.479 1385.78999,858.551 C1379.19999,861.153 1375.37999,863.235 1371.38999,864.103 C1362.87999,865.837 1359.23999,870.522 1356.97999,879.023 C1346.91999,917.19 1335.97999,955.011 1325.04999,993.006 C1322.26999,1002.89 1318.96999,1012.78 1314.80999,1022.15 C1311.85999,1029.09 1312.37999,1034.12 1318.61999,1038.46 C1321.22999,1040.19 1323.82999,1041.93 1326.60999,1043.66 C1326.08999,1044.88 1325.38999,1046.09 1324.86999,1047.48 C1320.52999,1049.04 1316.36999,1050.95 1311.85999,1052.34 C1305.94999,1054.07 1301.95999,1056.85 1299.18999,1062.92 C1279.91999,1105.43 1260.30999,1147.76 1240.69999,1189.92 C1238.26999,1195.29 1237.56999,1199.98 1240.51999,1205.18 C1242.42999,1208.48 1243.64999,1212.12 1245.02999,1215.25 C1243.29999,1216.81 1242.59999,1217.85 1242.07999,1217.68 C1229.58999,1215.59 1223.50999,1221.84 1217.43999,1232.42 C1199.20999,1264.34 1179.42999,1295.23 1159.81999,1326.45 C1152.17999,1338.6 1143.5,1349.87 1135.51999,1361.32 C1137.59999,1368.09 1139.67999,1374.34 1141.93999,1381.8 C1136.20999,1382.49 1132.04999,1383.88 1128.56999,1383.01 C1121.45999,1381.45 1117.63999,1384.92 1113.81999,1389.78 C1080.83999,1432.46 1044.91999,1472.36 1005.51999,1509.31 C1004.47999,1510.18 1003.95999,1511.39 1002.91999,1512.96 C1005.68999,1520.42 1008.46999,1528.05 1011.58999,1536.38 C1001.86999,1540.02 993.889994,1538.46 986.426994,1536.2 C979.310994,1534.12 974.624994,1536.03 969.417994,1540.37 C938.349994,1566.39 905.199994,1589.29 869.792994,1609.07 C829.699994,1631.28 788.044994,1650.01 743.265994,1660.6 C716.710994,1666.84 689.982994,1673.26 662.906994,1676.38 C620.557994,1681.24 577.687994,1681.76 535.685994,1673.43 C519.718994,1670.31 503.229994,1670.14 487.609994,1665.28 C471.814994,1660.42 455.500994,1656.6 439.879994,1651.4 C424.085994,1646.2 408.464994,1640.47 393.191994,1634.22 C326.717994,1606.99 266.838994,1568.82 211.992994,1522.32 C157.494994,1476.18 111.326994,1422.57 73.6641941,1362.02 C55.2665941,1332.53 40.1666941,1301.12 27.1494941,1268.51 C13.9587941,1234.85 4.58647411,1200.33 -1.66175589,1165.11 C-10.5134059,1114.8 -11.0341059,1063.79 -4.95943589,1012.96 C0.768109106,965.074 11.7024941,918.405 27.3230941,872.951 C30.7942941,862.715 30.9678941,855.255 21.2483941,848.662 C18.1242941,846.58 16.2150941,842.763 13.7852941,839.64 C14.3059941,838.6 14.6530941,837.385 15.0001941,835.997 Z" id="Path" fill="#333333" fill-rule="nonzero"></path>
    </g>
</svg>