<?xml version="1.0" encoding="UTF-8"?>
<svg width="1440px" height="720px" viewBox="0 0 1440 720" version="1.1" xmlns="http://www.w3.org/2000/svg" xmlns:xlink="http://www.w3.org/1999/xlink">
    <!-- Generator: Sketch 61.2 (89653) - https://sketch.com -->
    <title>YILAN_CHERRY_DUCK</title>
    <desc>Created with Sketch.</desc>
    <g id="YILAN_CHERRY_DUCK" stroke="none" stroke-width="1" fill="none" fill-rule="evenodd">
        <g id="Group" transform="translate(-503.000000, 78.000000)" fill="#333333" fill-rule="nonzero">
            <path d="M983.49,117.196 C1035.48,95.14 1086.59,70.125 1139.77,51.501 C1314.78,-9.6156 1492.2,-20.396 1668.55,42.609 C1805.29,91.353 1882.9,191.171 1894.93,337.493 C1906.87,485.105 1858.38,613.624 1761.28,723.374 C1677.18,818.466 1571.46,881.464 1451.84,923.17 C1346.45,960.04 1236.89,979.78 1128.08,1001.48 C1034.51,1020.26 941.16,1040.8 850.54,1070.98 C767.29,1098.71 691.55,1141.62 617.79,1188.11 C557.54,1226.03 496.76,1263.75 434.28,1298.11 C378.73,1328.54 319.4,1349.2 254.87,1352.61 C133.17,1359.03 37.38,1283.72 10.34,1168.93 C-10.56,1080.99 3.64,995.6 34.5,912.491 C63.39,834.228 107.68,764.538 161.46,701.341 C205.2,649.878 250,598.793 297.51,550.952 C401.44,446.748 518.7,359.3 645.56,285.239 C701.59,252.452 758.34,221.366 815.02,189.776 C821.48,186.161 828.56,183.491 835.36,180.6 C884.36,159.171 933.93,138.184 983.49,117.196 Z M1328.58,367.161 C1313.15,372.657 1307.48,380.523 1309.86,391.479 C1312.24,402.436 1321.4,408.203 1335.72,406.169 C1344,404.885 1351.84,402.121 1360.03,400.082 C1386.6,393.713 1393.49,399.763 1391.58,427.619 C1390.78,439.738 1388.66,451.509 1387.62,463.659 C1386.76,475.274 1391.88,483.588 1403.49,486.493 C1414.04,489.02 1424.31,481.096 1426.8,468.255 C1429.62,453.84 1430.82,438.857 1432.57,424.064 C1436.72,389.535 1444.15,381.451 1477.24,374.018 C1481.71,372.951 1486.28,372.64 1491,371.542 C1514.43,366.587 1522.9,358.63 1519.7,345.218 C1516.53,332.057 1505.86,328.523 1482.63,332.942 C1453.63,338.333 1445.93,331.874 1446.52,301.624 C1446.74,295.202 1447.72,288.687 1448.2,282.234 C1449.63,262.876 1452.07,243.393 1452.21,223.939 C1452.32,208.326 1440.43,201.108 1425.94,205.976 C1414.64,209.681 1410.82,218.082 1409.4,229.256 C1406.36,252.138 1403.35,275.273 1399.52,297.997 C1397.65,309.737 1394.78,321.602 1391.62,333.247 C1387.58,348.07 1377.63,356.467 1362.39,359.382 C1350.84,361.072 1339.25,364.557 1328.58,367.161 Z" id="Shape"></path>
        </g>
    </g>
</svg>