<?xml version="1.0" encoding="UTF-8"?>
<svg width="1440px" height="720px" viewBox="0 0 1440 720" version="1.1" xmlns="http://www.w3.org/2000/svg" xmlns:xlink="http://www.w3.org/1999/xlink">
    <!-- Generator: Sketch 61.2 (89653) - https://sketch.com -->
    <title>YILAN_SANXING_SCALLIAN</title>
    <desc>Created with Sketch.</desc>
    <g id="YILAN_SANXING_SCALLIAN" stroke="none" stroke-width="1" fill="none" fill-rule="evenodd">
        <g id="Group" transform="translate(47.000000, 103.000000)" fill="#333333" fill-rule="nonzero">
            <path d="M660.32,1321.11 C539.32,1321.11 399.34,1290.27 270.93,1212.27 C224.37,1183.8 187.01,1146.43 153.49,1104.32 C87.66,1021.28 44.36,926.68 23.01,823.77 C-17.92,626.86 -7.24,433.79 79.35,249.04 C113.16,176.97 160.32,113.8 223.48,64.28 C261.44,34.62 304.15,16.23 352.19,6.74 C421.88,-6.9 489.2,0.81 555.04,23.95 C619.69,46.78 682.86,74.36 747.51,97.2 C831.14,126.56 915.66,154.73 1000.48,180.83 C1102.79,212.26 1206.29,239.25 1300.3,293.52 C1410.92,357.28 1490.4,447.14 1525.69,570.21 C1547.34,645.84 1547.63,723.83 1525.39,800.64 C1486.25,935.28 1405.28,1039.38 1293.48,1120.93 C1185.24,1200.11 1064.53,1251.71 935.53,1287 C854.27,1309.54 772.12,1322 660.32,1321.11 Z M631.55,1127.75 C701.25,1129.53 758.48,1125.08 815.42,1114.11 C910.91,1095.72 1005.22,1073.18 1093,1029.88 C1162.99,995.19 1228.53,954.26 1280.73,894.65 C1329.36,839.2 1362.58,776.32 1367.32,701.89 C1373.26,609.06 1331.74,536.11 1265.31,475.61 C1211.93,426.97 1146.39,399.99 1079.66,376.26 C981.79,341.56 883.33,308.35 785.47,273.06 C727.64,252.3 671,227.39 612.87,207.52 C559.78,189.43 505.22,182.61 448.57,192.99 C412.99,199.51 379.77,212.85 351.89,233.61 C297.03,273.95 259.96,329.11 236.53,393.17 C205.99,476.5 193.23,563.1 191.16,651.47 C189.08,727.1 204.5,800.05 222.59,872.41 C229.12,898.21 240.98,924.01 255.51,946.55 C305.33,1022.47 374.43,1073.78 461.92,1101.95 C520.94,1121.23 581.14,1131.01 631.55,1127.75 Z" id="Shape"></path>
            <path d="M342.4,666.89 C339.14,605.8 344.78,547.67 365.83,492.22 C399.05,405.03 459.25,341.27 545.85,306.27 C609.31,280.47 675.15,291.15 723.19,351.05 C746.03,379.52 754.63,416 756.41,453.07 C758.78,500.22 748.4,545.6 736.54,590.38 C715.78,667.49 688.2,742.22 652.31,813.69 C631.85,854.32 609.61,893.46 574.91,924.6 C535.17,960.49 483.86,966.72 439.08,937.65 C388.96,905.33 367.02,854.91 353.08,800.05 C341.51,756.16 338.25,710.78 342.4,666.89 Z" id="Path"></path>
            <path d="M1109.32,801.24 C1056.53,794.71 1007,770.39 962.52,736.29 C899.05,687.95 876.22,620.04 883.63,543.82 C892.53,450.11 971.41,399.99 1060.38,430.24 C1143.42,458.41 1206.88,511.2 1236.84,596.01 C1259.67,660.37 1253.15,721.16 1200.06,770.99 C1174.86,794.12 1145.2,799.16 1109.32,801.24 Z" id="Path"></path>
        </g>
    </g>
</svg>