<svg width="138" height="47" viewBox="0 0 138 47" fill="none" xmlns="http://www.w3.org/2000/svg">
<path d="M3.0736 15.2802V11.5233H8.50807C9.32967 11.5233 9.9929 11.3896 10.4977 11.1223C11.0125 10.8551 11.3886 10.4888 11.6262 10.0235C11.8638 9.55819 11.9826 9.0236 11.9826 8.41972C11.9826 7.81584 11.8638 7.25155 11.6262 6.72687C11.3886 6.19228 11.0125 5.76659 10.4977 5.4498C9.9929 5.12311 9.32967 4.95976 8.50807 4.95976H4.67721V22.809H0V1.18797H8.50807C10.2206 1.18797 11.6906 1.49981 12.918 2.12349C14.1455 2.74717 15.0859 3.6035 15.7392 4.69247C16.3925 5.77154 16.7192 7.00406 16.7192 8.39002C16.7192 9.79578 16.3925 11.0134 15.7392 12.043C15.0859 13.0726 14.1455 13.8695 12.918 14.4338C11.6906 14.9981 10.2206 15.2802 8.50807 15.2802H3.0736Z" fill="#111111"/>
<path d="M24.1582 22.809H19.6591V0H24.1582V22.809Z" fill="#111111"/>
<path d="M36.2001 12.1024C36.2001 11.3797 36.0219 10.8056 35.6656 10.3799C35.3092 9.95418 34.74 9.74133 33.958 9.74133C33.5126 9.74133 33.1265 9.81558 32.7999 9.96408C32.4732 10.1126 32.2257 10.3254 32.0575 10.6026C31.8892 10.8699 31.805 11.2015 31.805 11.5975H27.3209C27.3209 10.6472 27.603 9.78588 28.1672 9.0137C28.7314 8.23162 29.5283 7.60794 30.5578 7.14265C31.5873 6.67737 32.7999 6.44472 34.1956 6.44472C35.4429 6.44472 36.5565 6.65757 37.5365 7.08326C38.5165 7.49904 39.2886 8.12768 39.8528 8.96915C40.417 9.81063 40.6992 10.865 40.6992 12.1321V18.8441C40.6992 19.7945 40.7536 20.5469 40.8625 21.1013C40.9813 21.6557 41.1446 22.1407 41.3525 22.5565V22.809H36.8386C36.6208 22.3536 36.4575 21.7844 36.3486 21.1013C36.2496 20.4182 36.2001 19.7252 36.2001 19.0223V12.1024ZM36.8089 15.5624H34.5223C33.4334 15.5624 32.6464 15.8 32.1614 16.2752C31.6763 16.7404 31.4338 17.3047 31.4338 17.968C31.4338 18.4729 31.612 18.8887 31.9684 19.2154C32.3247 19.5421 32.8048 19.7054 33.4086 19.7054C34.0323 19.7054 34.5668 19.5866 35.0123 19.349C35.4676 19.1015 35.8141 18.8095 36.0516 18.4729C36.2991 18.1264 36.4179 17.8096 36.408 17.5225L37.5662 19.453C37.4078 19.849 37.195 20.2598 36.9277 20.6855C36.6703 21.1112 36.3387 21.5072 35.9329 21.8735C35.527 22.2397 35.0321 22.5367 34.448 22.7644C33.8739 22.9921 33.1958 23.106 32.4138 23.106C31.4041 23.106 30.4835 22.903 29.652 22.4971C28.8205 22.0813 28.1623 21.5121 27.6772 20.7894C27.1922 20.0569 26.9496 19.2203 26.9496 18.2799C26.9496 16.5969 27.5733 15.2951 28.8205 14.3744C30.0678 13.4438 31.9238 12.9785 34.3886 12.9785H36.7792L36.8089 15.5624Z" fill="#111111"/>
<path d="M51.9393 10.0086H42.4513V6.74172H51.9393V10.0086ZM49.2221 2.77687V17.7898C49.2221 18.2254 49.2765 18.562 49.3854 18.7996C49.5042 19.0372 49.6873 19.2005 49.9348 19.2896C50.1823 19.3787 50.4891 19.4233 50.8554 19.4233C51.1227 19.4233 51.3602 19.4134 51.5681 19.3936C51.776 19.3738 51.9542 19.349 52.1026 19.3193L52.0878 22.705C51.7215 22.8337 51.3206 22.9327 50.8851 23.002C50.4594 23.0713 49.9793 23.106 49.4448 23.106C48.4846 23.106 47.6482 22.9476 46.9354 22.6308C46.2326 22.3041 45.6882 21.7893 45.3021 21.0864C44.926 20.3736 44.7379 19.4431 44.7379 18.2947V2.77687H49.2221Z" fill="#111111"/>
<path d="M61.7392 23.106C60.0465 23.106 58.5963 22.7545 57.3886 22.0516C56.1909 21.3488 55.2703 20.4083 54.6269 19.2302C53.9933 18.0522 53.6766 16.7503 53.6766 15.3248V14.7456C53.6766 13.1419 53.9785 11.7163 54.5823 10.469C55.196 9.2117 56.0671 8.22668 57.1956 7.51389C58.3241 6.80111 59.6703 6.44472 61.2343 6.44472C62.7885 6.44472 64.0951 6.77141 65.1543 7.4248C66.2135 8.07818 67.0153 8.99885 67.5597 10.1868C68.1041 11.3649 68.3764 12.7509 68.3764 14.3447V16.2455H55.5623V13.231H63.9664V12.8746C63.9664 12.3202 63.8674 11.8302 63.6695 11.4045C63.4715 10.9788 63.1696 10.6472 62.7637 10.4096C62.3678 10.172 61.8481 10.0532 61.2046 10.0532C60.4721 10.0532 59.8831 10.2611 59.4377 10.6769C58.9923 11.0926 58.6656 11.652 58.4577 12.3549C58.2597 13.0577 58.1607 13.8547 58.1607 14.7456V15.3248C58.1607 16.1465 58.3142 16.8691 58.621 17.4928C58.9279 18.1165 59.3684 18.6065 59.9425 18.9629C60.5167 19.3094 61.2096 19.4827 62.0213 19.4827C62.7835 19.4827 63.4962 19.3441 64.1595 19.0669C64.8227 18.7798 65.3869 18.3343 65.8522 17.7304L68.02 20.2103C67.5152 20.933 66.7332 21.5963 65.674 22.2001C64.6247 22.804 63.3131 23.106 61.7392 23.106Z" fill="#111111"/>
<path d="M75.652 22.809H70.9748V1.18797H75.652V22.809ZM84.1304 14.0626H74.4048V10.3056H84.1304V14.0626ZM85.1549 4.95976H74.4048V1.18797H85.1549V4.95976Z" fill="#111111"/>
<path d="M85.8528 14.6268C85.8528 13.0627 86.1498 11.6668 86.7437 10.4393C87.3376 9.2018 88.2038 8.22668 89.3422 7.51389C90.4805 6.80111 91.8614 6.44472 93.4848 6.44472C95.128 6.44472 96.5188 6.80111 97.6572 7.51389C98.8055 8.22668 99.6716 9.2018 100.256 10.4393C100.85 11.6668 101.147 13.0627 101.147 14.6268V14.9387C101.147 16.4929 100.85 17.8888 100.256 19.1263C99.6716 20.3637 98.8104 21.3389 97.672 22.0516C96.5337 22.7545 95.1478 23.106 93.5145 23.106C91.8812 23.106 90.4904 22.7545 89.3422 22.0516C88.2038 21.3389 87.3376 20.3637 86.7437 19.1263C86.1498 17.8888 85.8528 16.4929 85.8528 14.9387V14.6268ZM90.3518 14.9387C90.3518 15.7802 90.4508 16.5474 90.6488 17.2404C90.8567 17.9334 91.1883 18.4828 91.6436 18.8887C92.1089 19.2946 92.7325 19.4975 93.5145 19.4975C94.2866 19.4975 94.9004 19.2946 95.3557 18.8887C95.821 18.4828 96.1526 17.9334 96.3505 17.2404C96.5584 16.5474 96.6624 15.7802 96.6624 14.9387V14.6268C96.6624 13.8052 96.5584 13.0478 96.3505 12.3549C96.1526 11.652 95.821 11.0926 95.3557 10.6769C94.9004 10.2611 94.2767 10.0532 93.4848 10.0532C92.7127 10.0532 92.094 10.2611 91.6288 10.6769C91.1734 11.0926 90.8468 11.652 90.6488 12.3549C90.4508 13.0478 90.3518 13.8052 90.3518 14.6268V14.9387Z" fill="#111111"/>
<path d="M108.199 22.809H103.715V6.74172H107.932L108.199 10.4393V22.809ZM112.892 10.959C112.674 10.9293 112.416 10.9046 112.119 10.8848C111.822 10.8551 111.555 10.8402 111.318 10.8402C110.536 10.8402 109.892 10.964 109.387 11.2114C108.882 11.449 108.506 11.8054 108.259 12.2806C108.011 12.7558 107.878 13.3448 107.858 14.0477L106.982 13.6616C106.982 12.2658 107.16 11.0233 107.516 9.93438C107.873 8.84541 108.397 7.99403 109.09 7.38025C109.783 6.75657 110.625 6.44472 111.615 6.44472C111.842 6.44472 112.08 6.45957 112.327 6.48927C112.585 6.51897 112.793 6.56847 112.951 6.63777L112.892 10.959Z" fill="#111111"/>
<path d="M119.395 22.809H114.911V6.74172H119.128L119.395 10.0977V22.809ZM117.539 14.3002C117.539 12.7756 117.777 11.4243 118.252 10.2462C118.727 9.06815 119.43 8.14253 120.36 7.46935C121.301 6.78626 122.464 6.44472 123.85 6.44472C125.275 6.44472 126.438 6.88526 127.339 7.76634C128.24 8.63751 128.69 10.0779 128.69 12.0876V22.809H124.206V12.637C124.206 11.9539 124.112 11.4292 123.924 11.0629C123.746 10.6868 123.483 10.4294 123.137 10.2908C122.79 10.1522 122.375 10.0829 121.89 10.0829C121.365 10.0829 120.905 10.1868 120.509 10.3947C120.113 10.5927 119.786 10.8798 119.529 11.256C119.271 11.6322 119.078 12.0777 118.95 12.5925C118.831 13.0973 118.771 13.6468 118.771 14.2408L117.539 14.3002ZM126.686 14.122C126.676 12.6667 126.898 11.3599 127.354 10.2017C127.819 9.0434 128.512 8.12768 129.433 7.4545C130.353 6.78131 131.496 6.44472 132.862 6.44472C133.892 6.44472 134.793 6.64272 135.565 7.03871C136.337 7.4347 136.936 8.08313 137.362 8.984C137.787 9.88488 138 11.0926 138 12.6073V22.809H133.486V12.5925C133.486 11.8995 133.392 11.3748 133.204 11.0184C133.026 10.662 132.764 10.4195 132.417 10.2908C132.08 10.1522 131.675 10.0829 131.199 10.0829C130.705 10.0829 130.274 10.1769 129.908 10.365C129.551 10.5531 129.249 10.8254 129.002 11.1817C128.764 11.5282 128.581 11.9391 128.453 12.4143C128.334 12.8795 128.274 13.3894 128.274 13.9438L126.686 14.122Z" fill="#111111"/>
<path d="M4.02 43.8811C3.5 43.8811 3.03 43.7714 2.61 43.552C2.19 43.3326 1.855 43.0333 1.605 42.6543C1.355 42.2753 1.22 41.8514 1.2 41.3826V38.8093C1.22 38.3405 1.355 37.9216 1.605 37.5526C1.865 37.1735 2.205 36.8793 2.625 36.6699C3.045 36.4604 3.51 36.3557 4.02 36.3557C4.69 36.3557 5.29 36.5202 5.82 36.8494C6.35 37.1785 6.765 37.6274 7.065 38.1959C7.375 38.7644 7.53 39.4078 7.53 40.1259C7.53 40.8341 7.375 41.4724 7.065 42.0409C6.765 42.6094 6.35 43.0583 5.82 43.3874C5.29 43.7166 4.69 43.8811 4.02 43.8811ZM3.69 42.0708C4.05 42.0708 4.365 41.991 4.635 41.8315C4.915 41.6619 5.13 41.4325 5.28 41.1432C5.44 40.844 5.52 40.4999 5.52 40.1109C5.52 39.7319 5.44 39.3978 5.28 39.1085C5.13 38.8093 4.915 38.5799 4.635 38.4203C4.355 38.2508 4.035 38.166 3.675 38.166C3.315 38.166 2.995 38.2508 2.715 38.4203C2.445 38.5799 2.23 38.8093 2.07 39.1085C1.92 39.3978 1.845 39.7319 1.845 40.1109C1.845 40.4999 1.92 40.844 2.07 41.1432C2.23 41.4325 2.45 41.6619 2.73 41.8315C3.01 41.991 3.33 42.0708 3.69 42.0708ZM0 43.7315V32.9146H1.965V38.2857L1.635 40.0212L1.95 41.7866V43.7315H0Z" fill="black"/>
<path d="M10.8786 43.7914L7.84863 36.5053H9.97863L11.9886 42.0708H11.2686L13.3536 36.5053H15.4986L12.2736 43.7764L10.8786 43.7914ZM8.86863 46.7537L11.0736 42.1008L12.2736 43.7764L10.9536 46.7537H8.86863Z" fill="black"/>
<path d="M23.7888 43.8811C22.9588 43.8811 22.2188 43.7016 21.5688 43.3425C20.9288 42.9735 20.4238 42.4698 20.0538 41.8315C19.6838 41.1931 19.4988 40.47 19.4988 39.6621V33.2138H21.5388V39.7219C21.5388 40.1907 21.6338 40.5947 21.8238 40.9338C22.0238 41.2729 22.2938 41.5372 22.6338 41.7267C22.9838 41.9063 23.3688 41.996 23.7888 41.996C24.2188 41.996 24.5988 41.9063 24.9288 41.7267C25.2588 41.5372 25.5188 41.2729 25.7088 40.9338C25.9088 40.5947 26.0088 40.1957 26.0088 39.7369V33.2138H28.0638V39.6771C28.0638 40.485 27.8788 41.2081 27.5088 41.8464C27.1388 42.4748 26.6338 42.9735 25.9938 43.3425C25.3638 43.7016 24.6288 43.8811 23.7888 43.8811Z" fill="black"/>
<path d="M34.7432 43.7315V39.5873C34.7432 39.1584 34.6082 38.8093 34.3382 38.54C34.0682 38.2707 33.7182 38.1361 33.2882 38.1361C33.0082 38.1361 32.7582 38.1959 32.5382 38.3156C32.3182 38.4353 32.1432 38.6048 32.0132 38.8243C31.8932 39.0437 31.8332 39.298 31.8332 39.5873L31.0682 39.1983C31.0682 38.6298 31.1882 38.136 31.4282 37.7171C31.6782 37.2882 32.0182 36.9541 32.4482 36.7147C32.8882 36.4754 33.3832 36.3557 33.9332 36.3557C34.4632 36.3557 34.9382 36.4903 35.3582 36.7596C35.7782 37.0189 36.1082 37.3631 36.3482 37.7919C36.5882 38.2109 36.7082 38.6647 36.7082 39.1534V43.7315H34.7432ZM29.8682 43.7315V36.5053H31.8332V43.7315H29.8682Z" fill="black"/>
<path d="M43.166 43.7315V39.5873C43.166 39.1584 43.031 38.8093 42.761 38.54C42.491 38.2707 42.141 38.1361 41.711 38.1361C41.431 38.1361 41.181 38.1959 40.961 38.3156C40.741 38.4353 40.566 38.6048 40.436 38.8243C40.316 39.0437 40.256 39.298 40.256 39.5873L39.491 39.1983C39.491 38.6298 39.611 38.136 39.851 37.7171C40.101 37.2882 40.441 36.9541 40.871 36.7147C41.311 36.4754 41.806 36.3557 42.356 36.3557C42.886 36.3557 43.361 36.4903 43.781 36.7596C44.201 37.0189 44.531 37.3631 44.771 37.7919C45.011 38.2109 45.131 38.6647 45.131 39.1534V43.7315H43.166ZM38.291 43.7315V36.5053H40.256V43.7315H38.291Z" fill="black"/>
<path d="M49.7439 43.8811C49.0839 43.8811 48.4889 43.7166 47.9589 43.3874C47.4289 43.0583 47.0139 42.6094 46.7139 42.0409C46.4139 41.4724 46.2639 40.8341 46.2639 40.1259C46.2639 39.4078 46.4139 38.7644 46.7139 38.1959C47.0139 37.6274 47.4289 37.1785 47.9589 36.8494C48.4889 36.5202 49.0839 36.3557 49.7439 36.3557C50.2639 36.3557 50.7289 36.4604 51.1389 36.6699C51.5489 36.8793 51.8739 37.1735 52.1139 37.5526C52.3639 37.9216 52.4989 38.3405 52.5189 38.8093V41.4125C52.4989 41.8913 52.3639 42.3152 52.1139 42.6842C51.8739 43.0533 51.5489 43.3475 51.1389 43.567C50.7289 43.7764 50.2639 43.8811 49.7439 43.8811ZM50.1039 42.0708C50.6539 42.0708 51.0989 41.8913 51.4389 41.5322C51.7789 41.1632 51.9489 40.6894 51.9489 40.1109C51.9489 39.7319 51.8689 39.3978 51.7089 39.1085C51.5589 38.8093 51.3439 38.5799 51.0639 38.4203C50.7939 38.2508 50.4739 38.166 50.1039 38.166C49.7439 38.166 49.4239 38.2508 49.1439 38.4203C48.8739 38.5799 48.6589 38.8093 48.4989 39.1085C48.3489 39.3978 48.2739 39.7319 48.2739 40.1109C48.2739 40.4999 48.3489 40.844 48.4989 41.1432C48.6589 41.4325 48.8739 41.6619 49.1439 41.8315C49.4239 41.991 49.7439 42.0708 50.1039 42.0708ZM51.8439 43.7315V41.7866L52.1589 40.0212L51.8439 38.2857V36.5053H53.7939V43.7315H51.8439Z" fill="black"/>
<path d="M55.5322 43.7315V36.5053H57.4972V43.7315H55.5322ZM60.2572 43.7315V39.4676C60.2572 39.0487 60.1222 38.7245 59.8522 38.4951C59.5922 38.2557 59.2672 38.1361 58.8772 38.1361C58.6172 38.1361 58.3822 38.1909 58.1722 38.3006C57.9622 38.4004 57.7972 38.55 57.6772 38.7495C57.5572 38.9489 57.4972 39.1883 57.4972 39.4676L56.7322 39.0936C56.7322 38.535 56.8522 38.0513 57.0922 37.6423C57.3422 37.2334 57.6772 36.9192 58.0972 36.6998C58.5172 36.4704 58.9922 36.3557 59.5222 36.3557C60.0222 36.3557 60.4772 36.4704 60.8872 36.6998C61.2972 36.9192 61.6222 37.2334 61.8622 37.6423C62.1022 38.0413 62.2222 38.525 62.2222 39.0936V43.7315H60.2572ZM64.9822 43.7315V39.4676C64.9822 39.0487 64.8472 38.7245 64.5772 38.4951C64.3172 38.2557 63.9922 38.1361 63.6022 38.1361C63.3522 38.1361 63.1172 38.1909 62.8972 38.3006C62.6872 38.4004 62.5222 38.55 62.4022 38.7495C62.2822 38.9489 62.2222 39.1883 62.2222 39.4676L61.0972 39.1983C61.1372 38.6198 61.2922 38.1211 61.5622 37.7022C61.8322 37.2733 62.1872 36.9441 62.6272 36.7147C63.0672 36.4754 63.5572 36.3557 64.0972 36.3557C64.6372 36.3557 65.1222 36.4704 65.5522 36.6998C65.9822 36.9192 66.3222 37.2384 66.5722 37.6573C66.8222 38.0762 66.9472 38.5749 66.9472 39.1534V43.7315H64.9822Z" fill="black"/>
<path d="M72.005 43.8811C71.245 43.8811 70.57 43.7216 69.98 43.4024C69.39 43.0732 68.92 42.6244 68.57 42.0559C68.23 41.4874 68.06 40.839 68.06 40.1109C68.06 39.3928 68.225 38.7544 68.555 38.1959C68.895 37.6274 69.355 37.1785 69.935 36.8494C70.515 36.5103 71.16 36.3407 71.87 36.3407C72.57 36.3407 73.185 36.5003 73.715 36.8195C74.255 37.1287 74.675 37.5576 74.975 38.1061C75.285 38.6447 75.44 39.2581 75.44 39.9464C75.44 40.076 75.43 40.2107 75.41 40.3503C75.4 40.48 75.375 40.6296 75.335 40.7991L69.245 40.8141V39.3479L74.42 39.3329L73.625 39.9464C73.605 39.5175 73.525 39.1584 73.385 38.8691C73.255 38.5799 73.06 38.3605 72.8 38.2109C72.55 38.0513 72.24 37.9715 71.87 37.9715C71.48 37.9715 71.14 38.0612 70.85 38.2408C70.56 38.4103 70.335 38.6547 70.175 38.9739C70.025 39.2831 69.95 39.6521 69.95 40.081C69.95 40.5199 70.03 40.9039 70.19 41.233C70.36 41.5522 70.6 41.8015 70.91 41.9811C71.22 42.1506 71.58 42.2354 71.99 42.2354C72.36 42.2354 72.695 42.1756 72.995 42.0559C73.295 41.9262 73.555 41.7367 73.775 41.4874L74.93 42.6394C74.58 43.0483 74.15 43.3575 73.64 43.567C73.14 43.7764 72.595 43.8811 72.005 43.8811Z" fill="black"/>
<path d="M82.1706 43.7315V33.4382H84.2256V43.7315H82.1706ZM78.8106 35.0241V33.2138H87.5856V35.0241H78.8106Z" fill="black"/>
<path d="M90.3874 43.8811C89.6574 43.8811 88.9974 43.7166 88.4074 43.3874C87.8274 43.0483 87.3624 42.5945 87.0124 42.026C86.6724 41.4475 86.5024 40.8041 86.5024 40.096C86.5024 39.3878 86.6724 38.7544 87.0124 38.1959C87.3524 37.6274 87.8174 37.1785 88.4074 36.8494C88.9974 36.5103 89.6524 36.3407 90.3724 36.3407C91.1124 36.3407 91.7724 36.5103 92.3524 36.8494C92.9424 37.1785 93.4074 37.6274 93.7474 38.1959C94.0874 38.7544 94.2574 39.3878 94.2574 40.096C94.2574 40.8041 94.0874 41.4475 93.7474 42.026C93.4074 42.5945 92.9424 43.0483 92.3524 43.3874C91.7724 43.7166 91.1174 43.8811 90.3874 43.8811ZM90.3724 42.0559C90.7424 42.0559 91.0674 41.9761 91.3474 41.8165C91.6374 41.6469 91.8574 41.4175 92.0074 41.1283C92.1674 40.8291 92.2474 40.4899 92.2474 40.1109C92.2474 39.7319 92.1674 39.3978 92.0074 39.1085C91.8474 38.8193 91.6274 38.5949 91.3474 38.4353C91.0674 38.2657 90.7424 38.1809 90.3724 38.1809C90.0124 38.1809 89.6924 38.2657 89.4124 38.4353C89.1324 38.5949 88.9124 38.8193 88.7524 39.1085C88.5924 39.3978 88.5124 39.7319 88.5124 40.1109C88.5124 40.4899 88.5924 40.8291 88.7524 41.1283C88.9124 41.4175 89.1324 41.6469 89.4124 41.8165C89.6924 41.9761 90.0124 42.0559 90.3724 42.0559Z" fill="black"/>
<path d="M100.142 43.7315L97.3375 40.0062L100.127 36.5053H102.392L99.1225 40.455L99.1975 39.4975L102.542 43.7315H100.142ZM95.5225 43.7315V32.9146H97.4875V43.7315H95.5225Z" fill="black"/>
<path d="M106.575 43.8811C105.815 43.8811 105.14 43.7216 104.55 43.4024C103.96 43.0732 103.49 42.6244 103.14 42.0559C102.8 41.4874 102.63 40.839 102.63 40.1109C102.63 39.3928 102.795 38.7544 103.125 38.1959C103.465 37.6274 103.925 37.1785 104.505 36.8494C105.085 36.5103 105.73 36.3407 106.44 36.3407C107.14 36.3407 107.755 36.5003 108.285 36.8195C108.825 37.1287 109.245 37.5576 109.545 38.1061C109.855 38.6447 110.01 39.2581 110.01 39.9464C110.01 40.076 110 40.2107 109.98 40.3503C109.97 40.48 109.945 40.6296 109.905 40.7991L103.815 40.8141V39.3479L108.99 39.3329L108.195 39.9464C108.175 39.5175 108.095 39.1584 107.955 38.8691C107.825 38.5799 107.63 38.3605 107.37 38.2109C107.12 38.0513 106.81 37.9715 106.44 37.9715C106.05 37.9715 105.71 38.0612 105.42 38.2408C105.13 38.4103 104.905 38.6547 104.745 38.9739C104.595 39.2831 104.52 39.6521 104.52 40.081C104.52 40.5199 104.6 40.9039 104.76 41.233C104.93 41.5522 105.17 41.8015 105.48 41.9811C105.79 42.1506 106.15 42.2354 106.56 42.2354C106.93 42.2354 107.265 42.1756 107.565 42.0559C107.865 41.9262 108.125 41.7367 108.345 41.4874L109.5 42.6394C109.15 43.0483 108.72 43.3575 108.21 43.567C107.71 43.7764 107.165 43.8811 106.575 43.8811Z" fill="black"/>
<path d="M116.101 43.7315V39.5873C116.101 39.1584 115.966 38.8093 115.696 38.54C115.426 38.2707 115.076 38.1361 114.646 38.1361C114.366 38.1361 114.116 38.1959 113.896 38.3156C113.676 38.4353 113.501 38.6048 113.371 38.8243C113.251 39.0437 113.191 39.298 113.191 39.5873L112.426 39.1983C112.426 38.6298 112.546 38.136 112.786 37.7171C113.036 37.2882 113.376 36.9541 113.806 36.7147C114.246 36.4754 114.741 36.3557 115.291 36.3557C115.821 36.3557 116.296 36.4903 116.716 36.7596C117.136 37.0189 117.466 37.3631 117.706 37.7919C117.946 38.2109 118.066 38.6647 118.066 39.1534V43.7315H116.101ZM111.226 43.7315V36.5053H113.191V43.7315H111.226Z" fill="black"/>
</svg>
