<svg width="138" height="47" viewBox="0 0 138 47" fill="none" xmlns="http://www.w3.org/2000/svg">
<path d="M4.07485 44.0805C3.54775 44.0805 3.07134 43.9689 2.64561 43.7459C2.21988 43.5229 1.88031 43.2188 1.6269 42.8336C1.37349 42.4483 1.23664 42.0175 1.21637 41.5411V38.9256C1.23664 38.4492 1.37349 38.0234 1.6269 37.6483C1.89045 37.2631 2.23508 36.964 2.66081 36.7512C3.08654 36.5383 3.55789 36.4318 4.07485 36.4318C4.75399 36.4318 5.36217 36.5991 5.8994 36.9336C6.43663 37.2682 6.8573 37.7243 7.16139 38.3022C7.47562 38.88 7.63273 39.5339 7.63273 40.2637C7.63273 40.9835 7.47562 41.6323 7.16139 42.2101C6.8573 42.7879 6.43663 43.2441 5.8994 43.5787C5.36217 43.9132 4.75399 44.0805 4.07485 44.0805ZM3.74034 42.2405C4.10526 42.2405 4.42455 42.1594 4.69824 41.9972C4.98206 41.8249 5.19999 41.5917 5.35204 41.2978C5.51422 40.9936 5.59531 40.6439 5.59531 40.2485C5.59531 39.8633 5.51422 39.5237 5.35204 39.2297C5.19999 38.9256 4.98206 38.6925 4.69824 38.5303C4.41442 38.3579 4.09005 38.2718 3.72514 38.2718C3.36023 38.2718 3.03586 38.3579 2.75204 38.5303C2.47836 38.6925 2.26042 38.9256 2.09824 39.2297C1.9462 39.5237 1.87017 39.8633 1.87017 40.2485C1.87017 40.6439 1.9462 40.9936 2.09824 41.2978C2.26042 41.5917 2.48343 41.8249 2.76725 41.9972C3.05107 42.1594 3.37543 42.2405 3.74034 42.2405ZM0 43.9284V32.9345H1.99181V38.3934L1.65731 40.1573L1.9766 41.9516V43.9284H0Z" fill="#111111"/>
<path d="M11.0271 43.9892L7.95571 36.5839H10.1148L12.1522 42.2405H11.4224L13.5358 36.5839H15.7101L12.4411 43.974L11.0271 43.9892ZM8.98963 47L11.2247 42.2709L12.4411 43.974L11.1031 47H8.98963Z" fill="#111111"/>
<path d="M22.821 44.0805C22.1723 44.0805 21.5945 43.9436 21.0877 43.6699C20.591 43.3962 20.2007 43.016 19.9169 42.5294C19.6331 42.0428 19.4912 41.4802 19.4912 40.8416V36.5839H21.4982V40.796C21.4982 41.1001 21.5489 41.3636 21.6502 41.5867C21.7516 41.7996 21.9036 41.9618 22.1064 42.0733C22.3091 42.1848 22.5473 42.2405 22.821 42.2405C23.2366 42.2405 23.5609 42.1138 23.7941 41.8604C24.0272 41.6069 24.1438 41.2521 24.1438 40.796V36.5839H26.1356V40.8416C26.1356 41.4904 25.9937 42.0581 25.7099 42.5446C25.4362 43.0312 25.0459 43.4114 24.5391 43.6851C24.0424 43.9487 23.4697 44.0805 22.821 44.0805Z" fill="#111111"/>
<path d="M32.6633 43.9284V39.7163C32.6633 39.2804 32.5264 38.9256 32.2527 38.6519C31.9791 38.3782 31.6243 38.2414 31.1884 38.2414C30.9046 38.2414 30.6512 38.3022 30.4282 38.4238C30.2052 38.5455 30.0278 38.7178 29.896 38.9408C29.7744 39.1638 29.7136 39.4224 29.7136 39.7163L28.9381 39.321C28.9381 38.7431 29.0598 38.2414 29.303 37.8156C29.5565 37.3797 29.9011 37.0401 30.337 36.7968C30.783 36.5535 31.2847 36.4318 31.8422 36.4318C32.3794 36.4318 32.8609 36.5687 33.2867 36.8424C33.7124 37.106 34.0469 37.4557 34.2902 37.8916C34.5334 38.3174 34.6551 38.7786 34.6551 39.2754V43.9284H32.6633ZM27.7218 43.9284V36.5839H29.7136V43.9284H27.7218Z" fill="#111111"/>
<path d="M41.201 43.9284V39.7163C41.201 39.2804 41.0642 38.9256 40.7905 38.6519C40.5168 38.3782 40.162 38.2414 39.7262 38.2414C39.4424 38.2414 39.189 38.3022 38.966 38.4238C38.743 38.5455 38.5656 38.7178 38.4338 38.9408C38.3121 39.1638 38.2513 39.4224 38.2513 39.7163L37.4759 39.321C37.4759 38.7431 37.5975 38.2414 37.8408 37.8156C38.0942 37.3797 38.4389 37.0401 38.8747 36.7968C39.3207 36.5535 39.8225 36.4318 40.38 36.4318C40.9172 36.4318 41.3987 36.5687 41.8244 36.8424C42.2502 37.106 42.5847 37.4557 42.8279 37.8916C43.0712 38.3174 43.1928 38.7786 43.1928 39.2754V43.9284H41.201ZM36.2595 43.9284V36.5839H38.2513V43.9284H36.2595Z" fill="#111111"/>
<path d="M47.8686 44.0805C47.1996 44.0805 46.5965 43.9132 46.0593 43.5787C45.522 43.2441 45.1014 42.7879 44.7973 42.2101C44.4932 41.6323 44.3412 40.9835 44.3412 40.2637C44.3412 39.5339 44.4932 38.88 44.7973 38.3022C45.1014 37.7243 45.522 37.2682 46.0593 36.9336C46.5965 36.5991 47.1996 36.4318 47.8686 36.4318C48.3957 36.4318 48.8671 36.5383 49.2827 36.7512C49.6983 36.964 50.0277 37.2631 50.271 37.6483C50.5244 38.0234 50.6612 38.4492 50.6815 38.9256V41.5715C50.6612 42.0581 50.5244 42.4889 50.271 42.864C50.0277 43.2391 49.6983 43.5381 49.2827 43.7611C48.8671 43.974 48.3957 44.0805 47.8686 44.0805ZM48.2335 42.2405C48.791 42.2405 49.2421 42.0581 49.5868 41.6931C49.9314 41.318 50.1037 40.8365 50.1037 40.2485C50.1037 39.8633 50.0226 39.5237 49.8604 39.2297C49.7084 38.9256 49.4905 38.6925 49.2066 38.5303C48.933 38.3579 48.6086 38.2718 48.2335 38.2718C47.8686 38.2718 47.5443 38.3579 47.2604 38.5303C46.9868 38.6925 46.7688 38.9256 46.6066 39.2297C46.4546 39.5237 46.3786 39.8633 46.3786 40.2485C46.3786 40.6439 46.4546 40.9936 46.6066 41.2978C46.7688 41.5917 46.9868 41.8249 47.2604 41.9972C47.5443 42.1594 47.8686 42.2405 48.2335 42.2405ZM49.9973 43.9284V41.9516L50.3166 40.1573L49.9973 38.3934V36.5839H51.9739V43.9284H49.9973Z" fill="#111111"/>
<path d="M53.736 43.9284V36.5839H55.7278V43.9284H53.736ZM58.5254 43.9284V39.5947C58.5254 39.1689 58.3886 38.8395 58.1149 38.6063C57.8513 38.363 57.5219 38.2414 57.1266 38.2414C56.863 38.2414 56.6248 38.2971 56.412 38.4086C56.1991 38.51 56.0319 38.6621 55.9102 38.8648C55.7886 39.0675 55.7278 39.3108 55.7278 39.5947L54.9523 39.2145C54.9523 38.6468 55.074 38.1552 55.3172 37.7396C55.5707 37.3239 55.9102 37.0046 56.336 36.7816C56.7617 36.5484 57.2432 36.4318 57.7804 36.4318C58.2872 36.4318 58.7484 36.5484 59.164 36.7816C59.5796 37.0046 59.909 37.3239 60.1523 37.7396C60.3956 38.145 60.5172 38.6367 60.5172 39.2145V43.9284H58.5254ZM63.3149 43.9284V39.5947C63.3149 39.1689 63.178 38.8395 62.9044 38.6063C62.6408 38.363 62.3114 38.2414 61.9161 38.2414C61.6626 38.2414 61.4244 38.2971 61.2014 38.4086C60.9886 38.51 60.8213 38.6621 60.6997 38.8648C60.5781 39.0675 60.5172 39.3108 60.5172 39.5947L59.3769 39.321C59.4174 38.733 59.5745 38.2261 59.8482 37.8004C60.1219 37.3645 60.4818 37.0299 60.9278 36.7968C61.3738 36.5535 61.8704 36.4318 62.4178 36.4318C62.9652 36.4318 63.4568 36.5484 63.8927 36.7816C64.3285 37.0046 64.6732 37.329 64.9266 37.7548C65.18 38.1805 65.3067 38.6874 65.3067 39.2754V43.9284H63.3149Z" fill="#111111"/>
<path d="M70.4335 44.0805C69.6631 44.0805 68.9789 43.9183 68.3809 43.5939C67.7828 43.2593 67.3064 42.8031 66.9517 42.2253C66.607 41.6475 66.4347 40.9886 66.4347 40.2485C66.4347 39.5187 66.6019 38.8699 66.9364 38.3022C67.2811 37.7243 67.7474 37.2682 68.3353 36.9336C68.9232 36.589 69.577 36.4166 70.2967 36.4166C71.0062 36.4166 71.6296 36.5788 72.1668 36.9032C72.7142 37.2175 73.1399 37.6534 73.444 38.2109C73.7583 38.7584 73.9154 39.3818 73.9154 40.0813C73.9154 40.2131 73.9052 40.3499 73.885 40.4918C73.8748 40.6236 73.8495 40.7757 73.8089 40.948L67.6359 40.9632V39.473L72.8815 39.4578L72.0756 40.0813C72.0553 39.6454 71.9743 39.2804 71.8323 38.9864C71.7006 38.6925 71.5029 38.4694 71.2394 38.3174C70.9859 38.1552 70.6717 38.0741 70.2967 38.0741C69.9014 38.0741 69.5567 38.1653 69.2628 38.3478C68.9688 38.5201 68.7407 38.7685 68.5785 39.0929C68.4265 39.4071 68.3505 39.7822 68.3505 40.2181C68.3505 40.6642 68.4316 41.0545 68.5938 41.389C68.7661 41.7134 69.0093 41.9668 69.3236 42.1493C69.6378 42.3216 70.0027 42.4078 70.4183 42.4078C70.7934 42.4078 71.1329 42.347 71.437 42.2253C71.7411 42.0935 72.0047 41.9009 72.2277 41.6475L73.3984 42.8184C73.0436 43.234 72.6078 43.5482 72.0908 43.7611C71.584 43.974 71.0316 44.0805 70.4335 44.0805Z" fill="#111111"/>
<path d="M79.1964 43.9284V33.5275H81.1882V43.9284H79.1964ZM77.4783 38.3326V36.5839H82.9063V38.3326H77.4783Z" fill="#111111"/>
<path d="M87.2997 44.0805C86.5598 44.0805 85.8908 43.9132 85.2927 43.5787C84.7048 43.234 84.2335 42.7727 83.8787 42.1949C83.5341 41.6069 83.3617 40.9531 83.3617 40.2333C83.3617 39.5136 83.5341 38.8699 83.8787 38.3022C84.2233 37.7243 84.6947 37.2682 85.2927 36.9336C85.8908 36.589 86.5547 36.4166 87.2845 36.4166C88.0346 36.4166 88.7036 36.589 89.2915 36.9336C89.8896 37.2682 90.3609 37.7243 90.7056 38.3022C91.0502 38.8699 91.2225 39.5136 91.2225 40.2333C91.2225 40.9531 91.0502 41.6069 90.7056 42.1949C90.3609 42.7727 89.8896 43.234 89.2915 43.5787C88.7036 43.9132 88.0397 44.0805 87.2997 44.0805ZM87.2845 42.2253C87.6596 42.2253 87.989 42.1442 88.2728 41.982C88.5668 41.8097 88.7898 41.5765 88.9418 41.2825C89.104 40.9784 89.1851 40.6338 89.1851 40.2485C89.1851 39.8633 89.104 39.5237 88.9418 39.2297C88.7797 38.9358 88.5567 38.7077 88.2728 38.5455C87.989 38.3731 87.6596 38.287 87.2845 38.287C86.9196 38.287 86.5953 38.3731 86.3114 38.5455C86.0276 38.7077 85.8046 38.9358 85.6424 39.2297C85.4803 39.5237 85.3992 39.8633 85.3992 40.2485C85.3992 40.6338 85.4803 40.9784 85.6424 41.2825C85.8046 41.5765 86.0276 41.8097 86.3114 41.982C86.5953 42.1442 86.9196 42.2253 87.2845 42.2253Z" fill="#111111"/>
<path d="M97.1879 43.9284L94.3446 40.1421L97.1727 36.5839H99.4686L96.154 40.5983L96.23 39.6251L99.6206 43.9284H97.1879ZM92.5048 43.9284V32.9345H94.4967V43.9284H92.5048Z" fill="#111111"/>
<path d="M103.709 44.0805C102.938 44.0805 102.254 43.9183 101.656 43.5939C101.058 43.2593 100.581 42.8031 100.227 42.2253C99.882 41.6475 99.7097 40.9886 99.7097 40.2485C99.7097 39.5187 99.877 38.8699 100.211 38.3022C100.556 37.7243 101.022 37.2682 101.61 36.9336C102.198 36.589 102.852 36.4166 103.572 36.4166C104.281 36.4166 104.905 36.5788 105.442 36.9032C105.989 37.2175 106.415 37.6534 106.719 38.2109C107.033 38.7584 107.19 39.3818 107.19 40.0813C107.19 40.2131 107.18 40.3499 107.16 40.4918C107.15 40.6236 107.125 40.7757 107.084 40.948L100.911 40.9632V39.473L106.156 39.4578L105.351 40.0813C105.33 39.6454 105.249 39.2804 105.107 38.9864C104.976 38.6925 104.778 38.4694 104.514 38.3174C104.261 38.1552 103.947 38.0741 103.572 38.0741C103.176 38.0741 102.832 38.1653 102.538 38.3478C102.244 38.5201 102.016 38.7685 101.854 39.0929C101.702 39.4071 101.625 39.7822 101.625 40.2181C101.625 40.6642 101.707 41.0545 101.869 41.389C102.041 41.7134 102.284 41.9668 102.599 42.1493C102.913 42.3216 103.278 42.4078 103.693 42.4078C104.068 42.4078 104.408 42.347 104.712 42.2253C105.016 42.0935 105.28 41.9009 105.503 41.6475L106.673 42.8184C106.319 43.234 105.883 43.5482 105.366 43.7611C104.859 43.974 104.307 44.0805 103.709 44.0805Z" fill="#111111"/>
<path d="M113.364 43.9284V39.7163C113.364 39.2804 113.227 38.9256 112.953 38.6519C112.68 38.3782 112.325 38.2414 111.889 38.2414C111.605 38.2414 111.352 38.3022 111.129 38.4238C110.906 38.5455 110.728 38.7178 110.596 38.9408C110.475 39.1638 110.414 39.4224 110.414 39.7163L109.639 39.321C109.639 38.7431 109.76 38.2414 110.003 37.8156C110.257 37.3797 110.602 37.0401 111.037 36.7968C111.483 36.5535 111.985 36.4318 112.543 36.4318C113.08 36.4318 113.561 36.5687 113.987 36.8424C114.413 37.106 114.747 37.4557 114.991 37.8916C115.234 38.3174 115.356 38.7786 115.356 39.2754V43.9284H113.364ZM108.422 43.9284V36.5839H110.414V43.9284H108.422Z" fill="#111111"/>
<path d="M3.0736 15.2802V11.5233H8.50807C9.32967 11.5233 9.9929 11.3896 10.4977 11.1223C11.0125 10.8551 11.3886 10.4888 11.6262 10.0235C11.8638 9.55819 11.9826 9.0236 11.9826 8.41972C11.9826 7.81584 11.8638 7.25155 11.6262 6.72687C11.3886 6.19228 11.0125 5.76659 10.4977 5.4498C9.9929 5.12311 9.32967 4.95976 8.50807 4.95976H4.67721V22.809H0V1.18797H8.50807C10.2206 1.18797 11.6906 1.49981 12.918 2.12349C14.1455 2.74717 15.0859 3.6035 15.7392 4.69247C16.3925 5.77154 16.7192 7.00406 16.7192 8.39002C16.7192 9.79578 16.3925 11.0134 15.7392 12.043C15.0859 13.0726 14.1455 13.8695 12.918 14.4338C11.6906 14.9981 10.2206 15.2802 8.50807 15.2802H3.0736Z" fill="#111111"/>
<path d="M24.1582 22.809H19.6591V0H24.1582V22.809Z" fill="#111111"/>
<path d="M36.2001 12.1024C36.2001 11.3797 36.0219 10.8056 35.6656 10.3799C35.3092 9.95418 34.74 9.74133 33.958 9.74133C33.5126 9.74133 33.1265 9.81558 32.7999 9.96408C32.4732 10.1126 32.2257 10.3254 32.0575 10.6026C31.8892 10.8699 31.805 11.2015 31.805 11.5975H27.3209C27.3209 10.6472 27.603 9.78588 28.1672 9.0137C28.7314 8.23162 29.5283 7.60794 30.5578 7.14265C31.5873 6.67737 32.7999 6.44472 34.1956 6.44472C35.4429 6.44472 36.5565 6.65757 37.5365 7.08326C38.5165 7.49904 39.2886 8.12768 39.8528 8.96915C40.417 9.81063 40.6992 10.865 40.6992 12.1321V18.8441C40.6992 19.7945 40.7536 20.5469 40.8625 21.1013C40.9813 21.6557 41.1446 22.1407 41.3525 22.5565V22.809H36.8386C36.6208 22.3536 36.4575 21.7844 36.3486 21.1013C36.2496 20.4182 36.2001 19.7252 36.2001 19.0223V12.1024ZM36.8089 15.5624H34.5223C33.4334 15.5624 32.6464 15.8 32.1614 16.2752C31.6763 16.7404 31.4338 17.3047 31.4338 17.968C31.4338 18.4729 31.612 18.8887 31.9684 19.2154C32.3247 19.5421 32.8048 19.7054 33.4086 19.7054C34.0323 19.7054 34.5668 19.5866 35.0123 19.349C35.4676 19.1015 35.8141 18.8095 36.0516 18.4729C36.2991 18.1264 36.4179 17.8096 36.408 17.5225L37.5662 19.453C37.4078 19.849 37.195 20.2598 36.9277 20.6855C36.6703 21.1112 36.3387 21.5072 35.9329 21.8735C35.527 22.2397 35.0321 22.5367 34.448 22.7644C33.8739 22.9921 33.1958 23.106 32.4138 23.106C31.4041 23.106 30.4835 22.903 29.652 22.4971C28.8205 22.0813 28.1623 21.5121 27.6772 20.7894C27.1922 20.0569 26.9496 19.2203 26.9496 18.2799C26.9496 16.5969 27.5733 15.2951 28.8205 14.3744C30.0678 13.4438 31.9238 12.9785 34.3886 12.9785H36.7792L36.8089 15.5624Z" fill="#111111"/>
<path d="M51.9393 10.0086H42.4513V6.74172H51.9393V10.0086ZM49.2221 2.77687V17.7898C49.2221 18.2254 49.2765 18.562 49.3854 18.7996C49.5042 19.0372 49.6873 19.2005 49.9348 19.2896C50.1823 19.3787 50.4891 19.4233 50.8554 19.4233C51.1227 19.4233 51.3602 19.4134 51.5681 19.3936C51.776 19.3738 51.9542 19.349 52.1026 19.3193L52.0878 22.705C51.7215 22.8337 51.3206 22.9327 50.8851 23.002C50.4594 23.0713 49.9793 23.106 49.4448 23.106C48.4846 23.106 47.6482 22.9476 46.9354 22.6308C46.2326 22.3041 45.6882 21.7893 45.3021 21.0864C44.926 20.3736 44.7379 19.4431 44.7379 18.2947V2.77687H49.2221Z" fill="#111111"/>
<path d="M61.7392 23.106C60.0465 23.106 58.5963 22.7545 57.3886 22.0516C56.1909 21.3488 55.2703 20.4083 54.6269 19.2302C53.9933 18.0522 53.6766 16.7503 53.6766 15.3248V14.7456C53.6766 13.1419 53.9785 11.7163 54.5823 10.469C55.196 9.2117 56.0671 8.22668 57.1956 7.51389C58.3241 6.80111 59.6703 6.44472 61.2343 6.44472C62.7885 6.44472 64.0951 6.77141 65.1543 7.4248C66.2135 8.07818 67.0153 8.99885 67.5597 10.1868C68.1041 11.3649 68.3764 12.7509 68.3764 14.3447V16.2455H55.5623V13.231H63.9664V12.8746C63.9664 12.3202 63.8674 11.8302 63.6695 11.4045C63.4715 10.9788 63.1696 10.6472 62.7637 10.4096C62.3678 10.172 61.8481 10.0532 61.2046 10.0532C60.4721 10.0532 59.8831 10.2611 59.4377 10.6769C58.9923 11.0926 58.6656 11.652 58.4577 12.3549C58.2597 13.0577 58.1607 13.8547 58.1607 14.7456V15.3248C58.1607 16.1465 58.3142 16.8691 58.621 17.4928C58.9279 18.1165 59.3684 18.6065 59.9425 18.9629C60.5167 19.3094 61.2096 19.4827 62.0213 19.4827C62.7835 19.4827 63.4962 19.3441 64.1595 19.0669C64.8227 18.7798 65.3869 18.3343 65.8522 17.7304L68.02 20.2103C67.5152 20.933 66.7332 21.5963 65.674 22.2001C64.6247 22.804 63.3131 23.106 61.7392 23.106Z" fill="#111111"/>
<path d="M75.652 22.809H70.9748V1.18797H75.652V22.809ZM84.1304 14.0626H74.4048V10.3056H84.1304V14.0626ZM85.1549 4.95976H74.4048V1.18797H85.1549V4.95976Z" fill="#111111"/>
<path d="M85.8528 14.6268C85.8528 13.0627 86.1498 11.6668 86.7437 10.4393C87.3376 9.2018 88.2038 8.22668 89.3422 7.51389C90.4805 6.80111 91.8614 6.44472 93.4848 6.44472C95.128 6.44472 96.5188 6.80111 97.6572 7.51389C98.8055 8.22668 99.6716 9.2018 100.256 10.4393C100.85 11.6668 101.147 13.0627 101.147 14.6268V14.9387C101.147 16.4929 100.85 17.8888 100.256 19.1263C99.6716 20.3637 98.8104 21.3389 97.672 22.0516C96.5337 22.7545 95.1478 23.106 93.5145 23.106C91.8812 23.106 90.4904 22.7545 89.3422 22.0516C88.2038 21.3389 87.3376 20.3637 86.7437 19.1263C86.1498 17.8888 85.8528 16.4929 85.8528 14.9387V14.6268ZM90.3518 14.9387C90.3518 15.7802 90.4508 16.5474 90.6488 17.2404C90.8567 17.9334 91.1883 18.4828 91.6436 18.8887C92.1089 19.2946 92.7325 19.4975 93.5145 19.4975C94.2866 19.4975 94.9004 19.2946 95.3557 18.8887C95.821 18.4828 96.1526 17.9334 96.3505 17.2404C96.5584 16.5474 96.6624 15.7802 96.6624 14.9387V14.6268C96.6624 13.8052 96.5584 13.0478 96.3505 12.3549C96.1526 11.652 95.821 11.0926 95.3557 10.6769C94.9004 10.2611 94.2767 10.0532 93.4848 10.0532C92.7127 10.0532 92.094 10.2611 91.6288 10.6769C91.1734 11.0926 90.8468 11.652 90.6488 12.3549C90.4508 13.0478 90.3518 13.8052 90.3518 14.6268V14.9387Z" fill="#111111"/>
<path d="M108.199 22.809H103.715V6.74172H107.932L108.199 10.4393V22.809ZM112.892 10.959C112.674 10.9293 112.416 10.9046 112.119 10.8848C111.822 10.8551 111.555 10.8402 111.318 10.8402C110.536 10.8402 109.892 10.964 109.387 11.2114C108.882 11.449 108.506 11.8054 108.259 12.2806C108.011 12.7558 107.878 13.3448 107.858 14.0477L106.982 13.6616C106.982 12.2658 107.16 11.0233 107.516 9.93438C107.873 8.84541 108.397 7.99403 109.09 7.38025C109.783 6.75657 110.625 6.44472 111.615 6.44472C111.842 6.44472 112.08 6.45957 112.327 6.48927C112.585 6.51897 112.793 6.56847 112.951 6.63777L112.892 10.959Z" fill="#111111"/>
<path d="M119.395 22.809H114.911V6.74172H119.128L119.395 10.0977V22.809ZM117.539 14.3002C117.539 12.7756 117.777 11.4243 118.252 10.2462C118.727 9.06815 119.43 8.14253 120.36 7.46935C121.301 6.78626 122.464 6.44472 123.85 6.44472C125.275 6.44472 126.438 6.88526 127.339 7.76634C128.24 8.63751 128.69 10.0779 128.69 12.0876V22.809H124.206V12.637C124.206 11.9539 124.112 11.4292 123.924 11.0629C123.746 10.6868 123.483 10.4294 123.137 10.2908C122.79 10.1522 122.375 10.0829 121.89 10.0829C121.365 10.0829 120.905 10.1868 120.509 10.3947C120.113 10.5927 119.786 10.8798 119.529 11.256C119.271 11.6322 119.078 12.0777 118.95 12.5925C118.831 13.0973 118.771 13.6468 118.771 14.2408L117.539 14.3002ZM126.686 14.122C126.676 12.6667 126.898 11.3599 127.354 10.2017C127.819 9.0434 128.512 8.12768 129.433 7.4545C130.353 6.78131 131.496 6.44472 132.862 6.44472C133.892 6.44472 134.793 6.64272 135.565 7.03871C136.337 7.4347 136.936 8.08313 137.362 8.984C137.787 9.88488 138 11.0926 138 12.6073V22.809H133.486V12.5925C133.486 11.8995 133.392 11.3748 133.204 11.0184C133.026 10.662 132.764 10.4195 132.417 10.2908C132.08 10.1522 131.675 10.0829 131.199 10.0829C130.705 10.0829 130.274 10.1769 129.908 10.365C129.551 10.5531 129.249 10.8254 129.002 11.1817C128.764 11.5282 128.581 11.9391 128.453 12.4143C128.334 12.8795 128.274 13.3894 128.274 13.9438L126.686 14.122Z" fill="#111111"/>
</svg>
