<svg width="779" height="494" viewBox="0 0 779 494" fill="none" xmlns="http://www.w3.org/2000/svg">
<path d="M689.83 398.092C689.145 395.431 688.522 393.04 687.941 390.628C685.389 380.108 683.439 369.505 682.63 358.715C682.152 352.291 682.215 345.888 683.812 339.609C685.348 333.497 688.107 328.112 693.523 324.453C697.382 321.854 701.636 320.711 706.284 321.023C710.994 321.335 715.393 322.769 719.625 324.807C720.206 325.077 720.767 325.347 721.327 325.638C724.605 327.364 727.946 328.965 731.12 330.836C733.839 332.437 736.349 334.391 739.047 336.033C743.01 338.466 746.205 341.751 749.463 345.015C753.613 349.173 757.804 353.289 761.974 357.426C764.796 360.233 767.141 363.435 769.444 366.657C772.743 371.273 775.026 376.366 776.769 381.709C780.13 392 776.686 401.73 768.51 408.424C766.104 410.4 763.489 412.146 760.646 413.393C755.604 415.618 750.376 417.219 744.939 418.175C733.424 420.233 721.908 420.171 710.392 418.092C710.019 418.03 709.666 417.967 709.292 417.905C709.189 417.884 709.085 417.926 708.794 417.967C708.794 418.591 708.794 419.256 708.836 419.921C709.126 428.924 708.234 437.801 706.097 446.554C704.147 454.495 701.345 462.125 697.341 469.298C694.166 474.974 690.286 480.109 685.369 484.392C678.791 490.13 671.218 493.331 662.378 493.082C655.635 492.895 649.576 490.608 643.953 486.99C638.496 483.477 633.724 479.152 629.325 474.392C624.242 468.861 619.614 462.957 615.672 456.554C614.033 453.913 612.518 451.19 610.962 448.487C610.111 447.011 609.24 445.576 608.534 444.038C605.547 437.447 602.787 430.753 601.48 423.56C600.608 418.778 600.401 413.975 601.459 409.194C603.077 401.834 607.186 396.241 613.493 392.187C619.386 388.404 625.964 386.824 632.811 386.179C640.011 385.493 647.169 386.034 654.286 387.219C662.876 388.632 671.176 391.086 679.351 393.975C682.775 395.244 686.136 396.657 689.83 398.092Z" fill="#FF7A00"/>
<path d="M655.803 312.372C657.732 313.32 659.537 314.062 661.217 315.031C667.088 318.454 671.486 323.114 673.187 329.857C674.805 336.249 673.332 342.146 670.303 347.878C666.901 354.332 661.694 359.28 656.612 364.27C652.671 368.147 647.837 370.868 642.817 373.178C641.51 373.776 640.058 374.147 638.627 374.312C634.229 374.848 629.852 374.188 625.516 373.59C620.206 372.868 614.874 372.064 609.854 370.106C606.743 368.889 603.755 367.404 600.789 365.879C597.823 364.373 595.312 362.126 593.445 359.487C591.91 357.342 590.956 354.703 590.168 352.146C588.218 345.898 589.483 339.981 592.367 334.249C594.628 329.754 597.988 326.186 601.805 322.991C611.369 314.97 622.176 309.444 634.519 307.134C640.867 305.959 647.236 305.65 653.666 306.454C656.342 306.784 657.11 307.98 656.342 310.619C656.135 311.196 655.99 311.732 655.803 312.372Z" fill="#FF7A00"/>
<path d="M438.797 491.369C431.354 491.223 424.368 489.623 417.899 485.945C415.453 484.553 413.276 482.828 411.39 480.75C410.643 479.939 409.959 479.752 408.84 480.043C403.47 481.415 397.976 481.872 392.462 481.602C382.448 481.082 373.223 478.277 365.552 471.44C358.462 465.122 353.61 457.454 351.848 448.02C351.434 445.796 351.04 443.531 351.62 441.266C351.91 440.102 351.558 439.271 350.666 438.377C345.483 433.099 342.519 426.677 341.565 419.404C339.782 405.896 343.348 393.906 352.408 383.702C356.616 378.964 361.779 375.494 367.977 373.852C369.097 373.561 369.532 373.042 369.864 372.002C370.693 369.488 371.46 366.89 372.663 364.563C375.213 359.596 379.318 355.98 383.899 352.946C388.937 349.642 394.39 347.377 400.36 346.296C408.301 344.862 415.806 346.192 423.02 349.642C428.949 352.468 434.091 356.354 438.279 361.446C438.838 362.131 439.295 362.402 440.228 362.173C448.852 359.929 457.124 361.279 464.919 365.249C477.151 371.462 484.303 381.52 486.356 395.153C487.579 403.257 485.962 410.905 482.603 418.261C482.043 419.508 480.986 420.713 480.965 421.939C480.965 423.165 482.002 424.392 482.541 425.638C484.884 430.917 486.107 436.424 486.397 442.201C486.812 450.305 485.257 457.953 481.504 465.122C474.248 478.921 462.846 487.275 447.629 490.351C444.747 490.87 441.762 491.016 438.797 491.369Z" fill="#FF7A00"/>
<path d="M294.718 359.141C298.81 368.156 304.239 375.063 312.567 379.215C320.483 383.159 328.812 384.808 337.571 382.971C339.237 382.617 340.882 381.928 342.383 381.093C346.928 378.568 348.573 373.393 346.681 368.49C345.55 365.548 343.823 362.981 342.198 360.331C339.031 355.135 335.659 350.064 332.842 344.681C329.223 337.774 326.735 330.387 325.46 322.625C325.316 321.727 325.316 320.809 325.336 319.912C325.377 316.406 323.588 314.007 320.73 312.4C318.715 311.273 316.597 311.836 314.582 312.588C309.05 314.674 304.568 318.284 300.62 322.666C297.103 326.568 294.368 330.95 292.826 336C291.037 341.822 291.366 347.706 292.908 353.528C293.484 355.615 294.245 357.702 294.718 359.141Z" fill="#FF7A00"/>
<path d="M333.619 339.898C336.902 347.133 340.289 353.228 344.673 358.722C345.13 359.303 345.608 359.883 346.106 360.443C350.012 364.734 355.103 365.854 360.442 363.553C367.984 360.298 373.22 354.534 376.794 347.403C381.427 338.177 380.264 329.034 374.986 320.41C369.48 311.412 361.211 305.524 351.903 300.942C348.392 299.222 344.756 297.895 340.871 297.48C337.796 297.169 334.824 297.46 332.082 299.18C329.589 300.735 328.134 302.933 327.366 305.711C326.534 308.779 326.638 311.91 326.992 315.019C327.802 321.84 329.36 328.474 331.812 334.901C332.581 336.829 333.245 338.82 333.619 339.898Z" fill="#FF7A00"/>
<path d="M27.2727 318.227C29.9241 312.494 34.6055 307.47 41.6691 304.447C45.2733 302.904 49.2505 302.591 53.3933 302.925C55.9826 303.133 58.5926 303.425 61.1818 303.592C65.9668 303.905 70.6068 303.675 75.0396 302.341C78.7268 301.236 82.5382 300.507 86.5153 300.298C94.2003 299.881 100.932 302.112 106.753 307.366C110.026 310.305 113.319 313.245 117.131 315.621C120.3 317.602 123.677 319.166 127.157 320.542C134.427 323.439 142.009 324.815 149.549 326.483C154.976 327.692 160.382 328.86 165.664 330.715C174.571 333.822 181.283 339.263 186.378 346.518C188.553 349.604 190.211 352.835 191.06 356.317C192.054 360.424 191.246 363.947 187.414 366.157C185.819 367.075 183.893 367.658 182.008 368.096C177.72 369.076 173.204 369.034 168.709 369.076C165.167 369.118 161.625 369.097 158.104 369.243C152.469 369.472 147.498 371.286 142.671 373.433C137.017 375.956 131.403 378.583 125.085 379.896C118.394 381.272 111.642 381.314 104.765 378.895C101.305 377.665 98.1981 375.831 95.3603 373.6C93.1231 371.849 90.9274 370.035 88.7939 368.2C82.9525 363.134 76.0753 359.882 68.5975 357.86C63.1704 356.4 57.6604 355.379 52.2126 354.065C49.6647 353.461 47.1169 352.731 44.6105 351.897C40.2812 350.459 36.6562 347.999 33.8184 344.663C30.1312 340.347 27.2727 335.698 26.1127 330.444C25.222 326.421 25.657 322.647 27.2727 318.227ZM116.634 330.945C115.557 330.528 114.5 330.09 113.423 329.673C108.659 327.901 103.729 326.942 98.7988 325.92C93.2267 324.774 87.6339 324.211 82.0825 324.378C78.6232 324.482 75.3503 325.066 72.6368 326.921C69.9439 328.756 69.7575 330.403 71.9739 333.113C72.1189 333.28 72.2432 333.467 72.4089 333.613C75.1846 336.449 78.706 337.929 82.5589 338.554C86.2667 339.159 89.8089 340.118 93.1853 341.869C94.801 342.703 96.2095 343.662 97.3488 345.038C98.281 346.164 98.4881 347.144 97.8874 348.29C97.121 349.75 97.3281 351.188 98.6124 352.564C99.9588 354.024 101.637 354.587 103.542 354.274C104.806 354.065 105.676 353.482 106.007 352.252C106.277 351.251 106.007 350.375 105.469 349.458C104.744 348.249 104.744 347.894 105.8 347.123C106.359 346.706 107.084 346.352 107.809 346.289C108.887 346.185 110.047 346.268 111.165 346.456C113.63 346.894 116.095 347.415 118.56 347.957C122.786 348.895 126.887 348.77 130.927 348.082C131.983 347.894 133.019 347.498 133.909 346.998C135.422 346.122 135.857 344.746 135.235 343.078C134.987 342.39 134.614 341.702 134.158 341.098C132.998 339.513 131.444 338.283 129.642 337.345C129.042 337.032 128.399 336.72 127.819 336.365C124.257 334.155 120.507 332.446 116.634 330.945Z" fill="#FF7A00"/>
<path d="M114.954 476.012C106.817 480.623 97.9953 483.593 88.6338 485.171C76.8852 487.144 64.9083 487.497 52.62 485.005C44.2341 483.302 36.1388 480.353 28.5625 475.16C16.9384 467.226 9.05071 456.198 4.67094 442.615C-0.186237 427.578 -0.45608 413.04 4.50489 399.415C9.83948 384.752 20.1558 376.237 34.6443 373.101C43.4454 371.211 52.537 371.294 61.8155 372.498C72.1526 373.828 82.3651 376.341 92.4323 380.432C103.849 385.064 114.497 391.419 123.527 401.035C130.792 408.761 136.002 417.651 138.098 428.035C140.693 440.933 137.932 451.92 131.29 461.37C127.055 467.351 121.804 471.962 114.954 476.012Z" fill="#FF7A00"/>
<path d="M591.279 149.887C586.18 139.068 583.765 128.602 582.246 117.887C580.934 108.684 580.393 99.42 580.664 90.135C580.997 78.9432 582.516 67.8964 585.597 57.0776C588.948 45.2226 594.131 34.238 600.875 23.9789C603.519 19.9581 606.37 16.0617 610.138 12.9736C621.69 3.54343 634.512 2.07191 648.167 7.50202C657.888 11.3777 665.006 18.2379 669.419 27.7302C671.667 32.5593 672.791 37.7199 673.145 43.005C673.582 49.6579 673.832 56.3315 674.311 62.9844C674.998 72.4768 677.391 81.596 680.847 90.4459C683.99 98.5081 687.383 106.487 690.588 114.55C693.336 121.451 695.397 128.581 695.688 136.042C696.146 148.022 692.691 158.737 684.635 167.794C675.476 178.094 663.987 184.043 650.269 185.39C633.513 187.048 618.943 181.866 606.537 170.633C599.751 164.519 594.63 157.203 591.279 149.887ZM633.763 77.2022C633.742 77.14 633.742 77.0779 633.721 77.0157C634.138 76.7877 634.575 76.5804 634.97 76.3317C638.176 74.3421 638.696 70.9638 636.198 68.1244C635.574 67.4197 634.804 66.8601 634.054 66.2798C633.097 65.5337 632.452 64.7461 632.264 63.4197C631.91 60.7254 630.141 59.7098 627.456 60.5181C623.168 61.7824 620.691 64.7254 619.921 69.057C619.734 70.0726 619.858 71.2747 620.233 72.2695C621.544 75.9379 624.479 78.5908 628.871 78.1349C630.537 77.9276 632.16 77.5131 633.763 77.2022Z" fill="#FF7A00"/>
<path d="M771.344 121.295C772.617 125.743 774.139 130.149 775.12 134.659C778.332 149.498 777.414 164.026 770.489 177.722C765.128 188.343 756.2 193.642 744.143 193.144C731.982 192.624 721.99 187.387 714.022 178.387C707.117 170.594 703.05 161.366 700.859 151.223C698.92 142.287 698.419 133.183 697.751 124.122C697.167 116.328 696.437 108.534 694.894 100.865C693.475 93.8196 690.743 87.2313 687.697 80.7677C685.215 75.4887 682.753 70.1681 680.584 64.7436C678.665 59.9219 677.58 54.8923 677.956 49.6133C678.665 39.658 685.778 32.6332 695.415 31.5941C702.799 30.7835 709.621 32.7995 716.087 36.1456C722.178 39.2839 727.414 43.5861 732.024 48.5949C735.778 52.6684 739.491 56.8251 742.912 61.1689C750.359 70.6669 756.304 81.0794 761.06 92.1362C763.167 97.0203 765.128 101.946 767.13 106.872C767.36 107.433 767.506 108.036 767.673 108.617C768.924 112.816 770.134 117.056 771.344 121.295ZM747.46 146.817C747.168 145.508 746.584 144.968 745.666 145.051C744.748 145.134 744.185 145.82 744.206 147.004C744.227 147.69 744.373 148.355 744.456 149.041C744.706 151.265 744.143 151.764 741.89 151.327C740.91 151.14 739.971 150.849 738.991 150.642C738.052 150.454 737.322 150.787 736.967 151.701C736.655 152.533 737.197 153.447 738.219 153.78C739.366 154.154 740.576 154.403 741.765 154.694C744.539 155.38 745.124 156.066 745.395 158.83C745.436 159.204 745.416 159.578 745.457 159.973C745.624 161.927 746.187 162.696 747.314 162.571C748.419 162.447 748.816 161.615 748.691 159.682C748.545 157.271 749.149 156.71 751.611 157.064C752.132 157.147 752.654 157.292 753.175 157.396C754.74 157.708 756.304 158.103 757.89 158.311C759.162 158.477 759.871 157.583 759.621 156.357C759.433 155.401 758.787 155.006 757.89 154.777C756.054 154.299 754.197 153.821 752.383 153.281C751.444 153.011 750.505 152.658 749.588 152.283C748.419 151.805 747.835 150.912 747.752 149.644C747.731 148.688 747.564 147.711 747.46 146.817Z" fill="#FF7A00"/>
<path d="M15.2897 93.6404C16.3073 93.4748 17.3249 93.2885 18.4464 93.1022C19.2356 91.2599 19.9832 89.3763 20.8554 87.5547C22.6207 83.8288 24.4067 80.1236 26.3173 76.4598C26.8988 75.342 27.1688 74.452 26.3381 73.3963C26.2135 73.2307 26.172 73.003 26.0266 72.6304C26.5665 72.4648 27.065 72.1336 27.5218 72.175C28.5395 72.2785 28.934 71.6368 29.3702 70.9331C31.6546 67.2486 33.939 63.564 36.2442 59.9002C36.7011 59.1758 37.1165 58.4306 37.6564 57.7682C38.2172 57.0644 38.2379 56.4434 37.7395 55.7396C37.5318 55.4499 37.4488 55.0773 37.1996 54.4977C37.7811 54.4356 38.2379 54.2907 38.6533 54.3528C39.6294 54.4977 40.2109 54.1044 40.7924 53.3385C43.3468 49.9024 45.9843 46.5284 48.5802 43.1337C48.7464 42.9267 48.8917 42.6783 49.0786 42.5127C50.387 41.3742 51.1346 40.0908 50.2209 38.3314C50.1793 38.2693 50.2832 38.1451 50.387 37.8346C50.8231 37.8346 51.3631 37.7518 51.8407 37.876C52.713 38.083 53.2322 37.7104 53.7929 37.1308C56.4511 34.4192 59.1302 31.7076 61.8507 29.058C62.4945 28.4163 62.9722 27.7954 62.9099 26.8432C62.8891 26.5948 62.9929 26.3257 63.0345 26.1808C63.1799 26.0773 63.2214 26.0152 63.2629 26.0152C64.9866 26.2843 66.1289 25.2907 67.3541 24.3178C69.0571 22.931 70.8639 21.6683 72.6707 20.4056C73.6883 19.7019 74.7682 19.0809 74.6851 17.5905C75.4743 17.6319 76.1596 17.7975 76.7826 17.6526C77.3849 17.5284 77.9041 17.0523 78.4856 16.7625C80.7908 15.6034 83.0752 14.4442 85.4012 13.3264C86.1904 12.9538 87.0211 12.6847 87.0211 11.5877C87.0211 11.4428 87.2911 11.2979 87.5195 11.0702C88.5787 12.0637 89.6586 11.6291 90.8008 11.2151C92.4207 10.6562 94.0613 10.0973 95.7227 9.74541C96.7611 9.51771 97.5295 9.16582 97.9241 8.17225C97.9864 8.02735 98.111 7.92385 98.2564 7.71686C98.7963 8.13085 99.2324 8.48274 99.4401 8.64833C102.929 8.31714 106.169 7.98595 109.409 7.73756C109.99 7.69616 110.447 7.59266 110.8 7.13727C111.257 6.55769 111.797 6.47489 112.275 7.07517C112.731 7.67546 113.334 7.65476 113.998 7.67546C117.799 7.82036 121.599 8.15155 125.317 9.02092C126.563 9.31072 127.643 9.31072 128.494 8.23434C128.598 8.08945 128.847 8.06875 129.242 7.90315C129.408 8.60694 129.553 9.18652 129.719 9.8696C131.838 10.6148 134.018 11.36 136.178 12.1258C140.56 13.6576 144.589 15.8932 148.556 18.2529C149.158 18.6048 149.698 19.0395 150.258 19.4742C151.048 20.0744 151.816 20.6126 152.896 20.1572C153.062 20.0744 153.311 20.1572 153.685 20.1779C153.145 21.8753 154.433 22.517 155.43 23.3657C159.583 26.8846 163.259 30.8382 166.395 35.2886C166.893 35.9923 167.413 36.4891 168.347 36.427C168.638 36.4063 168.929 36.5926 169.344 36.6961C169.074 37.3171 168.866 37.8346 168.638 38.3728C169.759 40.5462 170.922 42.7197 172.002 44.9138C173.643 48.2257 174.91 51.6826 175.844 55.2636C176.01 55.9259 176.343 56.2778 176.966 56.4641C177.485 56.609 177.962 56.8574 178.44 57.0644C178.523 57.1058 178.586 57.23 178.772 57.4577C178.461 57.8096 178.17 58.265 177.755 58.5134C176.966 58.9895 176.862 59.6104 177.049 60.4177C177.236 61.2043 177.381 61.9909 177.526 62.7775C178.232 66.669 178.482 70.6019 178.586 74.5555C178.627 75.8388 178.191 77.2878 179.935 78.1365C178.544 78.9231 178.565 79.9994 178.44 81.1379C178.066 85.0708 177.547 89.0037 177.069 92.9366C177.007 93.4541 176.924 93.9923 176.841 94.5305C177.609 95.0893 178.316 95.6068 179.312 96.3313C178.523 96.6418 178.066 96.8902 177.589 96.9937C176.571 97.2007 176.135 97.7596 175.865 98.7739C174.66 103.328 173.352 107.84 172.044 112.373C171.711 113.553 171.317 114.733 170.818 115.851C170.465 116.679 170.528 117.279 171.275 117.797C171.587 118.004 171.898 118.211 172.231 118.418C172.168 118.563 172.085 118.707 172.023 118.873C171.504 119.059 171.005 119.287 170.465 119.453C169.759 119.66 169.282 119.991 168.949 120.715C166.644 125.787 164.297 130.837 161.951 135.867C161.66 136.509 161.577 137.068 161.93 137.689C162.158 138.082 162.304 138.517 162.47 138.889C162.262 139.076 162.179 139.2 162.117 139.179C160.622 138.931 159.895 139.676 159.168 140.939C156.987 144.747 154.62 148.432 152.273 152.158C151.359 153.607 150.321 154.952 149.365 156.318C149.615 157.126 149.864 157.871 150.134 158.761C149.449 158.844 148.95 159.009 148.535 158.906C147.683 158.72 147.226 159.134 146.77 159.713C142.824 164.805 138.525 169.566 133.811 173.975C133.686 174.079 133.624 174.223 133.499 174.41C133.831 175.3 134.164 176.211 134.537 177.204C133.374 177.639 132.419 177.453 131.526 177.183C130.675 176.935 130.114 177.163 129.491 177.68C125.773 180.785 121.807 183.518 117.57 185.877C112.773 188.527 107.789 190.762 102.431 192.025C99.2532 192.77 96.055 193.536 92.8152 193.909C87.7479 194.488 82.6183 194.55 77.5926 193.557C75.682 193.184 73.709 193.163 71.84 192.584C69.9501 192.004 67.9979 191.549 66.1289 190.928C64.239 190.307 62.3699 189.624 60.5424 188.879C52.5884 185.629 45.4235 181.075 38.861 175.528C32.3399 170.021 26.8158 163.625 22.3092 156.401C20.1078 152.882 18.301 149.136 16.7435 145.244C15.1651 141.228 14.0437 137.109 13.296 132.907C12.2369 126.904 12.1746 120.819 12.9014 114.754C13.5868 109.041 14.8951 103.473 16.7642 98.0494C17.1796 96.8281 17.2003 95.938 16.0374 95.1514C15.6635 94.9031 15.4351 94.4477 15.1443 94.0751C15.2067 93.9509 15.2482 93.806 15.2897 93.6404Z" fill="#FF7A00"/>
<path d="M421.137 65.2999C420.949 80.0516 416.102 92.6485 406.614 103.401C395.712 115.75 381.897 122.69 365.564 124.721C352.041 126.399 339.183 124.058 327.032 117.884C322.08 115.356 317.586 112.207 313.508 108.436C303.376 99.092 297.134 87.676 295.095 74.0432C293.535 63.5596 295.033 53.4489 299.194 43.7318C301.836 37.5784 305.477 32.0673 310.034 27.1569C319.542 16.9219 331.256 10.6235 344.904 7.78504C345.071 7.7436 345.237 7.70216 345.404 7.68144C347.214 7.55713 348.067 6.45904 348.441 4.80155C348.857 2.97832 349.877 1.71448 351.749 1.09292C353.663 0.450645 356.389 1.50729 357.117 3.49628C357.97 5.87892 359.739 6.45904 361.986 6.58336C376.779 7.47426 389.949 12.571 401.08 22.3088C412.336 32.1501 418.973 44.5399 420.783 59.4158C421.053 61.5291 421.053 63.6217 421.137 65.2999ZM346.652 106.758C348.004 106.654 349.357 106.613 350.688 106.447C358.615 105.453 365.544 102.345 371.119 96.5643C375.218 92.317 377.299 87.1995 377.257 81.3361C377.236 75.0584 374.636 69.8994 369.767 65.9629C365.606 62.5858 361.653 59.0015 357.762 55.355C354.038 51.8742 349.502 50.1339 344.405 50.051C336.873 49.9267 330.486 52.8066 325.347 58.1313C318.502 65.2378 316.192 73.9396 317.399 83.5945C317.607 85.2934 318.106 86.9923 318.626 88.6498C319.583 91.8197 321.414 94.5132 323.578 96.9994C326.907 100.812 330.798 103.733 335.854 104.872C336.353 104.976 336.811 105.204 337.31 105.287C340.41 105.867 343.448 106.82 346.652 106.758Z" fill="#FF7A00"/>
<path d="M474.103 141.566C475.197 146.514 476.126 150.945 475.733 155.542C475.444 158.938 474.97 162.333 473.711 165.481C471.915 169.953 469.603 174.198 466.26 177.718C464.443 179.623 462.441 181.341 460.46 183.081C459.242 184.157 457.962 185.172 456.621 186.083C454.722 187.387 452.554 188.133 450.428 188.961C445.784 190.742 440.913 191.446 436.022 191.881C429.293 192.46 422.812 191.301 416.682 188.361C413.42 186.787 410.49 184.778 407.765 182.356C402.13 177.366 398.291 171.258 395.67 164.259C394.225 160.387 393.358 156.391 393.048 152.291C392.636 146.783 393.296 141.4 395.071 136.141C396.743 131.171 399.22 126.637 402.378 122.475C404.772 119.307 407.641 116.595 411.109 114.586C413.111 113.406 415.257 112.723 417.59 112.598C420.376 112.433 422.564 113.716 424.628 115.394C426.775 117.133 428.591 119.245 431.13 120.508C432.698 121.295 434.329 121.688 436.063 121.73C438.891 121.792 441.656 121.191 444.422 120.798C448.571 120.218 452.575 120.736 456.373 122.496C459.407 123.904 462.214 125.643 464.856 127.734C468.282 130.447 470.78 133.822 472.534 137.777C473.153 139.185 473.711 140.613 474.103 141.566Z" fill="#FF7A00"/>
</svg>
