<svg width="552" height="552" viewBox="0 0 552 552" fill="none" xmlns="http://www.w3.org/2000/svg">
<rect width="552" height="552" fill="#111111"/>
<path d="M220.24 312.199C233.582 312.593 246.284 315.596 258.592 320.421C280.352 328.938 299.405 341.492 314.273 359.757C322.101 369.357 328.009 379.991 329.437 392.595C329.732 395.303 329.634 398.207 329.141 400.915C327.615 409.58 320.87 414.601 312.205 413.075C307.479 412.238 302.704 410.86 298.322 408.792C291.233 405.493 284.586 401.407 277.645 397.813C271.245 394.515 264.795 391.216 258.247 388.213C255.884 387.13 253.177 386.638 250.567 386.244C243.281 385.161 237.521 388.262 234.272 394.909C231.022 401.506 230.087 408.694 229.102 415.832C228.511 420.214 227.871 424.595 227.281 428.977C227.133 429.863 226.936 430.7 226.69 431.586C224.031 441.334 216.597 444.633 207.637 439.808C197.692 434.442 190.111 426.712 184.006 417.161C175.686 404.115 170.664 389.936 168.646 374.773C167.021 362.613 167.858 350.6 173.224 339.326C179.92 325.098 191.292 316.778 206.603 313.775C211.133 312.888 215.711 312.692 220.24 312.199Z" fill="#D8D7D0"/>
<path d="M353.166 288.765C353.265 295.46 351.591 301.614 347.455 306.981C343.123 312.691 337.067 315.498 330.323 317.024C322.003 318.895 313.929 317.664 306.002 314.858C286.113 307.719 268.734 296.79 254.653 280.839C248.795 274.192 243.429 267.152 239.539 259.177C238.161 256.272 237.127 253.121 236.536 249.97C235.404 243.718 238.85 239.582 245.152 239.435C247.613 239.385 250.124 239.779 252.635 240.025C256.918 240.419 257.607 240.075 259.527 236.235C259.774 235.693 260.118 235.201 260.315 234.659C263.86 226.093 270.654 222.646 279.565 222.646C286.26 222.646 292.71 224.173 299.061 226.191C314.273 231.065 328.255 238.105 338.643 250.709C347.751 261.786 352.723 274.438 353.166 288.765Z" fill="#D8D7D0"/>
<path d="M331.652 491.748C318.162 491.698 304.476 488.794 291.922 481.409C285.473 477.618 279.959 472.843 276.512 465.999C271.934 456.941 274.248 448.473 282.913 443.107C287.393 440.35 292.365 438.971 297.534 438.528C304.279 437.937 311.073 437.888 317.818 437.396C322.495 437.051 327.221 436.706 331.8 435.82C335.64 435.082 337.806 432.669 337.855 428.337C337.954 423.758 341.055 420.805 344.698 418.688C347.062 417.309 349.819 416.324 352.526 415.931C370.004 413.42 387.382 422.429 395.112 436.706C401.61 448.67 398.016 460.781 391.173 468.806C382.952 478.406 372.268 484.117 360.354 487.809C351.394 490.566 342.04 491.698 331.652 491.748Z" fill="#D8D7D0"/>
<path d="M298.716 125.561C280.352 124.625 261.546 117.634 244.364 105.966C242.69 104.834 241.065 103.505 239.589 102.028C235.699 98.0894 234.961 93.2155 237.422 88.1939C239.687 83.6153 243.232 80.0213 247.219 76.9197C258.05 68.5503 270.457 63.7749 283.897 61.461C295.811 59.3932 307.725 58.9501 319.246 63.2825C331.11 67.7626 340.169 75.5906 344.255 87.8493C347.948 98.9264 344.502 110.988 333.867 117.585C325.547 122.755 312.107 126.102 298.716 125.561Z" fill="#D8D7D0"/>
<path d="M176.227 298.611C158.307 297.971 143.537 291.571 134.38 275.275C131.18 269.613 129.802 263.459 130.688 256.961C131.869 248.591 136.989 243.028 145.211 241.207C148.51 240.468 151.907 240.123 155.304 240.173C160.178 240.222 163.378 238.154 165.593 233.969C166.332 232.542 167.267 231.212 168.202 229.883C175.095 220.283 185.483 216.689 196.609 220.628C201.286 222.302 205.717 224.812 209.902 227.471C213.742 229.883 216.105 233.773 217.828 237.859C222.013 247.656 222.505 257.551 218.271 267.496C215.662 273.601 212.413 279.41 208.277 284.629C201.335 293.441 191.834 297.183 181.052 298.414C179.477 298.512 177.852 298.512 176.227 298.611Z" fill="#D8D7D0"/>
<path d="M421.205 301.368C415.051 301.565 409.241 299.94 403.678 297.479C393.783 293.048 385.561 286.549 379.259 277.688C376.158 273.306 373.991 268.481 372.908 263.214C371.874 258.094 369.807 253.466 367.099 248.986C364.982 245.441 363.16 241.798 362.767 237.515C362.126 230.179 364.982 224.961 371.825 222.007C380.145 218.413 388.761 217.871 397.229 220.923C402.841 222.991 408.503 225.502 413.377 228.948C425.783 237.711 436.417 248.296 441.98 262.918C444.688 270.008 445.968 277.343 443.605 284.925C440.799 293.786 432.873 302.008 421.205 301.368Z" fill="#D8D7D0"/>
<path d="M447.101 179.716C447.051 189.611 444.048 197.981 436.122 204.282C430.411 208.763 424.109 209.255 417.315 207.482C406.73 204.775 398.509 198.621 392.207 189.808C383.444 177.599 377.388 164.355 377.241 148.995C377.191 143.629 378.324 138.509 380.539 133.586C386.053 121.228 401.266 115.961 413.771 123.001C419.235 126.053 423.863 130.139 427.703 135.013C435.482 144.81 441.439 155.592 445.033 167.555C446.264 171.494 446.461 175.679 447.101 179.716Z" fill="#D8D7D0"/>
<path d="M224.277 110.791C223.834 126.004 218.419 138.41 205.963 146.73C196.56 152.983 185.827 155.74 174.455 155.346C166.676 155.05 159.144 148.256 156.485 139.739C153.777 131.074 154.467 122.508 157.815 114.188C163.821 99.2707 174.356 88.9813 189.914 84.1566C192.671 83.3196 195.723 82.9257 198.628 82.8765C212.019 82.6796 221.668 90.9505 223.687 104.194C224.031 106.508 224.13 108.871 224.277 110.791Z" fill="#D8D7D0"/>
<path d="M248.647 150.57C266.075 151.407 279.516 156.33 289.362 168.786C294.088 174.743 296.501 181.636 295.664 189.365C294.777 197.488 289.756 202.264 281.583 202.165C277.497 202.116 273.362 201.525 269.275 201.033C262.777 200.294 256.672 201.427 250.813 204.282C248.155 205.562 245.447 206.793 242.69 207.679C234.715 210.288 227.527 207.728 222.111 201.427C210.148 187.543 215.268 159.875 235.896 153.278C240.672 151.801 245.644 151.161 248.647 150.57Z" fill="#D8D7D0"/>
<path d="M395.752 401.258C386.053 401.16 378.127 398.452 370.594 394.71C362.52 390.722 355.136 385.602 349.129 378.759C347.111 376.445 345.191 373.984 343.665 371.325C336.034 358.476 340.563 344.543 354.102 338.143C363.259 333.86 371.973 335.534 380.342 339.915C391.518 345.774 401.217 353.7 409.34 363.399C413.426 368.273 415.691 374.377 416.675 380.679C417.808 388.064 413.82 395.006 407.026 398.501C403.087 400.47 399.001 401.356 395.752 401.258Z" fill="#D8D7D0"/>
<path d="M116.263 391.609C124.091 391.954 132.017 393.973 139.205 398.354C149.445 404.557 157.864 412.73 164.313 422.773C168.055 428.582 170.516 434.884 170.073 441.924C169.926 444.681 169.384 447.537 168.35 450.048C165.298 457.531 156.978 460.288 149.987 456.3C147.574 454.922 145.408 453.1 143.34 451.229C140.83 448.964 138.516 446.454 136.251 443.943C132.854 440.25 128.669 438.577 123.746 438.281C120.645 438.133 117.592 437.838 114.54 437.395C105.875 436.164 99.8195 431.487 97.2594 423.069C96.0286 419.032 94.7486 414.748 94.8963 410.613C95.2409 398.453 103.315 391.413 116.263 391.609Z" fill="#D8D7D0"/>
<path d="M155.698 337.75C155.402 346.759 152.547 353.652 146.54 359.067C138.466 366.403 126.306 364.089 122.121 353.996C119.611 347.941 116.164 342.624 112.275 337.455C108.238 332.088 105.087 326.18 104.152 319.534C103.61 315.842 103.758 311.805 104.693 308.211C106.86 299.989 113.358 296.1 121.875 297.331C130.639 298.66 137.974 302.746 143.833 309.393C151.267 317.762 154.91 327.657 155.698 337.75Z" fill="#D8D7D0"/>
<path d="M312.156 167.259C312.845 164.453 313.239 161.056 314.47 157.954C317.375 150.52 324.07 147.123 331.898 148.6C338.692 149.88 344.255 153.376 348.686 158.496C356.317 167.259 361.24 177.45 362.176 189.069C362.717 196.158 360.206 202.361 354.151 206.694C351 208.959 347.357 209.746 343.665 208.959C340.514 208.269 337.264 207.482 334.557 205.857C320.279 197.291 313.83 183.998 312.156 167.259Z" fill="#D8D7D0"/>
<path d="M156.978 172.43C161.605 173.217 166.282 173.857 170.812 174.891C174.356 175.679 177.31 177.648 179.673 180.405C183.71 185.132 183.76 191.187 179.427 195.618C168.842 206.4 156.091 212.357 140.731 212.012C135.119 211.864 129.999 210.24 125.715 206.449C119.758 201.23 118.724 193.599 123.057 186.953C126.798 181.242 132.362 178.042 138.614 175.925C144.522 173.956 150.627 172.824 156.978 172.43Z" fill="#D8D7D0"/>
<path d="M380.982 104.686C380.49 111.775 376.798 116.748 371.382 120.44C367.64 123 363.407 123.591 359.32 121.031C355.333 118.569 354.545 114.483 355.037 110.2C355.776 103.996 359.025 99.2703 364.194 95.824C367.64 93.5101 371.431 93.4117 375.173 94.5932C376.551 95.0363 378.028 96.3163 378.718 97.5963C379.801 99.861 380.244 102.323 380.982 104.686Z" fill="#D8D7D0"/>
<path d="M411.26 317.121C414.706 318.253 418.398 318.943 421.5 320.666C427.408 323.915 429.771 331.103 427.556 337.503C426.177 341.392 423.666 343.312 419.531 342.968C412.294 342.377 406.287 339.177 401.807 333.515C399.296 330.315 398.755 326.524 400.527 322.733C402.152 319.287 405.844 317.613 411.26 317.121Z" fill="#D8D7D0"/>
<path d="M264.5 435.278C264.007 439.61 262.924 443.45 260.315 446.897C255.933 452.657 247.367 452.214 244.413 445.666C242.099 440.644 240.918 435.77 242.493 430.355C243.97 425.284 246.776 422.773 251.306 422.429C255.933 422.084 260.758 424.545 262.629 428.582C263.515 430.65 263.86 433.063 264.5 435.278Z" fill="#D8D7D0"/>
<path d="M447.445 121.721C441.98 121.229 437.254 119.21 434.153 114.385C432.183 111.284 431.789 107.936 433.759 104.785C435.728 101.634 439.076 101.29 442.374 101.831C447.297 102.619 451.581 104.835 455.076 108.379C457.242 110.545 458.719 113.204 457.636 116.305C456.602 119.309 454.042 120.786 450.941 121.327C449.907 121.475 448.725 121.573 447.445 121.721Z" fill="#D8D7D0"/>
</svg>
