<svg width="275" height="275" viewBox="0 0 275 275" fill="none" xmlns="http://www.w3.org/2000/svg">
<rect x="0.5" y="0.5" width="274" height="274" fill="#D8D7D0"/>
<g filter="url(#filter0_f_333_4982)">
<path d="M38.3472 128.995C39.5949 128.791 40.8426 128.562 42.2176 128.333C43.1852 126.067 44.1018 123.75 45.1713 121.509C47.3356 116.926 49.5254 112.368 51.868 107.861C52.581 106.486 52.912 105.391 51.8935 104.092C51.7407 103.889 51.6898 103.609 51.5115 103.15C52.1736 102.947 52.7847 102.539 53.3449 102.59C54.5926 102.717 55.0764 101.928 55.6111 101.062C58.412 96.5299 61.2129 91.9975 64.0393 87.4906C64.5995 86.5994 65.1088 85.6827 65.7708 84.8679C66.4583 84.0021 66.4838 83.2383 65.8727 82.3725C65.618 82.016 65.5162 81.5577 65.2106 80.8447C65.9236 80.7684 66.4838 80.5901 66.993 80.6665C68.1898 80.8447 68.9027 80.3609 69.6157 79.4188C72.7477 75.192 75.9815 71.0415 79.1643 66.8656C79.368 66.6109 79.5463 66.3054 79.7754 66.1017C81.3796 64.7012 82.2963 63.1225 81.1759 60.9582C81.125 60.8818 81.2523 60.729 81.3796 60.3471C81.9143 60.3471 82.5764 60.2452 83.162 60.398C84.2315 60.6526 84.868 60.1943 85.5555 59.4813C88.8148 56.1457 92.0995 52.81 95.4352 49.5508C96.2245 48.7614 96.8102 47.9975 96.7338 46.8262C96.7083 46.5207 96.8356 46.1897 96.8865 46.0114C97.0648 45.8841 97.1157 45.8077 97.1666 45.8077C99.2801 46.1387 100.681 44.9165 102.183 43.7197C104.271 42.0137 106.486 40.4605 108.701 38.9072C109.949 38.0415 111.273 37.2776 111.171 35.4443C112.139 35.4952 112.979 35.6989 113.743 35.5207C114.481 35.3679 115.118 34.7822 115.831 34.4258C118.657 32.9998 121.458 31.5739 124.31 30.1989C125.278 29.7406 126.296 29.4096 126.296 28.06C126.296 27.8818 126.627 27.7035 126.907 27.4234C128.206 28.6457 129.53 28.1109 130.931 27.6017C132.917 26.9142 134.928 26.2267 136.965 25.7938C138.238 25.5137 139.181 25.0809 139.664 23.8586C139.741 23.6804 139.893 23.5531 140.072 23.2985C140.734 23.8077 141.268 24.2406 141.523 24.4443C145.801 24.0369 149.773 23.6295 153.745 23.3239C154.458 23.273 155.018 23.1457 155.451 22.5855C156.012 21.8725 156.674 21.7707 157.259 22.5091C157.819 23.2475 158.558 23.2221 159.373 23.2475C164.032 23.4258 168.692 23.8332 173.25 24.9026C174.778 25.2591 176.102 25.2591 177.146 23.935C177.273 23.7568 177.579 23.7313 178.062 23.5276C178.266 24.3934 178.444 25.1063 178.648 25.9466C181.245 26.8633 183.919 27.7799 186.567 28.7221C191.94 30.6063 196.88 33.3563 201.743 36.2591C202.481 36.692 203.143 37.2267 203.831 37.7614C204.799 38.4998 205.741 39.1619 207.065 38.6017C207.268 38.4998 207.574 38.6017 208.032 38.6272C207.37 40.7151 208.949 41.5045 210.171 42.5485C215.264 46.8772 219.771 51.7406 223.616 57.2151C224.227 58.0809 224.863 58.692 226.009 58.6156C226.366 58.5901 226.722 58.8193 227.231 58.9466C226.9 59.7105 226.646 60.3471 226.366 61.0091C227.741 63.6827 229.167 66.3563 230.491 69.0554C232.502 73.1295 234.056 77.3818 235.201 81.7869C235.405 82.6017 235.812 83.0346 236.576 83.2637C237.213 83.442 237.799 83.7475 238.384 84.0021C238.486 84.0531 238.562 84.2059 238.792 84.4859C238.41 84.9188 238.053 85.479 237.544 85.7846C236.576 86.3702 236.449 87.1341 236.678 88.1271C236.907 89.0947 237.086 90.0623 237.264 91.0299C238.13 95.817 238.435 100.655 238.562 105.518C238.613 107.097 238.079 108.879 240.218 109.923C238.512 110.891 238.537 112.215 238.384 113.616C237.926 118.454 237.289 123.291 236.704 128.129C236.627 128.766 236.525 129.428 236.424 130.09C237.366 130.778 238.231 131.414 239.454 132.305C238.486 132.687 237.926 132.993 237.34 133.12C236.093 133.375 235.558 134.062 235.227 135.31C233.75 140.912 232.146 146.463 230.542 152.039C230.134 153.491 229.65 154.942 229.039 156.317C228.606 157.335 228.683 158.074 229.6 158.71C229.981 158.965 230.363 159.22 230.771 159.474C230.694 159.653 230.593 159.831 230.516 160.035C229.88 160.264 229.268 160.544 228.606 160.748C227.741 161.002 227.155 161.41 226.748 162.301C223.921 168.539 221.044 174.752 218.167 180.94C217.81 181.729 217.708 182.416 218.141 183.18C218.421 183.664 218.599 184.199 218.803 184.657C218.549 184.886 218.447 185.039 218.37 185.014C216.537 184.708 215.646 185.625 214.755 187.178C212.081 191.863 209.178 196.396 206.301 200.979C205.181 202.761 203.907 204.416 202.736 206.097C203.042 207.09 203.347 208.007 203.678 209.102C202.838 209.204 202.227 209.407 201.718 209.28C200.674 209.051 200.113 209.56 199.553 210.273C194.715 216.537 189.444 222.393 183.664 227.817C183.512 227.944 183.435 228.123 183.282 228.352C183.69 229.447 184.097 230.567 184.556 231.789C183.13 232.324 181.958 232.095 180.863 231.764C179.819 231.458 179.132 231.738 178.368 232.375C173.81 236.194 168.947 239.555 163.752 242.458C157.87 245.717 151.759 248.467 145.19 250.021C141.294 250.937 137.373 251.879 133.4 252.338C127.187 253.051 120.898 253.127 114.736 251.905C112.393 251.447 109.975 251.421 107.683 250.708C105.366 249.995 102.972 249.435 100.681 248.671C98.3634 247.907 96.0717 247.067 93.831 246.15C84.0787 242.153 75.294 236.551 67.2477 229.727C59.2523 222.954 52.4791 215.085 46.9537 206.199C44.2546 201.87 42.0393 197.261 40.1296 192.474C38.1944 187.535 36.8194 182.467 35.9028 177.298C34.6041 169.914 34.5278 162.428 35.419 154.967C36.2592 147.94 37.8634 141.09 40.1551 134.419C40.6643 132.916 40.6898 131.822 39.2639 130.854C38.8055 130.548 38.5254 129.988 38.169 129.53C38.2453 129.377 38.2963 129.199 38.3472 128.995Z" fill="#373737"/>
</g>
<rect x="0.5" y="0.5" width="274" height="274" stroke="#111111"/>
<defs>
<filter id="filter0_f_333_4982" x="26.8262" y="14.001" width="221.391" height="246.853" filterUnits="userSpaceOnUse" color-interpolation-filters="sRGB">
<feFlood flood-opacity="0" result="BackgroundImageFix"/>
<feBlend mode="normal" in="SourceGraphic" in2="BackgroundImageFix" result="shape"/>
<feGaussianBlur stdDeviation="4" result="effect1_foregroundBlur_333_4982"/>
</filter>
</defs>
</svg>
