<svg width="552" height="552" viewBox="0 0 552 552" fill="none" xmlns="http://www.w3.org/2000/svg">
<rect width="552" height="552" fill="#D8D7D0"/>
<path d="M146.093 374.172C145.541 374.172 145.093 374.62 145.093 375.172C145.093 375.724 145.541 376.172 146.093 376.172L146.093 374.172ZM371.707 375.879C372.098 375.488 372.098 374.855 371.707 374.465L365.343 368.101C364.953 367.71 364.319 367.71 363.929 368.101C363.538 368.491 363.538 369.124 363.929 369.515L369.586 375.172L363.929 380.829C363.538 381.219 363.538 381.852 363.929 382.243C364.319 382.633 364.953 382.633 365.343 382.243L371.707 375.879ZM146.093 376.172L371 376.172L371 374.172L146.093 374.172L146.093 376.172Z" fill="#FF7A00"/>
<path d="M306.275 164.216C305.728 164.142 305.224 164.525 305.15 165.072L303.936 173.99C303.862 174.537 304.245 175.041 304.792 175.116C305.34 175.19 305.843 174.807 305.918 174.26L306.996 166.333L314.923 167.411C315.471 167.486 315.975 167.102 316.049 166.555C316.124 166.008 315.74 165.504 315.193 165.429L306.275 164.216ZM431.727 332C432.061 332.439 432.688 332.525 433.128 332.19C433.567 331.856 433.653 331.229 433.318 330.789L431.727 332ZM305.344 165.812L431.727 332L433.318 330.789L306.936 164.602L305.344 165.812Z" fill="#FF7A00"/>
<path d="M234.044 164.602C234.378 164.162 235.005 164.077 235.445 164.411C235.885 164.745 235.97 165.373 235.636 165.812L234.044 164.602ZM108.592 332.385C108.045 332.46 107.541 332.077 107.467 331.529L106.253 322.611C106.179 322.064 106.562 321.56 107.11 321.486C107.657 321.411 108.161 321.795 108.235 322.342L109.314 330.269L117.241 329.19C117.788 329.116 118.292 329.499 118.366 330.046C118.441 330.594 118.058 331.098 117.51 331.172L108.592 332.385ZM235.636 165.812L109.254 332L107.662 330.789L234.044 164.602L235.636 165.812Z" fill="#FF7A00"/>
<path d="M355.339 206.014L356.471 205.154L358.027 207.2C358.297 207.555 358.57 207.797 358.845 207.926C359.123 208.058 359.4 208.099 359.677 208.049C359.954 207.999 360.221 207.876 360.478 207.68C360.725 207.492 360.917 207.266 361.054 207.002C361.19 206.738 361.243 206.446 361.212 206.126C361.183 205.81 361.034 205.474 360.764 205.118L359.531 203.497L352.74 208.661L351.672 207.257L359.595 201.232L361.895 204.258C362.364 204.874 362.654 205.481 362.765 206.079C362.875 206.676 362.826 207.232 362.616 207.746C362.409 208.264 362.059 208.711 361.565 209.086C361.054 209.475 360.526 209.696 359.982 209.749C359.445 209.803 358.912 209.689 358.384 209.41C357.86 209.127 357.364 208.677 356.895 208.06L355.339 206.014Z" fill="black"/>
<path d="M358.024 215.61L356.997 214.26L362.885 209.783L363.862 211.067L362.758 212.01L358.024 215.61ZM364.019 213.85C363.971 213.755 363.914 213.658 363.849 213.558C363.788 213.462 363.722 213.369 363.653 213.278C363.427 212.981 363.184 212.773 362.923 212.657C362.669 212.541 362.404 212.508 362.127 212.558C361.854 212.605 361.576 212.722 361.294 212.908L361.053 212.602C361.55 212.224 362.045 211.95 362.54 211.78C363.035 211.61 363.498 211.567 363.928 211.652C364.359 211.737 364.723 211.975 365.021 212.367C365.079 212.443 365.137 212.533 365.194 212.639C365.251 212.744 365.289 212.827 365.306 212.888L364.019 213.85Z" fill="black"/>
<path d="M362.718 215.561C363.291 215.125 363.886 214.845 364.501 214.72C365.116 214.596 365.709 214.637 366.279 214.845C366.856 215.054 367.362 215.445 367.798 216.018C368.239 216.598 368.483 217.194 368.53 217.805C368.581 218.414 368.462 218.996 368.175 219.552C367.891 220.112 367.462 220.61 366.889 221.046L366.775 221.132C366.205 221.566 365.611 221.846 364.992 221.973C364.38 222.101 363.787 222.059 363.214 221.848C362.644 221.64 362.139 221.248 361.701 220.671C361.262 220.094 361.018 219.502 360.967 218.893C360.917 218.285 361.033 217.701 361.318 217.141C361.606 216.578 362.034 216.081 362.604 215.647L362.718 215.561ZM363.63 216.997C363.282 217.262 363 217.553 362.784 217.872C362.572 218.188 362.456 218.514 362.437 218.849C362.42 219.188 362.535 219.521 362.784 219.848C363.029 220.171 363.316 220.367 363.645 220.438C363.976 220.513 364.321 220.488 364.679 220.364C365.044 220.242 365.4 220.048 365.749 219.783L365.863 219.696C366.208 219.434 366.488 219.144 366.704 218.825C366.922 218.51 367.04 218.183 367.057 217.844C367.077 217.502 366.963 217.168 366.715 216.841C366.469 216.518 366.179 216.321 365.844 216.249C365.516 216.179 365.169 216.205 364.804 216.327C364.442 216.454 364.089 216.648 363.744 216.91L363.63 216.997Z" fill="black"/>
<path d="M365.074 224.882L371.522 219.978C372.175 219.482 372.817 219.286 373.446 219.391C374.076 219.497 374.635 219.87 375.123 220.512C375.222 220.643 375.311 220.779 375.39 220.919C375.468 221.06 375.538 221.201 375.6 221.343L374.52 222.113C374.482 222.033 374.434 221.947 374.375 221.854C374.316 221.762 374.25 221.668 374.179 221.574C373.952 221.277 373.696 221.105 373.41 221.06C373.129 221.015 372.842 221.104 372.549 221.328L366.1 226.231L365.074 224.882ZM371.907 223.714L369.283 220.264L370.279 219.507L372.903 222.957L371.907 223.714Z" fill="black"/>
<path d="M368.823 229.812L367.797 228.462L373.685 223.985L374.711 225.335L368.823 229.812ZM375.158 222.727C375.365 222.57 375.587 222.507 375.823 222.539C376.063 222.569 376.274 222.703 376.456 222.943C376.638 223.182 376.712 223.423 376.679 223.666C376.65 223.906 376.532 224.104 376.325 224.262C376.122 224.416 375.899 224.477 375.656 224.444C375.417 224.408 375.207 224.27 375.025 224.031C374.843 223.791 374.768 223.554 374.8 223.317C374.836 223.078 374.955 222.882 375.158 222.727Z" fill="black"/>
<path d="M376.872 230.244L374.331 226.903L375.327 226.145L377.868 229.486L376.872 230.244ZM378.515 227.345L372.845 231.657C372.664 231.795 372.545 231.925 372.49 232.047C372.438 232.167 372.431 232.286 372.47 232.406C372.509 232.525 372.576 232.646 372.67 232.769C372.739 232.86 372.81 232.943 372.885 233.018C372.959 233.093 373.021 233.152 373.07 233.195L372.031 233.985C371.912 233.904 371.785 233.8 371.649 233.674C371.516 233.552 371.376 233.395 371.23 233.203C371.001 232.902 370.851 232.592 370.781 232.273C370.713 231.958 370.75 231.641 370.891 231.322C371.038 231.004 371.315 230.691 371.721 230.382L377.489 225.996L378.515 227.345Z" fill="black"/>
<path d="M374.453 238.627L373.654 237.577L384.599 234.115L385.398 235.165L374.453 238.627Z" fill="black"/>
<path d="M384.667 243.261L385.682 242.472L387.014 244.224C387.348 244.663 387.702 244.929 388.076 245.023C388.45 245.116 388.813 245.029 389.165 244.761C389.553 244.466 389.748 244.138 389.748 243.777C389.751 243.42 389.572 243.003 389.211 242.528L388.222 241.228L381.431 246.392L380.363 244.988L388.286 238.963L390.342 241.668C391.007 242.542 391.353 243.358 391.38 244.116C391.413 244.875 391.062 245.535 390.325 246.095C389.999 246.343 389.639 246.491 389.245 246.538C388.855 246.589 388.457 246.525 388.052 246.346C387.647 246.168 387.255 245.859 386.876 245.42L386.194 245.269L384.667 243.261ZM380.769 245.521L382.379 245.301L383.716 247.059C384.058 247.509 384.426 247.764 384.821 247.824C385.217 247.884 385.59 247.78 385.942 247.513C386.199 247.317 386.386 247.103 386.502 246.872C386.618 246.641 386.654 246.393 386.608 246.13C386.566 245.864 386.428 245.577 386.194 245.269L385.019 243.724L386.05 242.957L387.572 244.959L387.421 245.573C387.747 246.017 387.928 246.447 387.962 246.861C388 247.279 387.929 247.665 387.751 248.018C387.577 248.368 387.326 248.667 387 248.915C386.242 249.492 385.481 249.684 384.716 249.493C383.955 249.304 383.246 248.779 382.589 247.915L380.769 245.521Z" fill="black"/>
<path d="M388.439 249.384C389.012 248.949 389.606 248.668 390.221 248.544C390.837 248.42 391.429 248.461 392 248.669C392.576 248.878 393.082 249.268 393.518 249.842C393.959 250.422 394.204 251.018 394.25 251.629C394.301 252.238 394.183 252.82 393.896 253.376C393.611 253.936 393.183 254.434 392.609 254.869L392.495 254.956C391.926 255.389 391.331 255.67 390.712 255.797C390.1 255.925 389.507 255.883 388.934 255.672C388.364 255.464 387.86 255.072 387.421 254.495C386.982 253.918 386.738 253.326 386.687 252.717C386.637 252.109 386.754 251.524 387.038 250.965C387.326 250.402 387.755 249.904 388.324 249.471L388.439 249.384ZM389.35 250.821C389.002 251.086 388.72 251.377 388.504 251.696C388.292 252.012 388.177 252.338 388.157 252.673C388.14 253.012 388.256 253.345 388.504 253.672C388.749 253.994 389.036 254.191 389.365 254.262C389.696 254.336 390.041 254.312 390.4 254.188C390.764 254.065 391.121 253.872 391.469 253.607L391.583 253.52C391.928 253.258 392.208 252.968 392.424 252.649C392.642 252.334 392.76 252.007 392.777 251.668C392.797 251.326 392.683 250.991 392.435 250.665C392.19 250.342 391.899 250.145 391.564 250.073C391.236 250.003 390.889 250.029 390.525 250.151C390.163 250.278 389.809 250.472 389.465 250.734L389.35 250.821Z" fill="black"/>
<path d="M391.461 259.582L390.435 258.232L396.322 253.755L397.286 255.023L396.091 256.06L391.461 259.582ZM394.098 256.511C394.671 256.082 395.243 255.804 395.817 255.677C396.394 255.547 396.934 255.569 397.437 255.741C397.944 255.911 398.376 256.23 398.732 256.698C399.021 257.079 399.2 257.464 399.267 257.854C399.338 258.241 399.271 258.635 399.067 259.036C398.866 259.435 398.496 259.84 397.955 260.251L394.163 263.135L393.132 261.78L396.936 258.888C397.208 258.681 397.394 258.477 397.492 258.276C397.594 258.078 397.618 257.876 397.565 257.671C397.518 257.466 397.41 257.253 397.242 257.032C397.071 256.807 396.874 256.642 396.651 256.537C396.434 256.432 396.199 256.379 395.946 256.377C395.695 256.379 395.44 256.427 395.18 256.522C394.923 256.62 394.674 256.76 394.435 256.942L394.098 256.511Z" fill="black"/>
<path d="M403.741 263.512L404.767 264.861L398.88 269.338L397.912 268.065L399.247 266.929L403.741 263.512ZM400.971 266.623C400.442 267.025 399.911 267.306 399.379 267.464C398.85 267.62 398.341 267.624 397.85 267.476C397.363 267.325 396.92 266.987 396.52 266.461C396.079 265.88 395.892 265.281 395.96 264.662C396.028 264.044 396.452 263.438 397.232 262.845L401.035 259.953L402.061 261.302L398.247 264.203C397.975 264.41 397.791 264.616 397.694 264.82C397.605 265.026 397.581 265.225 397.623 265.416C397.666 265.607 397.751 265.788 397.881 265.958C398.16 266.325 398.45 266.559 398.751 266.662C399.059 266.766 399.371 266.769 399.687 266.672C400.002 266.575 400.312 266.411 400.617 266.179L400.971 266.623Z" fill="black"/>
<path d="M403.994 272.732C404.117 272.638 404.205 272.52 404.257 272.377C404.311 272.238 404.313 272.045 404.262 271.798C404.212 271.55 404.089 271.223 403.894 270.816C403.663 270.332 403.5 269.876 403.402 269.446C403.307 269.02 403.306 268.631 403.4 268.28C403.496 267.932 403.709 267.633 404.039 267.382C404.358 267.139 404.721 267.006 405.127 266.983C405.54 266.961 405.958 267.059 406.38 267.276C406.809 267.494 407.202 267.836 407.557 268.304C407.933 268.798 408.172 269.286 408.275 269.768C408.382 270.248 408.366 270.689 408.227 271.093C408.094 271.498 407.849 271.835 407.494 272.106L406.468 270.756C406.7 270.58 406.837 270.338 406.878 270.032C406.927 269.726 406.82 269.401 406.558 269.056C406.395 268.842 406.224 268.689 406.045 268.596C405.868 268.507 405.698 268.468 405.534 268.478C405.373 268.492 405.227 268.548 405.096 268.647C404.969 268.744 404.885 268.863 404.843 269.003C404.804 269.147 404.813 269.332 404.87 269.558C404.929 269.787 405.045 270.083 405.217 270.445C405.465 270.966 405.641 271.445 405.744 271.882C405.85 272.316 405.852 272.71 405.749 273.063C405.652 273.418 405.424 273.731 405.065 274.004C404.72 274.266 404.338 274.4 403.917 274.404C403.5 274.413 403.079 274.295 402.653 274.052C402.23 273.812 401.834 273.449 401.465 272.963C401.054 272.423 400.804 271.894 400.714 271.378C400.625 270.862 400.656 270.395 400.808 269.976C400.965 269.559 401.206 269.227 401.528 268.981L402.517 270.282C402.296 270.473 402.159 270.68 402.106 270.904C402.055 271.131 402.065 271.359 402.135 271.586C402.211 271.814 402.324 272.026 402.473 272.222C402.649 272.454 402.826 272.623 403.004 272.729C403.184 272.838 403.357 272.892 403.523 272.892C403.695 272.893 403.852 272.839 403.994 272.732Z" fill="black"/>
<path d="M150.664 254.367C150.45 254.205 150.234 254.112 150.017 254.09C149.798 254.061 149.533 254.12 149.221 254.266C148.906 254.41 148.503 254.657 148.014 255.006C147.618 255.294 147.226 255.543 146.838 255.752C146.453 255.957 146.076 256.106 145.708 256.198C145.337 256.288 144.975 256.304 144.622 256.248C144.269 256.186 143.927 256.029 143.597 255.778C143.166 255.45 142.877 255.042 142.733 254.554C142.585 254.064 142.58 253.536 142.718 252.971C142.855 252.406 143.137 251.844 143.561 251.285C144.014 250.69 144.512 250.261 145.055 249.999C145.594 249.733 146.134 249.626 146.674 249.676C147.217 249.722 147.714 249.917 148.163 250.259L147.096 251.663C146.846 251.472 146.581 251.357 146.302 251.317C146.023 251.27 145.746 251.315 145.472 251.449C145.194 251.582 144.926 251.816 144.67 252.154C144.43 252.469 144.277 252.768 144.211 253.05C144.146 253.332 144.154 253.585 144.236 253.808C144.319 254.031 144.462 254.22 144.665 254.374C144.857 254.52 145.074 254.588 145.317 254.578C145.559 254.568 145.838 254.484 146.151 254.328C146.461 254.169 146.815 253.945 147.211 253.657C147.829 253.199 148.399 252.862 148.923 252.648C149.446 252.434 149.936 252.351 150.391 252.399C150.85 252.444 151.293 252.63 151.721 252.955C152.167 253.294 152.465 253.704 152.615 254.185C152.761 254.662 152.76 255.18 152.612 255.737C152.463 256.293 152.171 256.858 151.735 257.432C151.445 257.812 151.109 258.149 150.726 258.442C150.339 258.732 149.928 258.949 149.493 259.093C149.056 259.23 148.611 259.27 148.157 259.211C147.707 259.149 147.267 258.955 146.839 258.63L147.907 257.226C148.161 257.419 148.41 257.539 148.653 257.587C148.897 257.636 149.137 257.626 149.371 257.558C149.603 257.488 149.822 257.368 150.03 257.2C150.241 257.028 150.437 256.823 150.619 256.583C150.859 256.268 151.016 255.972 151.089 255.695C151.158 255.416 151.155 255.164 151.079 254.94C151.005 254.713 150.867 254.522 150.664 254.367Z" fill="black"/>
<path d="M151.391 245.439L152.417 244.089L158.304 248.566L157.336 249.84L155.885 248.857L151.391 245.439ZM155.129 247.276C155.658 247.679 156.071 248.116 156.366 248.586C156.657 249.054 156.797 249.544 156.785 250.056C156.77 250.565 156.562 251.083 156.162 251.609C155.721 252.19 155.193 252.53 154.579 252.63C153.965 252.729 153.268 252.483 152.488 251.89L148.685 248.997L149.711 247.648L153.525 250.549C153.797 250.755 154.045 250.878 154.268 250.916C154.49 250.947 154.688 250.917 154.86 250.825C155.033 250.734 155.185 250.602 155.314 250.432C155.593 250.065 155.741 249.723 155.76 249.405C155.778 249.081 155.697 248.78 155.52 248.501C155.342 248.223 155.101 247.968 154.796 247.736L155.129 247.276Z" fill="black"/>
<path d="M162.604 247.61L161.578 248.96L153.426 242.762L154.374 241.515L155.584 242.273L162.604 247.61ZM160.355 239.872C160.929 240.308 161.374 240.787 161.693 241.31C162.01 241.826 162.17 242.354 162.172 242.893C162.176 243.429 161.992 243.942 161.62 244.432C161.245 244.925 160.813 245.244 160.326 245.389C159.837 245.527 159.312 245.525 158.749 245.384C158.187 245.242 157.608 244.999 157.011 244.654L156.625 244.361C156.097 243.85 155.686 243.34 155.392 242.831C155.095 242.318 154.947 241.808 154.95 241.301C154.948 240.79 155.133 240.292 155.502 239.806C155.88 239.309 156.324 238.985 156.834 238.834C157.343 238.684 157.889 238.692 158.471 238.86C159.056 239.024 159.646 239.333 160.241 239.785L160.355 239.872ZM159.215 241.135C158.863 240.867 158.509 240.67 158.154 240.542C157.801 240.412 157.467 240.381 157.151 240.45C156.838 240.515 156.563 240.704 156.326 241.016C156.154 241.241 156.045 241.464 155.997 241.685C155.945 241.903 155.944 242.12 155.993 242.334C156.044 242.545 156.139 242.752 156.277 242.954C156.412 243.154 156.578 243.349 156.776 243.54L157.761 244.289C158.056 244.444 158.35 244.553 158.645 244.617C158.94 244.681 159.224 244.669 159.498 244.579C159.772 244.484 160.023 244.285 160.252 243.984C160.489 243.672 160.593 243.354 160.566 243.029C160.534 242.702 160.408 242.385 160.188 242.08C159.964 241.773 159.678 241.486 159.329 241.222L159.215 241.135Z" fill="black"/>
<path d="M167.37 241.342L166.344 242.691L158.193 236.493L159.141 235.247L160.351 236.004L167.37 241.342ZM165.122 233.604C165.695 234.039 166.141 234.519 166.459 235.041C166.777 235.557 166.936 236.085 166.938 236.625C166.943 237.161 166.759 237.674 166.387 238.163C166.011 238.657 165.58 238.976 165.092 239.12C164.604 239.258 164.078 239.256 163.516 239.115C162.954 238.974 162.374 238.731 161.778 238.386L161.391 238.092C160.863 237.582 160.452 237.072 160.159 236.562C159.861 236.05 159.714 235.54 159.716 235.032C159.715 234.522 159.899 234.023 160.269 233.537C160.647 233.04 161.091 232.716 161.6 232.566C162.11 232.415 162.656 232.424 163.238 232.592C163.823 232.756 164.413 233.064 165.008 233.517L165.122 233.604ZM163.982 234.866C163.63 234.599 163.276 234.401 162.921 234.274C162.568 234.143 162.233 234.112 161.918 234.181C161.605 234.247 161.329 234.435 161.092 234.747C160.921 234.972 160.812 235.195 160.764 235.416C160.712 235.635 160.711 235.851 160.759 236.066C160.811 236.277 160.906 236.483 161.044 236.686C161.178 236.885 161.345 237.08 161.543 237.271L162.528 238.02C162.822 238.175 163.117 238.285 163.412 238.349C163.707 238.413 163.991 238.4 164.265 238.311C164.538 238.215 164.789 238.017 165.018 237.715C165.256 237.404 165.36 237.085 165.332 236.761C165.301 236.433 165.175 236.117 164.954 235.812C164.73 235.504 164.444 235.218 164.096 234.953L163.982 234.866Z" fill="black"/>
<path d="M165.659 232.672C165.086 232.236 164.657 231.738 164.373 231.179C164.088 230.619 163.97 230.037 164.018 229.432C164.065 228.82 164.306 228.228 164.742 227.655C165.183 227.075 165.692 226.68 166.269 226.472C166.842 226.26 167.434 226.219 168.047 226.347C168.662 226.471 169.256 226.751 169.83 227.187L169.944 227.274C170.513 227.707 170.942 228.205 171.23 228.767C171.517 229.323 171.635 229.906 171.585 230.514C171.537 231.119 171.294 231.71 170.855 232.287C170.417 232.864 169.911 233.258 169.338 233.469C168.765 233.68 168.171 233.724 167.556 233.599C166.937 233.472 166.343 233.192 165.773 232.759L165.659 232.672ZM166.799 231.409C167.147 231.674 167.504 231.868 167.869 231.991C168.23 232.111 168.575 232.135 168.903 232.065C169.234 231.99 169.524 231.79 169.773 231.463C170.018 231.14 170.131 230.811 170.111 230.476C170.094 230.137 169.979 229.811 169.764 229.499C169.548 229.18 169.266 228.888 168.918 228.623L168.803 228.536C168.459 228.274 168.104 228.082 167.74 227.959C167.378 227.833 167.031 227.807 166.7 227.881C166.365 227.953 166.073 228.152 165.825 228.478C165.579 228.801 165.467 229.134 165.487 229.476C165.507 229.811 165.625 230.138 165.84 230.457C166.059 230.772 166.34 231.06 166.685 231.323L166.799 231.409Z" fill="black"/>
<path d="M174.69 227.018L173.664 228.368L167.776 223.891L168.753 222.607L169.956 223.418L174.69 227.018ZM171.392 221.711C171.314 221.783 171.235 221.864 171.156 221.953C171.08 222.038 171.008 222.126 170.939 222.216C170.712 222.514 170.578 222.804 170.535 223.086C170.491 223.362 170.531 223.626 170.653 223.88C170.771 224.13 170.958 224.367 171.213 224.589L170.982 224.903C170.485 224.525 170.089 224.121 169.793 223.689C169.497 223.258 169.332 222.824 169.298 222.386C169.265 221.948 169.397 221.533 169.695 221.142C169.753 221.065 169.825 220.986 169.911 220.902C169.997 220.819 170.067 220.761 170.121 220.727L171.392 221.711Z" fill="black"/>
<path d="M174.056 217.699L171.515 221.04L170.519 220.283L173.06 216.942L174.056 217.699ZM170.824 216.89L176.494 221.202C176.675 221.34 176.832 221.419 176.965 221.44C177.094 221.458 177.211 221.433 177.316 221.363C177.42 221.294 177.519 221.197 177.613 221.074C177.682 220.983 177.742 220.892 177.795 220.8C177.848 220.709 177.888 220.633 177.916 220.574L178.955 221.364C178.908 221.501 178.843 221.651 178.758 221.816C178.675 221.976 178.561 222.153 178.415 222.345C178.186 222.646 177.928 222.873 177.639 223.026C177.354 223.176 177.039 223.225 176.694 223.175C176.348 223.118 175.972 222.935 175.565 222.626L169.797 218.24L170.824 216.89Z" fill="black"/>
<path d="M218.711 352.643L221.541 360.23L224.371 352.643H225.943L222.163 362.596H220.919L217.145 352.643H218.711ZM217.918 352.643L218.177 359.403V362.596H216.421V352.643H217.918ZM226.668 352.643V362.596H224.904V359.403L225.171 352.643H226.668Z" fill="black"/>
<path d="M232.663 357.599C232.663 357.216 232.556 356.91 232.342 356.683C232.132 356.455 231.813 356.341 231.385 356.341C231.129 356.341 230.906 356.386 230.715 356.478C230.523 356.564 230.375 356.683 230.27 356.833C230.165 356.983 230.113 357.154 230.113 357.346H228.418C228.418 356.949 228.543 356.578 228.794 356.231C229.044 355.881 229.398 355.598 229.853 355.384C230.314 355.17 230.856 355.062 231.48 355.062C232.036 355.062 232.531 355.156 232.964 355.343C233.397 355.53 233.736 355.812 233.982 356.19C234.233 356.569 234.358 357.043 234.358 357.612V360.873C234.358 361.219 234.383 361.525 234.433 361.789C234.483 362.053 234.554 362.284 234.645 362.479V362.596H232.909C232.831 362.418 232.77 362.188 232.724 361.905C232.683 361.623 232.663 361.347 232.663 361.078V357.599ZM232.923 359.137H231.76C231.159 359.137 230.705 359.248 230.4 359.472C230.099 359.69 229.949 359.989 229.949 360.367C229.949 360.659 230.049 360.903 230.25 361.099C230.45 361.29 230.733 361.386 231.097 361.386C231.43 361.386 231.719 361.32 231.966 361.188C232.216 361.051 232.412 360.884 232.553 360.688C232.695 360.488 232.768 360.301 232.772 360.128L233.312 360.887C233.258 361.074 233.164 361.274 233.032 361.488C232.904 361.698 232.733 361.898 232.519 362.09C232.31 362.277 232.059 362.432 231.767 362.555C231.48 362.673 231.145 362.732 230.762 362.732C230.279 362.732 229.849 362.637 229.47 362.445C229.092 362.254 228.794 361.992 228.575 361.659C228.361 361.322 228.254 360.944 228.254 360.524C228.254 359.741 228.548 359.139 229.135 358.72C229.723 358.3 230.557 358.091 231.637 358.091H232.909L232.923 359.137Z" fill="black"/>
<path d="M237.749 362.596H236.053V355.199H237.646L237.749 356.778V362.596ZM236.901 358.638C236.906 357.922 237.031 357.298 237.277 356.765C237.523 356.227 237.867 355.81 238.309 355.514C238.751 355.213 239.266 355.062 239.854 355.062C240.333 355.062 240.747 355.154 241.098 355.336C241.449 355.514 241.723 355.805 241.919 356.211C242.115 356.612 242.213 357.152 242.213 357.831V362.596H240.51V357.817C240.51 357.476 240.46 357.204 240.36 357.004C240.264 356.803 240.119 356.662 239.923 356.58C239.731 356.493 239.497 356.45 239.219 356.45C238.936 356.45 238.685 356.507 238.467 356.621C238.252 356.73 238.068 356.885 237.913 357.086C237.762 357.286 237.646 357.519 237.564 357.783C237.487 358.048 237.448 358.33 237.448 358.631L236.901 358.638Z" fill="black"/>
<path d="M248.03 357.599C248.03 357.216 247.923 356.91 247.709 356.683C247.499 356.455 247.18 356.341 246.752 356.341C246.497 356.341 246.273 356.386 246.082 356.478C245.89 356.564 245.742 356.683 245.637 356.833C245.533 356.983 245.48 357.154 245.48 357.346H243.785C243.785 356.949 243.91 356.578 244.161 356.231C244.412 355.881 244.765 355.598 245.22 355.384C245.681 355.17 246.223 355.062 246.847 355.062C247.403 355.062 247.898 355.156 248.331 355.343C248.764 355.53 249.103 355.812 249.349 356.19C249.6 356.569 249.725 357.043 249.725 357.612V360.873C249.725 361.219 249.75 361.525 249.801 361.789C249.851 362.053 249.921 362.284 250.012 362.479V362.596H248.276C248.199 362.418 248.137 362.188 248.092 361.905C248.051 361.623 248.03 361.347 248.03 361.078V357.599ZM248.29 359.137H247.128C246.526 359.137 246.073 359.248 245.767 359.472C245.467 359.69 245.316 359.989 245.316 360.367C245.316 360.659 245.416 360.903 245.617 361.099C245.817 361.29 246.1 361.386 246.465 361.386C246.797 361.386 247.087 361.32 247.333 361.188C247.583 361.051 247.779 360.884 247.921 360.688C248.062 360.488 248.135 360.301 248.139 360.128L248.679 360.887C248.625 361.074 248.531 361.274 248.399 361.488C248.272 361.698 248.101 361.898 247.886 362.09C247.677 362.277 247.426 362.432 247.135 362.555C246.847 362.673 246.512 362.732 246.13 362.732C245.647 362.732 245.216 362.637 244.838 362.445C244.459 362.254 244.161 361.992 243.942 361.659C243.728 361.322 243.621 360.944 243.621 360.524C243.621 359.741 243.915 359.139 244.503 358.72C245.091 358.3 245.925 358.091 247.005 358.091H248.276L248.29 359.137Z" fill="black"/>
<path d="M257.71 355.199V362.384C257.71 363.049 257.566 363.614 257.279 364.079C256.992 364.549 256.593 364.904 256.083 365.146C255.577 365.387 254.989 365.508 254.319 365.508C254.037 365.508 253.722 365.467 253.376 365.385C253.034 365.307 252.701 365.18 252.378 365.002C252.054 364.824 251.783 364.592 251.564 364.305L252.357 363.279C252.622 363.585 252.911 363.81 253.225 363.956C253.544 364.106 253.879 364.182 254.23 364.182C254.782 364.182 255.215 364.029 255.529 363.724C255.848 363.418 256.008 362.981 256.008 362.411V356.881L256.165 355.199H257.71ZM251.147 358.836C251.147 358.089 251.266 357.432 251.503 356.867C251.744 356.298 252.086 355.855 252.528 355.541C252.975 355.222 253.503 355.062 254.114 355.062C254.597 355.062 255.01 355.151 255.351 355.329C255.693 355.502 255.976 355.753 256.199 356.081C256.427 356.405 256.605 356.792 256.732 357.243C256.864 357.69 256.962 358.184 257.026 358.727V359.123C256.944 359.825 256.791 360.447 256.568 360.989C256.345 361.532 256.03 361.958 255.625 362.268C255.224 362.577 254.716 362.732 254.1 362.732C253.499 362.732 252.977 362.571 252.535 362.247C252.093 361.919 251.751 361.472 251.51 360.907C251.268 360.342 251.147 359.7 251.147 358.979V358.836ZM252.843 358.979C252.843 359.417 252.902 359.816 253.02 360.176C253.139 360.531 253.321 360.816 253.567 361.03C253.818 361.24 254.139 361.345 254.531 361.345C254.914 361.345 255.226 361.265 255.468 361.105C255.709 360.941 255.896 360.72 256.028 360.442C256.165 360.164 256.258 359.852 256.308 359.506V358.351C256.281 358.077 256.226 357.824 256.144 357.592C256.067 357.359 255.955 357.159 255.809 356.99C255.668 356.822 255.493 356.689 255.283 356.594C255.073 356.498 254.827 356.45 254.545 356.45C254.153 356.45 253.831 356.557 253.581 356.771C253.33 356.981 253.143 357.268 253.02 357.633C252.902 357.993 252.843 358.394 252.843 358.836V358.979Z" fill="black"/>
<path d="M262.659 362.732C261.925 362.732 261.292 362.575 260.759 362.261C260.225 361.942 259.815 361.513 259.528 360.976C259.241 360.433 259.097 359.827 259.097 359.157V358.877C259.097 358.107 259.243 357.437 259.535 356.867C259.827 356.293 260.225 355.849 260.731 355.534C261.242 355.22 261.818 355.062 262.461 355.062C263.172 355.062 263.762 355.217 264.231 355.527C264.701 355.833 265.052 356.259 265.284 356.806C265.516 357.348 265.633 357.977 265.633 358.692V359.424H259.911V358.2H263.958V358.07C263.949 357.783 263.894 357.514 263.794 357.264C263.693 357.013 263.534 356.81 263.315 356.655C263.101 356.5 262.814 356.423 262.454 356.423C262.094 356.423 261.791 356.525 261.545 356.73C261.299 356.931 261.112 357.216 260.984 357.585C260.857 357.95 260.793 358.38 260.793 358.877V359.157C260.793 359.576 260.87 359.952 261.025 360.285C261.18 360.618 261.406 360.882 261.702 361.078C261.998 361.27 262.351 361.365 262.761 361.365C263.158 361.365 263.509 361.288 263.814 361.133C264.124 360.978 264.391 360.755 264.614 360.463L265.503 361.352C265.27 361.702 264.919 362.021 264.45 362.309C263.985 362.591 263.388 362.732 262.659 362.732Z" fill="black"/>
<path d="M268.599 362.596H266.897V355.199H268.497L268.599 356.71V362.596ZM267.745 358.638C267.745 357.95 267.854 357.337 268.073 356.799C268.296 356.261 268.627 355.837 269.064 355.527C269.502 355.217 270.046 355.062 270.698 355.062C271.368 355.062 271.919 355.265 272.352 355.671C272.785 356.076 273.002 356.742 273.002 357.667V362.596H271.306V357.824C271.306 357.478 271.252 357.204 271.142 357.004C271.038 356.803 270.887 356.662 270.691 356.58C270.5 356.493 270.27 356.45 270.001 356.45C269.695 356.45 269.436 356.507 269.221 356.621C269.012 356.73 268.841 356.885 268.709 357.086C268.577 357.286 268.479 357.519 268.415 357.783C268.356 358.048 268.326 358.33 268.326 358.631L267.745 358.638ZM272.099 358.398C272.104 357.792 272.216 357.236 272.434 356.73C272.653 356.225 272.977 355.821 273.405 355.521C273.833 355.215 274.362 355.062 274.991 355.062C275.492 355.062 275.923 355.156 276.283 355.343C276.643 355.525 276.921 355.819 277.117 356.225C277.313 356.626 277.411 357.159 277.411 357.824V362.596H275.709V357.811C275.709 357.451 275.654 357.173 275.545 356.977C275.44 356.776 275.289 356.639 275.094 356.566C274.902 356.489 274.674 356.45 274.41 356.45C274.159 356.45 273.938 356.496 273.747 356.587C273.56 356.678 273.403 356.806 273.275 356.97C273.152 357.129 273.056 357.318 272.988 357.537C272.924 357.751 272.892 357.984 272.892 358.234L272.099 358.398Z" fill="black"/>
<path d="M282.36 362.732C281.626 362.732 280.993 362.575 280.46 362.261C279.927 361.942 279.516 361.513 279.229 360.976C278.942 360.433 278.799 359.827 278.799 359.157V358.877C278.799 358.107 278.944 357.437 279.236 356.867C279.528 356.293 279.927 355.849 280.432 355.534C280.943 355.22 281.519 355.062 282.162 355.062C282.873 355.062 283.463 355.217 283.932 355.527C284.402 355.833 284.753 356.259 284.985 356.806C285.218 357.348 285.334 357.977 285.334 358.692V359.424H279.612V358.2H283.659V358.07C283.65 357.783 283.595 357.514 283.495 357.264C283.395 357.013 283.235 356.81 283.016 356.655C282.802 356.5 282.515 356.423 282.155 356.423C281.795 356.423 281.492 356.525 281.246 356.73C281 356.931 280.813 357.216 280.685 357.585C280.558 357.95 280.494 358.38 280.494 358.877V359.157C280.494 359.576 280.571 359.952 280.726 360.285C280.881 360.618 281.107 360.882 281.403 361.078C281.699 361.27 282.052 361.365 282.463 361.365C282.859 361.365 283.21 361.288 283.515 361.133C283.825 360.978 284.092 360.755 284.315 360.463L285.204 361.352C284.971 361.702 284.621 362.021 284.151 362.309C283.686 362.591 283.089 362.732 282.36 362.732Z" fill="black"/>
<path d="M288.28 362.596H286.585V355.199H288.177L288.28 356.778V362.596ZM287.432 358.638C287.437 357.922 287.562 357.298 287.808 356.765C288.054 356.227 288.399 355.81 288.841 355.514C289.283 355.213 289.798 355.062 290.385 355.062C290.864 355.062 291.279 355.154 291.63 355.336C291.981 355.514 292.254 355.805 292.45 356.211C292.646 356.612 292.744 357.152 292.744 357.831V362.596H291.042V357.817C291.042 357.476 290.992 357.204 290.891 357.004C290.796 356.803 290.65 356.662 290.454 356.58C290.262 356.493 290.028 356.45 289.75 356.45C289.467 356.45 289.217 356.507 288.998 356.621C288.784 356.73 288.599 356.885 288.444 357.086C288.294 357.286 288.177 357.519 288.095 357.783C288.018 358.048 287.979 358.33 287.979 358.631L287.432 358.638Z" fill="black"/>
<path d="M297.837 356.45H293.639V355.199H297.837V356.45ZM296.524 353.388V360.511C296.524 360.739 296.556 360.912 296.62 361.03C296.684 361.144 296.775 361.222 296.893 361.263C297.012 361.304 297.149 361.324 297.303 361.324C297.417 361.324 297.527 361.317 297.632 361.304C297.736 361.29 297.821 361.276 297.885 361.263V362.568C297.748 362.614 297.588 362.653 297.406 362.685C297.228 362.716 297.019 362.732 296.777 362.732C296.399 362.732 296.062 362.664 295.765 362.527C295.474 362.391 295.244 362.17 295.075 361.864C294.911 361.554 294.829 361.144 294.829 360.634V353.388H296.524Z" fill="black"/>
<path d="M240.724 133.139H231.374V130.6H240.724V133.139ZM232.155 141H229.006V123.227H232.155V141ZM243.154 141H240.016V123.227H243.154V141Z" fill="black"/>
<path d="M245.912 134.274C245.912 132.988 246.156 131.841 246.645 130.832C247.133 129.822 247.833 129.025 248.744 128.439C249.664 127.845 250.767 127.548 252.052 127.548C253.355 127.548 254.465 127.845 255.385 128.439C256.305 129.025 257.004 129.822 257.485 130.832C257.973 131.841 258.217 132.988 258.217 134.274V134.53C258.217 135.808 257.973 136.955 257.485 137.973C257.004 138.982 256.305 139.779 255.385 140.365C254.473 140.951 253.371 141.244 252.077 141.244C250.783 141.244 249.676 140.951 248.757 140.365C247.837 139.779 247.133 138.982 246.645 137.973C246.156 136.955 245.912 135.808 245.912 134.53V134.274ZM248.94 134.53C248.94 135.312 249.049 136.028 249.269 136.679C249.489 137.322 249.827 137.838 250.282 138.229C250.746 138.62 251.344 138.815 252.077 138.815C252.801 138.815 253.391 138.62 253.847 138.229C254.311 137.838 254.648 137.322 254.86 136.679C255.08 136.028 255.19 135.312 255.19 134.53V134.274C255.19 133.501 255.08 132.789 254.86 132.138C254.648 131.487 254.311 130.966 253.847 130.575C253.383 130.176 252.785 129.977 252.052 129.977C251.328 129.977 250.734 130.176 250.27 130.575C249.814 130.966 249.477 131.487 249.257 132.138C249.045 132.789 248.94 133.501 248.94 134.274V134.53Z" fill="black"/>
<path d="M263.905 141H260.878V122.25H263.905V141Z" fill="black"/>
<path d="M275.124 122.25H278.151V141H275.404L275.124 138.229V122.25ZM266.554 134.286C266.554 132.951 266.762 131.78 267.177 130.771C267.6 129.753 268.198 128.964 268.971 128.402C269.744 127.833 270.672 127.548 271.755 127.548C272.821 127.548 273.712 127.825 274.428 128.378C275.144 128.931 275.706 129.7 276.112 130.685C276.528 131.662 276.804 132.797 276.943 134.091V134.799C276.804 136.052 276.532 137.163 276.125 138.131C275.718 139.1 275.152 139.861 274.428 140.414C273.712 140.967 272.813 141.244 271.73 141.244C270.664 141.244 269.744 140.955 268.971 140.377C268.198 139.792 267.6 138.994 267.177 137.985C266.762 136.976 266.554 135.828 266.554 134.542V134.286ZM269.582 134.542C269.582 135.324 269.679 136.036 269.875 136.679C270.07 137.313 270.379 137.822 270.802 138.205C271.234 138.579 271.799 138.766 272.499 138.766C273.158 138.766 273.7 138.624 274.123 138.339C274.554 138.046 274.888 137.651 275.124 137.155C275.368 136.658 275.535 136.101 275.624 135.482V133.419C275.567 132.931 275.466 132.479 275.319 132.064C275.173 131.649 274.973 131.291 274.721 130.99C274.477 130.689 274.172 130.453 273.805 130.282C273.439 130.111 273.012 130.026 272.524 130.026C271.824 130.026 271.254 130.217 270.815 130.6C270.383 130.974 270.07 131.487 269.875 132.138C269.679 132.781 269.582 133.497 269.582 134.286V134.542Z" fill="black"/>
<path d="M287.062 141.244C285.752 141.244 284.621 140.963 283.669 140.402C282.716 139.832 281.984 139.067 281.471 138.107C280.959 137.139 280.702 136.056 280.702 134.86V134.359C280.702 132.984 280.963 131.788 281.484 130.771C282.004 129.745 282.716 128.952 283.62 128.39C284.531 127.829 285.561 127.548 286.708 127.548C287.978 127.548 289.032 127.825 289.87 128.378C290.708 128.923 291.335 129.684 291.75 130.661C292.165 131.629 292.372 132.752 292.372 134.03V135.336H282.155V133.151H289.382V132.919C289.365 132.406 289.268 131.926 289.089 131.479C288.91 131.031 288.625 130.669 288.234 130.392C287.852 130.115 287.339 129.977 286.696 129.977C286.053 129.977 285.512 130.16 285.072 130.526C284.633 130.884 284.299 131.393 284.071 132.052C283.844 132.703 283.73 133.472 283.73 134.359V134.86C283.73 135.609 283.868 136.28 284.145 136.874C284.421 137.468 284.824 137.94 285.353 138.29C285.882 138.632 286.513 138.803 287.245 138.803C287.953 138.803 288.58 138.664 289.125 138.388C289.679 138.111 290.155 137.712 290.553 137.191L292.14 138.778C291.725 139.405 291.099 139.975 290.26 140.487C289.43 140.992 288.364 141.244 287.062 141.244Z" fill="black"/>
<path d="M297.67 141H294.643V127.792H297.524L297.67 130.38V141ZM301.65 130.575C301.462 130.543 301.263 130.518 301.051 130.502C300.848 130.486 300.645 130.478 300.441 130.478C299.774 130.478 299.216 130.6 298.769 130.844C298.329 131.08 297.996 131.422 297.768 131.869C297.54 132.309 297.406 132.829 297.365 133.432L296.669 133.444C296.669 132.329 296.816 131.328 297.109 130.441C297.402 129.554 297.841 128.85 298.427 128.329C299.013 127.808 299.745 127.548 300.624 127.548C300.795 127.548 300.986 127.564 301.198 127.597C301.41 127.629 301.568 127.666 301.674 127.707L301.65 130.575Z" fill="black"/>
<path d="M310.878 137.399C310.878 137.122 310.805 136.87 310.658 136.642C310.52 136.414 310.247 136.203 309.841 136.007C309.434 135.812 308.835 135.633 308.046 135.47C307.11 135.275 306.284 135.014 305.568 134.689C304.86 134.363 304.307 133.944 303.908 133.432C303.517 132.919 303.322 132.292 303.322 131.552C303.322 130.836 303.525 130.176 303.932 129.574C304.347 128.964 304.937 128.476 305.702 128.109C306.475 127.735 307.387 127.548 308.437 127.548C309.543 127.548 310.496 127.735 311.293 128.109C312.091 128.476 312.701 128.976 313.124 129.611C313.556 130.237 313.771 130.95 313.771 131.747H310.744C310.744 131.226 310.549 130.771 310.158 130.38C309.775 129.981 309.198 129.782 308.424 129.782C307.944 129.782 307.542 129.859 307.216 130.014C306.899 130.168 306.659 130.368 306.496 130.612C306.341 130.856 306.264 131.125 306.264 131.417C306.264 131.702 306.341 131.951 306.496 132.162C306.659 132.374 306.931 132.561 307.314 132.724C307.704 132.886 308.25 133.041 308.949 133.188C309.959 133.399 310.829 133.668 311.562 133.993C312.294 134.311 312.856 134.734 313.246 135.263C313.645 135.784 313.844 136.447 313.844 137.252C313.844 138.026 313.621 138.713 313.173 139.315C312.734 139.918 312.111 140.39 311.305 140.731C310.508 141.073 309.564 141.244 308.473 141.244C307.261 141.244 306.239 141.028 305.409 140.597C304.579 140.166 303.949 139.617 303.517 138.949C303.094 138.274 302.883 137.574 302.883 136.85H305.8C305.833 137.37 305.979 137.79 306.239 138.107C306.508 138.424 306.842 138.656 307.24 138.803C307.647 138.941 308.07 139.01 308.51 139.01C309.031 139.01 309.462 138.941 309.804 138.803C310.154 138.664 310.418 138.477 310.597 138.241C310.785 137.997 310.878 137.716 310.878 137.399Z" fill="black"/>
<path d="M66.7 381.414H63.325V366.264H58.675V363.564H71.325V366.264H66.7V381.414Z" fill="black"/>
<path d="M77.2158 367.614C78.3825 367.614 79.3825 367.864 80.2158 368.364C81.0658 368.848 81.7241 369.548 82.1908 370.464C82.6575 371.364 82.8908 372.464 82.8908 373.764V375.364H74.5908C74.6241 376.598 74.9241 377.556 75.4908 378.239C76.0741 378.906 76.8908 379.239 77.9408 379.239C78.7741 379.239 79.5158 379.156 80.1658 378.989C80.8158 378.806 81.4908 378.548 82.1908 378.214V380.739C81.5575 381.056 80.8991 381.289 80.2158 381.439C79.5325 381.589 78.6908 381.664 77.6908 381.664C76.4241 381.664 75.2991 381.414 74.3158 380.914C73.3491 380.398 72.5908 379.623 72.0408 378.589C71.4908 377.556 71.2158 376.273 71.2158 374.739C71.2158 373.189 71.4658 371.889 71.9658 370.839C72.4658 369.773 73.1658 368.973 74.0658 368.439C74.9825 367.889 76.0325 367.614 77.2158 367.614ZM77.2658 369.939C76.5158 369.939 75.9075 370.214 75.4408 370.764C74.9908 371.298 74.7241 372.098 74.6408 373.164H79.7408C79.7408 372.531 79.6491 371.973 79.4658 371.489C79.2825 371.006 79.0075 370.631 78.6408 370.364C78.2908 370.081 77.8325 369.939 77.2658 369.939Z" fill="black"/>
<path d="M91.1586 367.614C92.7919 367.614 94.0419 367.998 94.9086 368.764C95.7752 369.514 96.2086 370.698 96.2086 372.314V381.414H93.8836L93.2336 379.539H93.1336C92.7669 380.023 92.3919 380.431 92.0086 380.764C91.6252 381.081 91.1836 381.306 90.6836 381.439C90.1836 381.589 89.5836 381.664 88.8836 381.664C88.1336 381.664 87.4586 381.514 86.8586 381.214C86.2586 380.914 85.7836 380.456 85.4336 379.839C85.0836 379.206 84.9086 378.414 84.9086 377.464C84.9086 376.064 85.3919 375.014 86.3586 374.314C87.3252 373.598 88.7753 373.206 90.7086 373.139L92.8836 373.064V372.389C92.8836 371.523 92.7003 370.906 92.3336 370.539C91.9669 370.173 91.4669 369.989 90.8336 369.989C90.2336 369.989 89.6252 370.089 89.0086 370.289C88.4086 370.489 87.8169 370.723 87.2336 370.989L86.2086 368.789C86.8919 368.439 87.6502 368.156 88.4836 367.939C89.3169 367.723 90.2086 367.614 91.1586 367.614ZM91.4836 375.064C90.3002 375.114 89.4752 375.356 89.0086 375.789C88.5419 376.206 88.3086 376.773 88.3086 377.489C88.3086 378.123 88.4669 378.581 88.7836 378.864C89.1169 379.148 89.5503 379.289 90.0836 379.289C90.8669 379.289 91.5336 379.031 92.0836 378.514C92.6336 377.981 92.9086 377.198 92.9086 376.164V375.014L91.4836 375.064Z" fill="black"/>
<path d="M114.598 367.614C116.065 367.614 117.165 368.006 117.898 368.789C118.631 369.573 118.998 370.839 118.998 372.589V381.414H115.723V373.189C115.723 372.189 115.556 371.439 115.223 370.939C114.89 370.423 114.373 370.164 113.673 370.164C112.706 370.164 112.023 370.523 111.623 371.239C111.223 371.956 111.023 372.998 111.023 374.364V381.414H107.723V373.189C107.723 372.523 107.648 371.964 107.498 371.514C107.348 371.064 107.123 370.731 106.823 370.514C106.523 370.281 106.14 370.164 105.673 370.164C105.006 370.164 104.481 370.348 104.098 370.714C103.715 371.064 103.44 371.581 103.273 372.264C103.123 372.948 103.048 373.789 103.048 374.789V381.414H99.7228V367.864H102.273L102.748 369.639H102.898C103.148 369.173 103.456 368.789 103.823 368.489C104.206 368.189 104.64 367.973 105.123 367.839C105.623 367.689 106.14 367.614 106.673 367.614C107.623 367.614 108.415 367.789 109.048 368.139C109.698 368.473 110.198 368.998 110.548 369.714H110.723C111.14 368.981 111.69 368.448 112.373 368.114C113.073 367.781 113.815 367.614 114.598 367.614Z" fill="black"/>
<path d="M402.375 370.577C402.375 372.376 402.066 373.922 401.448 375.216C400.829 376.51 399.967 377.507 398.86 378.207C397.761 378.898 396.471 379.244 394.99 379.244C393.542 379.244 392.256 378.898 391.133 378.207C390.018 377.507 389.143 376.51 388.508 375.216C387.882 373.922 387.568 372.376 387.568 370.577V369.662C387.568 367.863 387.882 366.317 388.508 365.023C389.135 363.721 390.006 362.724 391.121 362.032C392.236 361.332 393.517 360.982 394.966 360.982C396.447 360.982 397.741 361.332 398.848 362.032C399.954 362.724 400.817 363.721 401.436 365.023C402.062 366.317 402.375 367.863 402.375 369.662V370.577ZM399.214 369.637C399.214 368.327 399.047 367.224 398.713 366.329C398.38 365.426 397.896 364.746 397.261 364.291C396.626 363.827 395.861 363.595 394.966 363.595C394.087 363.595 393.33 363.827 392.695 364.291C392.069 364.746 391.584 365.426 391.243 366.329C390.909 367.224 390.742 368.327 390.742 369.637V370.577C390.742 371.887 390.913 372.994 391.255 373.897C391.597 374.801 392.085 375.484 392.72 375.948C393.354 376.412 394.111 376.644 394.99 376.644C395.894 376.644 396.659 376.412 397.285 375.948C397.92 375.484 398.4 374.801 398.726 373.897C399.051 372.994 399.214 371.887 399.214 370.577V369.637Z" fill="black"/>
<path d="M413.032 365.792H416.06V379H413.203L413.032 375.875V365.792ZM414.46 373.092C414.46 374.28 414.285 375.338 413.936 376.266C413.586 377.185 413.04 377.914 412.3 378.451C411.559 378.98 410.599 379.244 409.419 379.244C408.117 379.244 407.063 378.862 406.257 378.097C405.452 377.332 405.049 376.074 405.049 374.325V365.792H408.076V374.349C408.076 374.959 408.17 375.444 408.357 375.802C408.552 376.152 408.809 376.4 409.126 376.546C409.443 376.693 409.793 376.766 410.176 376.766C410.998 376.766 411.645 376.607 412.117 376.29C412.597 375.965 412.939 375.525 413.142 374.972C413.346 374.418 413.447 373.8 413.447 373.116L414.46 373.092Z" fill="black"/>
<path d="M422.065 379H419.038V365.792H421.919L422.065 368.38V379ZM426.045 368.575C425.858 368.543 425.658 368.518 425.447 368.502C425.243 368.486 425.04 368.478 424.836 368.478C424.169 368.478 423.612 368.6 423.164 368.844C422.725 369.08 422.391 369.422 422.163 369.869C421.935 370.309 421.801 370.829 421.76 371.432L421.064 371.444C421.064 370.329 421.211 369.328 421.504 368.441C421.797 367.554 422.236 366.85 422.822 366.329C423.408 365.808 424.141 365.548 425.02 365.548C425.19 365.548 425.382 365.564 425.593 365.597C425.805 365.629 425.964 365.666 426.069 365.707L426.045 368.575Z" fill="black"/>
<path d="M436.604 371.017L436.58 368.722H440.51C441.495 368.722 442.256 368.506 442.793 368.075C443.33 367.643 443.599 367.033 443.599 366.244C443.599 365.373 443.342 364.742 442.83 364.352C442.325 363.961 441.54 363.766 440.474 363.766H437.556V379H434.407V361.227H440.474C442.435 361.227 443.969 361.617 445.076 362.398C446.191 363.172 446.748 364.384 446.748 366.036C446.748 366.769 446.569 367.44 446.211 368.05C445.861 368.661 445.34 369.157 444.648 369.54C443.957 369.922 443.094 370.146 442.061 370.211L441.108 371.017H436.604ZM435.603 379L437.031 376.473H440.974C441.983 376.473 442.744 376.225 443.257 375.729C443.77 375.232 444.026 374.589 444.026 373.8C444.026 373.222 443.924 372.726 443.721 372.311C443.517 371.896 443.204 371.578 442.781 371.358C442.358 371.131 441.8 371.017 441.108 371.017H437.642L437.666 368.722H442.158L442.866 369.601C443.851 369.617 444.657 369.824 445.283 370.223C445.918 370.622 446.39 371.139 446.699 371.773C447.008 372.4 447.163 373.08 447.163 373.812C447.163 375.513 446.614 376.803 445.515 377.682C444.425 378.561 442.911 379 440.974 379H435.603Z" fill="black"/>
<path d="M452.974 379H449.946V365.792H452.827L452.974 368.38V379ZM456.953 368.575C456.766 368.543 456.567 368.518 456.355 368.502C456.152 368.486 455.948 368.478 455.745 368.478C455.077 368.478 454.52 368.6 454.072 368.844C453.633 369.08 453.299 369.422 453.071 369.869C452.843 370.309 452.709 370.829 452.668 371.432L451.973 371.444C451.973 370.329 452.119 369.328 452.412 368.441C452.705 367.554 453.145 366.85 453.73 366.329C454.316 365.808 455.049 365.548 455.928 365.548C456.099 365.548 456.29 365.564 456.501 365.597C456.713 365.629 456.872 365.666 456.978 365.707L456.953 368.575Z" fill="black"/>
<path d="M465.999 370.077C465.999 369.393 465.807 368.848 465.425 368.441C465.05 368.034 464.481 367.831 463.716 367.831C463.26 367.831 462.861 367.912 462.52 368.075C462.178 368.229 461.913 368.441 461.726 368.709C461.539 368.978 461.445 369.283 461.445 369.625H458.418C458.418 368.917 458.642 368.254 459.089 367.635C459.537 367.009 460.168 366.504 460.981 366.122C461.803 365.739 462.772 365.548 463.887 365.548C464.88 365.548 465.763 365.715 466.536 366.048C467.309 366.382 467.915 366.887 468.354 367.562C468.802 368.237 469.026 369.084 469.026 370.101V375.924C469.026 376.542 469.071 377.088 469.16 377.56C469.25 378.032 469.376 378.443 469.539 378.792V379H466.438C466.3 378.683 466.19 378.272 466.108 377.767C466.035 377.263 465.999 376.77 465.999 376.29V370.077ZM466.462 372.823H464.387C463.313 372.823 462.503 373.023 461.958 373.421C461.421 373.812 461.152 374.345 461.152 375.021C461.152 375.541 461.331 375.977 461.689 376.327C462.048 376.668 462.552 376.839 463.203 376.839C463.797 376.839 464.314 376.721 464.753 376.485C465.201 376.241 465.551 375.944 465.803 375.594C466.056 375.236 466.186 374.903 466.194 374.593L467.158 375.948C467.061 376.282 466.894 376.64 466.658 377.022C466.43 377.397 466.125 377.755 465.742 378.097C465.368 378.43 464.92 378.707 464.399 378.927C463.887 379.138 463.289 379.244 462.605 379.244C461.742 379.244 460.973 379.073 460.298 378.731C459.622 378.39 459.089 377.922 458.699 377.328C458.316 376.725 458.125 376.05 458.125 375.301C458.125 373.902 458.65 372.827 459.7 372.079C460.75 371.33 462.239 370.956 464.167 370.956H466.438L466.462 372.823Z" fill="black"/>
<path d="M475.081 379H472.053V365.792H474.897L475.081 368.612V379ZM473.567 371.932C473.575 370.654 473.799 369.54 474.238 368.587C474.678 367.627 475.292 366.882 476.082 366.354C476.871 365.816 477.791 365.548 478.84 365.548C479.695 365.548 480.435 365.711 481.062 366.036C481.689 366.354 482.177 366.874 482.527 367.599C482.877 368.315 483.052 369.279 483.052 370.492V379H480.012V370.467C480.012 369.857 479.923 369.373 479.744 369.015C479.573 368.657 479.312 368.404 478.962 368.258C478.621 368.103 478.201 368.026 477.705 368.026C477.201 368.026 476.753 368.128 476.362 368.331C475.98 368.526 475.65 368.803 475.374 369.161C475.105 369.519 474.897 369.934 474.751 370.406C474.613 370.878 474.543 371.383 474.543 371.92L473.567 371.932Z" fill="black"/>
<path d="M494.05 360.25H497.078V379H494.331L494.05 376.229V360.25ZM485.481 372.286C485.481 370.951 485.688 369.78 486.104 368.771C486.527 367.753 487.125 366.964 487.898 366.402C488.671 365.833 489.599 365.548 490.681 365.548C491.747 365.548 492.638 365.825 493.354 366.378C494.071 366.931 494.632 367.7 495.039 368.685C495.454 369.662 495.731 370.797 495.869 372.091V372.799C495.731 374.052 495.458 375.163 495.051 376.131C494.644 377.1 494.079 377.861 493.354 378.414C492.638 378.967 491.739 379.244 490.657 379.244C489.591 379.244 488.671 378.955 487.898 378.377C487.125 377.792 486.527 376.994 486.104 375.985C485.688 374.976 485.481 373.828 485.481 372.542V372.286ZM488.508 372.542C488.508 373.324 488.606 374.036 488.801 374.679C488.997 375.313 489.306 375.822 489.729 376.205C490.16 376.579 490.726 376.766 491.426 376.766C492.085 376.766 492.626 376.624 493.049 376.339C493.481 376.046 493.814 375.651 494.05 375.155C494.294 374.658 494.461 374.101 494.551 373.482V371.419C494.494 370.931 494.392 370.479 494.246 370.064C494.099 369.649 493.9 369.291 493.647 368.99C493.403 368.689 493.098 368.453 492.732 368.282C492.366 368.111 491.938 368.026 491.45 368.026C490.75 368.026 490.181 368.217 489.741 368.6C489.31 368.974 488.997 369.487 488.801 370.138C488.606 370.781 488.508 371.497 488.508 372.286V372.542Z" fill="black"/>
<path d="M385.772 395H384.825V387.891H385.772V395ZM388.746 391.855H385.567V391.094H388.746V391.855ZM389.229 388.657H385.567V387.891H389.229V388.657Z" fill="black"/>
<path d="M389.869 392.305C389.869 391.794 389.967 391.336 390.162 390.933C390.357 390.529 390.634 390.21 390.992 389.976C391.35 389.738 391.775 389.619 392.267 389.619C392.765 389.619 393.194 389.738 393.556 389.976C393.917 390.21 394.194 390.529 394.386 390.933C394.581 391.336 394.679 391.794 394.679 392.305V392.417C394.679 392.925 394.581 393.382 394.386 393.789C394.194 394.193 393.917 394.512 393.556 394.746C393.198 394.98 392.771 395.098 392.276 395.098C391.782 395.098 391.354 394.98 390.992 394.746C390.634 394.512 390.357 394.193 390.162 393.789C389.967 393.382 389.869 392.925 389.869 392.417V392.305ZM390.782 392.417C390.782 392.765 390.838 393.088 390.948 393.384C391.059 393.68 391.223 393.918 391.441 394.097C391.663 394.276 391.941 394.365 392.276 394.365C392.608 394.365 392.883 394.276 393.102 394.097C393.323 393.918 393.489 393.68 393.6 393.384C393.71 393.088 393.766 392.765 393.766 392.417V392.305C393.766 391.956 393.71 391.634 393.6 391.338C393.489 391.042 393.323 390.804 393.102 390.625C392.88 390.443 392.602 390.352 392.267 390.352C391.938 390.352 391.663 390.443 391.441 390.625C391.22 390.804 391.054 391.042 390.943 391.338C390.836 391.634 390.782 391.956 390.782 392.305V392.417Z" fill="black"/>
<path d="M395.582 392.305C395.582 391.794 395.68 391.336 395.875 390.933C396.07 390.529 396.347 390.21 396.705 389.976C397.063 389.738 397.488 389.619 397.979 389.619C398.478 389.619 398.907 389.738 399.269 389.976C399.63 390.21 399.907 390.529 400.099 390.933C400.294 391.336 400.392 391.794 400.392 392.305V392.417C400.392 392.925 400.294 393.382 400.099 393.789C399.907 394.193 399.63 394.512 399.269 394.746C398.91 394.98 398.484 395.098 397.989 395.098C397.494 395.098 397.066 394.98 396.705 394.746C396.347 394.512 396.07 394.193 395.875 393.789C395.68 393.382 395.582 392.925 395.582 392.417V392.305ZM396.495 392.417C396.495 392.765 396.55 393.088 396.661 393.384C396.772 393.68 396.936 393.918 397.154 394.097C397.376 394.276 397.654 394.365 397.989 394.365C398.321 394.365 398.596 394.276 398.814 394.097C399.036 393.918 399.202 393.68 399.312 393.384C399.423 393.088 399.479 392.765 399.479 392.417V392.305C399.479 391.956 399.423 391.634 399.312 391.338C399.202 391.042 399.036 390.804 398.814 390.625C398.593 390.443 398.315 390.352 397.979 390.352C397.651 390.352 397.376 390.443 397.154 390.625C396.933 390.804 396.767 391.042 396.656 391.338C396.549 391.634 396.495 391.956 396.495 392.305V392.417Z" fill="black"/>
<path d="M404.859 387.5H405.772V395H404.938L404.859 393.975V387.5ZM401.31 392.314C401.31 391.777 401.396 391.307 401.568 390.903C401.744 390.496 401.988 390.181 402.301 389.956C402.613 389.731 402.979 389.619 403.399 389.619C403.842 389.619 404.212 389.722 404.508 389.927C404.804 390.129 405.035 390.417 405.201 390.791C405.37 391.165 405.479 391.611 405.528 392.129V392.603C405.479 393.114 405.372 393.556 405.206 393.931C405.04 394.302 404.807 394.59 404.508 394.795C404.212 394.997 403.839 395.098 403.39 395.098C402.976 395.098 402.613 394.982 402.301 394.751C401.988 394.517 401.744 394.198 401.568 393.794C401.396 393.39 401.31 392.931 401.31 392.417V392.314ZM402.223 392.417C402.223 392.769 402.27 393.089 402.364 393.379C402.462 393.669 402.613 393.901 402.818 394.077C403.023 394.25 403.289 394.336 403.614 394.336C403.914 394.336 404.16 394.272 404.352 394.146C404.547 394.019 404.703 393.851 404.82 393.643C404.938 393.434 405.029 393.208 405.094 392.964V391.777C405.055 391.598 404.998 391.426 404.923 391.26C404.851 391.09 404.757 390.941 404.64 390.811C404.526 390.677 404.384 390.571 404.215 390.493C404.049 390.415 403.852 390.376 403.624 390.376C403.295 390.376 403.027 390.464 402.818 390.64C402.613 390.815 402.462 391.051 402.364 391.348C402.27 391.641 402.223 391.963 402.223 392.314V392.417Z" fill="black"/>
<path d="M412.77 391.377C412.77 391.061 412.675 390.811 412.486 390.625C412.301 390.436 412.026 390.342 411.661 390.342C411.437 390.342 411.238 390.381 411.065 390.459C410.896 390.537 410.764 390.64 410.67 390.767C410.576 390.894 410.528 391.032 410.528 391.182H409.615C409.615 390.928 409.701 390.682 409.874 390.444C410.047 390.203 410.289 390.007 410.602 389.854C410.917 389.697 411.288 389.619 411.715 389.619C412.099 389.619 412.439 389.684 412.735 389.814C413.032 389.945 413.263 390.142 413.429 390.405C413.598 390.666 413.683 390.993 413.683 391.387V393.848C413.683 394.023 413.697 394.211 413.727 394.409C413.759 394.608 413.806 394.779 413.868 394.922V395H412.916C412.87 394.896 412.835 394.757 412.809 394.585C412.783 394.409 412.77 394.246 412.77 394.097V391.377ZM412.936 392.432H412.027C411.513 392.432 411.116 392.513 410.836 392.676C410.556 392.839 410.416 393.083 410.416 393.408C410.416 393.662 410.501 393.877 410.67 394.053C410.842 394.229 411.093 394.316 411.422 394.316C411.699 394.316 411.943 394.258 412.154 394.141C412.366 394.023 412.534 393.879 412.657 393.706C412.781 393.534 412.848 393.368 412.857 393.208L413.248 393.643C413.225 393.779 413.163 393.931 413.062 394.097C412.962 394.263 412.826 394.422 412.657 394.575C412.491 394.725 412.293 394.85 412.062 394.951C411.834 395.049 411.576 395.098 411.29 395.098C410.932 395.098 410.618 395.029 410.348 394.893C410.081 394.753 409.872 394.564 409.723 394.326C409.576 394.089 409.503 393.825 409.503 393.535C409.503 392.965 409.718 392.534 410.147 392.241C410.577 391.945 411.155 391.797 411.881 391.797H412.926L412.936 392.432Z" fill="black"/>
<path d="M416.017 395H415.104V389.717H415.968L416.017 390.845V395ZM415.421 392.139C415.427 391.657 415.52 391.227 415.699 390.85C415.878 390.469 416.127 390.169 416.446 389.951C416.769 389.73 417.143 389.619 417.569 389.619C417.918 389.619 418.217 389.684 418.468 389.814C418.722 389.941 418.917 390.145 419.054 390.425C419.194 390.705 419.264 391.076 419.264 391.538V395H418.351V391.528C418.351 391.252 418.31 391.029 418.229 390.859C418.15 390.69 418.033 390.568 417.877 390.493C417.721 390.415 417.529 390.376 417.301 390.376C417.076 390.376 416.873 390.423 416.69 390.518C416.508 390.612 416.35 390.742 416.217 390.908C416.083 391.074 415.981 391.265 415.909 391.479C415.838 391.691 415.802 391.916 415.802 392.153L415.421 392.139Z" fill="black"/>
<path d="M423.961 387.5H424.874V395H424.039L423.961 393.975V387.5ZM420.411 392.314C420.411 391.777 420.497 391.307 420.67 390.903C420.846 390.496 421.09 390.181 421.402 389.956C421.715 389.731 422.081 389.619 422.501 389.619C422.944 389.619 423.313 389.722 423.609 389.927C423.906 390.129 424.137 390.417 424.303 390.791C424.472 391.165 424.581 391.611 424.63 392.129V392.603C424.581 393.114 424.474 393.556 424.308 393.931C424.142 394.302 423.909 394.59 423.609 394.795C423.313 394.997 422.94 395.098 422.491 395.098C422.078 395.098 421.715 394.982 421.402 394.751C421.09 394.517 420.846 394.198 420.67 393.794C420.497 393.39 420.411 392.931 420.411 392.417V392.314ZM421.324 392.417C421.324 392.769 421.371 393.089 421.466 393.379C421.563 393.669 421.715 393.901 421.92 394.077C422.125 394.25 422.39 394.336 422.716 394.336C423.015 394.336 423.261 394.272 423.453 394.146C423.648 394.019 423.805 393.851 423.922 393.643C424.039 393.434 424.13 393.208 424.195 392.964V391.777C424.156 391.598 424.099 391.426 424.024 391.26C423.953 391.09 423.858 390.941 423.741 390.811C423.627 390.677 423.486 390.571 423.316 390.493C423.15 390.415 422.953 390.376 422.726 390.376C422.397 390.376 422.128 390.464 421.92 390.64C421.715 390.815 421.563 391.051 421.466 391.348C421.371 391.641 421.324 391.963 421.324 392.314V392.417Z" fill="black"/>
<path d="M429.635 391.67L429.625 390.923H431.256C431.66 390.923 431.985 390.822 432.232 390.62C432.48 390.418 432.604 390.137 432.604 389.775C432.604 389.385 432.49 389.102 432.262 388.926C432.037 388.747 431.694 388.657 431.231 388.657H429.845V395H428.897V387.891H431.231C431.957 387.891 432.525 388.042 432.936 388.345C433.346 388.644 433.551 389.124 433.551 389.785C433.551 390.078 433.476 390.343 433.326 390.581C433.176 390.815 432.966 391.007 432.696 391.157C432.429 391.307 432.118 391.403 431.764 391.445L431.432 391.67H429.635ZM429.259 395L429.801 394.238H431.388C431.834 394.238 432.179 394.123 432.423 393.892C432.667 393.66 432.789 393.35 432.789 392.959C432.789 392.695 432.742 392.467 432.647 392.275C432.553 392.08 432.407 391.93 432.208 391.826C432.009 391.722 431.751 391.67 431.432 391.67H430.089L430.099 390.923H431.935L432.135 391.196C432.477 391.226 432.766 391.322 433.004 391.484C433.242 391.647 433.422 391.855 433.546 392.109C433.673 392.363 433.736 392.643 433.736 392.949C433.736 393.617 433.521 394.126 433.092 394.478C432.665 394.826 432.097 395 431.388 395H429.259Z" fill="black"/>
<path d="M437.184 395.098C436.692 395.098 436.264 394.989 435.899 394.771C435.538 394.549 435.257 394.246 435.055 393.862C434.856 393.478 434.757 393.039 434.757 392.544V392.334C434.757 391.761 434.866 391.273 435.084 390.869C435.305 390.462 435.592 390.153 435.943 389.941C436.298 389.727 436.673 389.619 437.066 389.619C437.574 389.619 437.988 389.733 438.307 389.961C438.629 390.186 438.865 390.493 439.015 390.884C439.168 391.271 439.244 391.711 439.244 392.202V392.607H435.299V391.875H438.331V391.807C438.318 391.572 438.271 391.344 438.189 391.123C438.108 390.898 437.978 390.715 437.799 390.571C437.62 390.425 437.376 390.352 437.066 390.352C436.793 390.352 436.55 390.43 436.339 390.586C436.131 390.739 435.966 390.964 435.846 391.26C435.729 391.553 435.67 391.911 435.67 392.334V392.544C435.67 392.879 435.732 393.185 435.855 393.462C435.979 393.735 436.158 393.955 436.393 394.121C436.627 394.284 436.907 394.365 437.232 394.365C437.551 394.365 437.822 394.3 438.043 394.17C438.264 394.04 438.458 393.866 438.624 393.647L439.176 394.077C439.007 394.338 438.762 394.574 438.443 394.785C438.128 394.993 437.708 395.098 437.184 395.098Z" fill="black"/>
<path d="M443.277 389.717H444.21L442.315 395H441.7L441.842 394.189L443.277 389.717ZM442.125 394.214L442.232 395H441.622L439.708 389.717H440.641L442.125 394.214Z" fill="black"/>
<path d="M447.281 395.098C446.79 395.098 446.362 394.989 445.997 394.771C445.636 394.549 445.354 394.246 445.152 393.862C444.954 393.478 444.854 393.039 444.854 392.544V392.334C444.854 391.761 444.964 391.273 445.182 390.869C445.403 390.462 445.689 390.153 446.041 389.941C446.396 389.727 446.77 389.619 447.164 389.619C447.672 389.619 448.085 389.733 448.404 389.961C448.727 390.186 448.963 390.493 449.112 390.884C449.265 391.271 449.342 391.711 449.342 392.202V392.607H445.396V391.875H448.429V391.807C448.416 391.572 448.368 391.344 448.287 391.123C448.206 390.898 448.076 390.715 447.896 390.571C447.717 390.425 447.473 390.352 447.164 390.352C446.891 390.352 446.648 390.43 446.437 390.586C446.228 390.739 446.064 390.964 445.943 391.26C445.826 391.553 445.768 391.911 445.768 392.334V392.544C445.768 392.879 445.829 393.185 445.953 393.462C446.077 393.735 446.256 393.955 446.49 394.121C446.725 394.284 447.005 394.365 447.33 394.365C447.649 394.365 447.919 394.3 448.141 394.17C448.362 394.04 448.556 393.866 448.722 393.647L449.273 394.077C449.104 394.338 448.86 394.574 448.541 394.785C448.225 394.993 447.805 395.098 447.281 395.098Z" fill="black"/>
<path d="M451.31 395H450.396V389.717H451.285L451.31 390.547V395ZM452.955 390.522C452.877 390.506 452.804 390.496 452.735 390.493C452.67 390.487 452.595 390.483 452.511 390.483C452.234 390.483 452 390.54 451.808 390.654C451.619 390.768 451.472 390.926 451.368 391.128C451.264 391.326 451.199 391.554 451.173 391.812L450.914 391.958C450.914 391.532 450.971 391.143 451.085 390.791C451.199 390.436 451.376 390.153 451.617 389.941C451.861 389.727 452.174 389.619 452.555 389.619C452.617 389.619 452.69 389.627 452.774 389.644C452.862 389.657 452.923 389.671 452.955 389.688V390.522Z" fill="black"/>
<path d="M456.744 391.377C456.744 391.061 456.65 390.811 456.461 390.625C456.275 390.436 456 390.342 455.636 390.342C455.411 390.342 455.213 390.381 455.04 390.459C454.871 390.537 454.739 390.64 454.645 390.767C454.55 390.894 454.503 391.032 454.503 391.182H453.59C453.59 390.928 453.676 390.682 453.849 390.444C454.021 390.203 454.264 390.007 454.576 389.854C454.892 389.697 455.263 389.619 455.689 389.619C456.074 389.619 456.414 389.684 456.71 389.814C457.006 389.945 457.237 390.142 457.403 390.405C457.573 390.666 457.657 390.993 457.657 391.387V393.848C457.657 394.023 457.672 394.211 457.701 394.409C457.734 394.608 457.781 394.779 457.843 394.922V395H456.891C456.845 394.896 456.809 394.757 456.783 394.585C456.757 394.409 456.744 394.246 456.744 394.097V391.377ZM456.91 392.432H456.002C455.488 392.432 455.09 392.513 454.811 392.676C454.531 392.839 454.391 393.083 454.391 393.408C454.391 393.662 454.475 393.877 454.645 394.053C454.817 394.229 455.068 394.316 455.396 394.316C455.673 394.316 455.917 394.258 456.129 394.141C456.34 394.023 456.508 393.879 456.632 393.706C456.756 393.534 456.822 393.368 456.832 393.208L457.223 393.643C457.2 393.779 457.138 393.931 457.037 394.097C456.936 394.263 456.801 394.422 456.632 394.575C456.466 394.725 456.267 394.85 456.036 394.951C455.808 395.049 455.551 395.098 455.265 395.098C454.907 395.098 454.592 395.029 454.322 394.893C454.055 394.753 453.847 394.564 453.697 394.326C453.551 394.089 453.478 393.825 453.478 393.535C453.478 392.965 453.692 392.534 454.122 392.241C454.552 391.945 455.13 391.797 455.855 391.797H456.9L456.91 392.432Z" fill="black"/>
<path d="M463.331 389.717V394.888C463.331 395.353 463.235 395.75 463.043 396.079C462.854 396.408 462.59 396.657 462.252 396.826C461.917 396.999 461.529 397.085 461.09 397.085C460.908 397.085 460.693 397.056 460.445 396.997C460.201 396.942 459.96 396.846 459.723 396.709C459.488 396.576 459.291 396.395 459.132 396.167L459.605 395.635C459.827 395.902 460.058 396.087 460.299 396.191C460.543 396.299 460.784 396.353 461.021 396.353C461.448 396.353 461.786 396.23 462.037 395.986C462.291 395.745 462.418 395.394 462.418 394.932V390.879L462.501 389.717H463.331ZM458.863 392.314C458.863 391.777 458.948 391.307 459.117 390.903C459.286 390.496 459.527 390.181 459.84 389.956C460.152 389.731 460.523 389.619 460.953 389.619C461.285 389.619 461.575 389.678 461.822 389.795C462.073 389.909 462.285 390.075 462.457 390.293C462.633 390.511 462.771 390.775 462.872 391.084C462.976 391.393 463.048 391.742 463.087 392.129V392.603C463.038 393.114 462.929 393.556 462.76 393.931C462.594 394.302 462.361 394.59 462.062 394.795C461.762 394.997 461.389 395.098 460.943 395.098C460.52 395.098 460.152 394.982 459.84 394.751C459.531 394.517 459.29 394.198 459.117 393.794C458.948 393.39 458.863 392.931 458.863 392.417V392.314ZM459.776 392.417C459.776 392.769 459.824 393.089 459.918 393.379C460.016 393.669 460.167 393.901 460.372 394.077C460.577 394.25 460.842 394.336 461.168 394.336C461.467 394.336 461.713 394.272 461.905 394.146C462.097 394.019 462.252 393.851 462.369 393.643C462.486 393.434 462.577 393.208 462.643 392.964V391.777C462.604 391.598 462.548 391.426 462.477 391.26C462.405 391.09 462.311 390.941 462.193 390.811C462.076 390.677 461.933 390.571 461.764 390.493C461.598 390.415 461.402 390.376 461.178 390.376C460.849 390.376 460.58 390.464 460.372 390.64C460.167 390.815 460.016 391.051 459.918 391.348C459.824 391.641 459.776 391.963 459.776 392.314V392.417Z" fill="black"/>
<path d="M466.891 395.098C466.399 395.098 465.971 394.989 465.606 394.771C465.245 394.549 464.964 394.246 464.762 393.862C464.563 393.478 464.464 393.039 464.464 392.544V392.334C464.464 391.761 464.573 391.273 464.791 390.869C465.012 390.462 465.299 390.153 465.65 389.941C466.005 389.727 466.38 389.619 466.773 389.619C467.281 389.619 467.695 389.733 468.014 389.961C468.336 390.186 468.572 390.493 468.722 390.884C468.875 391.271 468.951 391.711 468.951 392.202V392.607H465.006V391.875H468.038V391.807C468.025 391.572 467.978 391.344 467.896 391.123C467.815 390.898 467.685 390.715 467.506 390.571C467.327 390.425 467.083 390.352 466.773 390.352C466.5 390.352 466.257 390.43 466.046 390.586C465.838 390.739 465.673 390.964 465.553 391.26C465.436 391.553 465.377 391.911 465.377 392.334V392.544C465.377 392.879 465.439 393.185 465.562 393.462C465.686 393.735 465.865 393.955 466.1 394.121C466.334 394.284 466.614 394.365 466.939 394.365C467.258 394.365 467.529 394.3 467.75 394.17C467.971 394.04 468.165 393.866 468.331 393.647L468.883 394.077C468.714 394.338 468.469 394.574 468.15 394.785C467.835 394.993 467.415 395.098 466.891 395.098Z" fill="black"/>
<path d="M477.862 392.744C477.813 393.19 477.685 393.592 477.477 393.95C477.268 394.305 476.974 394.585 476.593 394.79C476.212 394.995 475.735 395.098 475.162 395.098C474.605 395.098 474.119 394.963 473.702 394.692C473.285 394.419 472.962 394.035 472.73 393.54C472.499 393.045 472.384 392.467 472.384 391.807V391.089C472.384 390.425 472.499 389.847 472.73 389.355C472.965 388.861 473.297 388.477 473.727 388.203C474.156 387.93 474.664 387.793 475.25 387.793C475.787 387.793 476.241 387.894 476.612 388.096C476.983 388.294 477.271 388.573 477.477 388.931C477.685 389.289 477.813 389.702 477.862 390.171H476.915C476.843 389.673 476.684 389.281 476.437 388.994C476.192 388.704 475.797 388.56 475.25 388.56C474.83 388.56 474.479 388.665 474.195 388.877C473.912 389.085 473.697 389.378 473.551 389.756C473.408 390.133 473.336 390.575 473.336 391.079V391.807C473.336 392.272 473.401 392.697 473.531 393.081C473.661 393.462 473.86 393.766 474.127 393.994C474.397 394.222 474.742 394.336 475.162 394.336C475.562 394.336 475.88 394.272 476.114 394.146C476.352 394.019 476.531 393.836 476.651 393.599C476.775 393.361 476.863 393.076 476.915 392.744H477.862Z" fill="black"/>
<path d="M479.913 395H479V387.5H479.913V395ZM479.317 392.139C479.324 391.657 479.417 391.227 479.596 390.85C479.775 390.469 480.024 390.169 480.343 389.951C480.665 389.73 481.039 389.619 481.466 389.619C481.814 389.619 482.114 389.684 482.364 389.814C482.618 389.941 482.813 390.145 482.95 390.425C483.09 390.705 483.16 391.076 483.16 391.538V395H482.247V391.528C482.247 391.252 482.206 391.029 482.125 390.859C482.047 390.69 481.93 390.568 481.773 390.493C481.617 390.415 481.425 390.376 481.197 390.376C480.973 390.376 480.769 390.423 480.587 390.518C480.405 390.612 480.247 390.742 480.113 390.908C479.98 391.074 479.877 391.265 479.806 391.479C479.734 391.691 479.698 391.916 479.698 392.153L479.317 392.139Z" fill="black"/>
<path d="M487.623 391.377C487.623 391.061 487.529 390.811 487.34 390.625C487.154 390.436 486.879 390.342 486.515 390.342C486.29 390.342 486.091 390.381 485.919 390.459C485.75 390.537 485.618 390.64 485.523 390.767C485.429 390.894 485.382 391.032 485.382 391.182H484.469C484.469 390.928 484.555 390.682 484.728 390.444C484.9 390.203 485.143 390.007 485.455 389.854C485.771 389.697 486.142 389.619 486.568 389.619C486.952 389.619 487.293 389.684 487.589 389.814C487.885 389.945 488.116 390.142 488.282 390.405C488.451 390.666 488.536 390.993 488.536 391.387V393.848C488.536 394.023 488.551 394.211 488.58 394.409C488.613 394.608 488.66 394.779 488.722 394.922V395H487.77C487.724 394.896 487.688 394.757 487.662 394.585C487.636 394.409 487.623 394.246 487.623 394.097V391.377ZM487.789 392.432H486.881C486.367 392.432 485.969 392.513 485.689 392.676C485.41 392.839 485.27 393.083 485.27 393.408C485.27 393.662 485.354 393.877 485.523 394.053C485.696 394.229 485.947 394.316 486.275 394.316C486.552 394.316 486.796 394.258 487.008 394.141C487.219 394.023 487.387 393.879 487.511 393.706C487.634 393.534 487.701 393.368 487.711 393.208L488.102 393.643C488.079 393.779 488.017 393.931 487.916 394.097C487.815 394.263 487.68 394.422 487.511 394.575C487.345 394.725 487.146 394.85 486.915 394.951C486.687 395.049 486.43 395.098 486.144 395.098C485.785 395.098 485.471 395.029 485.201 394.893C484.934 394.753 484.726 394.564 484.576 394.326C484.43 394.089 484.356 393.825 484.356 393.535C484.356 392.965 484.571 392.534 485.001 392.241C485.431 391.945 486.008 391.797 486.734 391.797H487.779L487.789 392.432Z" fill="black"/>
<path d="M490.948 395H490.035V389.717H490.948V395ZM489.967 388.311C489.967 388.167 490.011 388.045 490.099 387.944C490.19 387.843 490.323 387.793 490.499 387.793C490.675 387.793 490.808 387.843 490.899 387.944C490.994 388.045 491.041 388.167 491.041 388.311C491.041 388.451 490.994 388.571 490.899 388.672C490.808 388.77 490.675 388.818 490.499 388.818C490.323 388.818 490.19 388.77 490.099 388.672C490.011 388.571 489.967 388.451 489.967 388.311Z" fill="black"/>
<path d="M493.302 395H492.389V389.717H493.253L493.302 390.845V395ZM492.706 392.139C492.713 391.657 492.805 391.227 492.984 390.85C493.163 390.469 493.412 390.169 493.731 389.951C494.054 389.73 494.428 389.619 494.854 389.619C495.203 389.619 495.502 389.684 495.753 389.814C496.007 389.941 496.202 390.145 496.339 390.425C496.479 390.705 496.549 391.076 496.549 391.538V395H495.636V391.528C495.636 391.252 495.595 391.029 495.514 390.859C495.436 390.69 495.318 390.568 495.162 390.493C495.006 390.415 494.814 390.376 494.586 390.376C494.361 390.376 494.158 390.423 493.976 390.518C493.793 390.612 493.635 390.742 493.502 390.908C493.368 391.074 493.266 391.265 493.194 391.479C493.123 391.691 493.087 391.916 493.087 392.153L492.706 392.139Z" fill="black"/>
<path d="M500.992 393.599C500.992 393.468 500.963 393.348 500.904 393.237C500.849 393.123 500.735 393.021 500.562 392.93C500.39 392.835 500.13 392.752 499.781 392.681C499.391 392.599 499.052 392.497 498.766 392.373C498.482 392.246 498.263 392.085 498.106 391.89C497.953 391.694 497.877 391.452 497.877 391.162C497.877 390.882 497.957 390.627 498.116 390.396C498.279 390.161 498.507 389.974 498.8 389.834C499.096 389.691 499.441 389.619 499.835 389.619C500.258 389.619 500.619 389.694 500.919 389.844C501.222 389.99 501.453 390.189 501.612 390.439C501.772 390.687 501.852 390.962 501.852 391.265H500.938C500.938 391.047 500.842 390.84 500.65 390.645C500.462 390.449 500.19 390.352 499.835 390.352C499.588 390.352 499.386 390.391 499.229 390.469C499.076 390.544 498.964 390.641 498.893 390.762C498.824 390.879 498.79 391.003 498.79 391.133C498.79 391.263 498.823 391.377 498.888 391.475C498.953 391.569 499.072 391.654 499.244 391.729C499.42 391.803 499.674 391.878 500.006 391.953C500.439 392.051 500.795 392.168 501.075 392.305C501.355 392.441 501.563 392.609 501.7 392.808C501.837 393.006 501.905 393.249 501.905 393.535C501.905 393.841 501.821 394.113 501.651 394.351C501.482 394.585 501.244 394.769 500.938 394.902C500.632 395.033 500.273 395.098 499.859 395.098C499.394 395.098 499 395.015 498.678 394.849C498.355 394.683 498.111 394.469 497.945 394.209C497.779 393.945 497.696 393.667 497.696 393.374H498.609C498.626 393.621 498.697 393.818 498.824 393.965C498.954 394.108 499.112 394.211 499.298 394.272C499.487 394.334 499.674 394.365 499.859 394.365C500.107 394.365 500.313 394.333 500.479 394.268C500.649 394.199 500.776 394.108 500.86 393.994C500.948 393.877 500.992 393.745 500.992 393.599Z" fill="black"/>
</svg>
