<svg width="552" height="552" viewBox="0 0 552 552" fill="none" xmlns="http://www.w3.org/2000/svg">
<rect width="552" height="552" fill="#333333"/>
<rect width="552" height="552" fill="#111111"/>
<path d="M169.362 57.4557C179.071 55.2836 188.78 54.498 198.672 55.0526C209.839 55.6533 220.004 58.7959 228.118 67.1145C231.81 70.904 234.18 75.3406 235.639 80.4704C238.419 90.1754 237.052 99.1872 232.813 108.153C227.616 119.059 220.87 128.903 213.623 138.469C205.509 149.191 197.167 159.774 189.099 170.542C181.214 181.079 173.237 191.569 165.807 202.384C162.206 207.606 159.654 213.568 160.064 220.315C160.611 229.234 166.445 237.784 177.704 237.229C183.721 236.952 189.145 235.427 194.524 232.654C200.677 229.511 206.193 225.768 209.976 219.853C211.207 217.912 212.392 215.693 212.757 213.475C213.531 208.623 215.309 204.972 219.958 202.615C223.559 200.766 226.705 197.855 229.85 195.22C232.904 192.632 236.049 192.17 239.604 193.695C239.878 193.834 240.151 193.973 240.425 194.065C248.037 196.653 247.809 196.191 254.783 191.708C259.523 188.658 260.891 184.499 261.529 179.554C261.712 178.075 261.985 176.596 262.076 175.163C262.213 172.714 263.398 171.143 265.404 169.803C271.785 165.551 278.076 161.207 284.32 156.77C286.964 154.875 289.425 154.875 291.932 156.955C293.391 158.157 294.895 159.358 296.399 160.56C298.086 161.9 299.681 162.039 301.641 160.791C304.832 158.711 308.205 156.863 311.533 155.06C313.493 153.997 314.815 152.703 314.815 150.3C314.86 147.805 315.316 145.309 315.225 142.813C315.088 139.717 316.227 137.637 319.054 136.528C325.572 133.894 332.044 131.167 338.608 128.672C342.209 127.285 345.765 127.239 348.955 130.058C350.368 131.352 352.055 132.323 353.422 133.663C355.428 135.558 357.434 135.974 360.214 135.373C365.319 134.171 370.561 133.293 375.803 132.693C380.498 132.184 383.598 130.012 385.603 125.668C387.654 121.231 389.341 120.446 393.945 121.601C400.053 123.126 406.161 124.836 412.314 126.315C415.095 126.962 416.918 128.487 417.1 131.352C417.374 136.343 420.109 139.163 424.257 141.473C427.812 143.46 430.912 146.28 434.057 148.914C435.88 150.439 437.658 151.132 440.074 150.531C448.324 148.452 447.868 148.128 453.703 156.123C456.757 160.282 459.993 164.349 463.184 168.462C466.602 172.899 466.921 173.962 463.731 178.26C460.859 182.142 460.221 185.608 462.728 189.998C464.278 192.725 464.87 196.099 465.691 199.241C466.101 200.766 466.785 201.69 468.152 202.568C471.252 204.509 474.124 206.82 477.132 208.946C479.365 210.517 480.459 212.736 480.414 215.416C480.277 224.151 480.049 232.885 479.776 241.62C479.73 243.237 479.365 244.901 478.864 246.426C477.998 248.921 476.403 250.77 473.713 251.463C472.437 251.787 471.252 252.434 470.021 252.85C468.243 253.45 467.605 254.698 467.377 256.501C466.693 261.353 465.919 266.206 465.098 271.012C464.733 273.138 464.779 275.079 466.147 276.881C469.793 281.687 469.839 286.91 468.061 292.501C465.372 301.097 462.956 309.832 460.358 318.474C459.674 320.785 458.261 322.495 455.708 322.587C449.965 322.772 446.911 325.868 445.088 331.229C443.766 335.111 441.624 338.808 439.481 342.32C436.609 347.081 436.655 352.164 437.248 357.34C437.476 359.512 437.521 361.315 436.427 363.256C432.553 370.095 428.906 376.981 425.168 383.867C423.801 386.409 421.75 387.842 418.924 388.211C417.647 388.396 416.326 388.812 415.095 389.228C403.882 393.064 398.548 401.706 396.269 412.797C394.811 419.914 393.945 427.17 392.03 434.148C390.708 438.908 388.384 443.53 385.831 447.828C379.176 459.104 371.108 469.41 360.624 477.266C354.927 481.518 348.591 485.354 341.981 487.988C317.641 497.6 293.756 495.151 270.554 483.597C256.925 476.804 245.211 467.469 235.684 455.592C228.71 446.95 223.332 437.291 219.548 426.708C214.671 412.982 213.212 399.025 215.719 384.699C217.132 376.611 219.822 368.986 223.696 361.684C228.938 351.794 236.413 344.077 244.481 336.682C250.726 330.952 257.974 326.746 265.085 322.31C280.901 312.42 296.764 302.53 312.581 292.594C317.595 289.451 320.968 284.645 323.84 279.7C325.754 276.419 325.389 272.121 324.022 268.47C321.059 260.614 315.27 257.656 306.382 259.505C302.553 260.29 298.679 261.492 295.26 263.386C286.007 268.424 276.799 273.692 267.865 279.33C252.595 288.989 237.325 298.694 220.733 305.904C211.617 309.878 202.364 313.621 192.564 315.747C188.416 316.672 184.45 318.381 180.302 319.121C167.038 321.478 153.773 323.604 140.236 323.326C132.578 323.142 125.011 322.125 117.9 319.167C111.018 316.348 104.909 312.143 99.9866 306.504C91.5084 296.799 85.9018 285.616 82.8934 272.86C78.3808 253.728 81.7083 235.704 89.2749 218.189C93.1037 209.362 97.7076 200.859 103.223 192.956C114.345 177.058 126.698 162.177 140.509 148.59C146.298 142.906 152.497 137.545 156.645 130.382C158.787 126.685 160.884 122.849 160.748 118.366C160.474 111.526 155.916 108.245 150.355 105.888C147.027 104.456 143.472 104.04 140.008 104.779C134.583 105.981 128.931 106.859 123.963 109.169C116.943 112.404 110.288 116.61 103.724 120.815C96.6592 125.391 91.9188 132.277 87.1326 139.116C86.221 140.457 85.0814 141.658 83.8963 142.721C82.1642 144.339 80.0219 145.032 77.834 144.061C75.5549 143.045 74.6431 140.872 74.7799 138.516C75.0534 134.68 75.2812 130.752 76.284 127.054C78.4264 119.429 81.9818 112.497 86.8591 106.166C98.6193 90.9148 113.889 80.378 130.754 71.8746C135.586 69.4252 140.463 66.9758 145.569 65.1272C153.363 62.262 161.386 59.9513 169.362 57.4557Z" fill="#D8D7D0"/>
</svg>
