<svg width="552" height="553" viewBox="0 0 552 553" fill="none" xmlns="http://www.w3.org/2000/svg">
<rect x="0.5" y="1" width="551" height="551" fill="#333333" stroke="black"/>
<path d="M83.5822 258.489C85.989 258.095 88.3957 257.65 91.0481 257.206C92.9145 252.814 94.6827 248.324 96.7457 243.981C100.921 235.099 105.145 226.266 109.663 217.532C111.039 214.867 111.677 212.745 109.713 210.228C109.418 209.833 109.32 209.291 108.976 208.402C110.253 208.008 111.432 207.218 112.512 207.317C114.919 207.564 115.852 206.034 116.884 204.356C122.287 195.572 127.69 186.789 133.142 178.054C134.222 176.327 135.204 174.551 136.482 172.972C137.808 171.294 137.857 169.813 136.678 168.136C136.187 167.445 135.99 166.556 135.401 165.175C136.776 165.027 137.857 164.681 138.839 164.829C141.148 165.175 142.523 164.237 143.898 162.411C149.94 154.22 156.178 146.176 162.317 138.083C162.71 137.59 163.054 136.998 163.496 136.603C166.59 133.889 168.359 130.829 166.197 126.635C166.099 126.487 166.345 126.191 166.59 125.451C167.622 125.451 168.899 125.253 170.029 125.549C172.092 126.043 173.319 125.155 174.646 123.773C180.933 117.308 187.269 110.844 193.703 104.528C195.226 102.998 196.355 101.517 196.208 99.2475C196.159 98.6554 196.405 98.0139 196.503 97.6685C196.847 97.4217 196.945 97.2737 197.043 97.2737C201.12 97.9152 203.821 95.5465 206.719 93.2273C210.747 89.921 215.02 86.9109 219.293 83.9007C221.7 82.2229 224.254 80.7425 224.058 77.1896C225.924 77.2883 227.545 77.683 229.018 77.3376C230.443 77.0415 231.671 75.9066 233.046 75.2157C238.498 72.4523 243.901 69.6889 249.402 67.0242C251.269 66.1359 253.233 65.4944 253.233 62.879C253.233 62.5336 253.872 62.1882 254.412 61.6454C256.917 64.014 259.471 62.9777 262.173 61.9908C266.004 60.6584 269.884 59.3261 273.813 58.4872C276.269 57.9444 278.087 57.1055 279.02 54.7368C279.167 54.3914 279.462 54.1447 279.806 53.6512C281.083 54.6381 282.114 55.477 282.605 55.8718C290.857 55.0823 298.519 54.2927 306.182 53.7005C307.557 53.6018 308.637 53.3551 309.472 52.2695C310.553 50.8878 311.83 50.6904 312.96 52.1214C314.04 53.5525 315.465 53.5032 317.037 53.5525C326.025 53.8979 335.013 54.6875 343.805 56.76C346.752 57.4509 349.307 57.4509 351.32 54.8849C351.566 54.5394 352.155 54.4901 353.089 54.0953C353.482 55.7731 353.825 57.1548 354.218 58.7833C359.228 60.5597 364.386 62.3362 369.494 64.162C379.858 67.8137 389.386 73.1431 398.768 78.7687C400.192 79.6076 401.469 80.6438 402.795 81.6801C404.662 83.1112 406.479 84.3942 409.033 83.3086C409.426 83.1112 410.016 83.3086 410.9 83.3579C409.623 87.4043 412.668 88.9341 415.025 90.9573C424.849 99.3462 433.543 108.771 440.959 119.381C442.138 121.059 443.366 122.243 445.576 122.095C446.264 122.046 446.952 122.49 447.934 122.737C447.296 124.217 446.804 125.451 446.264 126.734C448.916 131.915 451.667 137.096 454.221 142.327C458.101 150.223 461.097 158.464 463.308 167.001C463.701 168.58 464.487 169.419 465.96 169.863C467.188 170.208 468.318 170.8 469.447 171.294C469.644 171.392 469.791 171.689 470.233 172.231C469.496 173.07 468.809 174.156 467.827 174.748C465.96 175.883 465.714 177.363 466.156 179.288C466.599 181.163 466.942 183.038 467.286 184.913C468.956 194.191 469.546 203.566 469.791 212.992C469.889 216.051 468.858 219.505 472.984 221.529C469.693 223.404 469.742 225.97 469.447 228.684C468.563 238.06 467.335 247.436 466.206 256.812C466.058 258.045 465.862 259.328 465.665 260.611C467.483 261.944 469.153 263.177 471.51 264.904C469.644 265.645 468.563 266.237 467.434 266.484C465.027 266.977 463.995 268.309 463.357 270.727C460.508 281.584 457.414 292.341 454.319 303.148C453.533 305.961 452.6 308.774 451.421 311.438C450.586 313.412 450.734 314.843 452.502 316.077C453.239 316.57 453.975 317.064 454.761 317.557C454.614 317.903 454.417 318.248 454.27 318.643C453.042 319.087 451.863 319.63 450.586 320.025C448.916 320.518 447.787 321.308 447.001 323.035C441.549 335.125 435.999 347.165 430.448 359.157C429.761 360.686 429.564 362.019 430.399 363.499C430.939 364.437 431.283 365.473 431.676 366.361C431.185 366.805 430.989 367.101 430.841 367.052C427.305 366.46 425.586 368.236 423.867 371.247C418.709 380.326 413.11 389.11 407.56 397.992C405.398 401.447 402.943 404.654 400.683 407.911C401.273 409.836 401.862 411.612 402.501 413.734C400.88 413.931 399.701 414.326 398.719 414.08C396.705 413.635 395.624 414.622 394.544 416.004C385.211 428.143 375.044 439.493 363.894 450.004C363.6 450.251 363.452 450.596 363.158 451.04C363.944 453.162 364.729 455.333 365.613 457.702C362.863 458.738 360.604 458.294 358.491 457.653C356.478 457.06 355.152 457.603 353.678 458.837C344.886 466.239 335.505 472.753 325.485 478.378C314.139 484.695 302.35 490.024 289.678 493.034C282.163 494.811 274.599 496.637 266.937 497.525C254.952 498.906 242.82 499.055 230.934 496.686C226.415 495.798 221.749 495.748 217.329 494.367C212.859 492.985 208.242 491.899 203.821 490.419C199.352 488.938 194.931 487.31 190.609 485.534C171.797 477.786 154.851 466.93 139.33 453.705C123.907 440.579 110.842 425.331 100.184 408.109C94.9774 399.72 90.7042 390.788 87.0204 381.511C83.2875 371.937 80.6352 362.117 78.867 352.1C76.362 337.789 76.2146 323.282 77.9337 308.823C79.5546 295.203 82.649 281.929 87.0696 269C88.0519 266.089 88.101 263.967 85.3504 262.092C84.4663 261.499 83.9261 260.414 83.2384 259.526C83.3858 259.23 83.484 258.884 83.5822 258.489Z" fill="#D8D7D0"/>
</svg>
