<svg width="552" height="552" viewBox="0 0 552 552" fill="none" xmlns="http://www.w3.org/2000/svg">
<rect width="552" height="552" fill="#D8D7D0"/>
<path d="M155.025 413.682C154.473 413.682 154.025 414.129 154.025 414.682C154.025 415.234 154.473 415.682 155.025 415.682L155.025 413.682ZM399.161 415.389C399.552 414.998 399.552 414.365 399.161 413.975L392.797 407.611C392.407 407.22 391.774 407.22 391.383 407.611C390.993 408.001 390.993 408.634 391.383 409.025L397.04 414.682L391.383 420.338C390.993 420.729 390.993 421.362 391.383 421.753C391.774 422.143 392.407 422.143 392.797 421.753L399.161 415.389ZM155.025 415.682L398.454 415.682L398.454 413.682L155.025 413.682L155.025 415.682Z" fill="#FF7A00"/>
<path d="M321.623 176.228C321.075 176.153 320.571 176.537 320.497 177.084L319.284 186.002C319.209 186.549 319.592 187.053 320.14 187.127C320.687 187.202 321.191 186.819 321.265 186.271L322.344 178.344L330.271 179.423C330.818 179.497 331.322 179.114 331.397 178.567C331.471 178.02 331.088 177.516 330.54 177.441L321.623 176.228ZM452.14 350.673C452.474 351.113 453.102 351.198 453.541 350.864C453.981 350.529 454.066 349.902 453.732 349.462L452.14 350.673ZM320.692 177.824L452.14 350.673L453.732 349.462L322.284 176.613L320.692 177.824Z" fill="#FF7A00"/>
<path d="M246.533 176.613C246.867 176.174 247.495 176.088 247.934 176.423C248.374 176.757 248.459 177.384 248.125 177.824L246.533 176.613ZM116.016 351.059C115.469 351.133 114.965 350.75 114.89 350.203L113.677 341.285C113.602 340.737 113.986 340.234 114.533 340.159C115.08 340.085 115.584 340.468 115.659 341.015L116.737 348.942L124.664 347.864C125.211 347.789 125.715 348.172 125.79 348.72C125.864 349.267 125.481 349.771 124.934 349.845L116.016 351.059ZM248.125 177.824L116.677 350.673L115.085 349.462L246.533 176.613L248.125 177.824Z" fill="#FF7A00"/>
<path d="M384.264 223.769L383.484 224.362L387.518 229.667L388.298 229.074L384.264 223.769ZM390.905 228.27L384.742 232.956L385.361 233.769L391.524 229.083L390.905 228.27ZM388.462 224.271L379.168 231.338L379.795 232.163L389.089 225.095L388.462 224.271ZM394.104 230.164L385.167 236.96C384.955 237.121 384.82 237.083 384.659 236.871C384.487 236.668 383.962 235.977 383.374 235.157C383.23 235.478 382.964 235.891 382.764 236.113C383.533 237.147 384.029 237.754 384.454 238.012C384.859 238.267 385.225 238.217 385.805 237.776L394.731 230.988L394.104 230.164ZM391.029 225.819C389.764 225.127 387.911 223.476 386.423 222.005C386.321 222.241 386.124 222.584 385.949 222.77C387.46 224.294 389.361 226.031 390.857 226.934L391.029 225.819ZM385.662 226.347C383.796 226.992 381.202 227.259 379.52 226.99C379.418 227.296 379.245 227.762 379.076 228.049C380.923 228.28 383.748 227.855 385.874 227.135L385.662 226.347ZM385.082 227.967L384.289 227.849C384.244 228.692 383.997 230.796 383.832 231.643L384.907 231.6C384.948 231.006 385.103 228.619 385.082 227.967Z" fill="black"/>
<path d="M396.451 236.997L395.838 237.463L397.618 239.803L398.231 239.337L396.451 236.997ZM399.324 240.775L398.711 241.241L400.558 243.67L401.171 243.204L399.324 240.775ZM402.432 241.647L393.628 248.342C393.461 248.469 393.363 248.456 393.244 248.3C393.115 248.152 392.714 247.648 392.312 247.074C392.185 247.346 391.905 247.718 391.73 247.904C392.323 248.684 392.707 249.166 393.072 249.345C393.424 249.553 393.745 249.467 394.202 249.119L403.017 242.416L402.432 241.647ZM397.721 235.451L387.936 242.892L388.521 243.661L398.305 236.22L397.721 235.451ZM398.009 235.83L397.351 236.33L398.834 238.28L396.405 240.128L394.922 238.178L394.264 238.678L396.281 241.33L400.025 238.483L398.009 235.83ZM392.939 241.884L392.303 242.367L394.871 245.744L395.506 245.261L392.939 241.884ZM394.333 240.525L393.675 241.025L396.573 244.836L397.231 244.336L394.333 240.525ZM390.926 242.799L390.268 243.299L393.489 247.534L394.146 247.034L390.926 242.799ZM402.703 242.004L400.627 239.274L396.883 242.121L398.959 244.851L399.616 244.351L398.091 242.345L400.52 240.498L402.046 242.504L402.703 242.004ZM395.625 233.228C395.788 234.089 395.86 235.248 395.752 235.893L396.822 235.889C396.882 235.227 396.785 234.105 396.591 233.25L395.625 233.228ZM392.28 235.051C392.49 235.928 392.624 237.076 392.575 237.728L393.619 237.691C393.668 237.038 393.493 235.905 393.249 235.053L392.28 235.051ZM386.482 239.776L386.604 240.862C388.013 240.564 389.807 240.079 391.288 239.621L391.226 238.614C389.63 239.106 387.679 239.57 386.482 239.776ZM395.067 242.324L391.913 244.722L392.455 245.435L395.609 243.037L395.067 242.324Z" fill="black"/>
<path d="M408.146 251.105L397.935 254.191L397.079 253.065L407.29 249.979L408.146 251.105Z" fill="black"/>
<path d="M405.126 259.022L404.413 259.564L412.014 269.56L412.727 269.018L405.126 259.022ZM409.101 264.758L408.349 264.046C407.131 266.168 407.593 268.279 409.421 271.145C409.731 271.068 410.229 271.006 410.551 271.059C408.759 268.448 408.118 266.472 409.101 264.758ZM410.474 264.945C410.85 265.855 411.25 267.098 411.384 267.806L412.254 267.724C412.081 267.012 411.65 265.774 411.25 264.9L410.474 264.945ZM411.525 259.942L410.89 260.425L415.805 266.889L416.44 266.406L411.525 259.942ZM415.4 263.327L412.882 265.242C412.759 265.335 412.692 265.316 412.582 265.171C412.46 265.035 412.096 264.556 411.683 263.99C411.59 264.237 411.41 264.532 411.232 264.738C411.791 265.473 412.147 265.942 412.504 266.18C412.833 266.405 413.082 266.339 413.472 266.042L416.002 264.118L415.4 263.327ZM408.764 256.15L408.073 256.675L410.31 259.617L411.001 259.092L408.764 256.15ZM414.106 256.028L407.876 260.765L408.469 261.545L414.699 256.808L414.106 256.028ZM412.305 254.354L410.01 256.1L411.815 258.473L412.483 257.965L411.221 256.304L412.848 255.067L412.305 254.354ZM411.132 261.577C411.148 262.269 411.039 263.143 410.863 263.629L411.714 263.914C411.861 263.415 411.94 262.546 411.913 261.863L411.132 261.577ZM413.986 259.108C414.07 259.889 414.065 260.878 413.94 261.43L414.575 261.756C414.703 261.184 414.699 260.184 414.601 259.432L413.986 259.108ZM415.262 259.862C415.433 260.734 415.491 261.851 415.395 262.487L416.029 262.743C416.128 262.087 416.031 260.965 415.858 260.112L415.262 259.862ZM418.409 262.798L418.298 262.882C416.342 263.086 414.063 261.477 412.245 259.571C412.193 259.803 412.055 260.154 411.939 260.348C413.966 262.343 416.368 263.998 418.757 263.694L418.652 263.07L418.52 262.942L418.409 262.798ZM417.351 260.296C416.328 260.106 414.946 259.399 413.459 258.207C413.458 258.437 413.388 258.807 413.308 259.026C414.954 260.219 416.417 260.918 417.755 261.15L417.351 260.296ZM416.486 260.268L415.462 260.009L418.055 263.419L418.579 263.02L416.486 260.268ZM409.009 257.142L408.474 257.549C408.006 257.905 407.077 258.418 405.991 258.1C406.043 258.377 406.124 258.808 406.101 259.054C407.31 259.349 408.448 258.764 409.039 258.315L409.585 257.9L409.009 257.142ZM409.673 262.687L408.87 263.298C407.968 263.984 406.321 264.409 402.468 260.638C402.398 260.938 402.258 261.379 402.133 261.631C406.271 265.661 408.258 265.083 409.483 264.15L410.308 263.523L409.673 262.687Z" fill="black"/>
<path d="M419.765 267.518L419.208 267.942L422.742 272.589L423.299 272.165L419.765 267.518ZM420.877 265.811L420.208 266.319L424.284 271.68L424.953 271.171L420.877 265.811ZM420.606 265.454L416.739 268.395C415.167 269.59 412.949 271.206 410.945 271.762C411.005 271.98 411.053 272.437 411.024 272.652C413.131 272.07 415.615 270.34 417.264 269.086L421.131 266.145L420.606 265.454ZM421.216 268.015L419.355 269.43L419.83 270.054L421.691 268.639L421.216 268.015ZM422.623 269.865L420.762 271.28L421.245 271.915L423.106 270.5L422.623 269.865ZM414.973 271.092L411.429 273.786L411.921 274.433L414.863 272.196L417.634 275.84L418.235 275.382L414.973 271.092ZM416.294 274.818C415.973 275.414 415.451 276.092 415.053 276.448L415.532 276.823C415.902 276.453 416.415 275.764 416.727 275.157L416.294 274.818ZM413.853 273.297L413.348 273.858C414.016 274.528 414.771 275.29 415.583 276.08L416.109 275.662C415.241 274.775 414.437 273.926 413.853 273.297ZM417.392 270.642L419.646 273.606L419 274.097L416.746 271.133L417.392 270.642ZM418.517 269.786L420.772 272.75L420.147 273.225L417.893 270.26L418.517 269.786ZM418.584 268.786L415.764 270.93L418.95 275.12L421.77 272.976L418.584 268.786ZM418.04 275.126L415.344 277.177C415.243 277.253 415.196 277.236 415.119 277.136C415.052 277.047 414.814 276.735 414.554 276.37C414.455 276.586 414.3 276.845 414.161 276.986C414.551 277.498 414.805 277.833 415.063 277.988C415.344 278.126 415.532 278.071 415.832 277.843L418.54 275.783L418.04 275.126ZM419.672 270.702L416.217 273.329L416.708 273.975L420.163 271.348L419.672 270.702ZM416.32 273.233L414.57 274.564L415.019 275.154L416.769 273.824L416.32 273.233ZM422.633 272.724L421.876 273.3L424.596 276.877L425.354 276.301L422.633 272.724ZM425.057 275.911L424.879 276.046C420.197 279.466 418.522 280.546 417.981 280.553C417.771 280.554 417.67 280.49 417.534 280.312C417.382 280.112 417.034 279.655 416.698 279.119C416.579 279.403 416.318 279.707 416.123 279.89C416.463 280.406 416.824 280.905 417.078 281.169C417.368 281.458 417.599 281.6 418.022 281.577C418.741 281.575 420.38 280.47 425.235 276.954C425.346 276.869 425.625 276.658 425.625 276.658L425.057 275.911ZM426.092 271.976C422.25 274.88 418.419 277.775 415.21 277.788C415.252 278.073 415.227 278.549 415.161 278.81C418.647 278.745 422.606 275.787 426.668 272.733L426.092 271.976Z" fill="black"/>
<path d="M147.262 256.246C147.588 256.881 147.959 257.919 148.15 258.663L148.854 258.107C148.693 257.37 148.409 256.38 148.09 255.504L147.262 256.246ZM149.82 254.269C151.072 253.779 152.761 253.34 153.727 253.248L153.848 252.302C152.845 252.419 151.173 252.906 149.941 253.394L149.82 254.269ZM149.88 259.556C150.538 259.547 151.361 259.644 151.822 259.801L152.071 258.988C151.593 258.854 150.784 258.784 150.146 258.791L149.88 259.556ZM146.668 260.103L147.404 260.593C148.721 258.745 150.68 255.961 152.498 253.315L151.877 252.79C149.986 255.486 147.973 258.317 146.668 260.103ZM148.316 259.809C148.71 260.425 149.213 261.405 149.468 262.11L150.09 261.686C149.876 260.995 149.457 260.043 149.093 259.204L148.316 259.809ZM148.705 262.743L149.414 263.176C150.039 262.192 150.837 260.935 151.641 259.646L151.042 259.208C150.184 260.544 149.333 261.849 148.705 262.743ZM154.081 253.939C154.967 253.839 156.067 253.849 156.716 253.99L156.898 253.126C156.23 252.987 155.143 253.005 154.271 253.134L154.081 253.939ZM152.342 254.446C152.75 255.02 153.253 255.93 153.551 256.579L154.173 256.155C153.945 255.506 153.503 254.607 153.127 253.829L152.342 254.446ZM153.195 256.677L153.96 257.013C154.568 256.051 155.341 254.827 156.088 253.636L155.542 253.221C154.671 254.528 153.814 255.794 153.195 256.677ZM153.714 258.215C153.719 259.503 153.175 261.446 152.591 262.884C152.863 262.827 153.23 262.807 153.479 262.803C154.044 261.297 154.522 259.304 154.501 257.828L153.714 258.215ZM155.719 257.822C155.775 259.483 154.986 261.909 154.035 263.876C154.329 263.836 154.732 263.861 154.987 263.897C155.911 261.803 156.63 259.307 156.533 257.422L155.719 257.822ZM157.844 257.363C158.185 259.575 157.025 262.65 155.281 265.615C155.589 265.603 156.017 265.665 156.277 265.739C158.019 262.615 159.133 259.416 158.712 256.916L157.844 257.363ZM152.075 257.549C154.237 257.435 156.893 256.324 158.801 254.995C158.687 254.751 158.528 254.383 158.476 254.08C156.65 255.488 154.047 256.621 151.671 256.715L151.104 257.461C151.688 259.33 151.549 262.127 150.695 264.591C150.973 264.573 151.367 264.609 151.605 264.667C152.36 262.216 152.561 259.431 152.075 257.549Z" fill="black"/>
<path d="M158.952 242.376L159.698 242.944L161.266 240.883L160.519 240.315L158.952 242.376ZM157.54 245.366L158.253 245.908L160.041 243.557L159.328 243.015L157.54 245.366ZM161.098 243.833L161.8 244.367L163.266 242.439L162.564 241.905L161.098 243.833ZM163.165 245.44L163.867 245.973L165.308 244.079L164.606 243.545L163.165 245.44ZM156.903 249.349L157.605 249.883L159.046 247.988L158.344 247.454L156.903 249.349ZM159.01 250.881L159.723 251.423L161.138 249.562L160.425 249.02L159.01 250.881ZM154.581 248.286L161.225 252.987L161.801 252.229L155.608 247.837C155.688 247.686 155.686 247.596 155.636 247.523L154.581 248.286ZM160.172 240.772C162.231 242.32 165.005 244.57 166.55 245.938L167.151 245.147C165.631 243.815 162.852 241.596 160.765 239.992L160.172 240.772ZM155.471 245.727C155.433 246.402 155.267 247.454 155.076 248.329C155.311 248.367 155.68 248.436 155.859 248.502C156.134 247.585 156.413 246.478 156.573 245.527L155.471 245.727ZM160.303 248.047L163.2 250.25L163.726 249.559L160.828 247.356L160.303 248.047ZM156.121 244.85L159.821 247.663L161.473 245.49L160.794 244.973L159.692 246.422L156.672 244.125L156.121 244.85ZM160.48 245.385L164.536 248.47L165.087 247.746L161.031 244.661L160.48 245.385ZM159.978 253.886L160.759 254.479L168.495 244.305L167.715 243.711L159.978 253.886ZM166.124 248.903C167.621 248.16 169.345 247.466 170.459 247.134L170.484 245.922C169.308 246.312 167.536 247.093 166.016 247.889L166.124 248.903ZM163.369 251.416C163.456 252.573 163.208 254.495 162.832 255.915C163.141 255.833 163.629 255.747 163.906 255.729C164.243 254.315 164.485 252.423 164.464 251.018L163.369 251.416Z" fill="black"/>
<path d="M168.676 238.585L168.37 239.566C172.226 240.3 175.806 238.924 179.204 235.634C179.064 235.333 178.865 234.831 178.82 234.497C175.55 237.78 172.074 239.252 168.676 238.585ZM166.472 239.864L167.286 240.483L172.811 233.217L171.998 232.598L166.472 239.864ZM163.531 238.436L164.366 239.072L171.519 229.666L170.683 229.031L163.531 238.436ZM165.082 232.88L169.707 236.397L170.36 235.539L165.735 232.022L165.082 232.88ZM171.794 232.866L171.961 232.993C174.133 236.474 173.159 240.693 170.973 244.747C171.281 244.735 171.841 244.808 172.112 244.891C174.257 240.683 175.191 236.17 172.81 232.178L172.032 232.484L171.938 232.676L171.794 232.866Z" fill="black"/>
<path d="M174.604 223.342L175.373 223.927L179.602 218.366L178.833 217.781L174.604 223.342ZM178.455 226.974L179.235 227.567L184.15 221.104L183.37 220.51L178.455 226.974ZM176.348 225.582L177.117 226.167L182.193 219.492L181.424 218.907L176.348 225.582ZM175.016 219.909L178.995 222.934L179.596 222.143L175.618 219.118L175.016 219.909ZM180.314 221.616L185.317 225.421C185.473 225.539 185.484 225.618 185.36 225.804C185.244 225.98 184.803 226.56 184.306 227.167C184.617 227.244 185.036 227.387 185.295 227.532C185.931 226.696 186.346 226.15 186.458 225.725C186.589 225.297 186.44 225.008 185.939 224.627L180.924 220.813L180.314 221.616ZM180.542 227.259C181.517 227.227 182.76 227.327 183.458 227.542L183.557 226.509C182.845 226.337 181.618 226.284 180.655 226.325L180.542 227.259ZM175.813 231.05L176.796 231.446C177.204 230.261 177.752 228.708 178.252 227.241L177.398 226.768C176.836 228.363 176.237 229.983 175.813 231.05ZM172.254 228.098L173.034 228.691L175.619 225.292L174.839 224.699L172.254 228.098ZM171.107 224.957L180.346 231.982C180.502 232.1 180.504 232.19 180.402 232.324C180.312 232.466 179.99 232.889 179.595 233.363C179.913 233.429 180.335 233.592 180.561 233.711C181.106 233.017 181.403 232.557 181.476 232.208C181.554 231.827 181.404 231.538 180.947 231.19L171.709 224.165L171.107 224.957Z" fill="black"/>
<path d="M248.109 390.038V390.976H255.655V390.038H248.109ZM248.487 397.22V398.158H255.305V397.22H248.487ZM247.591 400.79V401.728H255.837V400.79H247.591ZM251.329 397.584V401.364H252.379V397.584H251.329ZM249.453 391.41C249.131 392.082 248.529 393.132 247.969 393.986C248.697 394.966 249.341 396.044 249.635 396.772L250.503 396.408C250.209 395.778 249.593 394.784 248.991 393.972C249.439 393.258 249.999 392.362 250.363 391.648L249.453 391.41ZM251.875 391.41C251.553 392.082 250.923 393.132 250.321 393.986C251.105 394.952 251.791 396.044 252.127 396.772L252.967 396.394C252.659 395.764 252.001 394.784 251.357 393.972C251.833 393.258 252.407 392.362 252.799 391.648L251.875 391.41ZM254.297 391.41C253.961 392.082 253.303 393.132 252.701 393.986C253.513 394.952 254.255 396.044 254.605 396.772L255.459 396.366C255.109 395.736 254.409 394.756 253.737 393.972C254.227 393.258 254.801 392.376 255.207 391.662L254.297 391.41ZM245.127 389.254C244.763 390.178 244.105 391.55 243.601 392.362L244.315 392.67C244.861 391.9 245.519 390.64 246.051 389.604L245.127 389.254ZM246.695 390.85C245.925 392.32 244.609 394.406 243.559 395.652L244.203 396.016C245.253 394.798 246.611 392.81 247.577 391.256L246.695 390.85ZM242.887 392.166C243.629 392.88 244.469 393.874 244.819 394.546L245.421 393.762C245.057 393.118 244.203 392.18 243.447 391.494L242.887 392.166ZM246.149 394.056C246.709 394.98 247.255 396.226 247.437 397.01L248.263 396.632C248.067 395.862 247.493 394.658 246.905 393.734L246.149 394.056ZM242.775 395.442L242.887 396.38C244.161 396.296 245.841 396.198 247.507 396.086V395.204C245.743 395.302 243.993 395.386 242.775 395.442ZM246.513 397.444C246.849 398.256 247.143 399.32 247.227 400.006L248.039 399.754C247.941 399.068 247.647 398.018 247.283 397.206L246.513 397.444ZM243.615 397.248C243.461 398.466 243.195 399.726 242.747 400.58C242.957 400.678 243.377 400.86 243.545 400.972C243.993 400.076 244.315 398.732 244.497 397.402L243.615 397.248ZM245.099 395.848V402.12H246.023V395.848H245.099Z" fill="black"/>
<path d="M262.879 397.584C262.795 398.032 262.613 398.676 262.459 399.152L263.369 399.334C263.551 398.928 263.789 398.354 264.027 397.766L262.879 397.584ZM260.597 396.212H266.169V397.318H260.597V396.212ZM259.617 395.484V398.032H267.205V395.484H259.617ZM258.693 398.886V402.134H259.687V399.67H267.331V402.12H268.367V398.886H258.693ZM259.309 400.944V401.742H267.765V400.944H259.309ZM257.545 393.776V396.324H258.553V394.63H268.199V396.324H269.263V393.776H257.545ZM262.333 389.926C262.095 390.332 261.661 390.962 261.311 391.368L261.941 391.662C262.319 391.312 262.781 390.78 263.201 390.248L262.333 389.926ZM259.743 391.984C260.541 392.474 261.577 393.16 262.109 393.58L262.753 392.908C262.207 392.502 261.157 391.844 260.373 391.41L259.743 391.984ZM260.051 389.24C259.925 391.438 259.463 392.446 256.999 393.006C257.195 393.188 257.447 393.538 257.531 393.776C260.233 393.062 260.835 391.788 260.989 389.24H260.051ZM258.469 389.87C258.259 390.472 257.867 391.116 257.307 391.452L257.979 391.886C258.595 391.48 258.945 390.794 259.169 390.122L258.469 389.87ZM268.493 389.884C268.241 390.318 267.751 390.976 267.359 391.396L268.031 391.704C268.423 391.326 268.941 390.78 269.403 390.234L268.493 389.884ZM265.693 391.984C266.729 392.544 268.101 393.356 268.787 393.874L269.417 393.132C268.703 392.628 267.317 391.858 266.295 391.354L265.693 391.984ZM265.973 389.24C265.847 391.34 265.371 392.334 262.977 392.894C263.187 393.076 263.439 393.454 263.523 393.678C266.183 392.992 266.785 391.704 266.939 389.24H265.973ZM264.335 389.884C264.125 390.458 263.705 391.088 263.159 391.438L263.845 391.886C264.433 391.452 264.797 390.794 265.049 390.15L264.335 389.884Z" fill="black"/>
<path d="M274.163 400.846V401.658H281.569V400.846H274.163ZM276.837 392.082V393.636H277.859V392.082H276.837ZM271.517 393.174V395.806H272.525V394.014H282.311V395.806H283.347V393.174H271.517ZM274.107 394.882V395.68H280.253V396.884H274.107V397.696H281.289V394.882H274.107ZM274.149 398.662V399.488H281.149V402.106H282.185V398.662H274.149ZM273.547 394.882V402.134H274.555V394.882H273.547ZM272.665 390.318V391.186H277.187V390.318H272.665ZM278.125 390.318V391.186H283.781V390.318H278.125ZM272.931 389.184C272.497 390.276 271.741 391.382 270.901 392.11C271.153 392.236 271.573 392.53 271.769 392.684C272.581 391.886 273.407 390.668 273.925 389.436L272.931 389.184ZM278.447 389.184C277.999 390.262 277.187 391.298 276.263 391.97C276.529 392.096 276.963 392.348 277.173 392.502C278.055 391.774 278.937 390.64 279.441 389.422L278.447 389.184ZM273.449 390.976C273.771 391.494 274.107 392.194 274.233 392.628L275.185 392.348C275.045 391.914 274.681 391.228 274.359 390.738L273.449 390.976ZM279.385 390.99C279.833 391.494 280.309 392.208 280.505 392.656L281.457 392.348C281.247 391.886 280.743 391.2 280.309 390.71L279.385 390.99Z" fill="black"/>
<path d="M291.033 393.454H296.241V395.26H291.033V393.454ZM291.033 390.808H296.241V392.586H291.033V390.808ZM290.081 389.898V396.17H297.249V389.898H290.081ZM289.899 397.808V398.774H297.445V397.808H289.899ZM288.821 400.706V401.658H297.907V400.706H288.821ZM285.013 390.192V391.186H289.381V390.192H285.013ZM285.167 394.238V395.232H289.185V394.238H285.167ZM284.873 399.6L285.125 400.678C286.371 400.258 287.967 399.726 289.493 399.208L289.311 398.2C287.687 398.746 286.007 399.292 284.873 399.6ZM286.763 390.584V399.46L287.771 399.264V390.584H286.763ZM293.175 390.332V395.722H293.105V401.14H294.169V395.722H294.099V390.332H293.175Z" fill="black"/>
<path d="M437.557 379.787V384.137H440.007V379.787H437.557ZM438.557 380.762V382.537H444.057V380.762H438.557ZM436.857 383.287L435.432 385.062H442.257V383.287H436.857ZM441.682 383.287V383.637C440.207 386.312 436.257 388.137 432.407 388.887C432.832 389.362 433.407 390.212 433.682 390.762C437.982 389.712 442.182 387.662 444.132 384.037L442.557 383.212L442.132 383.287H441.682ZM434.457 386.287C435.532 386.762 436.907 387.562 437.557 388.112L439.057 386.812C438.357 386.237 436.957 385.512 435.882 385.087L434.457 386.287ZM436.032 382.787C435.157 383.912 433.607 384.937 432.032 385.637C432.532 385.987 433.357 386.712 433.732 387.112C435.332 386.262 437.057 384.862 438.132 383.412L436.032 382.787ZM444.832 380.662V382.687H452.557V380.662H444.832ZM451.907 380.662V381.012C450.857 383.787 447.982 385.912 444.757 386.812C445.257 387.312 445.907 388.287 446.207 388.887C449.882 387.612 453.082 385.162 454.507 381.262L452.832 380.562L452.407 380.662H451.907ZM444.607 384.612C447.657 386.012 451.457 388.262 453.282 389.887L455.107 388.012C453.132 386.387 449.257 384.262 446.282 382.987L444.607 384.612ZM444.032 389.287C446.532 391.337 451.032 393.212 454.532 394.012C454.857 393.362 455.407 392.437 455.932 391.837C452.107 391.187 447.982 389.687 445.107 387.412H442.732C440.582 389.387 436.507 391.187 432.407 392.087C432.832 392.637 433.382 393.562 433.632 394.162C437.632 393.112 441.782 391.212 444.032 389.287ZM438.682 392.787V394.337H448.482V397.187H438.682V398.762H451.307V392.787H438.682ZM437.182 392.812V401.712L440.007 401.512V392.812H437.182ZM451.857 397.162C450.832 398.137 449.082 399.487 447.732 400.262L449.282 401.362C450.657 400.662 452.407 399.537 453.932 398.462L451.857 397.162ZM444.757 397.862L442.607 398.462C444.782 401.437 448.682 402.862 453.982 403.312C454.282 402.662 454.882 401.687 455.382 401.187C450.457 400.962 446.507 399.987 444.757 397.862ZM438.682 395.062V396.412H449.332V395.062H438.682ZM440.757 390.612V392.187H447.282V390.612H440.757ZM434.257 400.712L434.532 402.962C437.407 402.712 441.432 402.337 445.207 401.987V399.837C441.207 400.187 437.032 400.512 434.257 400.712Z" fill="black"/>
<path d="M470.657 384.162V386.862H478.657V384.162H470.657ZM470.832 379.762C470.307 383.612 469.132 387.262 467.182 389.462C467.882 389.812 469.182 390.687 469.682 391.137C471.682 388.612 473.032 384.587 473.757 380.187L470.832 379.762ZM474.332 385.237H472.807V389.387C472.807 391.962 471.782 397.687 466.932 400.787C467.457 401.362 468.307 402.612 468.657 403.287C472.207 400.987 473.932 396.737 474.307 394.587C474.607 396.787 476.057 401.087 479.182 403.312C479.632 402.562 480.507 401.312 481.032 400.637C476.757 397.587 475.782 391.862 475.782 389.387V385.237H474.332ZM477.932 384.162V384.637C477.707 386.612 477.207 389.162 476.657 390.687L479.032 391.462C479.782 389.687 480.482 386.987 480.857 384.512L478.857 384.037L478.382 384.162H477.932ZM462.332 384.562V387.437H464.982V384.562H462.332ZM459.157 386.512V400.437H461.832V386.512H459.157ZM460.807 389.762V391.762H466.582V389.762H460.807ZM457.382 399.612L458.332 402.387C460.732 401.637 463.707 400.662 466.532 399.737L466.182 397.337C462.957 398.237 459.582 399.137 457.382 399.612ZM463.782 396.012C464.607 397.687 465.457 399.962 465.757 401.337L468.357 400.287C467.982 398.937 467.032 396.787 466.207 395.162L463.782 396.012ZM460.807 386.512V388.587H465.207V393.012H460.807V395.062H467.832V386.512H460.807ZM461.807 379.787C460.932 381.712 459.332 383.987 456.957 385.687C457.507 386.112 458.307 387.137 458.657 387.762C461.482 385.587 463.182 383.062 464.282 381.137V380.337H463.407V379.787H461.807ZM462.582 379.787V381.762H463.057C464.357 382.937 466.082 385.012 466.907 386.212L468.957 384.262C467.957 382.987 466.082 381.112 464.607 379.787H462.582Z" fill="black"/>
<path d="M439.732 417.637H448.532V421.012H439.732V417.637ZM436.832 414.787V423.862H451.607V414.787H436.832ZM433.407 425.962V437.262H436.232V428.812H439.957V437.112H442.957V425.962H433.407ZM445.082 425.962V437.262H447.957V428.812H451.957V437.137H454.982V425.962H445.082ZM434.657 433.137V436.012H441.207V433.137H434.657ZM446.457 433.137V436.012H453.457V433.137H446.457Z" fill="black"/>
<path d="M466.782 429.812V432.337H480.707V429.812H466.782ZM474.607 426.662V437.287H477.432V426.662H474.607ZM472.357 413.737C472.132 414.737 471.632 416.087 471.182 417.087L473.582 417.712C474.157 416.862 474.957 415.587 475.682 414.312L472.357 413.737ZM472.557 417.462V421.612C472.557 423.862 471.932 426.762 467.457 428.537C468.007 428.912 468.932 429.712 469.357 430.187C474.282 428.162 475.082 424.612 475.082 421.687V417.462H472.557ZM460.057 420.362V422.912H467.182V420.362H460.057ZM462.982 413.812V421.887H465.582V413.812H462.982ZM460.207 425.787V428.312H463.457V437.287H466.107V425.787H460.207ZM458.807 414.437V423.787C458.807 427.287 458.607 432.812 457.207 436.437C457.932 436.637 459.132 437.037 459.707 437.337C461.107 433.437 461.382 427.712 461.382 423.787V414.437H458.807ZM470.282 422.162H477.332V423.887H470.282V422.162ZM470.282 418.362H477.332V420.062H470.282V418.362ZM467.632 416.112V426.112H480.082V416.112H467.632Z" fill="black"/>
<path d="M263.233 99.6008V102.551H277.483V99.6008H263.233ZM264.258 87.5258V90.4008H276.883V87.5258H264.258ZM269.033 80.0258V101.026H272.108V80.0258H269.033ZM254.258 84.4008V87.1258H262.458V84.4008H254.258ZM257.833 92.9508V103.276H260.808V89.4008L257.833 92.9508ZM257.833 79.8008V85.6758H260.808V79.8008H257.833ZM260.508 90.2508L258.858 91.7008C259.983 92.8008 262.083 95.1008 263.058 96.4008L264.883 93.9758C264.208 93.3508 261.383 90.8508 260.508 90.2508ZM261.358 84.4008V84.9508C260.033 88.6258 256.733 92.3008 253.333 94.1508C253.783 94.7258 254.483 96.2008 254.758 97.0008C258.483 94.6508 262.258 90.2758 264.158 85.4008L262.483 84.3008L261.958 84.4008H261.358Z" fill="black"/>
<path d="M289.833 86.4008H293.933V88.4758H289.833V86.4008ZM287.033 84.4508V90.4508H296.908V84.4508H287.033ZM286.883 93.5508H288.833V96.3008H286.883V93.5508ZM284.458 91.5258V98.3008H291.383V91.5258H284.458ZM294.983 93.5508H297.008V96.3008H294.983V93.5508ZM292.508 91.5258V98.3008H299.608V91.5258H292.508ZM280.033 80.6508V103.251H282.958V83.2758H301.408V80.6508H280.033ZM281.933 99.5508V102.251H302.083V99.5508H281.933Z" fill="black"/>
<path d="M259.283 122.876H271.633V126.026H259.283V122.876ZM256.783 121.026V127.876H274.283V121.026H256.783ZM261.083 118.176V120.126H269.908V118.176H261.083ZM264.158 121.626V126.901H266.583V121.626H264.158ZM265.358 116.101C267.783 118.351 272.208 120.676 275.683 121.851C276.133 121.076 276.783 120.051 277.433 119.376C273.558 118.401 269.508 116.426 266.658 113.776H263.808C261.758 116.001 257.658 118.351 253.558 119.576C254.083 120.201 254.783 121.276 255.108 121.951C259.058 120.576 263.133 118.251 265.358 116.101ZM260.158 123.426C260.583 124.301 260.933 125.451 261.033 126.201L263.233 125.551C263.083 124.801 262.683 123.701 262.233 122.851L260.158 123.426ZM268.433 122.751C268.233 123.576 267.758 124.801 267.408 125.626L269.458 126.176C269.858 125.476 270.358 124.426 270.908 123.351L268.433 122.751ZM258.158 128.676V137.251H261.108V130.626H269.883V137.176H272.958V128.676H258.158ZM259.858 131.626V133.601H271.158V131.626H259.858ZM259.858 134.626V136.576H271.158V134.626H259.858Z" fill="black"/>
<path d="M285.458 116.901H295.608V118.501H285.458V116.901ZM282.458 114.576V120.851H298.808V114.576H282.458ZM284.308 126.801H296.583V127.851H284.308V126.801ZM284.308 129.776H296.583V130.851H284.308V129.776ZM284.308 123.826H296.583V124.876H284.308V123.826ZM281.308 121.776V132.876H299.708V121.776H281.308ZM286.158 132.376C284.583 133.351 281.383 134.526 278.758 135.101C279.483 135.676 280.483 136.626 281.033 137.251C283.583 136.651 286.833 135.426 288.833 134.251L286.158 132.376ZM291.658 134.401C294.333 135.151 297.783 136.401 299.733 137.301L302.358 135.176C300.283 134.376 296.933 133.201 294.283 132.501L291.658 134.401Z" fill="black"/>
<path d="M72.4682 382.487V385.262H81.0682V382.487H72.4682ZM75.2682 384.087V395.912H78.2932V384.087H75.2682ZM71.7932 395.912L73.0182 398.787C75.5432 397.887 78.8182 396.712 81.8432 395.562L81.3432 392.962C77.8932 394.087 74.1432 395.262 71.7932 395.912ZM81.3932 380.787V383.312H95.6182V380.787H81.3932ZM85.1932 390.862H91.7432V392.462H85.1932V390.862ZM85.1932 394.512H91.7432V396.112H85.1932V394.512ZM85.1932 387.237H91.7432V388.837H85.1932V387.237ZM82.3932 385.037V398.312H94.6932V385.037H82.3932ZM86.8182 382.187C86.6932 383.437 86.3932 385.137 86.0932 386.337L88.7682 386.837C89.1932 385.762 89.7932 384.162 90.3182 382.587L86.8182 382.187ZM85.0682 398.237C83.7932 399.262 81.2432 400.537 79.1432 401.187C79.7432 401.762 80.5682 402.662 80.9932 403.262C83.1932 402.537 85.8182 401.212 87.4932 399.962L85.0682 398.237ZM88.8432 399.987C90.4682 400.937 92.6432 402.362 93.6682 403.287L96.0432 401.537C94.8682 400.587 92.6432 399.237 91.0682 398.387L88.8432 399.987Z" fill="black"/>
<path d="M102.018 386.937V389.762H115.593V386.937H102.018ZM102.018 392.737V395.562H115.593V392.737H102.018ZM102.018 398.512V401.437H115.593V398.512H102.018ZM99.8432 381.137V402.987H102.868V384.087H114.493V402.987H117.668V381.137H99.8432Z" fill="black"/>
<path d="M76.8432 418.137V419.787H90.6682V418.137H76.8432ZM76.5182 428.587V430.212H91.0182V428.587H76.5182ZM78.8432 430.937C79.4932 431.637 80.2182 432.587 80.5432 433.212L82.5432 432.212C82.1932 431.587 81.3932 430.662 80.7182 430.037L78.8432 430.937ZM79.8182 423.637H87.6432V424.412H79.8182V423.637ZM79.8182 421.737H87.6432V422.462H79.8182V421.737ZM77.5432 420.512V425.637H90.0182V420.512H77.5432ZM85.3182 427.862V431.687C85.3182 431.912 85.2182 431.987 84.9932 431.987C84.7432 432.012 83.8932 432.012 83.1932 431.987C83.4182 432.412 83.6932 432.962 83.7932 433.512C85.1932 433.512 86.1932 433.512 86.8682 433.287C87.5932 433.062 87.7932 432.762 87.7932 431.787V427.862H85.3182ZM76.9182 426.462L77.0182 428.062C80.2432 428.012 84.7182 427.887 89.0432 427.737L89.1182 426.412C84.6182 426.462 79.9932 426.487 76.9182 426.462ZM86.6932 426.212C87.5932 426.912 88.7182 428.012 89.2682 428.762L90.8432 427.587C90.2932 426.912 89.1682 425.887 88.1932 425.212L86.6932 426.212ZM82.4932 417.237V427.087L84.9432 426.987V417.237H82.4932ZM73.3182 414.612V437.262H76.0432V416.887H91.5682V437.212H94.4182V414.612H73.3182ZM74.6432 433.762V436.037H92.7182V433.762H74.6432Z" fill="black"/>
<path d="M118.793 421.562C117.818 422.737 116.118 424.312 114.943 425.187L116.493 426.887C117.743 426.037 119.368 424.737 120.743 423.537L118.793 421.562ZM107.218 414.787C107.893 415.912 108.543 417.462 108.768 418.487L111.318 417.512C111.043 416.512 110.368 415.037 109.618 413.937L107.218 414.787ZM105.668 417.737V420.312H120.268V417.737H105.668ZM108.443 423.012C112.893 426.662 112.843 432.612 111.643 433.937C111.343 434.487 110.943 434.587 110.418 434.587C109.843 434.587 109.218 434.537 108.418 434.437C108.968 435.262 109.143 436.437 109.168 437.187C109.818 437.237 110.443 437.262 110.968 437.262C112.168 437.237 112.968 436.962 113.768 436.112C115.993 434.087 116.168 426.212 110.768 421.837L108.443 423.012ZM111.443 418.837C109.918 420.737 107.243 422.512 104.668 423.562C105.193 424.062 106.068 425.137 106.418 425.662C109.068 424.312 112.043 422.112 113.893 419.737L111.443 418.837ZM115.168 419.387L112.793 419.812C113.793 426.162 115.518 431.712 118.943 434.837C119.393 434.112 120.318 433.062 120.968 432.562C117.818 429.987 116.018 424.837 115.168 419.387ZM110.768 424.162C109.468 425.562 106.893 427.237 104.918 428.062C105.493 428.562 106.168 429.487 106.543 430.137C108.568 428.987 111.218 426.987 112.668 425.387L110.768 424.162ZM112.193 427.287C110.493 429.587 106.918 432.112 103.868 433.262C104.518 433.787 105.268 434.687 105.668 435.337C108.693 433.887 112.293 431.112 114.168 428.587L112.193 427.287ZM115.868 413.812C115.518 414.962 114.843 416.512 114.293 417.537L116.718 418.287C117.318 417.362 118.018 415.987 118.718 414.637L115.868 413.812ZM98.1182 414.862V437.287H100.743V417.537H104.018V414.862H98.1182ZM103.093 414.862V415.712C102.743 417.312 101.943 420.762 101.243 423.012C102.668 424.687 102.993 426.237 102.993 427.412C102.993 428.112 102.868 428.612 102.568 428.837C102.393 428.987 102.143 429.037 101.868 429.037C101.568 429.062 101.243 429.037 100.793 429.012C101.193 429.737 101.418 430.862 101.443 431.587C102.018 431.587 102.618 431.562 103.068 431.512C103.618 431.437 104.093 431.262 104.493 430.987C105.293 430.437 105.618 429.387 105.618 427.762C105.618 426.312 105.318 424.637 103.768 422.687C104.493 420.737 105.318 418.012 105.968 415.862L104.018 414.762L103.593 414.862H103.093Z" fill="black"/>
</svg>
