<svg width="552" height="552" viewBox="0 0 552 552" fill="none" xmlns="http://www.w3.org/2000/svg">
<rect width="552" height="552" fill="#D8D7D0"/>
<path d="M397.494 259.999V262.831H411.174V259.999H397.494ZM398.478 248.407V251.167H410.598V248.407H398.478ZM403.062 241.207V261.367H406.014V241.207H403.062ZM388.878 245.407V248.023H396.75V245.407H388.878ZM392.31 253.615V263.527H395.166V250.207L392.31 253.615ZM392.31 240.991V246.631H395.166V240.991H392.31ZM394.878 251.023L393.294 252.415C394.374 253.471 396.39 255.679 397.326 256.927L399.078 254.599C398.43 253.999 395.718 251.599 394.878 251.023ZM395.694 245.407V245.935C394.422 249.463 391.254 252.991 387.99 254.767C388.422 255.319 389.094 256.735 389.358 257.503C392.934 255.247 396.558 251.047 398.382 246.367L396.774 245.311L396.27 245.407H395.694Z" fill="black"/>
<path d="M423.03 247.327H426.966V249.319H423.03V247.327ZM420.342 245.455V251.215H429.822V245.455H420.342ZM420.198 254.191H422.07V256.831H420.198V254.191ZM417.87 252.247V258.751H424.518V252.247H417.87ZM427.974 254.191H429.918V256.831H427.974V254.191ZM425.598 252.247V258.751H432.414V252.247H425.598ZM413.622 241.807V263.503H416.43V244.327H434.142V241.807H413.622ZM415.446 259.951V262.543H434.79V259.951H415.446Z" fill="black"/>
<path d="M440.022 249.991V252.631H445.566V249.991H440.022ZM444.462 249.991V250.423C444.414 255.079 444.318 256.759 444.03 257.143C443.838 257.383 443.622 257.431 443.286 257.431C442.902 257.431 442.086 257.431 441.222 257.335C441.654 258.055 441.966 259.183 442.014 260.023C443.142 260.047 444.174 260.047 444.822 259.951C445.518 259.831 445.998 259.615 446.478 259.015C447.03 258.271 447.15 256.135 447.246 251.047C447.246 250.711 447.27 249.991 447.27 249.991H444.462ZM451.686 242.479C453.03 243.247 454.734 244.423 455.526 245.263L457.374 243.319C456.51 242.527 454.734 241.423 453.414 240.727L451.686 242.479ZM454.518 248.647C452.862 254.215 449.646 258.559 445.038 261.031C445.638 261.607 446.694 262.807 447.126 263.407C451.878 260.479 455.406 255.607 457.422 249.343L454.518 248.647ZM440.19 244.567V247.399H458.694V244.567H440.19ZM438.27 244.567V251.599C438.27 254.743 438.102 258.943 436.254 261.823C436.926 262.159 438.222 263.215 438.702 263.791C440.886 260.551 441.294 255.223 441.294 251.623V244.567H438.27ZM448.014 240.991C448.086 251.935 450.03 263.335 455.262 263.335C457.518 263.335 458.478 262.255 458.934 257.791C458.166 257.503 457.134 256.831 456.486 256.159C456.342 259.183 456.054 260.407 455.502 260.407C453.078 260.407 450.87 250.783 451.038 240.991H448.014Z" fill="black"/>
<path d="M466.83 243.967H476.574V245.503H466.83V243.967ZM463.95 241.735V247.759H479.646V241.735H463.95ZM465.726 253.471H477.51V254.479H465.726V253.471ZM465.726 256.327H477.51V257.359H465.726V256.327ZM465.726 250.615H477.51V251.623H465.726V250.615ZM462.846 248.647V259.303H480.51V248.647H462.846ZM467.502 258.823C465.99 259.759 462.918 260.887 460.398 261.439C461.094 261.991 462.054 262.903 462.582 263.503C465.03 262.927 468.15 261.751 470.07 260.623L467.502 258.823ZM472.782 260.767C475.35 261.487 478.662 262.687 480.534 263.551L483.054 261.511C481.062 260.743 477.846 259.615 475.302 258.943L472.782 260.767Z" fill="black"/>
<path d="M64 253.91C63.136 255.038 61.6 256.574 60.496 257.486L62.2 258.878C63.376 258.086 64.888 256.814 66.304 255.638L64 253.91ZM58.12 241.91C57.856 242.966 57.304 244.358 56.824 245.366L59.272 245.918C59.896 245.054 60.688 243.734 61.384 242.414L58.12 241.91ZM56.104 249.878H62.536V251.126H56.104V249.878ZM56.104 246.542H62.536V247.814H56.104V246.542ZM53.512 244.334V253.358H65.272V244.334H53.512ZM58.144 252.374V261.734C58.144 261.974 58.072 262.046 57.784 262.046C57.52 262.046 56.632 262.046 55.792 262.022C56.104 262.742 56.416 263.774 56.488 264.494C57.952 264.494 58.984 264.446 59.776 264.062C60.544 263.654 60.712 262.982 60.712 261.758V252.374H58.144ZM52.888 254.966V257.318H56.344V254.966H52.888ZM55.792 254.966V255.35C55.192 258.254 53.608 260.438 51.496 261.614C52.024 261.998 52.912 262.982 53.272 263.534C55.6 262.094 57.424 259.406 58.264 255.518L56.728 254.894L56.296 254.966H55.792ZM60.472 252.47L58.912 254.006C59.584 257.102 61.288 261.47 64.936 263.51C65.296 262.79 66.136 261.71 66.664 261.182C62.848 259.502 61.168 255.638 60.472 252.47ZM47.296 241.982C46.744 243.638 45.712 245.966 44.872 247.406L46.792 248.198C47.704 246.854 48.808 244.718 49.792 242.846L47.296 241.982ZM50.008 244.814C48.736 247.382 46.552 250.886 44.752 253.046L46.408 253.982C48.256 251.918 50.584 248.582 52.336 245.894L50.008 244.814ZM43.576 247.574C44.776 248.798 46.192 250.502 46.72 251.678L48.28 249.47C47.704 248.342 46.24 246.782 44.992 245.654L43.576 247.574ZM49.192 250.574C50.08 252.23 50.92 254.438 51.184 255.83L53.344 254.846C53.056 253.478 52.144 251.366 51.184 249.734L49.192 250.574ZM43.504 252.494L43.816 254.966C46.048 254.798 48.976 254.582 51.784 254.366L51.76 252.014C48.76 252.206 45.664 252.374 43.504 252.494ZM49.84 256.598C50.368 257.918 50.824 259.67 50.896 260.774L53.032 260.102C52.888 258.974 52.408 257.294 51.856 255.974L49.84 256.598ZM44.536 256.07C44.344 258.086 43.984 260.246 43.312 261.662C43.864 261.902 44.92 262.358 45.4 262.67C46.096 261.134 46.6 258.758 46.84 256.454L44.536 256.07ZM47.176 253.766V264.494H49.648V253.766H47.176Z" fill="black"/>
<path d="M68.224 243.71V246.614H89.776V243.71H68.224ZM76.936 246.326V264.446H80.032V246.326H76.936ZM78.568 252.134C81.28 253.598 84.928 255.854 86.632 257.366L88.768 254.726C86.92 253.238 83.152 251.15 80.536 249.854L78.568 252.134Z" fill="black"/>
<path d="M92.464 243.782V246.374H113.56V243.782H92.464ZM101.392 241.958V245.318H104.368V241.958H101.392ZM93.256 248.27V264.446H95.992V250.742H111.712V248.27H93.256ZM110.224 248.27V261.35C110.224 261.686 110.104 261.806 109.696 261.806C109.288 261.83 107.896 261.83 106.648 261.758C107.032 262.478 107.464 263.75 107.584 264.518C109.48 264.518 110.824 264.446 111.784 264.014C112.72 263.582 113.008 262.766 113.008 261.374V248.27H110.224ZM99.304 250.43C99.184 252.35 98.68 253.286 95.704 253.814C96.208 254.27 96.808 255.206 97.024 255.806C100.84 254.942 101.656 253.31 101.848 250.43H99.304ZM103.744 250.43V252.302C103.744 254.27 104.2 254.894 106.336 254.894C106.744 254.894 107.848 254.894 108.28 254.894C109.768 254.894 110.392 254.342 110.632 252.302C109.984 252.158 108.976 251.822 108.52 251.486C108.448 252.662 108.352 252.83 107.968 252.83C107.728 252.83 106.936 252.83 106.72 252.83C106.288 252.83 106.24 252.782 106.24 252.254V250.43H103.744ZM98.344 255.806V263.366H100.888V255.806H98.344ZM99.928 255.806V257.918H105.232V259.958H99.928V262.07H107.824V255.806H99.928ZM96.76 246.326C97.144 247.142 97.576 248.246 97.72 248.942L100.696 248.342C100.504 247.646 100.048 246.614 99.616 245.846L96.76 246.326ZM106.144 245.822C105.88 246.566 105.376 247.646 104.968 248.39L107.824 248.87C108.256 248.222 108.76 247.358 109.336 246.302L106.144 245.822Z" fill="black"/>
<path d="M120.616 254.51V257.174H133.768V254.51H120.616ZM120.88 248.318V250.982H132.568V258.374H135.472V248.318H120.88ZM132.664 241.982C129.592 243.038 124.456 243.974 119.848 244.502C120.184 245.102 120.544 246.158 120.664 246.806C125.416 246.278 130.96 245.39 134.968 244.118L132.664 241.982ZM119.032 243.83V250.838C119.032 254.366 118.744 259.118 115.768 262.55C116.488 262.886 117.64 263.87 118.072 264.518C121.48 260.63 121.96 254.678 121.96 250.886V245.27C122.392 245.174 122.584 245.054 122.608 244.814L119.032 243.83Z" fill="black"/>
<path d="M443.492 397.727C443.882 398.117 444.515 398.117 444.906 397.727L451.27 391.363C451.66 390.972 451.66 390.339 451.27 389.948C450.879 389.558 450.246 389.558 449.855 389.948L444.199 395.605L438.542 389.948C438.151 389.558 437.518 389.558 437.128 389.948C436.737 390.339 436.737 390.972 437.128 391.363L443.492 397.727ZM445.199 284.441C445.199 283.889 444.751 283.441 444.199 283.441C443.646 283.441 443.199 283.889 443.199 284.441L445.199 284.441ZM445.199 397.02L445.199 284.441L443.199 284.441L443.199 397.02L445.199 397.02Z" fill="#FF7A00"/>
<path d="M375.525 426.54H370.225V429.131H372.84V435.132H375.525V426.54ZM375.525 434.035H373.097C372.07 434.898 370.925 435.739 369.945 436.369L371.276 439.148C372.443 438.144 373.424 437.257 374.358 436.346C375.759 438.144 377.65 438.821 380.452 438.938C383.3 439.078 388.274 439.031 391.192 438.891C391.309 438.074 391.753 436.79 392.056 436.159C388.811 436.416 383.277 436.486 380.475 436.346C378.07 436.253 376.412 435.576 375.525 434.035ZM370.295 419.605C371.626 420.749 373.19 422.36 373.821 423.504L376.132 421.73C375.408 420.632 373.774 419.068 372.443 418.04L370.295 419.605ZM376.553 419.115V421.379H391.262V419.115H376.553ZM376.249 431.349V433.638H391.543V431.349H376.249ZM382.39 417.433V435.809H385.122V417.433H382.39ZM380.032 427.217H387.55V428.384H380.032V427.217ZM380.032 424.275H387.55V425.419H380.032V424.275ZM377.463 422.337V430.322H390.235V422.337H377.463Z" fill="black"/>
<path d="M406.136 428.151H411.529V429.341H406.136V428.151ZM406.136 431.233H411.529V432.447H406.136V431.233ZM406.136 425.045H411.529V426.236H406.136V425.045ZM403.614 423.014V434.478H414.191V423.014H403.614ZM407.49 417.433V424.485H410.058V417.433H407.49ZM402.703 418.834C403.427 420.049 404.151 421.683 404.408 422.71L406.743 421.73C406.439 420.702 405.645 419.138 404.922 417.97L402.703 418.834ZM412.417 417.9C412.066 419.091 411.343 420.772 410.782 421.823L413 422.664C413.607 421.683 414.355 420.235 415.032 418.811L412.417 417.9ZM409.545 435.879C410.829 436.906 412.393 438.354 413.187 439.335L415.592 437.957C414.681 436.977 412.977 435.529 411.483 434.455L409.545 435.879ZM405.996 434.361C404.992 435.435 402.984 436.79 401.326 437.514C401.863 438.027 402.61 438.868 403.007 439.405C404.758 438.588 406.883 437.21 408.214 435.902L405.996 434.361ZM395.022 423.247V425.582H402.026V423.247H395.022ZM393.901 427.287V429.668H402.423V427.287H393.901ZM394.134 430.976C394.485 432.283 394.811 433.964 394.858 435.085L396.749 434.595C396.633 433.474 396.306 431.84 395.909 430.532L394.134 430.976ZM393.644 436.323L394.181 438.868C396.633 438.377 399.855 437.724 402.867 437.07L402.68 434.758C399.411 435.365 395.932 435.996 393.644 436.323ZM400.602 430.345C400.439 431.466 400.088 433.101 399.785 434.151L401.466 434.618C401.816 433.638 402.19 432.167 402.61 430.836L400.602 430.345ZM397.1 424.181V437.187L399.505 436.766V424.181H397.1ZM396.983 417.433C396.259 419.255 394.882 421.449 392.92 423.131C393.434 423.504 394.228 424.391 394.601 424.952C396.913 422.85 398.337 420.445 399.248 418.671V417.947H398.454V417.433H396.983ZM397.333 417.433V419.418H397.823C399.108 420.469 400.695 422.43 401.419 423.621L403.217 421.473C402.377 420.259 400.649 418.601 399.294 417.433H397.333Z" fill="black"/>
<path d="M421.546 417.433V421.496H423.834V417.433H421.546ZM422.48 418.344V420.002H427.617V418.344H422.48ZM420.892 420.702L419.561 422.36H425.936V420.702H420.892ZM425.399 420.702V421.029C424.021 423.527 420.332 425.232 416.736 425.932C417.133 426.376 417.67 427.17 417.927 427.684C421.943 426.703 425.866 424.788 427.687 421.403L426.216 420.632L425.819 420.702H425.399ZM418.651 423.504C419.655 423.948 420.939 424.695 421.546 425.209L422.947 423.994C422.293 423.457 420.986 422.78 419.982 422.383L418.651 423.504ZM420.122 420.235C419.305 421.286 417.857 422.243 416.386 422.897C416.853 423.224 417.623 423.901 417.974 424.275C419.468 423.481 421.079 422.173 422.083 420.819L420.122 420.235ZM428.341 418.251V420.142H435.555V418.251H428.341ZM434.948 418.251V418.578C433.968 421.169 431.283 423.154 428.271 423.994C428.738 424.461 429.345 425.372 429.625 425.932C433.057 424.742 436.046 422.453 437.377 418.811L435.812 418.157L435.415 418.251H434.948ZM428.13 421.94C430.979 423.247 434.528 425.349 436.233 426.866L437.937 425.115C436.092 423.598 432.473 421.613 429.695 420.422L428.13 421.94ZM427.593 426.306C429.928 428.221 434.131 429.972 437.4 430.719C437.704 430.112 438.217 429.248 438.708 428.688C435.135 428.081 431.283 426.68 428.597 424.555H426.379C424.371 426.399 420.565 428.081 416.736 428.921C417.133 429.435 417.647 430.299 417.88 430.859C421.616 429.878 425.492 428.104 427.593 426.306ZM422.597 429.575V431.023H431.75V433.684H422.597V435.155H434.388V429.575H422.597ZM421.196 429.598V437.91L423.834 437.724V429.598H421.196ZM434.902 433.661C433.944 434.572 432.31 435.832 431.049 436.556L432.497 437.584C433.781 436.93 435.415 435.879 436.84 434.875L434.902 433.661ZM428.271 434.315L426.263 434.875C428.294 437.654 431.936 438.985 436.886 439.405C437.167 438.798 437.727 437.887 438.194 437.42C433.594 437.21 429.905 436.299 428.271 434.315ZM422.597 431.7V432.96H432.543V431.7H422.597ZM424.535 427.544V429.015H430.629V427.544H424.535ZM418.464 436.977L418.721 439.078C421.406 438.844 425.165 438.494 428.691 438.167V436.159C424.955 436.486 421.056 436.79 418.464 436.977Z" fill="black"/>
<path d="M452.46 421.519V424.041H459.932V421.519H452.46ZM452.624 417.41C452.133 421.006 451.036 424.415 449.215 426.469C449.868 426.796 451.083 427.614 451.549 428.034C453.417 425.676 454.678 421.916 455.355 417.807L452.624 417.41ZM455.892 422.523H454.468V426.399C454.468 428.804 453.511 434.151 448.981 437.047C449.471 437.584 450.265 438.751 450.592 439.381C453.908 437.233 455.519 433.264 455.869 431.256C456.149 433.311 457.503 437.327 460.422 439.405C460.842 438.704 461.66 437.537 462.15 436.906C458.157 434.058 457.247 428.711 457.247 426.399V422.523H455.892ZM459.255 421.519V421.963C459.045 423.808 458.578 426.189 458.064 427.614L460.282 428.337C460.982 426.68 461.636 424.158 461.986 421.846L460.119 421.403L459.675 421.519H459.255ZM444.685 421.893V424.578H447.16V421.893H444.685ZM441.72 423.714V436.72H444.218V423.714H441.72ZM443.261 426.75V428.618H448.654V426.75H443.261ZM440.062 435.949L440.949 438.541C443.191 437.84 445.969 436.93 448.608 436.066L448.281 433.824C445.269 434.665 442.116 435.506 440.062 435.949ZM446.039 432.587C446.81 434.151 447.604 436.276 447.884 437.56L450.312 436.58C449.962 435.319 449.074 433.311 448.304 431.793L446.039 432.587ZM443.261 423.714V425.652H447.37V429.785H443.261V431.7H449.822V423.714H443.261ZM444.195 417.433C443.377 419.231 441.883 421.356 439.665 422.944C440.179 423.341 440.926 424.298 441.253 424.882C443.891 422.85 445.479 420.492 446.506 418.694V417.947H445.689V417.433H444.195ZM444.918 417.433V419.278H445.362C446.576 420.375 448.187 422.313 448.958 423.434L450.872 421.613C449.938 420.422 448.187 418.671 446.81 417.433H444.918Z" fill="black"/>
<path d="M470.275 421.029H478.494V424.181H470.275V421.029ZM467.567 418.367V426.843H481.366V418.367H467.567ZM464.368 428.804V439.358H467.007V431.466H470.485V439.218H473.287V428.804H464.368ZM475.272 428.804V439.358H477.957V431.466H481.693V439.241H484.518V428.804H475.272ZM465.536 435.506V438.191H471.653V435.506H465.536ZM476.556 435.506V438.191H483.094V435.506H476.556Z" fill="black"/>
<path d="M495.539 432.4V434.758H508.544V432.4H495.539ZM502.847 429.458V439.381H505.486V429.458H502.847ZM500.746 417.387C500.536 418.321 500.069 419.582 499.648 420.515L501.89 421.099C502.427 420.305 503.174 419.115 503.851 417.924L500.746 417.387ZM500.933 420.866V424.742C500.933 426.843 500.349 429.552 496.169 431.209C496.683 431.56 497.547 432.307 497.944 432.75C502.544 430.859 503.291 427.544 503.291 424.812V420.866H500.933ZM489.258 423.574V425.956H495.913V423.574H489.258ZM491.99 417.457V424.998H494.418V417.457H491.99ZM489.398 428.641V430.999H492.434V439.381H494.909V428.641H489.398ZM488.091 418.04V426.773C488.091 430.042 487.904 435.202 486.596 438.588C487.273 438.774 488.394 439.148 488.931 439.428C490.239 435.786 490.496 430.439 490.496 426.773V418.04H488.091ZM498.808 425.255H505.392V426.866H498.808V425.255ZM498.808 421.706H505.392V423.294H498.808V421.706ZM496.333 419.605V428.944H507.961V419.605H496.333Z" fill="black"/>
<path d="M371.349 450.991V449.402H373.211C373.448 449.402 373.641 449.363 373.788 449.286C373.934 449.209 374.043 449.105 374.113 448.972C374.183 448.835 374.218 448.68 374.218 448.505C374.218 448.316 374.183 448.14 374.113 447.975C374.043 447.811 373.934 447.68 373.788 447.582C373.641 447.481 373.448 447.43 373.211 447.43H372.083V453.477H370.111V445.841H373.211C373.83 445.841 374.363 445.956 374.81 446.187C375.261 446.418 375.607 446.732 375.849 447.131C376.093 447.53 376.216 447.984 376.216 448.494C376.216 448.991 376.093 449.426 375.849 449.8C375.607 450.174 375.261 450.466 374.81 450.676C374.363 450.886 373.83 450.991 373.211 450.991H371.349Z" fill="black"/>
<path d="M379.063 453.477H377.17V445.421H379.063V453.477Z" fill="black"/>
<path d="M382.992 449.748C382.992 449.538 382.946 449.372 382.855 449.25C382.768 449.124 382.616 449.061 382.399 449.061C382.284 449.061 382.186 449.078 382.105 449.113C382.028 449.148 381.969 449.204 381.927 449.281C381.888 449.358 381.869 449.461 381.869 449.591H379.981C379.981 449.22 380.084 448.893 380.291 448.61C380.497 448.327 380.789 448.105 381.166 447.944C381.544 447.779 381.988 447.697 382.499 447.697C382.953 447.697 383.36 447.774 383.72 447.928C384.081 448.078 384.366 448.307 384.575 448.615C384.785 448.919 384.89 449.3 384.89 449.758V451.998C384.89 452.407 384.911 452.704 384.953 452.889C384.998 453.075 385.06 453.239 385.136 453.382V453.477H383.248C383.161 453.291 383.096 453.064 383.054 452.795C383.012 452.526 382.992 452.244 382.992 451.951V449.748ZM383.228 451.017H382.499C382.201 451.017 382 451.097 381.895 451.258C381.791 451.419 381.738 451.589 381.738 451.767C381.738 451.896 381.785 452.001 381.88 452.082C381.978 452.159 382.098 452.197 382.242 452.197C382.42 452.197 382.57 452.166 382.693 452.103C382.818 452.036 382.913 451.959 382.976 451.872C383.039 451.784 383.065 451.708 383.054 451.641L383.458 452.433C383.388 452.569 383.31 452.706 383.222 452.842C383.138 452.975 383.033 453.097 382.908 453.209C382.782 453.321 382.628 453.41 382.446 453.477C382.264 453.547 382.044 453.582 381.785 453.582C381.439 453.582 381.118 453.51 380.82 453.367C380.527 453.223 380.291 453.022 380.112 452.763C379.934 452.505 379.845 452.204 379.845 451.861C379.845 451.278 380.06 450.819 380.49 450.487C380.92 450.155 381.595 449.989 382.514 449.989H383.217L383.228 451.017Z" fill="black"/>
<path d="M388.881 449.166H385.393V447.802H388.881V449.166ZM387.974 446.391V451.52C387.974 451.653 387.989 451.758 388.021 451.835C388.052 451.909 388.108 451.961 388.189 451.992C388.273 452.024 388.386 452.04 388.53 452.04C388.627 452.04 388.71 452.038 388.776 452.034C388.843 452.031 388.904 452.024 388.96 452.013L388.954 453.419C388.794 453.475 388.631 453.515 388.467 453.54C388.302 453.568 388.122 453.582 387.926 453.582C387.535 453.582 387.201 453.52 386.925 453.398C386.652 453.272 386.444 453.078 386.301 452.816C386.157 452.55 386.086 452.209 386.086 451.793V446.391H387.974Z" fill="black"/>
<path d="M392.321 453.582C391.692 453.582 391.155 453.454 390.711 453.199C390.271 452.943 389.935 452.608 389.704 452.192C389.474 451.772 389.358 451.319 389.358 450.833V450.639C389.358 450.098 389.46 449.605 389.662 449.161C389.865 448.713 390.171 448.358 390.58 448.096C390.989 447.83 391.503 447.697 392.122 447.697C392.671 447.697 393.139 447.811 393.528 448.038C393.916 448.262 394.213 448.584 394.419 449.003C394.629 449.419 394.734 449.917 394.734 450.498V451.29H390.066V450.078H392.888V449.926C392.891 449.762 392.863 449.627 392.804 449.522C392.744 449.417 392.655 449.341 392.536 449.292C392.421 449.243 392.278 449.218 392.106 449.218C391.862 449.218 391.678 449.286 391.556 449.423C391.433 449.559 391.351 449.736 391.309 449.952C391.267 450.166 391.246 450.395 391.246 450.639V450.833C391.246 451.085 391.293 451.304 391.388 451.489C391.482 451.671 391.619 451.811 391.797 451.909C391.979 452.006 392.195 452.055 392.447 452.055C392.678 452.055 392.909 452.015 393.139 451.935C393.374 451.854 393.571 451.713 393.732 451.51L394.582 452.596C394.407 452.84 394.124 453.066 393.732 453.272C393.344 453.478 392.874 453.582 392.321 453.582Z" fill="black"/>
<path d="M397.445 453.477H395.473V445.841H397.445V453.477ZM400.335 450.535H396.894V448.951H400.335V450.535ZM400.618 447.43H396.894V445.841H400.618V447.43Z" fill="black"/>
<path d="M400.634 450.592C400.634 450.036 400.739 449.542 400.948 449.108C401.158 448.671 401.468 448.327 401.877 448.075C402.286 447.823 402.789 447.697 403.387 447.697C403.992 447.697 404.499 447.823 404.908 448.075C405.32 448.327 405.63 448.671 405.836 449.108C406.046 449.542 406.151 450.036 406.151 450.592V450.692C406.151 451.244 406.046 451.739 405.836 452.176C405.63 452.613 405.322 452.957 404.913 453.209C404.504 453.457 403.999 453.582 403.397 453.582C402.796 453.582 402.289 453.457 401.877 453.209C401.468 452.957 401.158 452.613 400.948 452.176C400.739 451.739 400.634 451.244 400.634 450.692V450.592ZM402.527 450.692C402.527 450.951 402.55 451.185 402.595 451.395C402.644 451.601 402.731 451.763 402.857 451.882C402.983 452.001 403.163 452.061 403.397 452.061C403.628 452.061 403.807 452.001 403.932 451.882C404.058 451.763 404.144 451.601 404.189 451.395C404.238 451.185 404.263 450.951 404.263 450.692V450.592C404.263 450.341 404.238 450.111 404.189 449.905C404.144 449.695 404.058 449.529 403.932 449.407C403.807 449.281 403.625 449.218 403.387 449.218C403.156 449.218 402.978 449.281 402.852 449.407C402.73 449.529 402.644 449.695 402.595 449.905C402.55 450.111 402.527 450.341 402.527 450.592V450.692Z" fill="black"/>
<path d="M408.789 453.477H406.901V447.802H408.663L408.789 449.318V453.477ZM410.393 449.606C410.32 449.599 410.22 449.591 410.095 449.58C409.972 449.57 409.873 449.564 409.796 449.564C409.53 449.564 409.313 449.599 409.145 449.669C408.981 449.736 408.862 449.841 408.789 449.984C408.715 450.127 408.68 450.316 408.684 450.55L408.353 450.267C408.353 449.753 408.418 449.304 408.547 448.919C408.677 448.531 408.859 448.231 409.093 448.017C409.331 447.804 409.609 447.697 409.927 447.697C410.014 447.697 410.102 447.703 410.189 447.713C410.28 447.72 410.359 447.736 410.425 447.76L410.393 449.606Z" fill="black"/>
<path d="M412.906 453.477H411.012V447.802H412.785L412.906 449.014V453.477ZM412.25 450.503C412.247 449.958 412.327 449.475 412.491 449.056C412.656 448.633 412.9 448.3 413.225 448.059C413.554 447.818 413.958 447.697 414.437 447.697C414.926 447.697 415.323 447.853 415.627 448.164C415.932 448.472 416.084 448.98 416.084 449.69V453.477H414.19V449.958C414.19 449.741 414.166 449.58 414.117 449.475C414.072 449.37 414.003 449.302 413.912 449.271C413.822 449.236 413.71 449.218 413.577 449.218C413.437 449.218 413.311 449.248 413.199 449.307C413.087 449.363 412.991 449.447 412.911 449.559C412.834 449.667 412.774 449.799 412.732 449.952C412.694 450.106 412.675 450.278 412.675 450.466L412.25 450.503ZM415.349 450.571C415.346 450.008 415.423 449.512 415.58 449.082C415.738 448.648 415.975 448.309 416.293 448.064C416.615 447.82 417.015 447.697 417.494 447.697C417.841 447.697 418.146 447.767 418.412 447.907C418.678 448.043 418.886 448.276 419.036 448.605C419.19 448.93 419.267 449.374 419.267 449.937V453.477H417.369V449.937C417.369 449.73 417.344 449.577 417.295 449.475C417.246 449.374 417.176 449.306 417.085 449.271C416.998 449.236 416.89 449.218 416.76 449.218C416.606 449.218 416.473 449.251 416.362 449.318C416.25 449.381 416.157 449.473 416.084 449.596C416.01 449.715 415.954 449.858 415.916 450.026C415.881 450.194 415.863 450.379 415.863 450.582L415.349 450.571Z" fill="black"/>
<path d="M424.805 445.421V452.013L424.606 453.477H422.917V445.421H424.805ZM428.24 450.681C428.24 451.255 428.162 451.76 428.004 452.197C427.85 452.634 427.611 452.975 427.286 453.22C426.961 453.461 426.543 453.582 426.032 453.582C425.574 453.582 425.204 453.447 424.92 453.178C424.637 452.905 424.417 452.543 424.26 452.092C424.102 451.638 423.985 451.139 423.908 450.597V450.66C423.985 450.125 424.101 449.634 424.254 449.187C424.412 448.736 424.632 448.376 424.915 448.106C425.198 447.834 425.567 447.697 426.022 447.697C426.536 447.697 426.955 447.823 427.28 448.075C427.609 448.327 427.85 448.669 428.004 449.103C428.162 449.533 428.24 450.022 428.24 450.571V450.681ZM426.352 450.571C426.352 450.327 426.333 450.103 426.294 449.9C426.256 449.694 426.179 449.529 426.064 449.407C425.952 449.281 425.779 449.218 425.545 449.218C425.37 449.218 425.223 449.246 425.104 449.302C424.985 449.355 424.891 449.437 424.821 449.549C424.751 449.657 424.702 449.795 424.674 449.963C424.65 450.127 424.643 450.32 424.653 450.54V450.718C424.639 451.015 424.656 451.265 424.705 451.468C424.758 451.667 424.852 451.818 424.989 451.919C425.125 452.02 425.314 452.071 425.555 452.071C425.796 452.071 425.973 452.015 426.085 451.903C426.197 451.788 426.268 451.625 426.3 451.416C426.335 451.206 426.352 450.961 426.352 450.681V450.571Z" fill="black"/>
<path d="M432.137 447.802H434.161L431.901 454.311C431.852 454.454 431.785 454.609 431.701 454.777C431.618 454.945 431.504 455.104 431.361 455.255C431.221 455.405 431.039 455.527 430.815 455.622C430.595 455.72 430.32 455.768 429.992 455.768C429.873 455.768 429.779 455.765 429.709 455.758C429.639 455.754 429.57 455.744 429.504 455.727C429.438 455.709 429.348 455.686 429.237 455.658V454.253C429.279 454.253 429.314 454.251 429.341 454.248C429.373 454.248 429.41 454.248 429.452 454.248C429.731 454.248 429.927 454.213 430.039 454.143C430.154 454.076 430.235 453.984 430.28 453.865L430.7 452.79L432.137 447.802ZM431.513 451.615L431.707 453.723L430.448 453.655L428.45 447.802H430.474L431.513 451.615Z" fill="black"/>
<path d="M443.391 445.841V450.786C443.391 451.388 443.265 451.896 443.014 452.312C442.765 452.728 442.414 453.045 441.96 453.262C441.508 453.475 440.977 453.582 440.365 453.582C439.76 453.582 439.227 453.475 438.766 453.262C438.308 453.045 437.951 452.728 437.696 452.312C437.441 451.896 437.313 451.388 437.313 450.786V445.841H439.29V450.786C439.29 451.076 439.33 451.311 439.411 451.489C439.491 451.667 439.612 451.797 439.773 451.877C439.933 451.958 440.131 451.998 440.365 451.998C440.603 451.998 440.799 451.958 440.953 451.877C441.11 451.797 441.227 451.667 441.304 451.489C441.384 451.311 441.425 451.076 441.425 450.786V445.841H443.391Z" fill="black"/>
<path d="M446.255 453.477H444.367V447.802H446.134L446.255 449.014V453.477ZM445.599 450.503C445.596 449.902 445.685 449.393 445.867 448.977C446.048 448.557 446.304 448.239 446.632 448.022C446.964 447.806 447.349 447.697 447.786 447.697C448.136 447.697 448.443 447.767 448.709 447.907C448.975 448.047 449.183 448.279 449.333 448.605C449.487 448.93 449.564 449.374 449.564 449.937V453.477H447.665V449.931C447.665 449.729 447.636 449.577 447.576 449.475C447.52 449.374 447.436 449.306 447.325 449.271C447.216 449.236 447.082 449.218 446.921 449.218C446.753 449.218 446.611 449.248 446.496 449.307C446.384 449.363 446.293 449.447 446.223 449.559C446.157 449.667 446.108 449.799 446.076 449.952C446.048 450.106 446.034 450.278 446.034 450.466L445.599 450.503Z" fill="black"/>
<path d="M452.338 453.477H450.45V447.802H452.218L452.338 449.014V453.477ZM451.683 450.503C451.679 449.902 451.768 449.393 451.95 448.977C452.132 448.557 452.387 448.239 452.716 448.022C453.048 447.806 453.433 447.697 453.87 447.697C454.219 447.697 454.527 447.767 454.793 447.907C455.058 448.047 455.266 448.279 455.417 448.605C455.57 448.93 455.647 449.374 455.647 449.937V453.477H453.749V449.931C453.749 449.729 453.719 449.577 453.66 449.475C453.604 449.374 453.52 449.306 453.408 449.271C453.3 449.236 453.165 449.218 453.004 449.218C452.836 449.218 452.695 449.248 452.579 449.307C452.468 449.363 452.377 449.447 452.307 449.559C452.24 449.667 452.191 449.799 452.16 449.952C452.132 450.106 452.118 450.278 452.118 450.466L451.683 450.503Z" fill="black"/>
<path d="M459.465 449.748C459.465 449.538 459.42 449.372 459.329 449.25C459.242 449.124 459.089 449.061 458.873 449.061C458.757 449.061 458.659 449.078 458.579 449.113C458.502 449.148 458.443 449.204 458.401 449.281C458.362 449.358 458.343 449.461 458.343 449.591H456.455C456.455 449.22 456.558 448.893 456.764 448.61C456.971 448.327 457.263 448.105 457.64 447.944C458.018 447.779 458.462 447.697 458.972 447.697C459.427 447.697 459.834 447.774 460.194 447.928C460.554 448.078 460.839 448.307 461.049 448.615C461.259 448.919 461.364 449.3 461.364 449.758V451.998C461.364 452.407 461.385 452.704 461.427 452.889C461.472 453.075 461.533 453.239 461.61 453.382V453.477H459.722C459.635 453.291 459.57 453.064 459.528 452.795C459.486 452.526 459.465 452.244 459.465 451.951V449.748ZM459.701 451.017H458.972C458.675 451.017 458.474 451.097 458.369 451.258C458.264 451.419 458.212 451.589 458.212 451.767C458.212 451.896 458.259 452.001 458.354 452.082C458.451 452.159 458.572 452.197 458.715 452.197C458.894 452.197 459.044 452.166 459.166 452.103C459.292 452.036 459.387 451.959 459.45 451.872C459.513 451.784 459.539 451.708 459.528 451.641L459.932 452.433C459.862 452.569 459.783 452.706 459.696 452.842C459.612 452.975 459.507 453.097 459.381 453.209C459.256 453.321 459.102 453.41 458.92 453.477C458.738 453.547 458.518 453.582 458.259 453.582C457.913 453.582 457.591 453.51 457.294 453.367C457 453.223 456.764 453.022 456.586 452.763C456.408 452.505 456.319 452.204 456.319 451.861C456.319 451.278 456.534 450.819 456.964 450.487C457.394 450.155 458.069 449.989 458.988 449.989H459.691L459.701 451.017Z" fill="black"/>
<path d="M464.185 453.477H462.292V447.802H464.065L464.185 449.014V453.477ZM463.53 450.503C463.526 449.958 463.607 449.475 463.771 449.056C463.935 448.633 464.18 448.3 464.505 448.059C464.834 447.818 465.238 447.697 465.717 447.697C466.206 447.697 466.603 447.853 466.907 448.164C467.211 448.472 467.363 448.98 467.363 449.69V453.477H465.47V449.958C465.47 449.741 465.446 449.58 465.397 449.475C465.351 449.37 465.283 449.302 465.192 449.271C465.101 449.236 464.989 449.218 464.857 449.218C464.717 449.218 464.591 449.248 464.479 449.307C464.367 449.363 464.271 449.447 464.191 449.559C464.114 449.667 464.054 449.799 464.012 449.952C463.974 450.106 463.955 450.278 463.955 450.466L463.53 450.503ZM466.629 450.571C466.626 450.008 466.703 449.512 466.86 449.082C467.017 448.648 467.255 448.309 467.573 448.064C467.895 447.82 468.295 447.697 468.774 447.697C469.12 447.697 469.426 447.767 469.692 447.907C469.958 448.043 470.166 448.276 470.316 448.605C470.47 448.93 470.547 449.374 470.547 449.937V453.477H468.648V449.937C468.648 449.73 468.624 449.577 468.575 449.475C468.526 449.374 468.456 449.306 468.365 449.271C468.278 449.236 468.169 449.218 468.04 449.218C467.886 449.218 467.753 449.251 467.641 449.318C467.529 449.381 467.437 449.473 467.363 449.596C467.29 449.715 467.234 449.858 467.196 450.026C467.161 450.194 467.143 450.379 467.143 450.582L466.629 450.571Z" fill="black"/>
<path d="M474.302 453.582C473.672 453.582 473.136 453.454 472.692 453.199C472.251 452.943 471.916 452.608 471.685 452.192C471.454 451.772 471.339 451.319 471.339 450.833V450.639C471.339 450.098 471.44 449.605 471.643 449.161C471.846 448.713 472.152 448.358 472.561 448.096C472.97 447.83 473.484 447.697 474.102 447.697C474.651 447.697 475.12 447.811 475.508 448.038C475.896 448.262 476.193 448.584 476.399 449.003C476.609 449.419 476.714 449.917 476.714 450.498V451.29H472.047V450.078H474.868V449.926C474.872 449.762 474.844 449.627 474.784 449.522C474.725 449.417 474.636 449.341 474.517 449.292C474.401 449.243 474.258 449.218 474.087 449.218C473.842 449.218 473.658 449.286 473.536 449.423C473.414 449.559 473.331 449.736 473.29 449.952C473.248 450.166 473.227 450.395 473.227 450.639V450.833C473.227 451.085 473.274 451.304 473.368 451.489C473.463 451.671 473.599 451.811 473.777 451.909C473.959 452.006 474.176 452.055 474.428 452.055C474.658 452.055 474.889 452.015 475.12 451.935C475.354 451.854 475.552 451.713 475.712 451.51L476.562 452.596C476.387 452.84 476.104 453.066 475.712 453.272C475.324 453.478 474.854 453.582 474.302 453.582Z" fill="black"/>
<path d="M483.831 453.477H481.864V445.841H483.831V453.477ZM486.086 447.43H479.656V445.841H486.086V447.43Z" fill="black"/>
<path d="M486.117 450.592C486.117 450.036 486.222 449.542 486.432 449.108C486.642 448.671 486.951 448.327 487.36 448.075C487.769 447.823 488.273 447.697 488.871 447.697C489.475 447.697 489.982 447.823 490.392 448.075C490.804 448.327 491.114 448.671 491.32 449.108C491.53 449.542 491.634 450.036 491.634 450.592V450.692C491.634 451.244 491.53 451.739 491.32 452.176C491.114 452.613 490.806 452.957 490.397 453.209C489.988 453.457 489.482 453.582 488.881 453.582C488.28 453.582 487.773 453.457 487.36 453.209C486.951 452.957 486.642 452.613 486.432 452.176C486.222 451.739 486.117 451.244 486.117 450.692V450.592ZM488.011 450.692C488.011 450.951 488.033 451.185 488.079 451.395C488.128 451.601 488.215 451.763 488.341 451.882C488.467 452.001 488.647 452.061 488.881 452.061C489.112 452.061 489.29 452.001 489.416 451.882C489.542 451.763 489.628 451.601 489.673 451.395C489.722 451.185 489.746 450.951 489.746 450.692V450.592C489.746 450.341 489.722 450.111 489.673 449.905C489.628 449.695 489.542 449.529 489.416 449.407C489.29 449.281 489.108 449.218 488.871 449.218C488.64 449.218 488.462 449.281 488.336 449.407C488.213 449.529 488.128 449.695 488.079 449.905C488.033 450.111 488.011 450.341 488.011 450.592V450.692Z" fill="black"/>
<path d="M494.272 453.477H492.379V445.416H494.272V453.477ZM495.463 450.75L494.147 452.05L493.313 450.854L494.409 449.381L495.641 447.802H497.902L495.463 450.75ZM494.451 450.949L495.851 449.968L498.027 453.477H495.867L494.451 450.949Z" fill="black"/>
<path d="M501.122 453.582C500.492 453.582 499.956 453.454 499.512 453.199C499.071 452.943 498.735 452.608 498.505 452.192C498.274 451.772 498.158 451.319 498.158 450.833V450.639C498.158 450.098 498.26 449.605 498.463 449.161C498.665 448.713 498.971 448.358 499.38 448.096C499.789 447.83 500.303 447.697 500.922 447.697C501.471 447.697 501.94 447.811 502.328 448.038C502.716 448.262 503.013 448.584 503.219 449.003C503.429 449.419 503.534 449.917 503.534 450.498V451.29H498.866V450.078H501.688V449.926C501.691 449.762 501.663 449.627 501.604 449.522C501.545 449.417 501.455 449.341 501.337 449.292C501.221 449.243 501.078 449.218 500.907 449.218C500.662 449.218 500.478 449.286 500.356 449.423C500.234 449.559 500.151 449.736 500.109 449.952C500.067 450.166 500.046 450.395 500.046 450.639V450.833C500.046 451.085 500.094 451.304 500.188 451.489C500.282 451.671 500.419 451.811 500.597 451.909C500.779 452.006 500.996 452.055 501.247 452.055C501.478 452.055 501.709 452.015 501.94 451.935C502.174 451.854 502.371 451.713 502.532 451.51L503.382 452.596C503.207 452.84 502.924 453.066 502.532 453.272C502.144 453.478 501.674 453.582 501.122 453.582Z" fill="black"/>
<path d="M506.051 453.477H504.163V447.802H505.931L506.051 449.014V453.477ZM505.396 450.503C505.392 449.902 505.481 449.393 505.663 448.977C505.845 448.557 506.1 448.239 506.429 448.022C506.761 447.806 507.146 447.697 507.583 447.697C507.932 447.697 508.24 447.767 508.506 447.907C508.771 448.047 508.979 448.279 509.13 448.605C509.284 448.93 509.361 449.374 509.361 449.937V453.477H507.462V449.931C507.462 449.729 507.432 449.577 507.373 449.475C507.317 449.374 507.233 449.306 507.121 449.271C507.013 449.236 506.878 449.218 506.717 449.218C506.55 449.218 506.408 449.248 506.293 449.307C506.181 449.363 506.09 449.447 506.02 449.559C505.953 449.667 505.904 449.799 505.873 449.952C505.845 450.106 505.831 450.278 505.831 450.466L505.396 450.503Z" fill="black"/>
<path d="M192.904 141.413C193.343 141.077 193.426 140.449 193.09 140.011C192.754 139.572 192.126 139.49 191.688 139.826L192.904 141.413ZM87.239 220.274C87.1667 220.821 87.552 221.324 88.0995 221.396L97.022 222.574C97.5696 222.647 98.072 222.261 98.1444 221.714C98.2167 221.166 97.8314 220.664 97.2839 220.592L89.3528 219.544L90.4002 211.613C90.4725 211.065 90.0872 210.563 89.5397 210.491C88.9922 210.418 88.4897 210.804 88.4174 211.351L87.239 220.274ZM191.688 139.826L87.622 219.611L88.8389 221.198L192.904 141.413L191.688 139.826Z" fill="#FF7A00"/>
<path d="M250.295 180.293C250.295 179.741 249.847 179.293 249.295 179.293C248.742 179.293 248.295 179.741 248.295 180.293L250.295 180.293ZM248.587 312.131C248.978 312.522 249.611 312.522 250.002 312.131L256.366 305.767C256.756 305.377 256.756 304.744 256.366 304.353C255.975 303.962 255.342 303.962 254.951 304.353L249.295 310.01L243.638 304.353C243.247 303.962 242.614 303.962 242.223 304.353C241.833 304.744 241.833 305.377 242.223 305.767L248.587 312.131ZM248.295 180.293L248.295 311.424L250.295 311.424L250.295 180.293L248.295 180.293Z" fill="#FF7A00"/>
<path d="M412.605 284.598C412.692 284.053 412.322 283.54 411.776 283.452L402.891 282.022C402.345 281.934 401.832 282.305 401.745 282.85C401.657 283.395 402.028 283.909 402.573 283.996L410.471 285.268L409.2 293.166C409.112 293.711 409.483 294.225 410.028 294.312C410.573 294.4 411.087 294.029 411.174 293.484L412.605 284.598ZM304.75 360.438C304.302 360.761 304.202 361.386 304.525 361.834C304.849 362.281 305.474 362.382 305.921 362.059L304.75 360.438ZM411.032 283.629L304.75 360.438L305.921 362.059L412.203 285.25L411.032 283.629Z" fill="#FF7A00"/>
<path d="M304.349 142.264C304.261 141.719 304.632 141.206 305.177 141.118L314.062 139.688C314.608 139.6 315.121 139.971 315.209 140.516C315.296 141.061 314.926 141.575 314.38 141.662L306.482 142.934L307.753 150.832C307.841 151.377 307.47 151.891 306.925 151.978C306.38 152.066 305.867 151.695 305.779 151.15L304.349 142.264ZM412.605 218.755C412.693 219.3 412.322 219.814 411.776 219.901L402.891 221.332C402.346 221.42 401.832 221.049 401.745 220.503C401.657 219.958 402.028 219.445 402.573 219.357L410.471 218.086L409.2 210.187C409.112 209.642 409.483 209.129 410.028 209.041C410.573 208.953 411.087 209.324 411.174 209.87L412.605 218.755ZM305.922 141.295L412.203 218.104L411.032 219.725L304.75 142.916L305.922 141.295Z" fill="#FF7A00"/>
<path d="M194.391 361.091C194.479 361.636 194.108 362.15 193.563 362.237L184.677 363.668C184.132 363.755 183.619 363.385 183.531 362.839C183.443 362.294 183.814 361.781 184.36 361.693L192.258 360.422L190.986 352.523C190.899 351.978 191.269 351.465 191.815 351.377C192.36 351.289 192.873 351.66 192.961 352.205L194.391 361.091ZM86.5366 285.252C86.089 284.928 85.9884 284.303 86.3119 283.856C86.6354 283.408 87.2605 283.307 87.7081 283.631L86.5366 285.252ZM192.818 362.06L86.5366 285.252L87.7081 283.631L193.99 360.44L192.818 362.06Z" fill="#FF7A00"/>
<path d="M138.112 300.338C136.473 299.878 133.88 298.651 131.736 297.49C131.684 297.741 131.587 298.12 131.482 298.332C133.661 299.534 136.304 300.846 138.224 301.428L138.112 300.338ZM129.136 300.343L128.588 301.102L135.517 306.096L136.065 305.336L129.136 300.343ZM126.651 304.658L126.104 305.417L132.453 309.992L133 309.233L126.651 304.658ZM134.505 299.518L129.231 306.837L130.022 307.407L135.296 300.088L134.505 299.518ZM129.13 297.727L124.159 304.624L124.95 305.194L130.468 297.538L130.473 297.509L129.13 297.727ZM132.294 295.761C130.447 296.945 128.197 297.776 126.313 297.989C126.327 298.303 126.273 298.889 126.221 299.14C128.321 298.827 130.817 297.853 132.889 296.558L132.294 295.761Z" fill="black"/>
<path d="M139.968 302.077L139.474 302.762L143.071 305.354L143.565 304.668L139.968 302.077ZM140.155 310.4L139.661 311.085L144.239 314.384L144.733 313.698L140.155 310.4ZM137.557 305.178L137.048 305.885L141.013 308.743L141.522 308.036L137.557 305.178ZM139.197 306.793L135.747 311.581C135.663 311.697 135.598 311.698 135.474 311.625C135.348 311.534 134.926 311.23 134.48 310.893C134.434 311.18 134.303 311.583 134.18 311.798C134.834 312.269 135.253 312.555 135.6 312.629C135.984 312.697 136.21 312.54 136.506 312.128L139.957 307.34L139.197 306.793ZM144.458 313.501L144.367 313.627C142.879 315.359 142.157 315.96 141.783 316.012C141.62 316.038 141.518 315.98 141.349 315.859C141.18 315.737 140.766 315.423 140.343 315.054C140.307 315.348 140.153 315.718 140.022 315.944C140.473 316.318 140.938 316.652 141.195 316.806C141.495 316.99 141.731 317.063 142.057 317.01C142.591 316.914 143.359 316.25 144.988 314.411C145.093 314.31 145.27 314.086 145.27 314.086L144.458 313.501ZM142.88 310.777C141.386 312.472 139.827 313.768 137.048 313C137.118 313.258 137.124 313.695 137.082 313.953C140.134 314.743 141.935 313.333 143.671 311.347L142.88 310.777ZM139.068 304.104C139.676 305.151 140.273 306.59 140.45 307.456L141.396 307.256C141.197 306.375 140.549 304.962 139.929 303.955L139.068 304.104ZM141.311 307.884L141.213 308.021C140.497 308.659 139.557 309.407 138.864 309.79L139.226 310.467C140.024 310.049 141.07 309.264 141.93 308.538L141.566 308.019L141.428 307.967L141.311 307.884ZM147.182 308.654C145.435 309.878 143.282 309.753 141.013 308.854C141.049 309.137 141.056 309.639 141.03 309.876C143.471 310.69 145.813 310.776 147.896 309.376L147.182 308.654ZM145.959 305.593C144.808 306.301 143.346 306.706 142.064 306.728C142.189 306.978 142.346 307.427 142.384 307.663C143.682 307.574 145.255 307.104 146.564 306.333L145.959 305.593ZM144.576 307.112L143.762 306.862C143.436 309.094 144.166 311.416 145.724 313.323C145.982 313.188 146.434 313.05 146.717 313.013C145.136 311.249 144.324 309.062 144.576 307.112ZM139.14 306.672C137.918 307.634 136.174 308.476 134.898 308.646C134.898 308.934 134.852 309.398 134.777 309.68C136.192 309.451 138.13 308.363 139.534 307.26L139.14 306.672ZM144.921 306.544L144.108 306.983L148.464 310.122L148.95 309.447L144.921 306.544ZM143.375 304.532L143.268 304.679C142.51 304.998 141.217 305.236 140.223 305.192C140.312 305.401 140.433 305.745 140.479 305.97C141.557 306.009 142.957 305.801 143.974 305.412L143.693 304.713L143.544 304.653L143.375 304.532Z" fill="black"/>
<path d="M146.84 319.512L146.4 320.124L151.979 324.144L152.42 323.533L146.84 319.512ZM153.613 314.362L152.769 315.532L153.539 316.087L154.383 314.916L153.613 314.362ZM149.012 312.296L147.583 314.279L148.343 314.826L149.316 313.476L156.688 318.789L155.715 320.139L156.495 320.701L157.924 318.718L149.012 312.296ZM150.036 314.989L149.603 315.59L154.233 318.927L153.579 319.834L148.949 316.497L148.508 317.109L153.919 321.008L155.446 318.888L150.036 314.989ZM148.016 317.859L147.567 318.481L152.84 322.282L151.419 324.254L152.2 324.816L154.069 322.222L148.016 317.859ZM149.614 314.685L145.677 320.148L146.436 320.695L150.374 315.232L149.614 314.685ZM151.428 310.768L150.956 311.422L154.363 313.877L154.834 313.223L151.428 310.768ZM155.541 313.732L155.07 314.386L159.33 317.456L159.802 316.803L155.541 313.732ZM152.244 310.058C151.324 310.645 150.154 311.068 149.126 311.16C149.247 311.392 149.404 311.841 149.468 312.064C150.513 311.903 151.797 311.434 152.856 310.787L152.244 310.058ZM156.399 313.052C155.476 313.621 154.302 313.961 153.241 313.966C153.373 314.205 153.563 314.63 153.638 314.86C154.698 314.791 155.978 314.415 157.019 313.771L156.399 313.052ZM151.661 311.689C151.622 312.254 151.495 312.964 151.355 313.359L152.224 313.665C152.354 313.262 152.452 312.548 152.476 312.004L151.661 311.689ZM156.125 314.922C156.189 315.545 156.16 316.341 156.064 316.785L156.949 317.07C157.041 316.608 157.034 315.818 156.973 315.213L156.125 314.922Z" fill="black"/>
<path d="M163.562 323.102L167.486 325.93L166.505 327.29L162.582 324.463L163.562 323.102ZM164.999 321.109L168.922 323.936L167.957 325.276L164.033 322.448L164.999 321.109ZM164.776 319.906L161.37 324.631L166.77 328.523L170.175 323.798L164.776 319.906ZM160.344 325.766L159.82 326.494L165.504 330.591L166.029 329.863L160.344 325.766ZM157.959 327.364L157.442 328.082L164.287 333.014L164.803 332.297L157.959 327.364ZM160.798 317.377L160.258 318.125L163.549 320.497L164.089 319.748L160.798 317.377ZM158.718 320.508L158.178 321.257L161.205 323.438L161.744 322.689L158.718 320.508ZM155.585 324.388L155.19 325.337C156.356 325.697 157.847 326.162 159.278 326.601L159.688 325.743C158.169 325.272 156.606 324.771 155.585 324.388ZM161.904 318.622L157.085 325.308L157.951 325.708L162.663 319.169L161.904 318.622ZM166.871 321.913L163.944 325.974L163.892 325.936L160.95 330.017L161.752 330.595L164.693 326.513L164.641 326.475L167.567 322.415L166.871 321.913Z" fill="black"/>
<path d="M337.039 146.606L336.588 147.227L339.629 149.433L340.08 148.813L337.039 146.606ZM335.741 148.395L335.306 148.995L338.346 151.201L338.782 150.601L335.741 148.395ZM334.412 150.226L333.962 150.847L337.003 153.053L337.453 152.432L334.412 150.226ZM339.841 152.173L339.345 152.857L343.354 155.766L343.85 155.082L339.841 152.173ZM338.838 145.278L338.388 145.898L340.134 147.166L340.585 146.545L338.838 145.278ZM342.398 147.234L341.909 147.908L346.023 150.893L346.512 150.219L342.398 147.234ZM337.614 153.561L337.102 154.266L342.09 157.885L342.601 157.18L337.614 153.561ZM342.048 152.12L337.887 157.855L338.645 158.405L342.806 152.67L342.048 152.12ZM338.122 147.858L335.526 151.435L336.094 151.848L338.69 148.27L338.122 147.858ZM346.259 150.036L346.183 150.141C344.91 151.74 344.383 152.289 344.132 152.348C344.008 152.386 343.898 152.338 343.758 152.221C343.611 152.114 343.232 151.839 342.842 151.492C342.807 151.739 342.682 152.066 342.54 152.284C342.966 152.626 343.408 152.947 343.634 153.078C343.923 153.256 344.126 153.307 344.404 153.235C344.8 153.154 345.402 152.546 346.75 150.842C346.829 150.755 346.975 150.555 346.975 150.555L346.259 150.036ZM340.601 151.215C339.773 151.98 338.806 152.627 337.926 152.888C338.033 153.094 338.234 153.481 338.302 153.675C339.202 153.364 340.265 152.674 341.186 151.848L340.601 151.215ZM339.504 144.315C338.249 145.381 336.752 146.205 335.417 146.473C335.509 146.701 335.638 147.164 335.673 147.382C337.069 147.03 338.696 146.138 340.116 145L339.504 144.315ZM336.734 146.385L334.703 149.184C333.84 150.373 332.629 151.887 331.104 152.483C331.208 152.671 331.373 153.064 331.413 153.253C333.007 152.627 334.424 150.941 335.355 149.657L337.386 146.858L336.734 146.385ZM339.869 148.66L335.41 154.805C335.311 154.942 335.217 154.938 335.073 154.849C334.918 154.753 334.445 154.409 333.923 153.999C333.881 154.257 333.775 154.646 333.677 154.848C334.403 155.375 334.842 155.677 335.189 155.752C335.546 155.835 335.791 155.675 336.073 155.286L340.532 149.141L339.869 148.66ZM343.731 148.539C342.721 149.621 341.587 150.388 339.895 149.996C339.969 150.226 339.975 150.616 339.948 150.853C341.902 151.259 343.225 150.388 344.457 149.066L343.731 148.539ZM340.395 146.408L340.304 146.534C339.764 146.945 338.92 147.489 338.313 147.772C338.415 147.942 338.547 148.247 338.597 148.443C339.271 148.178 340.236 147.689 340.93 147.197L340.689 146.556L340.553 146.522L340.395 146.408Z" fill="black"/>
<path d="M350.628 154.973L350.085 155.72L354.726 159.087L352.733 161.833L353.511 162.398L356.046 158.905L350.628 154.973ZM347.771 157.67L347.221 158.428L354.102 163.421L354.652 162.663L347.771 157.67ZM353.914 154.804L351.311 158.392C349.799 160.475 348.023 162.303 344.149 161.643C344.257 161.915 344.353 162.402 344.375 162.659C348.453 163.305 350.435 161.258 352.092 158.975L354.703 155.376L353.914 154.804ZM351.341 160.807L350.485 160.459C349.521 162.939 349.473 165.218 350.639 167.22C350.915 167.083 351.389 166.961 351.682 166.933C350.502 165.129 350.486 162.981 351.341 160.807ZM348.514 151.865C348.958 152.669 349.402 153.762 349.527 154.431L350.445 154.118C350.312 153.459 349.825 152.383 349.368 151.617L348.514 151.865ZM345.879 154.322C346.357 155.103 346.845 156.179 346.996 156.835L347.921 156.511C347.753 155.858 347.229 154.787 346.738 154.046L345.879 154.322ZM342.181 160.039L342.498 161.04C343.784 160.463 345.409 159.619 346.724 158.87L346.464 157.943C345.047 158.746 343.295 159.61 342.181 160.039Z" fill="black"/>
<path d="M357.796 160.367L357.246 161.125L366.663 167.958L367.213 167.2L357.796 160.367ZM359.427 165.357L358.877 166.115L363.086 169.169L363.636 168.411L359.427 165.357ZM363.352 168.205L363.242 168.334C360.971 171.087 359.906 172.113 359.348 172.174C359.155 172.195 359 172.099 358.769 171.931C358.495 171.732 357.748 171.19 357.044 170.567C357.031 170.895 356.91 171.305 356.753 171.544C357.445 172.095 358.125 172.62 358.508 172.866C358.931 173.125 359.247 173.242 359.673 173.165C360.388 173.042 361.446 172.027 363.856 169.149C363.961 169.048 364.162 168.793 364.162 168.793L363.352 168.205ZM360.752 163.155C358.812 165.585 356.503 168.391 352.423 167.551C352.508 167.854 352.554 168.321 352.525 168.605C356.849 169.397 359.445 166.462 361.626 163.788L360.752 163.155ZM363.393 161.618L361.821 163.785L362.631 164.373L364.204 162.206L363.393 161.618Z" fill="black"/>
<path d="M373.934 169.315L373.056 170.525L373.846 171.097L374.724 169.887L373.934 169.315ZM369.897 174.834L366.897 178.969L367.697 179.549L370.697 175.414L369.897 174.834ZM369.361 167.185L368.254 168.71L368.99 169.245L369.608 168.392L376.995 173.752L376.376 174.604L377.134 175.154L378.241 173.628L369.361 167.185ZM367.944 168.871L367.471 169.524L376.593 176.143L377.066 175.491L367.944 168.871ZM364.981 172.6L364.485 173.284L373.923 180.132L374.419 179.448L364.981 172.6ZM372.242 170.496C370.962 170.932 369.191 171.447 367.994 171.702L368.555 172.479C369.728 172.19 371.465 171.699 372.829 171.259L372.242 170.496ZM368.658 172.071C370.43 173.968 372.592 176.677 373.566 178.235L374.459 177.999C373.388 176.355 371.201 173.724 369.469 171.905L368.658 172.071ZM368.72 175.859C367.178 176.169 364.82 175.744 362.98 174.938C363.041 175.208 363.041 175.673 363.019 175.946C364.931 176.675 367.362 176.978 369.118 176.55L368.72 175.859ZM370.135 176.853L369.358 176.707C369.501 178.546 370.584 180.794 371.871 182.385C372.131 182.27 372.566 182.135 372.867 182.097C371.509 180.581 370.334 178.46 370.135 176.853ZM374.043 173.859C372.412 174.844 370.525 174.567 366.228 171.834C366.218 172.068 366.131 172.454 366.022 172.649C370.558 175.474 372.807 175.805 374.884 174.469L374.043 173.859Z" fill="black"/>
<path d="M379.012 175.665L378.5 176.37L382.246 179.088L382.757 178.383L379.012 175.665ZM377.027 177.936L376.5 178.662L380.677 181.693L381.204 180.967L377.027 177.936ZM381.718 175.123L379.076 178.764C377.893 180.395 376.139 182.656 373.482 182.688C373.554 182.965 373.616 183.411 373.599 183.656C376.535 183.505 378.49 181.165 379.841 179.303L382.475 175.673L381.718 175.123ZM378.426 180.878L377.667 180.905C377.759 181.663 377.88 183.71 377.851 184.525L378.816 184.325C378.776 183.782 378.547 181.464 378.426 180.878ZM383.323 180.416L386.332 182.599L385.576 183.641L382.567 181.457L383.323 180.416ZM382.093 182.11L385.103 184.293L384.339 185.345L381.33 183.162L382.093 182.11ZM384.552 178.722L387.561 180.905L386.813 181.936L383.804 179.753L384.552 178.722ZM384.316 177.475L380.064 183.335L384.578 186.611L388.83 180.75L384.316 177.475ZM382.818 184.852L380.963 187.409C380.421 188.156 380.421 188.509 381.136 189.029C381.284 189.136 381.852 189.548 381.999 189.655C382.631 190.113 383.08 189.892 384.189 188.497C384.027 188.299 383.795 187.954 383.747 187.711C382.815 188.929 382.658 189.057 382.437 188.896C382.311 188.805 381.858 188.476 381.764 188.408C381.532 188.24 381.534 188.193 381.717 187.94L383.565 185.394L382.818 184.852ZM381.049 183.793C379.894 185.075 378.735 185.808 376.654 185.134C376.713 185.385 376.717 185.822 376.679 186.051C379.012 186.732 380.395 185.889 381.806 184.343L381.049 183.793Z" fill="black"/>
<path d="M396.114 187.336L391.884 193.165L392.62 193.7L396.85 187.87L396.114 187.336ZM398.892 187.713L392.73 196.205C392.608 196.373 392.507 196.38 392.331 196.268C392.155 196.156 391.608 195.759 391.013 195.295C390.958 195.593 390.811 196.016 390.697 196.239C391.542 196.868 392.059 197.195 392.456 197.291C392.842 197.378 393.129 197.249 393.488 196.754L399.649 188.263L398.892 187.713ZM389.33 183.072L388.933 183.619L395.004 188.024L395.401 187.477L389.33 183.072ZM388.386 185.568L388.02 186.073L393.018 189.699L393.384 189.194L388.386 185.568ZM387.163 186.19L386.759 186.748L392.704 191.061L393.108 190.504L387.163 186.19ZM388.96 189.293L387.502 191.302L388.175 191.791L389.633 189.781L388.96 189.293ZM393.189 183.287L389.479 188.4L390.194 188.919L393.905 183.806L393.189 183.287ZM384.181 190.145L383.778 190.833C385.329 191.862 387.725 193.408 389.987 194.872L390.458 194.267C388.115 192.759 385.692 191.162 384.181 190.145ZM390.744 182.54L390.377 183.045L394.439 185.992L393.255 187.623L389.162 184.653L388.796 185.158L393.583 188.632L395.5 185.991L390.744 182.54ZM386.703 189.502L390.113 191.976L389.738 192.492L386.329 190.018L386.703 189.502ZM387.383 188.566L390.792 191.04L390.426 191.545L387.016 189.071L387.383 188.566ZM387.062 187.658L385.367 189.994L390.091 193.422L391.786 191.086L387.062 187.658Z" fill="black"/>
<path d="M330.697 327.314L331.213 328.031L336.955 323.903L336.439 323.185L330.697 327.314ZM330.289 330.553L330.828 331.303L340.19 324.571L339.651 323.822L330.289 330.553ZM333.437 329.075C334.494 330.924 334.913 332.464 332.963 334.763C333.246 334.8 333.685 334.965 333.913 335.105C335.973 332.535 335.539 330.685 334.281 328.468L333.437 329.075ZM336.061 327.091L338.202 330.068C338.809 330.912 339.237 330.973 340.208 330.275C340.419 330.123 341.632 329.25 341.844 329.098C342.688 328.491 342.655 327.955 341.699 326.448C341.443 326.537 341.014 326.653 340.754 326.647C341.595 327.884 341.658 328.127 341.257 328.416C340.982 328.613 339.979 329.334 339.768 329.486C339.325 329.804 339.213 329.805 338.986 329.488L336.853 326.522L336.061 327.091ZM330.935 322.5L332.141 324.178L332.975 323.578L331.768 321.9L330.935 322.5ZM327.746 326.505L329.355 328.743L330.157 328.166L329.087 326.678L336.328 321.472L337.398 322.96L338.232 322.36L336.623 320.123L327.746 326.505Z" fill="black"/>
<path d="M341.288 321.044L341.819 321.783L344.447 319.893L343.916 319.154L341.288 321.044ZM343.599 319.382L343.698 319.519C345.306 321.822 345.822 322.651 345.8 322.955C345.795 323.103 345.697 323.189 345.549 323.296C345.37 323.425 344.905 323.759 344.4 324.058C344.66 324.175 344.965 324.42 345.153 324.637C345.685 324.287 346.168 323.956 346.419 323.727C346.692 323.483 346.808 323.287 346.84 322.976C346.849 322.521 346.275 321.589 344.613 319.165C344.537 319.06 344.37 318.828 344.37 318.828L343.599 319.382ZM344.117 313.822C345.032 313.692 346.232 313.646 346.899 313.727L347.008 312.832C346.331 312.759 345.133 312.851 344.235 312.984L344.117 313.822ZM347.683 315.597C348.72 318.71 348.621 321.711 347.298 324.392C347.581 324.429 348.111 324.544 348.341 324.618C349.587 321.785 349.695 318.618 348.611 315.218L347.683 315.597ZM339.796 318.834L340.357 319.615L348.527 313.741L347.965 312.96L339.796 318.834ZM339.289 319.199L341.421 322.165C342.416 323.547 343.626 325.431 343.683 327.359C343.942 327.318 344.477 327.349 344.728 327.409C344.694 325.336 343.33 323.082 342.252 321.583L340.112 318.607L339.289 319.199ZM342.394 314.276C346.072 319.301 350.3 323.178 352.453 321.63C353.255 321.053 353.179 320.323 352.029 318.412C351.765 318.49 351.34 318.523 351.032 318.473C351.978 319.922 352.235 320.57 351.94 320.782C350.568 321.769 346.687 318.554 343.217 313.684L342.394 314.276Z" fill="black"/>
<path d="M356.501 304.501C355.544 305.91 353.558 307.979 351.776 309.643C351.998 309.773 352.326 309.985 352.494 310.152C354.325 308.467 356.409 306.377 357.57 304.741L356.501 304.501ZM353.656 313.015L354.203 313.775L361.137 308.789L360.591 308.029L353.656 313.015ZM356.96 316.741L357.506 317.501L363.86 312.932L363.314 312.172L356.96 316.741ZM354.578 307.661L359.845 314.986L360.637 314.417L355.37 307.092L354.578 307.661ZM351.174 312.19L356.137 319.093L356.929 318.524L351.419 310.861L351.393 310.848L351.174 312.19ZM350.313 308.566C350.85 310.694 350.924 313.09 350.528 314.944C350.831 315.031 351.369 315.268 351.59 315.397C351.96 313.306 351.829 310.63 351.258 308.255L350.313 308.566Z" fill="black"/>
<path d="M358.739 303.293L359.232 303.979L362.831 301.391L362.338 300.705L358.739 303.293ZM366.691 305.757L367.184 306.443L371.765 303.149L371.272 302.463L366.691 305.757ZM360.914 306.564L361.423 307.271L365.391 304.417L364.883 303.71L360.914 306.564ZM362.966 305.521L366.412 310.313C366.495 310.429 366.476 310.491 366.367 310.585C366.241 310.676 365.818 310.979 365.357 311.295C365.614 311.43 365.955 311.682 366.12 311.867C366.775 311.396 367.179 311.09 367.359 310.784C367.546 310.442 367.468 310.178 367.172 309.766L363.726 304.974L362.966 305.521ZM370.997 302.66L371.088 302.787C372.258 304.748 372.599 305.623 372.529 305.994C372.503 306.157 372.415 306.236 372.246 306.358C372.077 306.479 371.648 306.772 371.163 307.056C371.431 307.184 371.733 307.447 371.906 307.643C372.404 307.333 372.868 306.999 373.096 306.804C373.365 306.578 373.51 306.378 373.563 306.051C373.642 305.514 373.255 304.576 372.029 302.447C371.966 302.316 371.81 302.076 371.81 302.076L370.997 302.66ZM367.913 303.293C369.047 305.248 369.781 307.137 368.17 309.529C368.437 309.545 368.853 309.678 369.085 309.799C370.803 307.155 370.037 305 368.705 302.724L367.913 303.293ZM360.375 304.79C361.561 304.546 363.116 304.437 363.992 304.543L364.103 303.583C363.205 303.492 361.659 303.658 360.507 303.926L360.375 304.79ZM364.672 303.862L364.771 303.999C365.148 304.881 365.56 306.01 365.703 306.788L366.459 306.66C366.316 305.77 365.904 304.529 365.488 303.483L364.881 303.663L364.788 303.779L364.672 303.862ZM367.265 298.539C367.871 300.585 367.069 302.587 365.497 304.453C365.777 304.508 366.255 304.661 366.472 304.762C368.019 302.705 368.843 300.511 368.176 298.092L367.265 298.539ZM363.974 298.728C364.281 300.044 364.201 301.559 363.815 302.781C364.091 302.742 364.567 302.736 364.803 302.775C365.13 301.515 365.184 299.875 364.868 298.389L363.974 298.728ZM364.976 300.521L364.481 301.213C366.494 302.232 368.927 302.276 371.23 301.404C371.184 301.117 371.196 300.644 371.251 300.364C369.077 301.303 366.745 301.379 364.976 300.521ZM362.833 305.536C363.358 307 363.603 308.922 363.359 310.186C363.633 310.277 364.058 310.468 364.302 310.629C364.533 309.214 364.117 307.031 363.516 305.35L362.833 305.536ZM364.546 300.013L364.705 300.924L369.064 297.79L368.578 297.114L364.546 300.013ZM362.148 300.841L362.254 300.989C362.315 301.81 362.131 303.111 361.774 304.04C362.001 304.021 362.365 304.016 362.593 304.044C362.972 303.035 363.219 301.641 363.173 300.553L362.421 300.597L362.317 300.72L362.148 300.841Z" fill="black"/>
<path d="M334.627 347.693C337.379 348.069 338.83 349.619 340.219 351.551C341.205 352.923 342.108 354.356 342.087 354.883C342.089 355.042 342.024 355.152 341.891 355.28C341.695 355.453 341.326 355.718 340.86 356.005C341.157 356.128 341.443 356.371 341.628 356.606C342.034 356.346 342.435 356.058 342.716 355.759C342.939 355.535 343.057 355.275 343.065 354.997C343.067 354.131 342.094 352.556 340.986 351.015C339.522 348.978 337.921 347.263 334.891 346.88L334.627 347.693ZM338.917 349.717C339.182 350.999 339.095 352.727 338.719 353.83C339.005 353.849 339.416 353.953 339.669 354.06C339.983 352.825 340.012 350.995 339.74 349.638L338.917 349.717ZM336.705 345.527C336.93 346.999 336.8 348.933 336.342 350.479C336.602 350.485 337.015 350.524 337.237 350.588C337.67 348.964 337.837 347.035 337.641 345.382L336.705 345.527ZM337.875 345.775L338.33 346.408L344.853 341.718L344.398 341.085L337.875 345.775ZM342.101 350.182L342.48 350.71L348.285 346.536L347.906 346.008L342.101 350.182ZM342.428 351.483L342.861 352.085L347.959 348.42L347.526 347.818L342.428 351.483ZM340.88 347.905L341.206 348.359L346.114 344.83L345.788 344.376L340.88 347.905ZM341.624 348.94L341.942 349.383L346.85 345.854L346.532 345.411L341.624 348.94ZM338.91 343.829L340.367 345.856L341.085 345.34L339.628 343.313L338.91 343.829ZM342.391 345.554L344.683 348.741L345.391 348.233L343.099 345.045L342.391 345.554ZM341.359 342.069L342.816 344.095L343.544 343.572L342.087 341.545L341.359 342.069ZM339.677 345.808C339.94 346.932 339.938 348.198 339.683 349.246C339.925 349.249 340.349 349.327 340.546 349.378C340.766 348.259 340.744 346.802 340.46 345.517L339.677 345.808ZM340.219 347.564L342.343 350.52L343.04 350.019L340.612 346.641L340.219 347.564ZM340.222 346.745L340.335 347.481L345.718 343.61L345.331 343.072L340.222 346.745ZM341.954 344.299C342.056 344.642 342.159 345.208 342.224 345.61L342.942 345.318C342.94 344.935 342.882 344.432 342.82 343.9L341.954 344.299ZM347.326 347.962L347.409 348.078C347.514 350.117 345.739 352.369 343.515 354.353C343.755 354.42 344.136 354.594 344.339 354.721C346.566 352.607 348.402 350.15 348.254 347.695L347.616 347.721L347.494 347.841L347.326 347.962ZM344.243 350.979L343.774 351.685C345.702 352.251 348.163 351.555 350.57 350.225C350.528 349.967 350.506 349.534 350.558 349.273C348.26 350.62 345.901 351.436 344.243 350.979Z" fill="black"/>
<path d="M350.752 337.541L351.306 338.311L355.201 335.511L354.647 334.74L350.752 337.541ZM345.286 340.27L345.817 341.009L350.978 337.298L350.447 336.559L345.286 340.27ZM348.061 341.525L348.585 342.253L351.329 340.28L350.805 339.552L348.061 341.525ZM349.64 343.72L350.156 344.438L352.9 342.465L352.384 341.747L349.64 343.72ZM354.415 334.907L354.551 335.097C356.761 339.128 356.972 342.739 355.664 345.329C355.949 345.348 356.384 345.484 356.654 345.594C357.972 342.661 357.804 339.019 355.29 334.454L354.685 334.681L354.552 334.808L354.415 334.907ZM352.297 337.663L351.643 338.357C354.681 341.201 357.746 342.903 360.97 342.555C360.945 342.252 360.986 341.775 361.051 341.487C358.073 341.932 355.05 340.311 352.297 337.663ZM346.314 339.963L351.239 346.813L351.999 346.267L347.074 339.417L346.314 339.963ZM349.142 337.929L355.426 346.669L356.186 346.122L349.902 337.383L349.142 337.929ZM350.038 347.325L350.755 348.01C351.731 347.052 353.076 345.717 354.355 344.445L353.789 343.747C352.415 345.087 350.981 346.455 350.038 347.325Z" fill="black"/>
<path d="M367.679 333.1C368.017 333.57 368.123 334.086 367.994 334.648C367.87 335.206 367.513 335.757 366.924 336.301L367.769 337.476L367.093 337.961L366.282 336.833C365.885 337.107 365.486 337.345 365.083 337.546C364.681 337.741 364.325 337.87 364.015 337.931L363.392 337.065C363.736 337 364.126 336.879 364.561 336.702C364.998 336.518 365.388 336.308 365.733 336.07L364.147 333.864C363.283 334.147 362.597 334.244 362.09 334.155C361.58 334.063 361.156 333.781 360.818 333.311C360.492 332.857 360.397 332.36 360.534 331.818C360.671 331.277 361.013 330.759 361.561 330.267L360.894 329.339L361.569 328.854L362.229 329.771C362.894 329.319 363.608 329.004 364.371 328.825L364.605 329.759C363.921 329.933 363.309 330.186 362.766 330.518L364.33 332.693C365.013 332.484 365.548 332.365 365.934 332.337C366.324 332.307 366.66 332.352 366.94 332.474C367.218 332.592 367.464 332.801 367.679 333.1ZM366.789 333.841C366.611 333.594 366.39 333.456 366.124 333.428C365.857 333.396 365.476 333.454 364.982 333.6L366.372 335.533C367.011 334.907 367.15 334.343 366.789 333.841ZM361.754 332.622C361.934 332.873 362.153 333.023 362.412 333.071C362.671 333.12 363.03 333.078 363.488 332.947L362.106 331.024C361.822 331.312 361.652 331.593 361.595 331.869C361.538 332.144 361.59 332.396 361.754 332.622Z" fill="black"/>
<path d="M369.181 329.588L370.309 328.777C370.921 328.337 371.281 327.896 371.39 327.453C371.499 327.01 371.383 326.551 371.042 326.077C370.701 325.603 370.31 325.36 369.869 325.349C369.426 325.334 368.885 325.556 368.246 326.016L367.168 326.79L369.181 329.588ZM369.759 330.392L371.997 333.505L371.049 334.187L365.631 326.652L367.708 325.159C368.643 324.487 369.462 324.169 370.165 324.205C370.87 324.236 371.479 324.608 371.993 325.323C372.712 326.323 372.692 327.358 371.935 328.429L376.429 330.318L375.321 331.115L371.258 329.314L369.759 330.392Z" fill="black"/>
<path d="M379.733 327.943L377.012 329.9L376.619 329.353L377.361 328.515L373.025 322.485L371.987 322.911L371.594 322.365L374.315 320.408L374.708 320.955L373.973 321.803L378.309 327.833L379.34 327.397L379.733 327.943Z" fill="black"/>
<path d="M379.522 317.767C378.711 318.35 378.269 319.079 378.196 319.956C378.122 320.832 378.424 321.741 379.101 322.682C379.8 323.655 380.565 324.244 381.395 324.449C382.223 324.651 383.053 324.453 383.885 323.855C384.421 323.47 384.952 322.937 385.479 322.256L386.072 323.081C385.836 323.427 385.585 323.727 385.32 323.981C385.056 324.238 384.732 324.505 384.347 324.782C383.237 325.58 382.14 325.858 381.054 325.617C379.97 325.37 378.983 324.628 378.094 323.391C377.535 322.615 377.189 321.832 377.054 321.043C376.923 320.251 377.016 319.501 377.335 318.792C377.658 318.08 378.19 317.458 378.932 316.924C379.729 316.351 380.53 316 381.333 315.87L381.53 316.949C380.731 317.106 380.062 317.379 379.522 317.767Z" fill="black"/>
<path d="M392.071 319.072L387.86 322.099L382.443 314.565L386.653 311.537L387.253 312.372L383.991 314.718L385.681 317.068L388.753 314.859L389.345 315.684L386.274 317.892L388.208 320.583L391.47 318.237L392.071 319.072Z" fill="black"/>
<path d="M113.307 180.266L113.848 180.982L122.819 174.201L122.278 173.485L113.307 180.266ZM116.615 176.234L117.665 177.624L118.464 177.02L117.413 175.631L116.615 176.234ZM115.125 181.744L120.213 188.475L120.949 187.918L116.387 181.882L123.48 176.52L122.955 175.826L115.125 181.744ZM122.54 176.139L126.914 181.926C127.032 182.081 127.019 182.172 126.832 182.314C126.654 182.465 126.039 182.946 125.342 183.424C125.602 183.553 125.993 183.812 126.181 183.996C127.042 183.345 127.596 182.893 127.852 182.52C128.09 182.145 128.006 181.818 127.661 181.361L123.287 175.575L122.54 176.139ZM118.123 180.277C118.863 181.428 118.923 182.198 117.734 183.536C117.963 183.559 118.343 183.695 118.541 183.806C119.848 182.215 119.751 181.181 118.828 179.744L118.123 180.277ZM120.051 178.819L120.976 180.042C121.462 180.685 121.754 180.726 122.5 180.161C122.646 180.052 123.423 179.464 123.579 179.346C124.129 178.931 124.159 178.582 123.586 177.695C123.368 177.795 123.017 177.913 122.804 177.911C123.243 178.557 123.249 178.651 123.031 178.815C122.865 178.941 122.253 179.403 122.118 179.505C121.859 179.701 121.802 179.712 121.653 179.515L120.736 178.301L120.051 178.819ZM119.558 183.233L121.965 186.417L122.66 185.891L120.253 182.708L119.558 183.233ZM119.973 182.919L120.436 183.531L123.257 181.399L124.26 182.726L121.439 184.859L121.902 185.47L125.428 182.805L123.499 180.254L119.973 182.919ZM115.839 179.477C116.373 179.709 117.009 180.076 117.369 180.358L118.016 179.575C117.653 179.311 117.015 178.963 116.479 178.749L115.839 179.477ZM119.877 176.131C120.022 176.624 120.192 177.409 120.248 177.937L121.123 177.52C121.082 177.013 120.973 176.33 120.845 175.644L119.877 176.131Z" fill="black"/>
<path d="M123.211 172.047L123.72 172.721L127.257 170.048L126.747 169.374L123.211 172.047ZM131.22 174.32L131.729 174.994L136.23 171.592L135.72 170.918L131.22 174.32ZM125.464 175.265L125.989 175.96L129.889 173.012L129.364 172.317L125.464 175.265ZM127.491 174.173L131.05 178.881C131.136 178.995 131.118 179.058 131.012 179.154C130.887 179.248 130.472 179.562 130.019 179.889C130.279 180.018 130.626 180.261 130.796 180.442C131.439 179.956 131.835 179.64 132.008 179.33C132.186 178.983 132.102 178.721 131.796 178.317L128.237 173.609L127.491 174.173ZM135.451 171.122L135.545 171.246C136.761 173.179 137.123 174.046 137.062 174.418C137.04 174.582 136.954 174.662 136.788 174.788C136.622 174.913 136.2 175.216 135.722 175.512C135.993 175.633 136.301 175.89 136.478 176.081C136.969 175.76 137.425 175.415 137.648 175.214C137.912 174.981 138.052 174.778 138.097 174.45C138.163 173.912 137.754 172.982 136.477 170.884C136.411 170.754 136.249 170.518 136.249 170.518L135.451 171.122ZM132.383 171.827C133.563 173.755 134.342 175.627 132.789 178.056C133.056 178.065 133.476 178.188 133.71 178.304C135.364 175.62 134.547 173.483 133.161 171.24L132.383 171.827ZM124.883 173.504C126.062 173.232 127.614 173.086 128.493 173.171L128.58 172.208C127.681 172.139 126.14 172.342 124.994 172.638L124.883 173.504ZM129.156 172.474L129.258 172.609C129.657 173.481 130.095 174.6 130.256 175.374L131.01 175.228C130.845 174.342 130.404 173.112 129.963 172.076L129.361 172.271L129.27 172.388L129.156 172.474ZM131.621 167.091C132.276 169.121 131.522 171.142 129.995 173.046C130.276 173.094 130.758 173.235 130.977 173.33C132.474 171.237 133.246 169.024 132.522 166.622L131.621 167.091ZM128.336 167.358C128.674 168.667 128.63 170.183 128.273 171.414C128.549 171.369 129.024 171.351 129.261 171.384C129.558 170.117 129.573 168.476 129.221 166.998L128.336 167.358ZM129.38 169.127L128.902 169.831C130.939 170.801 133.372 170.786 135.654 169.86C135.601 169.574 135.602 169.101 135.65 168.82C133.498 169.811 131.169 169.942 129.38 169.127ZM127.358 174.192C127.917 175.643 128.208 177.558 127.994 178.828C128.27 178.912 128.7 179.093 128.948 179.248C129.145 177.828 128.677 175.656 128.036 173.989L127.358 174.192ZM128.939 168.629L129.119 169.536L133.402 166.299L132.9 165.635L128.939 168.629ZM126.56 169.515L126.67 169.66C126.751 170.479 126.598 171.784 126.263 172.722C126.489 172.697 126.853 172.683 127.082 172.706C127.437 171.688 127.65 170.288 127.579 169.201L126.827 169.264L126.726 169.389L126.56 169.515Z" fill="black"/>
<path d="M137.734 165.583L138.259 166.278L143.496 162.319L142.971 161.624L137.734 165.583ZM141.357 170.764L141.882 171.459L147.441 167.257L146.915 166.562L141.357 170.764ZM138.707 167.992L141.851 172.151L142.608 171.578L139.997 168.125L144.799 164.495L147.409 167.949L148.197 167.353L145.054 163.194L138.707 167.992ZM138.356 161.038C140.334 161.629 143.265 161.711 145.536 161.331C145.498 161.001 145.481 160.59 145.537 160.255C143.321 160.772 140.416 160.703 138.128 160.004L137.34 160.6C137.532 162.557 137 165.453 135.872 167.756C136.174 167.788 136.593 167.912 136.83 168.009C137.874 165.704 138.462 162.946 138.356 161.038Z" fill="black"/>
<path d="M149.336 154.221L149.538 155.242L154.816 151.252L154.252 150.505L149.336 154.221ZM152.333 155.492L152.874 156.207L156.255 153.652L155.714 152.936L152.333 155.492ZM154.048 157.781L154.604 158.517L158.141 155.844L157.584 155.108L154.048 157.781ZM150.419 153.778L156.133 161.338L156.932 160.734L151.217 153.174L150.419 153.778ZM148.507 152.305C149.151 154.214 149.456 156.363 149.241 158.041C149.512 158.032 150.034 158.077 150.25 158.125C150.397 156.336 150.069 154.026 149.413 151.93L148.507 152.305ZM145.956 154.104C146.556 156.127 146.767 158.412 146.491 160.201C146.777 160.278 147.329 160.513 147.543 160.645C147.795 158.629 147.523 156.048 146.883 153.778L145.956 154.104ZM146.868 157.618L152.019 164.432L152.807 163.836L147.077 156.255L147.048 156.26L146.868 157.618Z" fill="black"/>
<path d="M260.255 240.047H259.917L259.345 240.645V249.394H260.255V240.931H265.481V240.047H260.255ZM259.839 242.608V243.479H265.091V242.608H259.839ZM259.839 245.195V246.066H265.143V245.195H259.839ZM259.683 247.86V248.731H265.728V247.86H259.683ZM262.192 240.541V248.172H263.076V240.541H262.192ZM260.372 237.408C259.904 238.929 258.955 240.84 257.863 242.049C258.045 242.218 258.331 242.543 258.487 242.738C259.67 241.399 260.684 239.397 261.308 237.668L260.372 237.408ZM263.206 237.629C262.959 238.448 262.465 239.618 262.062 240.346L262.868 240.593C263.297 239.891 263.804 238.812 264.233 237.876L263.206 237.629ZM255.757 237.434C255.419 238.292 254.808 239.566 254.34 240.32L255.003 240.606C255.51 239.891 256.121 238.721 256.615 237.759L255.757 237.434ZM257.213 238.916C256.498 240.281 255.276 242.218 254.301 243.375L254.899 243.713C255.874 242.582 257.135 240.736 258.032 239.293L257.213 238.916ZM253.677 240.138C254.366 240.801 255.146 241.724 255.471 242.348L256.03 241.62C255.692 241.022 254.899 240.151 254.197 239.514L253.677 240.138ZM256.706 241.893C257.226 242.751 257.733 243.908 257.902 244.636L258.669 244.285C258.487 243.57 257.954 242.452 257.408 241.594L256.706 241.893ZM253.573 243.18L253.677 244.051C254.86 243.973 256.42 243.882 257.967 243.778V242.959C256.329 243.05 254.704 243.128 253.573 243.18ZM257.096 245.039C257.421 245.832 257.707 246.872 257.785 247.561L258.552 247.314C258.474 246.638 258.175 245.611 257.824 244.818L257.096 245.039ZM254.353 244.857C254.21 245.988 253.963 247.158 253.547 247.951C253.742 248.042 254.132 248.211 254.288 248.315C254.704 247.483 255.003 246.235 255.172 245L254.353 244.857ZM255.731 243.557V249.381H256.589V243.557H255.731Z" fill="black"/>
<path d="M258.305 260.494V261.248H264.376V260.494H258.305ZM264.116 260.494V260.637C263.102 262.431 260.372 263.341 257.668 263.653C257.824 263.848 258.006 264.186 258.084 264.42C260.97 263.991 263.817 262.977 265.039 260.754L264.467 260.455L264.298 260.494H264.116ZM260.138 261.144L259.332 261.456C260.515 262.99 262.751 263.991 265.208 264.381C265.325 264.16 265.572 263.809 265.767 263.614C263.375 263.302 261.152 262.431 260.138 261.144ZM258.084 253.227V253.981H265.546V253.227H258.084ZM259.384 256.828V257.4H264.909V256.828H259.384ZM259.384 258.024V258.609H264.909V258.024H259.384ZM259.982 252.421V254.696H260.866V252.421H259.982ZM261.646 255.814V259.701H262.504V255.814H261.646ZM262.829 252.421V254.696H263.713V252.421H262.829ZM259.501 254.462C259.085 255.437 258.37 256.399 257.603 257.036C257.798 257.153 258.136 257.426 258.266 257.569C259.033 256.854 259.813 255.762 260.294 254.67L259.501 254.462ZM262.023 254.501C261.893 254.878 261.633 255.437 261.425 255.814L262.179 255.996C262.4 255.671 262.66 255.19 262.907 254.696L262.023 254.501ZM265.221 255.528H258.994V259.935H265.52V259.259H259.865V256.204H265.221V255.528ZM254.236 256.36V257.14H257.577V256.36H254.236ZM254.314 252.889V253.669H257.538V252.889H254.314ZM254.236 258.102V258.882H257.577V258.102H254.236ZM253.703 254.592V255.398H257.902V254.592H253.703ZM254.691 259.857V260.663H256.745V262.834H254.691V263.64H257.564V259.857H254.691ZM254.21 259.857V264.251H255.016V259.857H254.21Z" fill="black"/>
<path d="M237.512 344.215C236.84 344.215 236.232 344.359 235.688 344.647C235.144 344.935 234.68 345.351 234.296 345.895C233.928 346.439 233.648 347.095 233.456 347.863C233.264 348.631 233.168 349.495 233.168 350.455C233.168 351.751 233.328 352.863 233.648 353.791C233.968 354.703 234.456 355.407 235.112 355.903C235.768 356.399 236.592 356.647 237.584 356.647C238.272 356.647 238.944 356.575 239.6 356.431C240.256 356.271 240.92 356.063 241.592 355.807V358.423C240.936 358.711 240.256 358.919 239.552 359.047C238.864 359.175 238.088 359.239 237.224 359.239C235.544 359.239 234.16 358.879 233.072 358.159C231.984 357.423 231.168 356.399 230.624 355.087C230.096 353.759 229.832 352.207 229.832 350.431C229.832 349.135 230 347.951 230.336 346.879C230.672 345.807 231.168 344.879 231.824 344.095C232.48 343.311 233.288 342.703 234.248 342.271C235.208 341.839 236.304 341.623 237.536 341.623C238.352 341.623 239.176 341.727 240.008 341.935C240.856 342.127 241.6 342.399 242.24 342.751L241.16 345.271C240.6 344.999 240.016 344.759 239.408 344.551C238.816 344.327 238.184 344.215 237.512 344.215Z" fill="black"/>
<path d="M255.022 358.999H243.862V356.767L247.918 352.351C248.734 351.471 249.39 350.719 249.886 350.095C250.382 349.455 250.742 348.863 250.966 348.319C251.206 347.775 251.326 347.183 251.326 346.543C251.326 345.759 251.126 345.175 250.726 344.791C250.342 344.391 249.83 344.191 249.19 344.191C248.55 344.191 247.942 344.343 247.366 344.647C246.806 344.935 246.214 345.351 245.59 345.895L243.838 343.903C244.302 343.487 244.79 343.111 245.302 342.775C245.814 342.423 246.406 342.143 247.078 341.935C247.766 341.727 248.558 341.623 249.454 341.623C250.494 341.623 251.39 341.823 252.142 342.223C252.91 342.607 253.502 343.143 253.918 343.831C254.334 344.519 254.542 345.319 254.542 346.231C254.542 346.935 254.438 347.583 254.23 348.175C254.038 348.767 253.75 349.351 253.366 349.927C252.982 350.503 252.526 351.095 251.998 351.703C251.47 352.311 250.878 352.975 250.222 353.695L247.894 356.239V356.383H255.022V358.999Z" fill="black"/>
<path d="M267.191 358.999H257.951V341.863H267.191V344.431H261.167V348.799H266.807V351.367H261.167V356.407H267.191V358.999Z" fill="black"/>
<path d="M226.893 373.111V375.967H246.069V373.111H226.893ZM225.597 383.287V386.191H247.461V383.287H225.597ZM228.333 377.503C229.101 379.111 229.869 381.223 230.109 382.519L232.893 381.631C232.629 380.311 231.789 378.271 230.949 376.735L228.333 377.503ZM242.013 376.663C241.557 378.247 240.669 380.359 239.925 381.751L242.445 382.495C243.237 381.247 244.221 379.279 245.085 377.455L242.013 376.663ZM234.981 374.311V394.135H237.981V374.311H234.981Z" fill="black"/>
<path d="M253.773 390.391V393.175H267.021V390.391H253.773ZM252.477 383.503V394.135H255.429V386.263H265.437V394.135H268.533V383.503H252.477ZM257.181 371.431C256.149 374.119 254.253 377.575 252.645 379.759L255.237 380.791C256.869 378.703 258.909 375.487 260.469 372.511L257.181 371.431ZM262.941 375.727C265.341 377.791 268.077 380.719 269.205 382.735L271.725 380.815C270.477 378.751 267.597 375.967 265.221 374.047L262.941 375.727ZM249.933 378.415L250.101 381.343C254.829 381.151 262.029 380.863 268.677 380.503L268.821 377.719C262.221 378.007 254.781 378.295 249.933 378.415Z" fill="black"/>
<path d="M225.596 102.216V104.88H233.852V102.216H225.596ZM228.284 103.752V115.104H231.188V103.752H228.284ZM224.948 115.104L226.124 117.864C228.548 117 231.692 115.872 234.596 114.768L234.116 112.272C230.804 113.352 227.204 114.48 224.948 115.104ZM234.164 100.584V103.008H247.82V100.584H234.164ZM237.812 110.256H244.1V111.792H237.812V110.256ZM237.812 113.76H244.1V115.296H237.812V113.76ZM237.812 106.776H244.1V108.312H237.812V106.776ZM235.124 104.664V117.408H246.932V104.664H235.124ZM239.372 101.928C239.252 103.128 238.964 104.76 238.676 105.912L241.244 106.392C241.652 105.36 242.228 103.824 242.732 102.312L239.372 101.928ZM237.692 117.336C236.468 118.32 234.02 119.544 232.004 120.168C232.58 120.72 233.372 121.584 233.78 122.16C235.892 121.464 238.412 120.192 240.02 118.992L237.692 117.336ZM241.316 119.016C242.876 119.928 244.964 121.296 245.948 122.184L248.228 120.504C247.1 119.592 244.964 118.296 243.452 117.48L241.316 119.016Z" fill="black"/>
<path d="M253.964 106.488V109.2H266.996V106.488H253.964ZM253.964 112.056V114.768H266.996V112.056H253.964ZM253.964 117.6V120.408H266.996V117.6H253.964ZM251.876 100.92V121.896H254.78V103.752H265.94V121.896H268.988V100.92H251.876Z" fill="black"/>
<path d="M229.796 136.8V138.384H243.068V136.8H229.796ZM229.484 146.832V148.392H243.404V146.832H229.484ZM231.716 149.088C232.34 149.76 233.036 150.672 233.348 151.272L235.268 150.312C234.932 149.712 234.164 148.824 233.516 148.224L231.716 149.088ZM232.652 142.08H240.164V142.824H232.652V142.08ZM232.652 140.256H240.164V140.952H232.652V140.256ZM230.468 139.08V144H242.444V139.08H230.468ZM237.932 146.136V149.808C237.932 150.024 237.836 150.096 237.62 150.096C237.38 150.12 236.564 150.12 235.892 150.096C236.108 150.504 236.372 151.032 236.468 151.56C237.812 151.56 238.772 151.56 239.42 151.344C240.116 151.128 240.308 150.84 240.308 149.904V146.136H237.932ZM229.868 144.792L229.964 146.328C233.06 146.28 237.356 146.16 241.508 146.016L241.58 144.744C237.26 144.792 232.82 144.816 229.868 144.792ZM239.252 144.552C240.116 145.224 241.196 146.28 241.724 147L243.236 145.872C242.708 145.224 241.628 144.24 240.692 143.592L239.252 144.552ZM235.22 135.936V145.392L237.572 145.296V135.936H235.22ZM226.412 133.416V155.16H229.028V135.6H243.932V155.112H246.668V133.416H226.412ZM227.684 151.8V153.984H245.036V151.8H227.684Z" fill="black"/>
<path d="M270.068 140.088C269.132 141.216 267.5 142.728 266.372 143.568L267.86 145.2C269.06 144.384 270.62 143.136 271.94 141.984L270.068 140.088ZM258.956 133.584C259.604 134.664 260.228 136.152 260.444 137.136L262.892 136.2C262.628 135.24 261.98 133.824 261.26 132.768L258.956 133.584ZM257.468 136.416V138.888H271.484V136.416H257.468ZM260.132 141.48C264.404 144.984 264.356 150.696 263.204 151.968C262.916 152.496 262.532 152.592 262.028 152.592C261.476 152.592 260.876 152.544 260.108 152.448C260.636 153.24 260.804 154.368 260.828 155.088C261.452 155.136 262.052 155.16 262.556 155.16C263.708 155.136 264.476 154.872 265.244 154.056C267.38 152.112 267.548 144.552 262.364 140.352L260.132 141.48ZM263.012 137.472C261.548 139.296 258.98 141 256.508 142.008C257.012 142.488 257.852 143.52 258.188 144.024C260.732 142.728 263.588 140.616 265.364 138.336L263.012 137.472ZM266.588 138L264.308 138.408C265.268 144.504 266.924 149.832 270.212 152.832C270.644 152.136 271.532 151.128 272.156 150.648C269.132 148.176 267.404 143.232 266.588 138ZM262.364 142.584C261.116 143.928 258.644 145.536 256.748 146.328C257.3 146.808 257.948 147.696 258.308 148.32C260.252 147.216 262.796 145.296 264.188 143.76L262.364 142.584ZM263.732 145.584C262.1 147.792 258.668 150.216 255.74 151.32C256.364 151.824 257.084 152.688 257.468 153.312C260.372 151.92 263.828 149.256 265.628 146.832L263.732 145.584ZM267.26 132.648C266.924 133.752 266.276 135.24 265.748 136.224L268.076 136.944C268.652 136.056 269.324 134.736 269.996 133.44L267.26 132.648ZM250.22 133.656V155.184H252.74V136.224H255.884V133.656H250.22ZM254.996 133.656V134.472C254.66 136.008 253.892 139.32 253.22 141.48C254.588 143.088 254.9 144.576 254.9 145.704C254.9 146.376 254.78 146.856 254.492 147.072C254.324 147.216 254.084 147.264 253.82 147.264C253.532 147.288 253.22 147.264 252.788 147.24C253.172 147.936 253.388 149.016 253.412 149.712C253.964 149.712 254.54 149.688 254.972 149.64C255.5 149.568 255.956 149.4 256.34 149.136C257.108 148.608 257.42 147.6 257.42 146.04C257.42 144.648 257.132 143.04 255.644 141.168C256.34 139.296 257.132 136.68 257.756 134.616L255.884 133.56L255.476 133.656H254.996Z" fill="black"/>
<path d="M452.678 336.461C452.678 337.041 452.462 337.521 452.031 337.902C451.603 338.283 450.992 338.522 450.196 338.62V340.067H449.365V338.677C448.882 338.668 448.419 338.628 447.975 338.556C447.535 338.48 447.171 338.376 446.883 338.245V337.179C447.2 337.327 447.587 337.456 448.044 337.566C448.506 337.672 448.946 337.729 449.365 337.737V335.021C448.497 334.745 447.884 334.424 447.524 334.056C447.164 333.683 446.984 333.207 446.984 332.627C446.984 332.069 447.198 331.61 447.626 331.25C448.053 330.89 448.633 330.67 449.365 330.59V329.447H450.196V330.577C451 330.598 451.764 330.759 452.488 331.06L452.132 331.955C451.476 331.696 450.831 331.544 450.196 331.498V334.176C450.873 334.405 451.377 334.621 451.707 334.824C452.041 335.027 452.287 335.26 452.443 335.522C452.6 335.78 452.678 336.093 452.678 336.461ZM451.523 336.544C451.523 336.239 451.424 335.998 451.225 335.82C451.026 335.638 450.683 335.463 450.196 335.293V337.674C451.081 337.538 451.523 337.162 451.523 336.544ZM448.146 332.615C448.146 332.924 448.237 333.173 448.419 333.364C448.601 333.554 448.916 333.73 449.365 333.891V331.523C448.967 331.591 448.664 331.72 448.457 331.91C448.25 332.101 448.146 332.335 448.146 332.615Z" fill="black"/>
<path d="M455.947 334.487H457.337C458.091 334.487 458.641 334.339 458.988 334.043C459.335 333.747 459.508 333.307 459.508 332.723C459.508 332.139 459.333 331.713 458.982 331.447C458.63 331.176 458.061 331.041 457.274 331.041H455.947V334.487ZM455.947 335.478V339.312H454.779V330.031H457.337C458.489 330.031 459.339 330.251 459.889 330.691C460.444 331.127 460.721 331.785 460.721 332.666C460.721 333.897 460.101 334.726 458.861 335.154L461.406 339.312H460.042L457.794 335.478H455.947Z" fill="black"/>
<path d="M465.475 339.312H462.124V338.639L463.215 338.391V330.964L462.124 330.704V330.031H465.475V330.704L464.383 330.964V338.391L465.475 338.639V339.312Z" fill="black"/>
<path d="M471.245 330.926C470.246 330.926 469.461 331.261 468.89 331.929C468.319 332.598 468.033 333.512 468.033 334.671C468.033 335.869 468.31 336.794 468.865 337.445C469.419 338.093 470.208 338.417 471.232 338.417C471.893 338.417 472.635 338.294 473.461 338.048V339.064C473.067 339.208 472.688 339.305 472.324 339.356C471.96 339.411 471.541 339.438 471.067 339.438C469.701 339.438 468.647 339.024 467.906 338.194C467.17 337.361 466.802 336.182 466.802 334.659C466.802 333.702 466.977 332.864 467.329 332.145C467.684 331.426 468.198 330.871 468.871 330.482C469.548 330.093 470.344 329.898 471.258 329.898C472.24 329.898 473.094 330.08 473.822 330.444L473.353 331.434C472.612 331.096 471.91 330.926 471.245 330.926Z" fill="black"/>
<path d="M480.671 339.312H475.485V330.031H480.671V331.06H476.653V333.954H480.437V334.97H476.653V338.283H480.671V339.312Z" fill="black"/>
<path d="M458.007 352.411V353.269H463.571V352.411H458.007ZM457.981 354.673V355.518H463.571V354.673H457.981ZM463.662 346.756C463.35 347.523 462.752 348.576 462.297 349.239L463.116 349.59C463.584 348.94 464.143 347.991 464.611 347.133L463.662 346.756ZM457.019 347.198C457.565 347.965 458.124 348.979 458.332 349.655L459.203 349.226C458.982 348.563 458.397 347.562 457.838 346.834L457.019 347.198ZM457.383 350.11V358.352H458.345V351.02H463.623V350.11H457.383ZM463.142 350.11V357.13C463.142 357.299 463.077 357.364 462.869 357.377C462.674 357.377 461.985 357.377 461.231 357.351C461.361 357.624 461.504 358.027 461.556 358.287C462.544 358.287 463.194 358.287 463.584 358.131C463.974 357.962 464.091 357.676 464.091 357.13V350.11H463.142ZM460.295 346.392V350.682H461.27V346.392H460.295ZM453.561 347.211C454.367 347.64 455.342 348.316 455.797 348.797L456.395 348.043C455.914 347.562 454.939 346.938 454.133 346.535L453.561 347.211ZM452.95 350.682C453.769 351.111 454.757 351.774 455.251 352.242L455.836 351.475C455.329 351.007 454.315 350.383 453.509 349.993L452.95 350.682ZM453.353 357.598L454.198 358.222C454.887 356.987 455.693 355.349 456.291 353.958L455.563 353.373C454.887 354.868 453.99 356.584 453.353 357.598Z" fill="black"/>
<path d="M467.731 348.498V349.161H476.805V347.12H466.847V347.77H475.895V348.498H467.731ZM467.432 348.498C467.224 349.2 466.938 350.032 466.678 350.617L467.575 350.682C467.809 350.11 468.108 349.252 468.355 348.498H467.432ZM467.38 349.85L467.172 350.513H477.013V349.85H467.38ZM476.701 349.85V349.98C476.623 350.695 476.558 350.994 476.454 351.098C476.389 351.163 476.311 351.176 476.155 351.176C476.012 351.176 475.661 351.163 475.258 351.124C475.349 351.306 475.427 351.592 475.44 351.774C475.908 351.813 476.363 351.813 476.584 351.8C476.844 351.787 477.065 351.722 477.221 351.566C477.429 351.358 477.52 350.968 477.598 350.175C477.611 350.058 477.624 349.85 477.624 349.85H476.701ZM470.045 346.405V348.719C470.045 350.058 469.616 351.15 466.184 351.8C466.353 351.969 466.561 352.333 466.639 352.554C470.409 351.826 470.942 350.461 470.942 348.745V346.405H470.045ZM472.957 346.405V351.488H473.88V346.405H472.957ZM468.758 353.555H475.297V354.361H468.758V353.555ZM468.758 354.972H475.297V355.791H468.758V354.972ZM468.758 352.151H475.297V352.944H468.758V352.151ZM467.809 351.514V356.415H476.272V351.514H467.809ZM473.009 357.065C474.452 357.494 475.882 357.988 476.714 358.378L477.767 357.858C476.818 357.468 475.232 356.948 473.776 356.558L473.009 357.065ZM470.006 356.545C469.07 357.013 467.497 357.416 466.145 357.676C466.366 357.845 466.704 358.209 466.86 358.404C468.16 358.079 469.824 357.52 470.877 356.935L470.006 356.545Z" fill="black"/>
</svg>
