<svg width="552" height="552" viewBox="0 0 552 552" fill="none" xmlns="http://www.w3.org/2000/svg">
<rect width="552" height="552" fill="#111111"/>
<path d="M341.57 469.942C331.248 470.312 321.066 468.922 311.393 465.677C300.146 461.923 289.13 457.241 278.161 452.745C273.116 450.659 268.348 447.971 263.442 445.561C255.019 441.435 246.086 440.508 236.922 441.25C225.258 442.223 213.594 443.475 201.885 444.355C191.239 445.19 180.779 443.614 170.458 441.018C149.352 435.641 132.69 423.265 118.111 407.738C107.419 396.335 98.8103 383.496 92.8859 368.895C91.914 366.531 90.7106 364.955 88.0261 363.935C81.5463 361.432 80.0653 357.075 83.2589 350.911C84.4623 348.547 84.4623 346.275 83.9532 343.772C82.5184 336.542 81.0834 329.311 79.8337 322.034C79.3709 319.484 78.3065 317.537 76.5014 315.683C70.4845 309.565 70.6233 307.34 76.1774 300.897C77.2882 299.599 77.8899 297.606 78.0287 295.891C78.7693 287.223 79.2321 278.509 79.8337 269.842C79.9726 267.941 80.2505 266.272 78.6305 264.604C75.3907 261.313 75.807 257.327 78.6766 254.406C83.2588 249.771 84.3234 243.977 85.5268 238.044C86.2674 234.522 87.0079 230.999 88.2575 227.662C89.646 223.907 89.7385 220.709 87.4706 217.093C85.4804 213.941 87.2856 209.77 91.3586 208.426C95.3853 207.081 96.8664 204.347 98.3012 200.917C100.754 195.169 103.624 189.607 106.077 183.906C106.586 182.701 106.493 181.032 106.077 179.734C104.272 174.218 106.216 169.537 111.862 168.424C115.658 167.636 117.787 165.597 119.777 162.769C121.397 160.452 123.017 158.088 124.915 156.002C127.46 153.128 129.589 150.347 129.265 146.036C129.034 142.699 131.116 140.799 135.143 140.381C142.317 139.64 146.575 135.422 149.584 129.35C150.787 126.939 152.777 125.224 155.323 125.317C158.887 125.41 161.432 123.649 164.163 122.026C166.616 120.589 169.208 119.384 171.43 117.623C173.42 116.047 175.41 114.193 176.66 112.014C179.576 106.823 180.363 106.406 186.009 107.704C187.676 108.074 189.758 107.935 191.378 107.379C197.025 105.293 202.625 103.068 208.133 100.565C209.66 99.8701 211.049 98.3405 211.974 96.8573C215.538 91.2487 217.992 90.5071 224.147 93.3345C225.397 93.8907 227.017 94.0762 228.405 93.8444C232.663 93.1028 236.922 91.9903 241.18 91.156C243.448 90.6925 244.744 89.3946 245.808 87.4015C248.169 82.9517 249.603 82.0247 253.214 84.6204C259.925 89.4873 266.96 87.0771 273.949 86.799C275.337 86.7527 276.911 85.4548 278.068 84.3424C282.234 80.2171 285.242 79.7535 289.176 83.8324C291.676 86.4281 294.499 87.1235 297.739 87.4943C302.969 88.0505 308.199 88.9775 313.429 89.3946C315.141 89.5337 317.132 89.1165 318.705 88.3285C323.287 86.0109 325 86.2427 327.222 90.8779C328.379 93.3345 329.952 94.6787 332.498 95.513C338.052 97.3671 343.514 99.453 349.021 101.492C351.058 102.234 352.863 102.373 354.992 101.446C359.157 99.6847 361.703 100.473 363.231 104.459C364.388 107.518 366.47 108.862 369.062 110.114C374.478 112.756 379.846 115.583 385.308 118.179C386.743 118.874 388.548 119.06 390.168 119.013C394.472 118.874 396.231 119.57 397.434 123.556C398.314 126.476 400.119 128.423 402.248 130.37C407.154 134.819 411.968 139.362 416.92 143.765C418.123 144.785 419.697 145.526 421.271 145.944C426.13 147.241 427.797 148.586 428.074 153.638C428.26 156.79 429.648 158.922 431.546 161.101C433.999 163.974 436.405 166.895 438.534 170C439.83 171.901 441.451 172.596 443.58 173.152C447.143 174.079 448.161 175.284 447.56 178.853C447.004 182.237 448.115 184.694 449.92 187.243C451.124 188.958 452.142 190.812 452.882 192.712C453.716 194.845 455.151 195.911 457.233 196.745C461.584 198.506 461.769 198.97 460.89 203.559C460.242 206.85 460.38 209.863 462.371 212.783C463.389 214.312 463.898 216.213 464.592 218.02C465.75 221.08 467.092 223.583 470.47 225.159C474.451 227.059 475.284 230.489 473.525 234.753C472.368 237.581 472.322 240.13 473.247 243.004C474.173 245.878 474.636 248.891 475.469 251.811C476.071 253.758 476.626 255.843 477.83 257.466C479.82 260.154 479.635 262.796 479.403 265.994C479.033 271.186 479.866 276.47 480.236 281.708C480.283 282.217 480.699 282.774 481.116 283.098C485.004 286.343 484.633 289.819 481.949 293.574C481.301 294.454 480.699 295.567 480.653 296.633C480.236 302.473 479.912 308.36 479.82 314.2C479.82 315.73 480.653 317.398 481.486 318.789C483.985 322.775 483.985 325.232 480.468 328.152C478.385 329.867 477.413 331.86 476.95 334.363C476.441 337.144 475.793 339.925 475.099 342.66C474.497 345.07 474.127 347.295 475.886 349.613C477.691 351.93 476.95 354.387 474.775 356.148C466.305 363.055 465.009 373.808 460.658 382.847C459.918 384.376 460.473 386.555 460.566 388.455C460.751 392.627 460.195 393.879 456.215 395.269C454.086 396.011 452.697 397.03 451.587 399.024C449.92 401.99 447.745 404.632 446.079 407.599C444.737 410.009 443.441 412.651 442.931 415.339C442.052 419.65 439.877 422.292 435.896 424.146C433.073 425.444 430.435 427.483 428.213 429.708C417.707 440.137 406.552 449.686 393.408 456.731C378.458 464.657 362.675 469.293 345.735 469.895C344.208 469.803 342.912 469.895 341.57 469.942Z" fill="#D8D7D0"/>
</svg>
