<svg width="552" height="552" viewBox="0 0 552 552" fill="none" xmlns="http://www.w3.org/2000/svg">
<rect width="552" height="552" fill="#333333"/>
<rect width="552" height="552" fill="#111111"/>
<path d="M117.197 113.527C135.053 87.5671 153.059 72.9706 174.738 63.0714C181.327 60.041 188.318 57.5664 195.41 55.8997C211.203 52.1622 218.547 60.4452 221.615 73.7788C222.973 79.8395 224.381 85.9003 225.538 91.961C228.858 109.537 233.284 126.962 234.441 144.942C236.352 173.882 233.837 202.367 223.828 229.843C220.458 239.035 214.372 245.55 204.765 249.136C173.681 260.652 137.216 253.126 115.185 225.651C98.2853 204.59 93.6579 180.448 100.247 154.185C104.522 137.316 111.363 121.608 117.197 113.527ZM136.864 172.569C136.059 173.68 135.204 174.791 134.5 175.953C125.396 192.216 130.124 211.408 148.533 217.873C162.314 222.721 176.347 222.772 190.129 217.57C196.969 214.994 201.999 210.347 203.709 203.125C206.777 190.246 206.425 177.619 199.937 165.599C193.599 153.881 183.59 148.376 170.915 151.003C157.033 153.881 145.414 160.902 136.864 172.569Z" fill="#D8D7D0"/>
<path d="M332.312 205.556C320.752 220.171 301.317 231.792 276.077 232.299C269.817 232.452 263.861 230.726 258.156 227.935C252.2 225.043 248.717 220.476 248.313 213.98C247.808 206.165 247.656 198.3 247.707 190.434C247.757 180.488 248.919 170.491 248.313 160.595C247.455 146.792 245.486 133.04 243.921 119.237C242.709 108.479 240.589 97.6704 240.539 86.9122C240.488 70.7243 249.07 65.3959 261.084 64.0765C266.385 63.5183 271.584 63.8226 276.784 65.142C287.485 67.8823 298.187 70.5718 308.031 75.7987C329.233 87.115 342.307 104.673 347.557 128.118C350.232 140.094 351.696 152.222 349.828 164.554C347.809 178.407 343.821 188.962 332.312 205.556ZM299.55 90.515C294.149 88.7896 288.798 86.5569 283.245 85.4912C268.757 82.7002 262.649 87.3689 262.397 101.882C262.195 113.148 267.495 121.064 279.509 121.978C286.526 122.485 292.735 120.252 298.49 116.903C309.848 110.306 310.05 99.0403 299.55 90.515Z" fill="#D8D7D0"/>
<path d="M387.221 211.799C407.51 209.674 423.853 215.644 436.046 231.734C440.55 237.653 443.434 244.282 444.749 251.517C446.722 262.243 444.749 272.362 439.538 281.976C434.984 290.375 428.508 296.547 419.603 300.039C407.814 304.693 396.48 303.429 385.551 297.306C377.456 292.803 372.295 285.619 367.387 278.181C365.465 275.246 363.744 272.211 362.176 269.074C361.164 267.05 360.405 264.874 359.798 262.648C359.039 259.815 358.786 256.829 357.875 254.047C352.714 237.906 364.402 220.602 377.81 215.239C381.048 213.974 384.388 212.861 387.221 211.799Z" fill="#D8D7D0"/>
<path d="M293.112 282.178C290.683 270.844 293.112 259.865 299.487 249.796C302.826 244.484 307.785 240.639 313.249 237.552C320.535 233.454 328.428 231.177 336.726 230.671C339.964 230.469 343.607 231.228 346.491 232.644C350.387 234.567 352.006 238.463 351.854 242.814C351.702 248.633 352.006 254.502 353.574 260.118C354.991 265.178 356.61 270.237 358.836 274.943C360.759 278.94 363.694 282.38 366.173 286.074C369.209 290.526 372.447 294.878 375.28 299.482C377.962 303.884 379.328 308.842 377.304 313.801C376.039 316.836 374.218 319.923 371.84 322.149C367.691 326.045 362.581 328.524 357.116 330.295C351.551 332.117 345.934 333.179 340.116 333.23C330.047 333.28 321.901 329.081 314.969 322.099C305.053 312.182 298.171 300.443 293.972 287.086C293.517 285.619 293.466 284.101 293.112 282.178Z" fill="#D8D7D0"/>
<path d="M456.791 294.726C462.66 293.36 468.479 293.411 474.398 294.878C482.696 296.952 489.172 301.304 493.321 308.843C502.075 324.831 501.012 340.567 491.905 355.999C485.175 367.332 475.41 375.174 462.913 379.172C452.642 382.511 442.219 382.46 432.1 377.907C425.472 374.871 420.969 369.609 417.123 363.588C412.317 355.999 410.546 347.599 411.001 338.897C411.507 329.941 414.543 321.694 420.766 315.015C429.115 306.111 439.436 300.039 450.82 295.839C452.692 295.131 454.818 295.08 456.791 294.726Z" fill="#D8D7D0"/>
<path d="M410.748 368.95C413.177 378.715 411.305 388.632 406.043 398.144C403.057 403.558 398.403 407.15 393.444 410.49C387.575 414.487 380.947 416.409 373.965 416.308C363.491 416.106 356.307 410.388 351.55 401.484C348.009 394.855 346.238 387.671 346.39 380.081C346.39 379.019 346.238 377.906 346.035 376.894C344.265 367.533 346.896 359.185 352.562 351.848C357.268 345.828 363.086 340.97 370.372 338.289C382.465 333.887 394.001 337.024 401.793 347.092C407.055 353.872 409.078 359.134 410.748 368.95Z" fill="#D8D7D0"/>
<path d="M169.657 489.216C149.013 489.216 125.132 483.954 103.224 470.647C95.2801 465.79 88.905 459.415 83.1876 452.23C71.9552 438.063 64.5682 421.923 60.9252 404.366C53.9429 370.77 55.7644 337.832 70.5385 306.31C76.3065 294.015 84.3513 283.238 95.1283 274.789C101.605 269.729 108.891 266.592 117.087 264.973C128.977 262.645 140.463 263.961 151.695 267.908C162.725 271.804 173.502 276.509 184.532 280.405C198.8 285.414 213.22 290.221 227.691 294.673C245.146 300.036 262.805 304.64 278.844 313.9C297.716 324.778 311.276 340.108 317.297 361.106C320.99 374.008 321.041 387.315 317.246 400.419C310.568 423.39 296.755 441.149 277.68 455.063C259.212 468.573 238.62 477.376 216.61 483.397C202.747 487.243 188.732 489.368 169.657 489.216ZM164.749 456.227C176.639 456.531 186.404 455.772 196.119 453.9C212.411 450.763 228.5 446.917 243.477 439.53C255.417 433.61 266.599 426.628 275.504 416.458C283.802 406.997 289.469 396.271 290.278 383.571C291.29 367.734 284.207 355.287 272.873 344.966C263.766 336.668 252.584 332.064 241.2 328.016C224.503 322.096 207.705 316.429 191.008 310.409C181.142 306.867 171.478 302.617 161.561 299.227C152.505 296.14 143.195 294.977 133.531 296.747C127.459 297.861 121.793 300.137 117.037 303.679C107.676 310.56 101.352 319.971 97.3546 330.9C92.1432 345.118 89.9675 359.892 89.6133 374.969C89.2591 387.872 91.8901 400.318 94.9765 412.664C96.0896 417.066 98.1135 421.467 100.593 425.313C109.093 438.265 120.882 447.019 135.808 451.825C145.876 455.114 156.147 456.784 164.749 456.227Z" fill="#D8D7D0"/>
<path d="M115.418 377.6C114.861 367.177 115.822 357.26 119.415 347.799C125.081 332.924 135.352 322.045 150.127 316.075C160.954 311.673 172.187 313.495 180.383 323.715C184.279 328.572 185.746 334.796 186.05 341.12C186.455 349.165 184.684 356.906 182.66 364.546C179.118 377.701 174.413 390.452 168.291 402.645C164.8 409.577 161.005 416.256 155.085 421.568C148.305 427.69 139.552 428.753 131.912 423.795C123.361 418.28 119.617 409.678 117.239 400.318C115.266 392.83 114.709 385.088 115.418 377.6Z" fill="#D8D7D0"/>
<path d="M246.26 400.52C237.253 399.407 228.804 395.258 221.214 389.44C210.387 381.192 206.491 369.606 207.756 356.603C209.274 340.614 222.732 332.063 237.911 337.224C252.078 342.031 262.906 351.037 268.016 365.508C271.912 376.487 270.799 386.859 261.742 395.359C257.441 399.306 252.382 400.166 246.26 400.52Z" fill="#D8D7D0"/>
<path d="M196.928 433.713C195.461 433.612 192.88 433.612 190.3 433.308C179.877 431.993 174.767 423.391 179.017 413.727C182.66 405.429 188.175 398.397 194.753 392.173C197.636 389.441 201.887 389.289 205.226 391.516C206.39 392.274 207.503 393.084 208.515 394.045C215.952 401.078 225.414 403.709 234.875 406.34C239.328 407.605 241.959 410.641 243.932 414.183C246.766 419.344 244.084 425.01 238.164 426.781C225.06 430.677 211.702 433.257 196.928 433.713Z" fill="#D8D7D0"/>
</svg>
