<svg width="552" height="552" viewBox="0 0 552 552" fill="none" xmlns="http://www.w3.org/2000/svg">
<rect width="552" height="552" fill="#111111"/>
<path d="M188.151 154.42C187.649 133.906 190.298 114.077 197.883 94.6139C201.721 84.7908 208.437 82.7805 215.473 83.009C222.052 83.2374 228.814 83.6485 235.028 85.202C252.024 89.451 268.974 93.9287 285.605 99.0915C304.383 104.94 322.887 111.382 341.3 118.098C356.742 123.718 372.048 129.748 387.08 136.145C406.772 144.552 426.189 153.37 444.511 164.015C454.425 169.772 463.974 176.031 472.061 183.935C476.63 188.367 480.604 193.165 482.935 199.104C485.676 206.094 484.717 212.765 480.102 219.344C475.533 225.832 469.274 230.812 462.466 234.97C453.283 240.635 443.825 245.981 434.276 251.006C430.484 253.017 426.052 254.067 421.803 254.981C417.691 255.849 413.716 255.118 410.701 252.423C395.852 239.401 378.81 229.03 361.129 219.527C348.427 212.719 335.269 206.551 322.156 200.338C312.79 195.906 303.287 191.702 293.601 187.819C261.436 175.026 228.357 164.198 194.182 155.974C192.309 155.563 190.436 155.014 188.151 154.42Z" fill="#D8D7D0"/>
<path d="M117.699 375.691C132.868 370.026 148.402 366.371 164.164 363.858C206.975 357.005 249.328 356.822 291.179 363.173C304.383 365.183 317.176 368.336 328.552 374.595C332.664 376.834 336.548 379.529 339.838 382.682C346.737 389.261 348.016 397.713 345.64 406.897C344.635 410.689 343.31 414.572 341.391 418.09C332.116 435.269 319.323 449.661 301.002 459.393C290.083 465.196 278.386 467.708 266.324 469.033C250.699 470.724 235.348 469.81 220.179 467.708C179.242 462.043 139.218 453.454 100.337 441.392C94.3063 439.519 88.504 437.234 83.3412 433.762C79.1378 430.975 77.2188 427.183 77.036 422.294C76.3507 405.161 85.4884 392.87 101.205 383.915C106.597 380.9 112.262 378.433 117.699 375.691Z" fill="#D8D7D0"/>
<path d="M179.104 182.518C191.075 177.218 200.898 176.487 210.813 177.492C221.093 178.543 230.824 181.33 240.282 184.619C251.704 188.64 263.172 192.661 274.183 197.458C304.566 210.616 334.766 224.14 362.91 240.908C372.231 246.436 380.957 252.741 389.638 259.092C393.339 261.788 396.491 265.26 399.324 268.824C401.152 271.063 402.34 273.987 403.025 276.819C404.03 280.931 401.928 283.033 397.405 282.485C392.242 281.891 387.125 280.931 382.145 279.789C334.949 269.189 287.158 260.508 239.14 252.65C210.219 247.944 181.252 243.558 152.331 238.943C149.772 238.532 147.214 237.938 144.929 236.979C141.137 235.38 139.675 232.319 141.366 228.526C143.559 223.501 146.026 218.521 148.95 213.769C154.067 205.545 159.732 197.641 167.043 190.787C171.337 186.904 176.089 183.706 179.104 182.518Z" fill="#D8D7D0"/>
<path d="M235.119 306.792C232.606 307.295 227.717 308.391 222.829 309.26C202.36 312.778 181.8 315.839 161.377 319.722C145.523 322.738 130.081 327.581 114.821 332.972C110.983 334.343 107.328 336.17 103.535 337.769C102.53 338.226 101.525 338.729 100.52 339.048C98.1441 339.825 95.5399 340.876 93.4839 339.231C91.4736 337.632 92.5244 335.256 93.027 333.2C95.9967 320.362 99.5606 307.66 105.5 295.507C108.241 289.887 111.257 284.313 114.683 279.014C120.394 270.287 128.893 265.215 139.584 264.53C147.762 264.028 156.032 263.845 164.119 264.393C182.988 265.672 201.766 267.591 220.042 271.566C225.935 272.846 231.692 274.673 237.221 276.866C243.48 279.379 247.638 283.765 248.003 290.664C248.46 298.614 245.627 302.817 235.119 306.792Z" fill="#D8D7D0"/>
<path d="M86.4479 373.36C85.4884 370.664 86.722 368.288 88.915 366.415C90.6512 364.953 92.7071 363.719 94.8088 362.714C129.898 345.855 166.906 337.128 205.102 333.062C236.901 329.681 268.335 330.184 299.54 333.565C314.754 335.209 329.923 337.311 345.046 339.413C349.569 340.053 354.001 341.195 358.25 342.611C363.276 344.21 364.098 346.403 362.316 351.246C361.859 352.48 361.266 353.713 360.672 354.901C358.753 358.602 355.692 360.795 351.26 360.384C347.148 360.019 342.99 359.607 339.015 358.785C300.362 350.607 260.979 346.358 220.681 346.906C192.583 347.317 164.576 349.464 136.66 355.404C121.034 358.739 106.231 364.176 92.2047 371.897C90.5142 372.857 88.8694 374.41 86.4479 373.36Z" fill="#D8D7D0"/>
<path d="M268.563 278.054C270.619 277.826 272.036 277.46 273.406 277.551C279.848 277.917 286.336 278.1 292.687 278.922C314.252 281.709 335.451 285.684 356.468 290.39C362.042 291.624 367.525 293.451 372.733 295.553C379.084 298.112 380.044 302.361 376.16 308.117C374.378 310.767 372.413 313.326 370.312 315.702C367.022 319.448 362.865 321.824 357.656 321.687C353.818 321.595 349.889 321.687 346.143 321.093C321.608 317.072 297.119 312.96 272.675 308.757C269.842 308.254 267.101 307.386 264.497 306.29C260.613 304.645 258.831 301.675 259.06 297.426C259.38 292.263 260.476 287.329 263.766 282.943C265.228 281.07 267.147 279.47 268.563 278.054Z" fill="#D8D7D0"/>
</svg>
