<svg width="552" height="552" viewBox="0 0 552 552" fill="none" xmlns="http://www.w3.org/2000/svg">
<path d="M391.415 403.908C369.023 409.433 347.076 410.369 325.129 404.398C313.977 401.368 303.715 396.555 295.096 388.535C291.008 384.747 287.676 380.425 285.455 375.301C281.545 366.122 282.656 357.478 288.343 349.368C292.075 344.11 296.962 340.011 301.804 335.867C305.27 332.837 308.602 329.629 311.845 326.376C313.089 325.173 314.022 323.613 314.999 322.143C320.064 314.3 318.109 306.503 311.09 300.888C306.425 297.145 301.049 295.096 295.318 293.804C286.61 291.843 277.724 291.442 268.839 290.818C258.31 290.061 247.869 288.813 237.74 285.56C219.124 279.545 205.041 267.826 195.311 250.983C187.003 236.59 183.494 220.995 185.448 204.33C186.381 196.22 188.869 188.645 193.356 181.783C203.752 166.054 223.345 160.886 239.917 166.054C252.179 169.842 262.352 176.971 271.06 186.284C280.079 195.908 287.099 206.959 293.496 218.411C300.427 230.798 307.136 243.274 314.2 255.572C316.554 259.672 319.442 263.459 322.463 267.068C326.462 271.881 333.081 272.772 338.635 269.831C342.633 267.737 345.21 264.707 346.587 260.296C348.897 252.988 349.075 245.547 348.32 238.061C346.943 224.381 342.411 211.727 336.014 199.651C330.149 188.645 322.73 178.664 314.422 169.352C307.669 161.821 300.605 154.558 293.807 147.072C286.166 138.695 278.968 129.962 273.948 119.669C267.728 106.881 265.462 93.5576 269.283 79.6108C271.327 72.125 275.014 65.5749 281.012 60.4952C286.166 56.1285 291.986 54.0342 298.739 55.8611C303.048 57.0642 306.602 59.6486 309.712 62.8568C314.599 67.8919 318.287 73.8182 321.13 80.1455C325.262 89.3691 328.994 98.771 332.637 108.173C337.746 121.273 342.1 134.641 348.276 147.34C351.697 154.38 355.34 161.287 360.937 166.901C362.537 168.505 364.492 169.842 366.402 171.045C368.09 172.114 369.867 171.802 371.111 170.198C372.178 168.817 373.422 167.436 373.999 165.831C375.599 161.287 377.376 156.697 378.22 151.974C380.397 139.72 382.174 127.422 383.951 115.124C384.839 108.93 385.417 102.692 386.084 96.4539C386.883 89.0126 389.06 82.017 392.836 75.556C395.635 70.7882 399.501 67.0007 404.654 64.9065C410.83 62.3667 416.739 63.6589 422.292 67.0453C429.356 71.3229 432.244 78.2295 433.621 85.9381C435.221 94.8944 432.022 102.826 428.201 110.624C422.559 122.209 419.049 134.418 417.982 147.295C417.449 153.979 422.203 158.123 426.335 159.103C430.467 160.083 433.532 158.702 435.754 155.048C440.863 146.538 446.505 138.428 453.969 131.744C457.123 128.937 460.5 126.486 464.498 125.105C471.429 122.699 478.404 125.461 479.87 134.106C481.114 141.458 479.026 148.32 476.538 155.048C471.873 167.748 465.165 179.333 457.656 190.472C451.836 199.117 445.883 207.716 440.063 216.405C438.108 219.346 436.153 222.332 434.687 225.495C433.399 228.347 432.466 231.511 431.977 234.63C431.577 237.081 433.354 238.907 435.442 240.155C437.486 241.358 438.952 240.289 440.418 239.041C445.394 234.763 450.326 230.352 455.479 226.253C459.345 223.178 463.787 221.039 468.586 219.569C478.049 216.628 488.001 222.465 488.489 234.362C488.845 242.205 486.09 249.067 481.781 255.394C476.583 263.058 469.874 269.252 462.277 274.376C452.325 281.06 442.151 287.343 432.066 293.848C422.736 299.863 413.717 306.369 406.564 315.013C401.233 321.43 397.19 328.515 395.28 336.802C392.925 347.006 394.525 356.765 398.701 366.077C400.7 370.578 403.321 374.811 405.676 379.133C406.609 380.871 407.72 382.52 408.564 384.302C411.496 390.317 410.163 394.862 404.477 398.427C403.366 399.14 402.166 399.764 400.967 400.209C397.768 401.591 394.347 402.838 391.415 403.908Z" fill="#111111"/>
<path d="M91.2685 226.506C101.878 227.13 111.818 227.932 121.313 231.229C135.489 236.131 144.894 245.623 149.084 260.15C150.734 265.853 152.294 271.602 154.434 277.127C156.172 281.762 158.356 286.262 160.897 290.496C166.915 300.611 176.098 304.934 187.688 303.24C196.915 301.903 206.053 299.809 215.236 298.249C220.006 297.447 224.82 296.734 229.634 296.512C231.952 296.378 234.538 297.046 236.633 298.071C244.122 301.77 245.058 306.003 243.631 313.311C242.918 317.143 240.6 320.174 238.015 322.936C233.468 327.749 228.029 331.403 222.012 334.121C218.401 335.77 214.612 337.062 210.823 338.355C206.321 339.914 204.448 342.588 204.85 347.445C205.474 354.842 208.327 361.526 211.982 367.854C218.133 378.504 226.38 387.416 235.919 394.992C245.236 402.389 254.954 409.207 264.582 416.203C272.428 421.907 280.452 427.388 287.093 434.562C297.123 445.346 301.759 458.135 300.689 472.796C300.422 476.361 299.575 480.015 298.282 483.357C294.315 493.651 284.775 496.502 275.548 490.398C271.269 487.546 267.702 483.847 264.671 479.747C258.119 471.013 251.833 462.101 245.414 453.278C236.454 440.89 227.673 428.368 216.127 418.119C212.517 414.911 208.46 412.193 204.404 409.563C202.532 408.36 200.169 407.692 197.94 407.246C193.706 406.4 191.165 408.004 189.872 412.103C188.668 415.98 188.178 419.991 188.847 423.957C190.184 431.844 191.655 439.687 193.26 447.53C194.82 455.239 196.915 462.859 198.208 470.612C198.921 474.979 198.564 479.525 198.431 484.025C198.386 485.54 197.807 487.1 197.227 488.571C195.043 494.007 190.362 495.656 185.503 492.314C183.141 490.709 181.046 488.526 179.396 486.209C172.799 476.762 169.545 465.933 168.163 454.659C167.049 445.747 166.514 436.79 165.89 427.834C165.177 417.896 164.864 407.915 162.145 398.289C161.031 394.368 159.471 390.447 157.376 386.971C153.943 381.267 150.867 381.401 148.237 387.416C145.607 393.388 143.824 399.715 141.551 405.865C139.59 411.212 137.584 416.56 135.266 421.684C134.374 423.689 132.591 425.472 130.853 426.898C127.153 429.883 123.185 428.992 121.402 424.625C120.288 421.907 119.708 418.788 119.619 415.802C119.396 409.341 120.511 403.013 122.026 396.774C123.988 388.753 125.994 380.777 127.643 372.711C128.668 367.72 129.292 362.685 128.178 357.56C126.841 351.411 124.121 350.208 119.129 354.129C115.875 356.669 113.111 359.744 109.991 362.418C106.781 365.18 103.572 367.943 100.095 370.305C97.3756 372.132 94.1215 372.979 90.6891 372.31C85.8748 371.33 82.7545 368.344 80.9715 363.844C78.8764 358.541 79.0991 353.149 80.3918 347.757C82.0857 340.805 85.5182 334.701 89.5746 328.908C93.1408 323.872 97.108 319.06 100.451 313.89C103.928 308.499 107.316 302.973 109.991 297.18C117.435 281.227 112.532 266.967 100.006 256.496C92.0709 249.856 82.7544 245.801 72.8584 242.904C70.8079 242.281 68.6237 241.969 67.2864 239.874C65.8599 237.602 65.7708 235.062 67.7767 233.324C72.591 229.269 77.8511 226.149 84.493 226.328C87.0784 226.55 89.53 226.506 91.2685 226.506Z" fill="#111111"/>
</svg>
