<svg width="163" height="159" viewBox="0 0 163 159" fill="none" xmlns="http://www.w3.org/2000/svg">
<path d="M22.3127 15.2534C24.5768 10.3891 28.5743 6.12633 34.6059 3.56156C37.6836 2.25264 41.0797 1.98733 44.6174 2.27034C46.8284 2.44722 49.0571 2.69485 51.2681 2.83635C55.354 3.10167 59.3161 2.9071 63.1014 1.77507C66.2499 0.8376 69.5045 0.218509 72.9006 0.0416286C79.4628 -0.312133 85.2115 1.58049 90.1818 6.03789C92.9765 8.5319 95.7889 11.0259 99.0435 13.0424C101.75 14.7227 104.633 16.0493 107.605 17.2168C113.813 19.6754 120.287 20.8428 126.725 22.2579C131.36 23.2838 135.976 24.2743 140.487 25.8485C148.093 28.484 153.823 33.1006 158.175 39.2561C160.032 41.8739 161.447 44.6156 162.172 47.5695C163.021 51.054 162.331 54.0433 159.059 55.9182C157.697 56.6965 156.052 57.1918 154.443 57.5632C150.781 58.3946 146.925 58.3592 143.087 58.3946C140.062 58.4299 137.038 58.4123 134.031 58.5361C129.219 58.7306 124.974 60.2695 120.853 62.0914C116.024 64.2316 111.231 66.4603 105.836 67.5747C100.123 68.7421 94.3562 68.7775 88.4838 66.7256C85.5298 65.682 82.8766 64.1255 80.4534 62.2329C78.5431 60.7471 76.6681 59.2082 74.8463 57.6517C69.8582 53.3535 63.9858 50.5941 57.6004 48.8784C52.9661 47.6402 48.2611 46.7735 43.6091 45.6592C41.4335 45.1462 39.2579 44.5271 37.1176 43.8196C33.4208 42.5991 30.3254 40.5119 27.9021 37.6818C24.7537 34.0204 22.3127 30.076 21.3222 25.6186C20.5616 22.2048 20.933 19.0032 22.3127 15.2534ZM98.619 26.0431C97.6992 25.6893 96.7971 25.3179 95.8774 24.9641C91.8091 23.4606 87.5994 22.647 83.3896 21.7803C78.6315 20.8074 73.8557 20.3298 69.1153 20.4713C66.1614 20.5598 63.3667 21.0551 61.0496 22.6293C58.7501 24.1859 58.5909 25.5832 60.4836 27.8826C60.6074 28.0242 60.7135 28.1833 60.855 28.3072C63.2252 30.7127 66.2322 31.9686 69.5222 32.4992C72.6883 33.0122 75.713 33.8258 78.5961 35.3116C79.9758 36.0192 81.1786 36.8328 82.1514 38.0002C82.9474 38.9554 83.1243 39.7867 82.6113 40.7596C81.9569 41.9977 82.1337 43.2182 83.2304 44.3856C84.3801 45.6238 85.8129 46.1014 87.4402 45.836C88.5191 45.6592 89.262 45.1639 89.545 44.1203C89.775 43.2713 89.545 42.5284 89.0852 41.7501C88.4661 40.7242 88.4661 40.4235 89.3682 39.769C89.8457 39.4153 90.4648 39.1146 91.0839 39.0615C92.0037 38.9731 92.9942 39.0438 93.9494 39.203C96.0543 39.5745 98.1591 40.0167 100.264 40.4766C103.872 41.2725 107.375 41.1664 110.824 40.5827C111.726 40.4235 112.61 40.0874 113.371 39.6629C114.662 38.92 115.034 37.7526 114.503 36.3376C114.291 35.7538 113.972 35.1701 113.583 34.6572C112.593 33.3129 111.266 32.2693 109.727 31.4733C109.214 31.208 108.666 30.9427 108.171 30.642C105.128 28.767 101.927 27.3166 98.619 26.0431Z" fill="black"/>
<path d="M97.1864 149.842C90.2527 153.768 82.7353 156.298 74.7579 157.642C64.7465 159.322 54.5405 159.623 44.0691 157.5C36.9232 156.05 30.0248 153.538 23.5687 149.116C13.6634 142.359 6.9419 132.967 3.20972 121.399C-0.929289 108.593 -1.15923 96.2113 3.06821 84.6079C7.61405 72.1201 16.405 64.868 28.7513 62.1971C36.251 60.5875 43.9984 60.6583 51.905 61.6842C60.7136 62.8162 69.4161 64.9565 77.9949 68.441C87.7233 72.3855 96.7973 77.798 104.492 85.9876C110.682 92.5675 115.122 100.138 116.909 108.982C119.12 119.966 116.767 129.323 111.107 137.371C107.499 142.466 103.023 146.392 97.1864 149.842Z" fill="black"/>
</svg>
