<svg width="170" height="167" viewBox="0 0 170 167" fill="none" xmlns="http://www.w3.org/2000/svg">
<path d="M128.675 0C133.816 0.308792 138.575 2.68831 141.753 7.84696C142.098 8.41005 142.444 8.99131 142.734 9.59073C143.406 11.062 144.532 11.7159 146.131 11.8249C152.924 12.3154 158.537 17.0562 160.208 23.6499C160.862 26.2292 160.771 28.7722 160.063 31.3333C159.663 32.7683 159.79 33.0771 160.989 33.9308C163.133 35.4566 164.604 37.4365 164.858 40.1248C164.931 40.8877 164.895 41.7051 164.695 42.4317C164.459 43.3399 164.695 44.012 165.258 44.6841C166.693 46.4097 167.801 48.3169 168.437 50.4785C169.581 54.402 169.199 58.1256 166.62 61.4134C165.857 62.3942 164.858 63.1935 163.896 64.0108C163.351 64.465 162.951 64.9372 162.878 65.6456C162.642 68.3521 161.044 70.1504 158.737 71.2765C157.647 71.8033 157.029 72.4754 156.612 73.5834C155.812 75.6723 154.268 77.2526 152.488 78.5604C149.945 80.4313 147.057 81.5575 144.024 82.3386C141.354 83.0107 138.647 83.3921 135.886 83.3013C132.017 83.1923 128.33 82.3931 124.933 80.4495C124.461 80.177 124.007 80.1044 123.462 80.1952C121.155 80.5948 118.885 80.4313 116.777 79.3233C115.978 78.9055 115.233 78.3243 114.58 77.6885C114.089 77.2163 113.671 77.1073 113.017 77.2889C107.023 78.9419 99.3216 76.5442 95.3436 71.8215C93.3456 69.442 92.1831 66.7536 92.2921 63.5931C92.3647 61.7403 92.8551 60.0147 93.7997 58.4344C94.1811 57.7805 94.2175 57.2901 93.8542 56.5998C92.8915 54.7471 92.9823 52.8035 93.7815 50.9144C94.0903 50.1697 94.0176 49.5884 93.5454 48.9708C91.1477 45.8647 90.2758 42.3046 90.3303 38.4537C90.3666 36.165 90.8571 33.9672 91.8016 31.8964C93.3637 28.4816 95.943 26.0839 99.3216 24.5217C100.103 24.1585 100.866 23.8133 101.647 23.4864C102.41 23.1594 102.773 22.6145 102.827 21.7789C103.027 18.7818 104.135 16.1662 106.26 14.0228C107.822 12.4425 109.621 11.2255 111.691 10.4444C112.836 10.0085 113.599 9.35459 114.071 8.17392C115.488 4.63189 118.285 2.56116 121.718 1.19884C123.698 0.417778 125.769 0.0181643 128.675 0ZM124.406 46.1554C124.461 43.8485 123.862 41.8323 122.681 39.9614C121.791 38.5446 120.592 37.4547 119.012 36.8916C117.74 36.4375 116.523 36.5647 115.433 37.4002C114.198 38.3629 113.799 39.7252 113.708 41.2147C113.581 43.2673 114.107 45.1745 114.87 47.0273C115.597 48.8255 116.523 50.533 118.194 51.641C120.864 53.4029 122.681 52.5129 123.698 50.0607C124.243 48.7892 124.443 47.445 124.406 46.1554ZM150.291 44.5206C150.145 43.8122 150.073 43.0493 149.818 42.3772C149.255 40.8696 147.875 40.1975 146.331 40.6334C145.731 40.7969 145.15 41.0694 144.605 41.3782C143.443 42.0503 142.534 43.0311 141.717 44.0847C140.246 45.9919 139.356 48.1716 138.847 50.4966C138.411 52.4765 139.537 53.9478 141.553 54.0932C142.425 54.1477 143.243 54.0387 144.006 53.6027C146.712 52.0588 148.601 49.8246 149.691 46.9001C149.964 46.1735 150.091 45.3562 150.291 44.5206Z" fill="black"/>
<path d="M19.3444 124.316C18.5088 123.989 17.9457 123.662 17.3463 123.572C8.59114 122.173 3.65046 116.542 1.0893 108.568C-0.763456 102.792 -0.309367 97.07 2.88754 91.7842C5.57585 87.3521 9.71732 84.9726 14.7125 83.9372C15.3846 83.7919 16.0566 83.6284 17.1647 83.3741C16.3836 82.5022 15.8932 81.8483 15.2938 81.3034C12.9506 79.1418 11.0433 76.6533 9.64468 73.7834C7.28333 68.9517 6.6294 63.9565 8.355 58.7797C10.4621 52.4767 15.8205 49.2071 22.4141 50.1335C26.7554 50.7511 30.3337 52.9308 33.7486 55.492C34.4752 56.0369 35.1836 56.6182 36.1827 57.3811C36.5823 56.5273 36.891 55.9279 37.109 55.3103C37.6357 53.9117 38.0354 52.4404 38.6529 51.0781C42.8307 42.0504 53.0936 39.5801 60.9587 45.6833C65.3545 49.0982 67.6794 53.7845 68.9873 59.0522C69.3142 60.3782 69.4777 61.7405 69.841 63.0483C70.3133 64.6831 70.8945 64.9374 72.5475 64.3925C73.1651 64.1927 73.7464 63.9202 74.3276 63.6477C80.5943 60.6506 86.8064 62.8667 89.7491 69.1697C91.1477 72.1486 91.5655 75.3273 91.4747 78.5969C91.4565 79.0328 91.402 79.4506 91.3838 79.8866C91.3112 81.9573 91.8924 82.3751 93.8178 81.5032C96.3972 80.3225 99.0673 79.5959 101.937 79.8502C106.678 80.268 110.184 83.5194 110.983 88.224C111.673 92.2383 110.892 96.0709 109.548 99.8309C109.185 100.848 108.713 101.811 108.367 102.828C108.004 103.918 108.295 104.445 109.421 104.699C109.966 104.826 110.565 104.808 111.128 104.844C116.523 105.208 120.156 108.695 120.701 114.108C121.173 118.667 119.647 122.754 117.304 126.532C115.288 129.766 112.872 132.69 109.639 134.815C109.457 134.942 109.276 135.051 109.112 135.197C106.279 137.467 106.297 138.285 109.167 140.537C109.566 140.846 109.966 141.136 110.365 141.445C111.746 142.59 111.71 143.371 110.256 144.497C108.622 145.75 106.969 147.022 105.352 148.293C103.99 149.347 103.554 149.238 102.827 147.657C102.355 146.622 101.919 145.532 101.265 144.624C100.43 143.48 99.6485 143.589 98.9583 144.769C98.8493 144.951 98.7585 145.151 98.6858 145.351C96.4879 151.708 91.7653 155.741 86.0798 158.81C83.1554 160.391 80.0857 161.553 76.7616 161.935C73.2559 162.352 69.9137 161.862 66.7713 160.173C65.082 159.246 64.8458 159.319 63.4653 160.736C60.995 163.224 58.234 165.168 54.6557 165.767C52.6031 166.112 50.6232 165.967 48.8431 164.841C47.6806 164.096 46.6816 164.169 45.4283 164.695C40.5421 166.766 35.5287 167.456 30.3156 166.003C17.7641 162.479 10.5529 150.727 13.1685 137.958C14.0404 133.689 15.875 129.82 18.2182 126.169C18.5451 125.66 18.8358 125.17 19.3444 124.316Z" fill="black"/>
</svg>
