<svg width="552" height="552" viewBox="0 0 552 552" fill="none" xmlns="http://www.w3.org/2000/svg">
<path d="M89.3767 258.793C91.7072 258.411 94.0377 257.98 96.606 257.55C98.4133 253.296 100.126 248.947 102.123 244.741C106.166 236.138 110.256 227.583 114.632 219.123C115.963 216.542 116.582 214.487 114.679 212.049C114.394 211.667 114.299 211.141 113.966 210.281C115.202 209.898 116.344 209.134 117.39 209.229C119.721 209.468 120.624 207.987 121.623 206.362C126.855 197.854 132.086 189.347 137.366 180.887C138.412 179.214 139.363 177.493 140.6 175.964C141.884 174.339 141.932 172.905 140.79 171.28C140.315 170.611 140.124 169.751 139.554 168.412C140.885 168.269 141.932 167.934 142.883 168.078C145.118 168.412 146.45 167.504 147.782 165.736C153.632 157.802 159.672 150.011 165.617 142.173C165.997 141.695 166.33 141.121 166.758 140.739C169.755 138.11 171.467 135.147 169.374 131.084C169.279 130.941 169.517 130.654 169.755 129.937C170.754 129.937 171.99 129.746 173.084 130.033C175.082 130.511 176.271 129.65 177.555 128.312C183.643 122.051 189.778 115.79 196.008 109.672C197.483 108.19 198.577 106.757 198.434 104.558C198.386 103.985 198.624 103.363 198.719 103.029C199.052 102.79 199.147 102.646 199.243 102.646C203.19 103.268 205.806 100.973 208.612 98.7271C212.512 95.5248 216.65 92.6093 220.788 89.6938C223.118 88.0687 225.591 86.6349 225.401 83.1936C227.208 83.2892 228.778 83.6716 230.205 83.337C231.584 83.0503 232.773 81.951 234.105 81.2818C239.384 78.6053 244.616 75.9288 249.943 73.3478C251.75 72.4875 253.652 71.8662 253.652 69.3331C253.652 68.9985 254.271 68.6639 254.794 68.1382C257.219 70.4323 259.693 69.4287 262.308 68.4727C266.018 67.1823 269.775 65.8918 273.58 65.0793C275.958 64.5536 277.718 63.741 278.622 61.4469C278.764 61.1123 279.05 60.8733 279.383 60.3954C280.619 61.3513 281.618 62.1638 282.094 62.5462C290.084 61.7814 297.503 61.0167 304.923 60.4432C306.255 60.3476 307.301 60.1086 308.11 59.0571C309.156 57.7189 310.392 57.5277 311.486 58.9137C312.533 60.2998 313.912 60.252 315.434 60.2998C324.138 60.6344 332.841 61.3991 341.355 63.4065C344.208 64.0756 346.682 64.0756 348.632 61.5903C348.869 61.2557 349.44 61.2079 350.344 60.8255C350.724 62.4506 351.057 63.7888 351.438 65.3661C356.289 67.0867 361.283 68.8073 366.229 70.5757C376.264 74.1126 385.491 79.2744 394.575 84.7231C395.955 85.5356 397.191 86.5393 398.475 87.543C400.283 88.9291 402.042 90.1717 404.516 89.1202C404.896 88.9291 405.467 89.1202 406.323 89.168C405.086 93.0872 408.035 94.5689 410.318 96.5285C419.83 104.654 428.249 113.783 435.43 124.058C436.572 125.683 437.761 126.831 439.901 126.687C440.567 126.639 441.233 127.07 442.184 127.309C441.566 128.742 441.09 129.937 440.567 131.18C443.135 136.198 445.799 141.217 448.272 146.283C452.029 153.93 454.93 161.912 457.07 170.181C457.451 171.71 458.212 172.523 459.639 172.953C460.828 173.287 461.922 173.861 463.016 174.339C463.206 174.435 463.349 174.721 463.777 175.247C463.063 176.06 462.397 177.111 461.446 177.685C459.639 178.784 459.401 180.218 459.829 182.082C460.257 183.898 460.59 185.714 460.923 187.53C462.54 196.516 463.111 205.597 463.349 214.726C463.444 217.689 462.445 221.035 466.44 222.994C463.253 224.811 463.301 227.296 463.016 229.925C462.16 239.006 460.97 248.087 459.877 257.168C459.734 258.363 459.544 259.605 459.353 260.848C461.113 262.139 462.73 263.333 465.013 265.006C463.206 265.723 462.159 266.297 461.066 266.536C458.735 267.014 457.736 268.304 457.118 270.646C454.359 281.161 451.363 291.58 448.367 302.047C447.606 304.772 446.702 307.496 445.561 310.077C444.752 311.989 444.895 313.375 446.607 314.57C447.32 315.048 448.034 315.526 448.795 316.004C448.652 316.338 448.462 316.673 448.319 317.055C447.13 317.485 445.989 318.011 444.752 318.393C443.135 318.871 442.041 319.636 441.28 321.309C436.001 333.019 430.627 344.681 425.252 356.295C424.586 357.777 424.396 359.067 425.205 360.501C425.728 361.409 426.061 362.413 426.441 363.273C425.966 363.703 425.775 363.99 425.633 363.942C422.208 363.369 420.544 365.089 418.879 368.005C413.885 376.799 408.463 385.307 403.089 393.91C400.996 397.255 398.618 400.362 396.43 403.516C397.001 405.38 397.572 407.101 398.19 409.156C396.621 409.347 395.479 409.73 394.528 409.491C392.578 409.061 391.531 410.017 390.485 411.355C381.449 423.112 371.603 434.105 360.807 444.286C360.522 444.525 360.379 444.859 360.094 445.289C360.855 447.345 361.616 449.448 362.472 451.742C359.808 452.745 357.621 452.315 355.575 451.694C353.625 451.12 352.341 451.646 350.914 452.841C342.401 460.01 333.317 466.319 323.614 471.768C312.628 477.886 301.213 483.048 288.943 485.963C281.666 487.684 274.341 489.452 266.922 490.312C255.317 491.651 243.569 491.794 232.06 489.5C227.684 488.64 223.166 488.592 218.885 487.253C214.557 485.915 210.086 484.864 205.806 483.43C201.478 481.996 197.197 480.419 193.012 478.698C174.796 471.194 158.388 460.679 143.358 447.87C128.424 435.157 115.773 420.388 105.452 403.708C100.411 395.582 96.2731 386.932 92.706 377.946C89.0914 368.674 86.5231 359.163 84.8109 349.46C82.3853 335.6 82.2426 321.548 83.9072 307.544C85.4767 294.352 88.4731 281.496 92.7536 268.973C93.7048 266.153 93.7523 264.098 91.0889 262.282C90.2328 261.708 89.7097 260.657 89.0438 259.797C89.1865 259.51 89.2816 259.175 89.3767 258.793Z" fill="#111111"/>
</svg>
