<svg width="552" height="552" viewBox="0 0 552 552" fill="none" xmlns="http://www.w3.org/2000/svg">
<path d="M184.165 200.781C206.34 190.738 228.762 184.125 252.627 183.28C278.928 182.385 300.952 191.831 319 210.823C329.242 221.562 337.396 233.793 343.859 247.068C349.775 259.199 355.592 271.429 360.514 283.958C368.966 305.586 375.877 327.71 381.694 350.182C388.257 375.638 393.079 401.392 394.969 427.643C395.715 437.636 395.665 447.679 393.974 457.573C391.638 471.096 386.368 483.128 375.43 492.027C368.469 497.695 360.564 501.125 351.764 502.965C341.323 505.153 330.932 504.357 320.492 503.91C292.053 502.766 264.758 495.557 237.463 488.249C219.863 483.575 202.611 477.808 185.607 471.146C147.971 456.429 113.318 436.741 83.5865 409.098C74.0407 400.248 66.0361 390.255 60.6169 378.273C53.905 363.457 52.7118 348.194 56.3411 332.483C60.418 315.181 69.0689 300.117 79.5096 285.947C97.3583 261.784 119.234 241.847 143.646 224.546C156.672 215.497 170.394 207.492 184.165 200.781Z" fill="black"/>
<path d="M331.778 107.658C330.932 103.631 330.336 99.256 329.043 95.0797C327.303 89.4616 325.016 84.0424 323.027 78.474C321.983 75.4909 321.039 72.458 320.243 69.4252C318.553 62.7133 320.044 56.5981 325.463 52.3224C331.28 47.6986 338.042 47.1021 344.953 50.1846C350.024 52.4716 353.504 56.4489 356.388 60.9235C360.465 67.2376 363.348 74.1485 365.834 81.2085C369.464 91.5 372.944 101.841 376.971 111.984C378.96 117.005 382.092 121.579 384.777 126.352C386.815 129.932 390.196 130.926 393.974 130.678C395.963 130.578 397.952 129.982 399.841 129.385C421.17 122.723 441.356 125.557 460.397 136.843C475.711 145.891 486.3 159.116 492.018 175.871C500.768 201.575 497.885 226.335 484.212 249.702C477.898 260.491 469.645 269.639 458.956 276.351C453.934 279.483 448.565 281.819 442.598 282.665C428.628 284.703 417.69 277.643 413.613 264.12C411.028 255.519 410.332 246.619 409.586 237.77C408.741 227.18 407.796 216.59 405.26 206.199C403.57 199.338 401.333 192.676 397.753 186.56C389.4 172.242 374.833 167.22 361.409 171.745C356.537 173.385 351.714 175.374 346.842 177.064C343.312 178.257 339.732 179.302 336.103 180.097C331.778 181.091 328.198 179.302 325.314 176.169C323.674 174.38 322.132 172.391 320.939 170.303C312.437 155.984 299.511 151.161 283.551 152.603C271.967 153.647 261.228 157.824 250.539 162.05C241.192 165.729 231.845 169.457 222.398 172.888C216.432 175.026 210.118 175.97 203.754 175.573C190.032 174.777 181.133 166.474 178.846 152.504C176.857 140.124 179.393 128.341 185.309 117.502C200.423 89.7102 224.586 75.5405 255.61 72.9055C270.227 71.6625 284.098 75.4909 297.075 82.4016C307.913 88.1689 316.862 96.1237 325.115 105.023C325.911 105.868 326.607 106.763 327.452 107.559C328.496 108.603 329.739 109.249 331.778 107.658Z" fill="black"/>
</svg>
