<svg width="552" height="552" viewBox="0 0 552 552" fill="none" xmlns="http://www.w3.org/2000/svg">
<path d="M169.133 57.7738C178.843 55.6028 188.554 54.8175 198.447 55.3718C209.616 55.9723 219.783 59.1133 227.898 67.4278C231.591 71.2155 233.961 75.65 235.42 80.7772C238.201 90.4775 236.834 99.4849 232.594 108.446C227.397 119.347 220.649 129.186 213.4 138.748C205.285 149.464 196.942 160.042 188.873 170.805C180.986 181.337 173.008 191.822 165.577 202.631C161.975 207.85 159.422 213.809 159.832 220.553C160.379 229.468 166.215 238.014 177.475 237.459C183.493 237.182 188.919 235.658 194.298 232.886C200.453 229.745 205.969 226.004 209.753 220.091C210.984 218.151 212.17 215.934 212.534 213.717C213.309 208.867 215.087 205.218 219.737 202.862C223.339 201.014 226.485 198.104 229.631 195.471C232.685 192.884 235.831 192.422 239.387 193.947C239.66 194.085 239.934 194.224 240.207 194.316C247.821 196.903 247.593 196.441 254.568 191.961C259.31 188.912 260.677 184.755 261.316 179.812C261.498 178.334 261.771 176.856 261.863 175.424C261.999 172.976 263.185 171.405 265.191 170.066C271.573 165.816 277.865 161.474 284.111 157.04C286.755 155.146 289.217 155.146 291.724 157.224C293.183 158.425 294.687 159.626 296.192 160.827C297.879 162.167 299.474 162.305 301.435 161.058C304.626 158.98 308 157.132 311.328 155.331C313.288 154.268 314.61 152.975 314.61 150.573C314.656 148.078 315.112 145.584 315.021 143.09C314.884 139.995 316.023 137.916 318.85 136.808C325.369 134.175 331.843 131.449 338.408 128.955C342.01 127.569 345.566 127.523 348.757 130.341C350.17 131.634 351.857 132.604 353.225 133.944C355.231 135.838 357.237 136.253 360.018 135.653C365.124 134.452 370.367 133.574 375.61 132.974C380.305 132.466 383.405 130.295 385.411 125.953C387.463 121.518 389.15 120.733 393.755 121.888C399.864 123.412 405.973 125.121 412.127 126.599C414.908 127.246 416.732 128.77 416.914 131.634C417.188 136.623 419.923 139.441 424.072 141.75C427.628 143.736 430.728 146.554 433.874 149.187C435.697 150.711 437.475 151.404 439.891 150.804C448.143 148.725 447.687 148.402 453.523 156.393C456.577 160.55 459.814 164.615 463.006 168.726C466.425 173.161 466.744 174.223 463.553 178.519C460.68 182.399 460.042 185.863 462.55 190.251C464.1 192.977 464.693 196.349 465.513 199.49C465.923 201.014 466.607 201.938 467.975 202.816C471.075 204.756 473.947 207.065 476.956 209.19C479.19 210.761 480.284 212.978 480.239 215.657C480.102 224.387 479.874 233.117 479.6 241.848C479.555 243.464 479.19 245.127 478.689 246.652C477.822 249.146 476.227 250.994 473.537 251.686C472.261 252.01 471.075 252.656 469.844 253.072C468.066 253.673 467.428 254.92 467.2 256.721C466.516 261.571 465.741 266.422 464.92 271.225C464.556 273.35 464.601 275.29 465.969 277.092C469.616 281.896 469.662 287.115 467.884 292.705C465.194 301.296 462.778 310.026 460.179 318.664C459.495 320.974 458.082 322.683 455.529 322.775C449.785 322.96 446.73 326.055 444.906 331.413C443.584 335.293 441.442 338.989 439.299 342.499C436.427 347.257 436.472 352.338 437.065 357.511C437.293 359.682 437.338 361.484 436.244 363.424C432.369 370.26 428.722 377.143 424.984 384.025C423.616 386.566 421.564 387.998 418.738 388.368C417.461 388.552 416.139 388.968 414.908 389.384C403.693 393.218 398.359 401.855 396.079 412.941C394.621 420.055 393.754 427.307 391.84 434.282C390.518 439.04 388.192 443.659 385.639 447.955C378.983 459.226 370.914 469.526 360.428 477.379C354.729 481.629 348.393 485.462 341.782 488.095C317.437 497.703 293.548 495.255 270.342 483.707C256.711 476.917 244.994 467.586 235.466 455.715C228.491 447.077 223.111 437.423 219.327 426.845C214.449 413.126 212.99 399.176 215.498 384.857C216.911 376.773 219.601 369.152 223.476 361.853C228.719 351.968 236.195 344.254 244.265 336.864C250.511 331.136 257.759 326.933 264.872 322.498C280.691 312.613 296.557 302.728 312.376 292.797C317.391 289.656 320.765 284.852 323.637 279.91C325.552 276.63 325.187 272.334 323.819 268.685C320.856 260.832 315.066 257.876 306.176 259.724C302.347 260.509 298.471 261.71 295.052 263.604C285.797 268.639 276.588 273.905 267.653 279.54C252.38 289.194 237.107 298.894 220.513 306.1C211.395 310.073 202.14 313.814 192.338 315.939C188.189 316.863 184.223 318.572 180.074 319.311C166.807 321.667 153.541 323.792 140.001 323.514C132.341 323.33 124.774 322.313 117.661 319.357C110.777 316.539 104.668 312.336 99.7445 306.701C91.2648 297 85.6572 285.822 82.6482 273.073C78.1348 253.95 81.4629 235.935 89.0308 218.428C92.8604 209.606 97.465 201.107 102.981 193.208C114.105 177.318 126.46 162.444 140.274 148.864C146.064 143.182 152.264 137.824 156.413 130.664C158.556 126.969 160.653 123.135 160.516 118.654C160.243 111.818 155.683 108.538 150.121 106.183C146.793 104.751 143.237 104.335 139.773 105.074C134.347 106.275 128.694 107.153 123.725 109.462C116.704 112.696 110.048 116.899 103.483 121.103C96.4165 125.675 91.6752 132.558 86.8882 139.394C85.9764 140.734 84.8366 141.935 83.6513 142.997C81.9189 144.614 79.7762 145.307 77.5879 144.337C75.3084 143.321 74.3965 141.15 74.5333 138.794C74.8069 134.96 75.0347 131.034 76.0377 127.338C78.1804 119.717 81.7365 112.788 86.6147 106.46C98.3769 91.2165 113.649 80.6849 130.518 72.1856C135.35 69.7374 140.228 67.2892 145.334 65.4416C153.13 62.5777 161.154 60.2681 169.133 57.7738Z" fill="#111111"/>
</svg>
