<svg width="552" height="552" viewBox="0 0 552 552" fill="none" xmlns="http://www.w3.org/2000/svg">
<path d="M472.428 134.869C486.239 154.939 494.088 177.096 495.43 201.488C496.423 220.118 493.393 238.002 484.202 254.446C477.346 266.766 468.205 277.149 456.481 285.148C430.598 302.933 401.586 307.851 371.033 304.771C333.327 300.995 301.88 284.502 276.742 256.185C270.781 249.429 265.118 242.275 260.249 234.724C244.501 210.232 237.148 183.504 241.172 154.293C242.066 147.835 243.557 141.476 245.196 135.117C246.687 129.255 246.885 129.305 242.017 125.479C235.459 120.362 235.857 111.47 242.762 107.992C245.494 106.601 248.227 106.85 251.058 107.794C256.126 109.483 256.771 109.234 259.802 104.912C267.055 94.6286 276.047 86.0838 286.778 79.6752C307.842 67.0567 330.843 61.7411 355.285 63.9767C395.624 67.7026 429.356 85.0903 457.077 114.401C459.71 117.183 462.393 120.015 464.678 123.095C467.46 126.87 469.895 130.894 472.428 134.869Z" fill="#111111"/>
<path d="M171.474 490.868C158.557 491.414 146.137 489.427 134.115 485.502C104.755 475.914 82.5978 457.732 68.9361 429.812C57.5099 406.463 55.4234 381.822 60.739 356.585C65.6572 333.236 76.537 312.768 92.4839 295.033C116.081 268.802 145.491 253.203 180.366 247.987C184.489 247.391 188.712 247.142 192.885 246.844C199.244 246.397 204.013 243.665 207.143 238.002C210.124 232.537 213.353 227.221 216.532 221.905C217.377 220.465 218.271 219.024 219.364 217.732C223.09 213.261 228.505 212.466 232.778 215.646C237.249 218.974 238.242 224.737 235.162 229.556C233.523 232.09 231.734 234.524 230.145 237.107C229.201 238.697 228.455 240.386 227.909 242.125C226.369 246.745 228.108 250.173 232.827 251.961C237.398 253.65 242.068 255.091 246.489 257.128C282.854 274.019 304.166 302.236 309.73 341.98C313.109 365.975 308.786 388.926 298.056 410.437C277.588 451.671 244.452 477.206 199.84 487.986C190.451 490.272 180.913 491.365 171.474 490.868ZM158.507 366.124C158.607 362.1 158.358 358.076 154.434 355.89C150.261 353.605 146.336 355.244 142.61 357.579C141.915 358.026 141.12 358.424 140.524 358.97C134.81 364.335 130.19 370.446 127.657 377.947C126.961 379.935 126.812 382.22 126.961 384.356C127.458 391.063 130.488 393.646 137.245 392.801C139.828 392.503 142.511 391.659 144.796 390.367C154.136 385.051 157.862 376.457 158.507 366.124ZM244.154 385.648C243.906 378.941 242.515 372.284 238.193 366.571C231.983 358.374 222.146 359.268 217.725 368.508C217.278 369.403 216.88 370.346 216.632 371.29C214.396 380.382 214.744 389.224 219.414 397.571C220.209 399.011 221.351 400.303 222.444 401.545C228.455 408.301 236.851 406.215 240.826 399.359C243.26 395.186 243.906 390.615 244.154 385.648Z" fill="#111111"/>
<path d="M237.347 385.996C236.304 389.275 235.609 392.703 234.168 395.833C232.827 398.664 230.392 398.863 228.008 396.727C227.163 395.982 226.418 395.038 225.822 393.995C222.096 387.387 221.698 380.382 223.835 373.179C224.48 371.043 225.424 368.907 227.859 368.509C230.343 368.112 231.684 370.248 232.926 371.987C235.907 376.11 236.552 380.879 237.347 385.996Z" fill="#111111"/>
</svg>
