<svg width="200" height="200" viewBox="0 0 200 200" fill="none" xmlns="http://www.w3.org/2000/svg">
<path d="M32.3829 93.7655C33.2273 93.627 34.0716 93.4712 35.0022 93.3153C35.657 91.7741 36.2774 90.1982 37.0011 88.6743C38.4659 85.5573 39.9478 82.4575 41.5332 79.3924C42.0157 78.4573 42.2397 77.7126 41.5504 76.8295C41.447 76.6909 41.4126 76.5004 41.2919 76.1887C41.74 76.0502 42.1536 75.7731 42.5327 75.8077C43.377 75.8943 43.7045 75.3575 44.0663 74.7687C45.9619 71.6863 47.8574 68.6038 49.7702 65.5387C50.1493 64.9326 50.494 64.3092 50.942 63.7551C51.4073 63.1663 51.4245 62.6468 51.0109 62.058C50.8386 61.8156 50.7697 61.5038 50.5629 61.019C51.0454 60.967 51.4245 60.8458 51.7691 60.8978C52.5791 61.019 53.0616 60.6899 53.5441 60.0492C55.6636 57.1746 57.8521 54.3519 60.0061 51.5119C60.144 51.3387 60.2646 51.1309 60.4197 50.9924C61.5053 50.04 62.1257 48.9663 61.3675 47.4943C61.333 47.4424 61.4192 47.3385 61.5053 47.0787C61.8672 47.0787 62.3153 47.0095 62.7116 47.1134C63.4354 47.2865 63.8662 46.9748 64.3314 46.49C66.5372 44.2214 68.7601 41.9529 71.0175 39.7363C71.5517 39.1995 71.9481 38.68 71.8964 37.8834C71.8791 37.6756 71.9653 37.4504 71.9998 37.3292C72.1204 37.2426 72.1549 37.1907 72.1893 37.1907C73.6196 37.4158 74.5674 36.5846 75.5841 35.7707C76.9971 34.6104 78.4963 33.5541 79.9955 32.4978C80.8399 31.909 81.736 31.3895 81.6671 30.1426C82.3219 30.1773 82.8905 30.3158 83.4075 30.1946C83.9072 30.0907 84.3381 29.6924 84.8206 29.45C86.7333 28.4802 88.6289 27.5104 90.5589 26.5753C91.2137 26.2636 91.903 26.0385 91.903 25.1207C91.903 24.9995 92.127 24.8782 92.3166 24.6878C93.1954 25.519 94.0915 25.1553 95.0393 24.809C96.3834 24.3414 97.7447 23.8739 99.1233 23.5795C99.9849 23.389 100.623 23.0946 100.95 22.2634C101.002 22.1422 101.105 22.0556 101.226 21.8824C101.674 22.2287 102.036 22.5231 102.208 22.6617C105.103 22.3846 107.791 22.1075 110.479 21.8997C110.962 21.8651 111.341 21.7785 111.634 21.3975C112.013 20.9126 112.461 20.8434 112.857 21.3456C113.236 21.8478 113.736 21.8304 114.288 21.8478C117.441 21.969 120.595 22.2461 123.679 22.9734C124.713 23.2158 125.609 23.2158 126.316 22.3153C126.402 22.1941 126.609 22.1768 126.936 22.0383C127.074 22.627 127.195 23.1119 127.332 23.6834C129.09 24.3068 130.9 24.9302 132.692 25.5709C136.328 26.8524 139.671 28.7226 142.962 30.6968C143.462 30.9912 143.91 31.3548 144.375 31.7185C145.03 32.2207 145.668 32.6709 146.564 32.29C146.701 32.2207 146.908 32.29 147.218 32.3073C146.77 33.7273 147.839 34.2641 148.666 34.9741C152.112 37.918 155.163 41.2256 157.765 44.9487C158.178 45.5375 158.609 45.9531 159.384 45.9012C159.626 45.8839 159.867 46.0397 160.212 46.1263C159.988 46.6458 159.815 47.0787 159.626 47.529C160.556 49.3473 161.521 51.1656 162.417 53.0012C163.779 55.7719 164.83 58.6639 165.605 61.6597C165.743 62.2139 166.019 62.5082 166.536 62.6641C166.967 62.7853 167.363 62.9931 167.759 63.1663C167.828 63.2009 167.88 63.3048 168.035 63.4953C167.777 63.7897 167.535 64.1707 167.191 64.3785C166.536 64.7768 166.45 65.2963 166.605 65.9717C166.76 66.6297 166.88 67.2878 167.001 67.9458C167.587 71.2014 167.794 74.4916 167.88 77.7992C167.914 78.8729 167.552 80.0851 169 80.7951C167.845 81.4531 167.863 82.3536 167.759 83.306C167.449 86.5963 167.018 89.8865 166.622 93.1768C166.57 93.6097 166.501 94.0599 166.432 94.5102C167.07 94.9777 167.656 95.4107 168.483 96.0168C167.828 96.2765 167.449 96.4843 167.053 96.5709C166.208 96.7441 165.846 97.2116 165.622 98.0602C164.623 101.87 163.537 105.645 162.452 109.437C162.176 110.425 161.849 111.412 161.435 112.347C161.142 113.039 161.194 113.542 161.814 113.975C162.073 114.148 162.331 114.321 162.607 114.494C162.555 114.615 162.486 114.737 162.435 114.875C162.004 115.031 161.59 115.221 161.142 115.36C160.556 115.533 160.16 115.81 159.884 116.416C157.971 120.659 156.024 124.884 154.077 129.092C153.836 129.629 153.767 130.097 154.06 130.616C154.249 130.945 154.37 131.309 154.508 131.621C154.335 131.777 154.266 131.88 154.215 131.863C152.974 131.655 152.371 132.279 151.768 133.335C149.958 136.521 147.994 139.604 146.047 142.721C145.288 143.933 144.427 145.059 143.634 146.202C143.841 146.877 144.048 147.5 144.272 148.245C143.703 148.314 143.29 148.453 142.945 148.366C142.238 148.21 141.859 148.557 141.48 149.042C138.206 153.302 134.639 157.285 130.727 160.973C130.624 161.06 130.572 161.181 130.469 161.337C130.744 162.081 131.02 162.843 131.33 163.675C130.365 164.038 129.573 163.882 128.832 163.657C128.125 163.449 127.66 163.64 127.143 164.073C124.058 166.67 120.767 168.956 117.252 170.93C113.271 173.147 109.135 175.017 104.689 176.074C102.053 176.697 99.399 177.338 96.7108 177.649C92.5061 178.134 88.2498 178.186 84.0796 177.355C82.4942 177.043 80.8571 177.026 79.3062 176.541C77.7381 176.056 76.1183 175.675 74.5674 175.156C72.9992 174.636 71.4483 174.065 69.9319 173.441C63.332 170.723 57.3868 166.913 51.9415 162.272C46.5305 157.666 41.9468 152.315 38.2074 146.271C36.3808 143.327 34.8816 140.193 33.5891 136.937C32.2795 133.577 31.3489 130.131 30.7286 126.616C29.8497 121.594 29.798 116.503 30.4012 111.429C30.9698 106.649 32.0555 101.991 33.6064 97.4541C33.951 96.4324 33.9682 95.6877 33.0032 95.0297C32.6931 94.8219 32.5035 94.4409 32.2623 94.1292C32.3139 94.0253 32.3484 93.9041 32.3829 93.7655Z" fill="black"/>
</svg>
