<svg width="139" height="157" viewBox="0 0 139 157" fill="none" xmlns="http://www.w3.org/2000/svg">
    <path d="M2.38288 72.7655C3.22726 72.627 4.07164 72.4712 5.00218 72.3153C5.657 70.7741 6.27736 69.1982 7.00112 67.6743C8.46585 64.5573 9.94783 61.4575 11.5332 58.3924C12.0157 57.4573 12.2397 56.7126 11.5504 55.8295C11.447 55.6909 11.4126 55.5004 11.2919 55.1887C11.74 55.0502 12.1536 54.7731 12.5327 54.8077C13.377 54.8943 13.7045 54.3575 14.0663 53.7687C15.9619 50.6863 17.8574 47.6038 19.7702 44.5387C20.1493 43.9326 20.494 43.3092 20.942 42.7551C21.4073 42.1663 21.4245 41.6468 21.0109 41.058C20.8386 40.8156 20.7697 40.5038 20.5629 40.019C21.0454 39.967 21.4245 39.8458 21.7691 39.8978C22.5791 40.019 23.0616 39.6899 23.5441 39.0492C25.6636 36.1746 27.8521 33.3519 30.0061 30.5119C30.144 30.3387 30.2646 30.1309 30.4197 29.9924C31.5053 29.04 32.1257 27.9663 31.3675 26.4943C31.333 26.4424 31.4192 26.3385 31.5053 26.0787C31.8672 26.0787 32.3153 26.0095 32.7116 26.1134C33.4354 26.2865 33.8662 25.9748 34.3314 25.49C36.5372 23.2214 38.7601 20.9529 41.0175 18.7363C41.5517 18.1995 41.9481 17.68 41.8964 16.8834C41.8791 16.6756 41.9653 16.4504 41.9998 16.3292C42.1204 16.2426 42.1549 16.1907 42.1893 16.1907C43.6196 16.4158 44.5674 15.5846 45.5841 14.7707C46.9971 13.6104 48.4963 12.5541 49.9955 11.4978C50.8399 10.909 51.736 10.3895 51.6671 9.14264C52.3219 9.17727 52.8905 9.31581 53.4075 9.19459C53.9072 9.09069 54.3381 8.69239 54.8206 8.44995C56.7333 7.4802 58.6289 6.51044 60.5589 5.57532C61.2137 5.26361 61.903 5.03849 61.903 4.12069C61.903 3.99947 62.127 3.87825 62.3166 3.68776C63.1954 4.51898 64.0915 4.15532 65.0393 3.80898C66.3834 3.34142 67.7447 2.87386 69.1233 2.57947C69.9849 2.38898 70.6225 2.09459 70.9499 1.26337C71.0016 1.14215 71.105 1.05557 71.2256 0.882397C71.6737 1.22874 72.0356 1.52313 72.2079 1.66166C75.1029 1.38459 77.7911 1.10752 80.4793 0.899714C80.9618 0.86508 81.341 0.778495 81.6339 0.397519C82.013 -0.0873589 82.461 -0.156627 82.8574 0.345568C83.2365 0.847763 83.7362 0.830446 84.2877 0.847763C87.4412 0.968982 90.5947 1.24606 93.6792 1.97337C94.7132 2.21581 95.6092 2.21581 96.3158 1.31532C96.4019 1.1941 96.6087 1.17679 96.9361 1.03825C97.074 1.62703 97.1946 2.11191 97.3325 2.68337C99.0901 3.30679 100.9 3.9302 102.692 4.57093C106.328 5.8524 109.671 7.72264 112.962 9.69678C113.462 9.99117 113.91 10.3548 114.375 10.7185C115.03 11.2207 115.668 11.6709 116.564 11.29C116.701 11.2207 116.908 11.29 117.218 11.3073C116.77 12.7273 117.839 13.2641 118.666 13.9741C122.112 16.918 125.163 20.2256 127.765 23.9487C128.178 24.5375 128.609 24.9531 129.384 24.9012C129.626 24.8839 129.867 25.0397 130.212 25.1263C129.988 25.6458 129.815 26.0787 129.626 26.529C130.556 28.3473 131.521 30.1656 132.417 32.0012C133.779 34.7719 134.83 37.6639 135.605 40.6597C135.743 41.2139 136.019 41.5082 136.536 41.6641C136.967 41.7853 137.363 41.9931 137.759 42.1663C137.828 42.2009 137.88 42.3048 138.035 42.4953C137.777 42.7897 137.535 43.1707 137.191 43.3785C136.536 43.7768 136.45 44.2963 136.605 44.9717C136.76 45.6297 136.88 46.2878 137.001 46.9458C137.587 50.2014 137.794 53.4916 137.88 56.7992C137.914 57.8729 137.552 59.0851 139 59.7951C137.845 60.4531 137.863 61.3536 137.759 62.306C137.449 65.5963 137.018 68.8865 136.622 72.1768C136.57 72.6097 136.501 73.0599 136.432 73.5102C137.07 73.9777 137.656 74.4107 138.483 75.0168C137.828 75.2765 137.449 75.4843 137.053 75.5709C136.208 75.7441 135.846 76.2116 135.622 77.0602C134.623 80.8699 133.537 84.6451 132.452 88.4375C132.176 89.4246 131.849 90.4116 131.435 91.3468C131.142 92.0395 131.194 92.5416 131.814 92.9746C132.073 93.1477 132.331 93.3209 132.607 93.4941C132.555 93.6153 132.486 93.7365 132.435 93.8751C132.004 94.0309 131.59 94.2214 131.142 94.3599C130.556 94.5331 130.16 94.8102 129.884 95.4163C127.971 99.659 126.024 103.884 124.077 108.092C123.836 108.629 123.767 109.097 124.06 109.616C124.249 109.945 124.37 110.309 124.508 110.621C124.335 110.777 124.266 110.88 124.215 110.863C122.974 110.655 122.371 111.279 121.768 112.335C119.958 115.521 117.994 118.604 116.047 121.721C115.288 122.933 114.427 124.059 113.634 125.202C113.841 125.877 114.048 126.5 114.272 127.245C113.703 127.314 113.29 127.453 112.945 127.366C112.238 127.21 111.859 127.557 111.48 128.042C108.206 132.302 104.639 136.285 100.727 139.973C100.624 140.06 100.572 140.181 100.469 140.337C100.744 141.081 101.02 141.843 101.33 142.675C100.365 143.038 99.5727 142.882 98.8317 142.657C98.1251 142.449 97.6599 142.64 97.1429 143.073C94.0583 145.67 90.767 147.956 87.2516 149.93C83.271 152.147 79.1352 154.017 74.6893 155.074C72.0528 155.697 69.399 156.338 66.7108 156.649C62.5061 157.134 58.2498 157.186 54.0796 156.355C52.4942 156.043 50.8571 156.026 49.3062 155.541C47.7381 155.056 46.1183 154.675 44.5674 154.156C42.9992 153.636 41.4483 153.065 39.9319 152.441C33.332 149.723 27.3868 145.913 21.9415 141.272C16.5305 136.666 11.9468 131.315 8.20737 125.271C6.38075 122.327 4.88155 119.193 3.58913 115.937C2.27948 112.577 1.34894 109.131 0.728583 105.616C-0.15026 100.594 -0.201957 95.5029 0.401171 90.429C0.969834 85.6494 2.05546 80.9911 3.60637 76.4541C3.95101 75.4324 3.96824 74.6877 3.00324 74.0297C2.69306 73.8219 2.5035 73.4409 2.26225 73.1292C2.31395 73.0253 2.34841 72.9041 2.38288 72.7655Z" fill="black"/>
</svg>
