<svg width="552" height="552" viewBox="0 0 552 552" fill="none" xmlns="http://www.w3.org/2000/svg">
<path d="M114.023 108.339C120.272 94.9133 131.305 83.1479 147.952 76.0692C156.446 72.4565 165.82 71.7243 175.584 72.5054C181.686 72.9936 187.837 73.677 193.94 74.0676C205.217 74.7999 216.152 74.2629 226.599 71.1384C235.289 68.551 244.272 66.8423 253.645 66.3542C271.757 65.3778 287.623 70.6014 301.341 82.9038C309.055 89.7873 316.817 96.6708 325.8 102.236C333.269 106.874 341.227 110.535 349.428 113.758C366.564 120.543 384.431 123.765 402.202 127.671C414.992 130.502 427.734 133.236 440.183 137.581C461.175 144.855 476.992 157.597 489.002 174.586C494.128 181.811 498.033 189.378 500.035 197.531C502.378 207.148 500.474 215.399 491.443 220.574C487.684 222.722 483.144 224.089 478.701 225.114C468.596 227.408 457.953 227.311 447.359 227.408C439.011 227.506 430.663 227.457 422.364 227.799C409.085 228.336 397.369 232.583 385.994 237.611C372.666 243.519 359.436 249.67 344.546 252.745C328.778 255.967 312.863 256.065 296.655 250.402C288.502 247.522 281.179 243.226 274.491 238.002C269.218 233.901 264.044 229.654 259.015 225.358C245.248 213.495 229.04 205.879 211.417 201.144C198.626 197.726 185.64 195.334 172.801 192.259C166.796 190.843 160.791 189.134 154.884 187.181C144.681 183.813 136.138 178.052 129.45 170.241C120.76 160.136 114.023 149.249 111.289 136.947C109.19 127.524 110.215 118.688 114.023 108.339ZM324.628 138.118C322.09 137.142 319.6 136.117 317.061 135.14C305.833 130.991 294.214 128.745 282.595 126.353C269.463 123.668 256.281 122.35 243.198 122.74C235.045 122.984 227.332 124.351 220.936 128.696C214.59 132.992 214.151 136.849 219.374 143.195C219.716 143.586 220.009 144.025 220.399 144.367C226.941 151.006 235.24 154.473 244.321 155.937C253.059 157.353 261.407 159.599 269.365 163.699C273.173 165.652 276.493 167.898 279.178 171.12C281.374 173.756 281.863 176.051 280.447 178.736C278.641 182.153 279.129 185.522 282.156 188.744C285.329 192.161 289.283 193.479 293.774 192.747C296.752 192.259 298.803 190.892 299.584 188.011C300.219 185.668 299.584 183.618 298.315 181.47C296.606 178.638 296.606 177.808 299.096 176.002C300.414 175.025 302.123 174.196 303.831 174.049C306.37 173.805 309.104 174 311.74 174.44C317.549 175.465 323.359 176.685 329.168 177.955C339.127 180.151 348.794 179.859 358.313 178.247C360.803 177.808 363.244 176.881 365.343 175.709C368.907 173.658 369.932 170.436 368.468 166.531C367.882 164.92 367.003 163.309 365.929 161.893C363.195 158.183 359.534 155.303 355.287 153.106C353.871 152.373 352.357 151.641 350.99 150.811C342.594 145.636 333.757 141.633 324.628 138.118Z" fill="black"/>
<path d="M320.674 479.803C301.537 490.641 280.789 497.622 258.772 501.332C231.14 505.97 202.972 506.8 174.071 500.941C154.348 496.938 135.309 490.006 117.49 477.801C90.1509 459.152 71.5996 433.229 61.2988 401.302C49.8752 365.957 49.2405 331.783 60.9083 299.758C73.4548 265.292 97.7178 245.276 131.794 237.904C152.493 233.462 173.876 233.657 195.698 236.488C220.01 239.613 244.029 245.52 267.706 255.137C294.556 266.024 319.6 280.963 340.837 303.566C357.923 321.727 370.177 342.621 375.108 367.031C381.21 397.347 374.717 423.173 359.095 445.385C349.136 459.445 336.785 470.283 320.674 479.803Z" fill="black"/>
</svg>
