<svg width="552" height="552" viewBox="0 0 552 552" fill="none" xmlns="http://www.w3.org/2000/svg">
<path d="M396.543 38.6396C410.731 39.4919 423.866 46.0594 432.639 60.2973C433.592 61.8514 434.544 63.4557 435.346 65.1101C437.201 69.1709 440.31 70.9757 444.721 71.2765C463.471 72.6301 478.962 85.7149 483.575 103.913C485.379 111.032 485.129 118.051 483.174 125.12C482.071 129.08 482.421 129.932 485.73 132.289C491.646 136.5 495.707 141.964 496.409 149.384C496.609 151.49 496.509 153.746 495.958 155.751C495.306 158.258 495.958 160.113 497.512 161.968C501.472 166.73 504.53 171.994 506.285 177.96C509.443 188.789 508.391 199.066 501.272 208.141C499.166 210.848 496.409 213.054 493.752 215.31C492.248 216.563 491.145 217.866 490.944 219.822C490.293 227.291 485.881 232.255 479.514 235.363C476.506 236.817 474.801 238.672 473.648 241.73C471.442 247.495 467.181 251.857 462.268 255.466C455.249 260.63 447.278 263.738 438.906 265.894C431.536 267.749 424.066 268.802 416.446 268.551C405.768 268.25 395.591 266.045 386.216 260.68C384.912 259.928 383.659 259.728 382.155 259.978C375.788 261.081 369.521 260.63 363.706 257.572C361.5 256.419 359.444 254.815 357.64 253.06C356.286 251.757 355.133 251.456 353.328 251.957C336.784 256.519 315.528 249.902 304.548 236.867C299.034 230.299 295.825 222.88 296.126 214.157C296.327 209.043 297.68 204.28 300.287 199.919C301.34 198.114 301.44 196.76 300.438 194.855C297.781 189.742 298.031 184.377 300.237 179.163C301.089 177.108 300.889 175.504 299.585 173.799C292.968 165.226 290.561 155.4 290.712 144.772C290.812 138.455 292.165 132.389 294.772 126.674C299.084 117.249 306.203 110.631 315.528 106.32C317.683 105.317 319.789 104.364 321.945 103.462C324.05 102.56 325.053 101.056 325.203 98.7495C325.755 90.4775 328.813 83.2583 334.679 77.3426C338.99 72.981 343.953 69.6221 349.668 67.4663C352.827 66.2631 354.932 64.4583 356.236 61.1997C360.146 51.4237 367.867 45.7085 377.342 41.9485C382.807 39.7927 388.522 38.6898 396.543 38.6396ZM384.762 166.029C384.912 159.662 383.258 154.097 379.999 148.933C377.543 145.023 374.234 142.015 369.872 140.46C366.363 139.207 363.004 139.558 359.996 141.864C356.587 144.521 355.484 148.281 355.233 152.392C354.882 158.057 356.336 163.321 358.442 168.435C360.447 173.398 363.004 178.111 367.616 181.169C374.986 186.032 379.999 183.575 382.807 176.807C384.311 173.298 384.862 169.588 384.762 166.029ZM456.202 161.517C455.801 159.561 455.6 157.456 454.898 155.601C453.344 151.44 449.534 149.585 445.273 150.788C443.618 151.239 442.014 151.991 440.51 152.843C437.302 154.698 434.795 157.406 432.539 160.313C428.478 165.577 426.022 171.593 424.618 178.01C423.415 183.475 426.523 187.536 432.088 187.937C434.494 188.087 436.75 187.786 438.856 186.583C446.325 182.322 451.539 176.155 454.548 168.084C455.299 166.079 455.65 163.823 456.202 161.517Z" fill="black"/>
<path d="M94.7904 381.753C92.4843 380.85 90.9302 379.948 89.2758 379.697C65.1115 375.837 51.4752 360.296 44.4064 338.287C39.2928 322.345 40.5461 306.553 49.3696 291.964C56.7893 279.731 68.2198 273.164 82.0064 270.306C83.8614 269.905 85.7163 269.454 88.7744 268.752C86.6187 266.346 85.2652 264.541 83.6108 263.037C77.1436 257.071 71.8796 250.203 68.0193 242.282C61.5019 228.946 59.6971 215.16 64.4598 200.872C70.2752 183.475 85.0645 174.451 103.263 177.008C115.245 178.713 125.121 184.729 134.546 191.797C136.551 193.301 138.507 194.906 141.264 197.011C142.367 194.655 143.219 193.001 143.821 191.296C145.275 187.436 146.378 183.375 148.082 179.615C159.613 154.699 187.938 147.881 209.646 164.725C221.778 174.15 228.195 187.085 231.805 201.624C232.707 205.283 233.159 209.043 234.161 212.653C235.465 217.165 237.069 217.867 241.631 216.363C243.336 215.811 244.94 215.059 246.544 214.307C263.84 206.035 280.986 212.152 289.107 229.548C292.968 237.77 294.121 246.543 293.87 255.567C293.82 256.77 293.67 257.923 293.619 259.127C293.419 264.842 295.023 265.995 300.337 263.588C307.456 260.33 314.826 258.324 322.747 259.026C335.832 260.179 345.507 269.153 347.713 282.138C349.618 293.217 347.463 303.795 343.753 314.173C342.75 316.98 341.447 319.637 340.494 322.445C339.491 325.453 340.293 326.907 343.402 327.609C344.906 327.96 346.56 327.909 348.114 328.01C363.004 329.012 373.031 338.638 374.535 353.578C375.838 366.161 371.627 377.441 365.16 387.869C359.595 396.793 352.927 404.864 344.003 410.73C343.502 411.081 343.001 411.382 342.55 411.783C334.729 418.049 334.779 420.305 342.7 426.522C343.803 427.374 344.906 428.176 346.009 429.028C349.819 432.187 349.719 434.343 345.708 437.451C341.196 440.91 336.634 444.419 332.172 447.929C328.412 450.836 327.209 450.536 325.203 446.174C323.9 443.316 322.697 440.308 320.892 437.802C318.586 434.643 316.43 434.944 314.525 438.203C314.224 438.704 313.973 439.256 313.773 439.807C307.707 457.354 294.672 468.483 278.98 476.956C270.909 481.318 262.436 484.526 253.262 485.579C243.586 486.732 234.362 485.378 225.689 480.716C221.026 478.159 220.374 478.36 216.564 482.27C209.746 489.138 202.126 494.503 192.25 496.157C186.585 497.11 181.12 496.708 176.207 493.6C172.998 491.545 170.241 491.745 166.782 493.199C153.296 498.914 139.459 500.819 125.071 496.809C90.4288 487.083 70.5259 454.647 77.7451 419.403C80.1515 407.621 85.2149 396.943 91.6821 386.866C92.5845 385.463 93.3867 384.109 94.7904 381.753Z" fill="black"/>
</svg>
