<svg width="552" height="552" viewBox="0 0 552 552" fill="none" xmlns="http://www.w3.org/2000/svg">
<path d="M342.843 460.864C332.886 461.22 323.064 459.888 313.732 456.78C302.883 453.184 292.256 448.699 281.675 444.393C276.808 442.395 272.209 439.82 267.477 437.511C259.351 433.56 250.734 432.672 241.893 433.382C230.642 434.315 219.391 435.513 208.095 436.357C197.825 437.156 187.735 435.647 177.778 433.16C157.419 428.01 141.345 416.156 127.281 401.283C116.967 390.361 108.663 378.063 102.948 364.078C102.01 361.814 100.849 360.304 98.2597 359.327C92.009 356.93 90.5803 352.756 93.661 346.852C94.8219 344.587 94.8219 342.412 94.3308 340.014C92.9467 333.088 91.5624 326.162 90.3569 319.192C89.9104 316.75 88.8836 314.885 87.1423 313.109C81.3381 307.249 81.4719 305.118 86.8297 298.947C87.9013 297.704 88.4817 295.795 88.6157 294.152C89.33 285.849 89.7765 277.503 90.3569 269.2C90.4908 267.38 90.7589 265.782 89.1962 264.184C86.0708 261.031 86.4725 257.213 89.2407 254.416C93.6609 249.976 94.6879 244.427 95.8488 238.744C96.5631 235.37 97.2775 231.995 98.483 228.799C99.8224 225.203 99.9116 222.139 97.7239 218.676C95.804 215.657 97.5454 211.661 101.474 210.374C105.359 209.086 106.788 206.467 108.172 203.181C110.538 197.676 113.306 192.348 115.673 186.888C116.164 185.733 116.074 184.135 115.673 182.892C113.931 177.608 115.807 173.124 121.254 172.059C124.915 171.304 126.969 169.351 128.889 166.642C130.451 164.422 132.014 162.158 133.845 160.16C136.3 157.408 138.354 154.744 138.041 150.615C137.818 147.418 139.827 145.598 143.712 145.198C150.632 144.488 154.74 140.448 157.642 134.632C158.803 132.323 160.723 130.68 163.178 130.769C166.616 130.858 169.072 129.171 171.706 127.617C174.073 126.241 176.573 125.086 178.716 123.399C180.636 121.89 182.556 120.114 183.761 118.027C186.574 113.055 187.333 112.655 192.78 113.898C194.388 114.253 196.397 114.12 197.959 113.587C203.406 111.589 208.809 109.458 214.122 107.061C215.595 106.395 216.935 104.93 217.828 103.509C221.266 98.137 223.632 97.4266 229.57 100.135C230.776 100.668 232.338 100.845 233.678 100.623C237.786 99.9129 241.893 98.8473 246.001 98.0482C248.189 97.6042 249.439 96.361 250.466 94.4519C252.743 90.1898 254.127 89.3018 257.609 91.7881C264.083 96.4498 270.87 94.1412 277.612 93.8748C278.951 93.8304 280.469 92.5873 281.586 91.5218C285.604 87.5704 288.506 87.1264 292.301 91.0333C294.712 93.5196 297.436 94.1856 300.561 94.5408C305.606 95.0736 310.652 95.9615 315.697 96.361C317.349 96.4942 319.269 96.0946 320.787 95.3399C325.207 93.12 326.859 93.342 329.002 97.7817C330.118 100.135 331.636 101.422 334.092 102.221C339.45 103.997 344.718 105.995 350.031 107.949C351.996 108.659 353.737 108.792 355.791 107.904C359.809 106.217 362.265 106.972 363.739 110.79C364.855 113.72 366.864 115.008 369.364 116.207C374.588 118.737 379.767 121.446 385.036 123.932C386.42 124.598 388.161 124.775 389.724 124.731C393.876 124.598 395.573 125.264 396.734 129.082C397.582 131.879 399.323 133.744 401.377 135.608C406.11 139.871 410.753 144.222 415.531 148.439C416.691 149.416 418.209 150.126 419.727 150.526C424.416 151.769 426.023 153.057 426.291 157.896C426.469 160.915 427.809 162.957 429.639 165.044C432.006 167.797 434.327 170.594 436.381 173.568C437.631 175.389 439.194 176.054 441.248 176.587C444.686 177.475 445.668 178.63 445.088 182.048C444.552 185.289 445.623 187.642 447.365 190.084C448.526 191.727 449.508 193.503 450.222 195.323C451.026 197.365 452.41 198.386 454.419 199.186C458.616 200.873 458.795 201.317 457.946 205.712C457.321 208.864 457.455 211.75 459.375 214.547C460.357 216.012 460.849 217.833 461.518 219.564C462.635 222.494 463.929 224.892 467.189 226.401C471.028 228.222 471.832 231.507 470.135 235.592C469.019 238.3 468.974 240.742 469.867 243.494C470.76 246.247 471.207 249.133 472.011 251.93C472.591 253.795 473.127 255.792 474.288 257.346C476.208 259.921 476.029 262.452 475.806 265.515C475.449 270.488 476.252 275.549 476.609 280.566C476.654 281.055 477.056 281.587 477.458 281.898C481.208 285.006 480.851 288.336 478.261 291.932C477.636 292.775 477.056 293.841 477.011 294.862C476.609 300.456 476.297 306.095 476.208 311.689C476.208 313.154 477.011 314.752 477.815 316.084C480.226 319.902 480.226 322.255 476.833 325.052C474.823 326.695 473.886 328.604 473.439 331.002C472.948 333.666 472.323 336.329 471.653 338.949C471.073 341.258 470.716 343.389 472.412 345.609C474.154 347.828 473.439 350.181 471.341 351.869C463.17 358.484 461.92 368.784 457.723 377.441C457.009 378.907 457.545 380.993 457.634 382.814C457.812 386.809 457.277 388.008 453.437 389.34C451.383 390.05 450.044 391.027 448.972 392.936C447.365 395.778 445.266 398.308 443.659 401.15C442.364 403.458 441.114 405.989 440.623 408.564C439.774 412.693 437.676 415.224 433.836 417C431.113 418.243 428.568 420.196 426.425 422.327C416.29 432.317 405.529 441.463 392.849 448.211C378.428 455.803 363.203 460.243 346.861 460.82C345.388 460.731 344.138 460.82 342.843 460.864Z" fill="#111111"/>
</svg>
